<?xml version="1.0" standalone="no"?>
<!DOCTYPE svg PUBLIC "-//W3C//DTD SVG 1.1//EN" "http://www.w3.org/Graphics/SVG/1.1/DTD/svg11.dtd" >
<svg xmlns="http://www.w3.org/2000/svg" xmlns:xlink="http://www.w3.org/1999/xlink" version="1.1">
<metadata></metadata>
<defs>
<font id="genathlight_italic" horiz-adv-x="937" >
<font-face units-per-em="2048" ascent="1585" descent="-463" />
<missing-glyph horiz-adv-x="450" />
<glyph unicode="&#xfb01;" horiz-adv-x="942" d="M-340 -348q0 37 20.5 57.5t49.5 20.5q16 0 28 -6l76 -150q91 0 150 92q67 108 118 330l181 784h-197l10 49h197q77 325 215 463q109 109 240 109q83 0 131.5 -33t48.5 -82q0 -35 -20.5 -56.5t-49.5 -21.5q-18 0 -31 9l-104 141h-10q-35 0 -68 -20.5t-57.5 -49.5 t-49.5 -78t-40.5 -86t-34 -96.5t-25.5 -86.5t-20 -77l-8 -35h227l123 56q40 0 63 -20t23 -54q0 -37 -35 -123l-158 -391q-55 -130 -55 -176q0 -45 35 -45q69 0 196 190l33 -20q-164 -271 -315 -271q-37 0 -58.5 19.5t-21.5 54.5q0 55 51 182l162 412q29 79 29 105 q0 11 -8.5 21t-22.5 11h-279l-198 -811q-60 -241 -168 -346q-93 -90 -221 -90q-70 0 -111 32.5t-41 86.5z" />
<glyph unicode="&#xfb02;" horiz-adv-x="962" d="M-338 -348q0 37 20.5 57.5t49.5 20.5q16 0 28 -6l74 -150q91 0 150 92q67 108 118 330l181 784h-197l10 49h197q77 325 215 463q109 109 240 109q75 0 129 -33l153 37l17 -23l-371 -1083q-49 -144 -49 -178q0 -45 35 -45q64 0 196 190l33 -20q-164 -271 -320 -271 q-73 0 -73 78q0 18 4.5 41t14 55t17.5 55.5t23 67t23 66.5l297 881l-154 139h-10q-35 0 -68 -20.5t-57.5 -49.5t-49.5 -78t-40.5 -86t-34 -96.5t-25.5 -86.5t-20 -77l-8 -35h186l-12 -49h-185l-198 -811q-60 -241 -168 -346q-93 -90 -219 -90q-70 0 -111 32.5t-41 86.5z" />
<glyph unicode="&#xfb03;" horiz-adv-x="1355" d="M-340 -348q0 37 20.5 57.5t49.5 20.5q16 0 28 -6l76 -150q91 0 150 92q67 108 118 330l181 784h-197l10 49h197q46 194 110 299q61 100 143.5 156.5t180.5 56.5q62 0 106 -20.5t64 -54.5l25 26q109 109 239 109q83 0 131.5 -33t48.5 -82q0 -36 -20 -57t-49 -21 q-18 0 -31 9l-104 141h-11q-35 0 -68 -20.5t-57.5 -49.5t-49.5 -78t-40.5 -86t-34 -96.5t-25.5 -86.5t-20 -77l-8 -35h228l123 56q40 0 63 -20t23 -54q0 -37 -35 -123l-158 -391q-55 -130 -55 -176q0 -45 35 -45q69 0 196 190l33 -20q-164 -271 -315 -271q-37 0 -58.5 19.5 t-21.5 54.5q0 55 51 182l162 412q28 76 28 105q0 12 -8 21.5t-22 10.5h-279l-199 -811q-60 -241 -168 -346q-43 -42 -100.5 -66t-116.5 -24q-65 0 -102 29t-37 80q0 34 19 51.5t45 17.5q16 0 28 -6l66 -133q89 0 149 94q69 110 119 330l180 784h-297l-198 -811 q-60 -241 -168 -346q-93 -90 -221 -90q-70 0 -111 32.5t-41 86.5zM410 829h297q48 207 120 338l-118 131h-13q-35 0 -67 -16.5t-55 -39t-46 -64.5t-36.5 -74t-31 -87.5t-25 -84.5t-21.5 -86z" />
<glyph unicode="&#xfb04;" horiz-adv-x="1376" d="M-340 -348q0 37 20.5 57.5t49.5 20.5q16 0 28 -6l76 -150q91 0 150 92q67 108 118 330l181 784h-197l10 49h197q46 194 110 299q61 100 143.5 156.5t180.5 56.5q62 0 106 -20.5t64 -54.5l25 26q109 109 239 109q75 0 129 -33l154 37l16 -23l-370 -1083q-50 -147 -50 -178 q0 -45 35 -45q65 0 197 190l33 -20q-164 -271 -320 -271q-74 0 -74 78q0 18 4.5 41t14 55t17.5 55.5t23 67t23 66.5l297 881l-153 139h-11q-35 0 -68 -20.5t-57.5 -49.5t-49.5 -78t-40.5 -86t-34 -96.5t-25.5 -86.5t-20 -77l-8 -35h187l-13 -49h-184l-199 -811 q-60 -241 -168 -346q-43 -42 -100.5 -66t-116.5 -24q-65 0 -102 29t-37 80q0 34 19 51.5t45 17.5q16 0 28 -6l66 -133q89 0 149 94q69 110 119 330l180 784h-297l-198 -811q-60 -241 -168 -346q-93 -90 -221 -90q-70 0 -111 32.5t-41 86.5zM410 829h297q48 207 120 338 l-118 131h-13q-35 0 -67 -16.5t-55 -39t-46 -64.5t-36.5 -74t-31 -87.5t-25 -84.5t-21.5 -86z" />
<glyph horiz-adv-x="0" />
<glyph horiz-adv-x="682" />
<glyph horiz-adv-x="0" />
<glyph horiz-adv-x="0" />
<glyph unicode="&#xd;" horiz-adv-x="0" />
<glyph unicode=" "  horiz-adv-x="450" />
<glyph unicode="&#x09;" horiz-adv-x="450" />
<glyph unicode="&#xa0;" horiz-adv-x="450" />
<glyph unicode="!" horiz-adv-x="462" d="M25 72q0 39 27.5 66.5t66.5 27.5q40 0 67 -27t27 -67t-27 -67.5t-67 -27.5q-39 0 -66.5 27.5t-27.5 67.5zM172 385q29 190 80.5 444.5t79.5 356.5q7 28 9.5 35.5t9.5 30t14 30.5t18.5 20t27 16.5t35.5 4.5q52 0 52 -49q0 -20 -15 -78q-24 -89 -113 -346t-167 -465h-31z " />
<glyph unicode="&#x22;" horiz-adv-x="626" d="M225 852l97 530h143l-199 -530h-41zM524 852l97 530h143l-199 -530h-41z" />
<glyph unicode="#" horiz-adv-x="1347" d="M47 403l21 64h282l164 416h-317l20 63h324l168 422h71l-168 -422h451l168 422h72l-168 -422h251l-20 -63h-258l-164 -416h293l-20 -64h-299l-173 -436h-71l172 436h-451l-172 -436h-71l172 436h-277zM422 467h450l164 416h-450z" />
<glyph unicode="$" horiz-adv-x="1011" d="M-8 35l74 362h32v-18q0 -106 44 -190.5t134 -122.5l162 608q-71 69 -115 142.5t-44 164.5q0 75 28 134.5t75.5 97t103.5 60t120 30.5l31 114h45l-31 -110h19q61 0 139 -19l35 129h45l-37 -141q66 -22 121 -59l26 49h37l-63 -334h-33v16q0 181 -109 256l-147 -555 q43 -43 66.5 -69t52 -66t41 -81t12.5 -87q0 -136 -96.5 -230.5t-251.5 -119.5l-35 -135h-45l35 129q-18 -2 -57 -2q-50 0 -105 10l-35 -137h-45l39 143q-102 27 -190 88l-43 -57h-35zM317 51q48 -10 95 -10q25 0 65 4l125 469l-53 51l-76 74zM410 1034q0 -100 73 -186 l107 397q-84 -19 -132 -74t-48 -137zM520 809l45 -45l82 -80l146 543q-53 26 -127 26q-19 0 -29 -2zM524 55q91 26 147 87t56 149q0 85 -90 186z" />
<glyph unicode="%" horiz-adv-x="1495" d="M145 -45l1198 1376h68l-1198 -1376h-68zM162 768q0 76 24 166.5t66.5 174.5t112.5 140t151 56q76 0 119 -54.5t43 -156.5q0 -78 -23 -167t-65 -171.5t-111.5 -136.5t-152.5 -54q-85 0 -124.5 56.5t-39.5 146.5zM248 700q0 -102 80 -102q60 0 112.5 67.5t84 162.5 t49.5 187t18 152q0 49 -19.5 77t-58.5 28q-46 0 -89 -44.5t-74 -112.5t-55 -147t-36 -149.5t-12 -118.5zM883 180q0 76 24 166.5t66.5 174.5t112.5 140t151 56q76 0 119 -54.5t43 -156.5q0 -78 -23 -167t-65 -171.5t-111.5 -136.5t-152.5 -54q-85 0 -124.5 56.5t-39.5 146.5 zM969 113q0 -103 80 -103q60 0 112.5 67.5t84 163t49.5 187.5t18 152q0 49 -19.5 76.5t-58.5 27.5q-56 0 -108.5 -67t-85.5 -161.5t-52.5 -188t-19.5 -154.5z" />
<glyph unicode="&#x26;" horiz-adv-x="1662" d="M121 412q0 110 53.5 202.5t132.5 153.5q-14 54 -14 102q0 116 80.5 199.5t187.5 83.5q70 0 112 -29.5t42 -72.5q0 -32 -21 -53t-49 -21q-12 0 -20 2h2l-127 98q-70 -18 -115 -79t-45 -130q0 -42 10 -71q85 63 180 63q66 0 108 -32.5t42 -90.5q0 -62 -44.5 -105.5 t-117.5 -43.5q-68 0 -117.5 42t-76.5 97q-144 -112 -144 -291q0 -157 122 -263.5t321 -106.5q122 0 232 39t188.5 104t124.5 152t46 180q0 115 -67 180t-166 65q-72 0 -123 -44.5t-51 -104.5q0 -50 27 -80.5t55 -32.5l20 19q-26 29 -26 71q0 41 25.5 70t68.5 29t69.5 -29.5 t26.5 -75.5q0 -58 -42.5 -95.5t-106.5 -37.5q-71 0 -118.5 51t-47.5 144q0 130 104 223q96 86 240 86q61 0 210.5 -24.5t229.5 -24.5q195 0 195 131l-144 35q-24 14 -24 51q0 28 18.5 47.5t52.5 19.5q54 0 93 -46t39 -134q0 -107 -62 -157q-60 -48 -180 -48q-75 0 -239 27 t-218 27q-127 0 -194 -86l8 -6q20 12 29 17t38.5 13t63.5 8q58 0 109.5 -17.5t95.5 -52.5t70 -96t26 -141q0 -116 -56.5 -219t-149.5 -175t-216 -113.5t-254 -41.5q-236 0 -379 120.5t-143 318.5zM362 754q36 -86 119 -86q38 0 62 20t24 51q0 30 -23.5 47t-60.5 17 q-63 0 -121 -49z" />
<glyph unicode="'" horiz-adv-x="327" d="M225 852l97 530h143l-199 -530h-41z" />
<glyph unicode="(" horiz-adv-x="538" d="M41 217q0 232 79.5 450.5t231.5 389.5q159 183 375 280l8 -20q-289 -200 -444.5 -505.5t-155.5 -676.5q0 -157 39.5 -302.5t106.5 -258.5q-3 -3 -21 -12q-219 279 -219 655z" />
<glyph unicode=")" horiz-adv-x="536" d="M-236 -418q289 200 445 505.5t156 676.5q0 157 -39.5 302.5t-106.5 258.5q3 3 21 12q219 -279 219 -655q0 -232 -80 -450.5t-232 -389.5q-160 -184 -374 -280z" />
<glyph unicode="*" horiz-adv-x="1021" d="M215 1030q-4 63 33 119l356 -158l-233 314q44 44 106 57l141 -363l58 385q65 4 119 -32l-158 -357l313 234q49 -53 58 -107l-357 -141l379 -57q0 -72 -33 -119l-352 153l229 -309q-52 -48 -106 -57l-141 356l-58 -379q-71 0 -118 33l155 354l-311 -231q-44 44 -57 106 l360 142z" />
<glyph unicode="+" horiz-adv-x="1169" d="M68 465v63h477v496h67v-496h478v-63h-478v-494h-67v494h-477z" />
<glyph unicode="," horiz-adv-x="421" d="M-66 -338q90 53 148.5 143.5t58.5 169.5q0 21 -2 29q-21 -16 -55 -16q-39 0 -63.5 24.5t-24.5 63.5q0 38 26.5 63t67.5 25q54 0 88.5 -41t34.5 -117q0 -112 -78 -218.5t-190 -152.5z" />
<glyph unicode="-" horiz-adv-x="729" d="M109 475l20 74h483l-20 -74h-483z" />
<glyph unicode="." horiz-adv-x="395" d="M-6 72q0 39 27.5 66.5t66.5 27.5q40 0 67 -27t27 -67t-27 -67.5t-67 -27.5q-38 0 -66 27.5t-28 67.5z" />
<glyph unicode="/" horiz-adv-x="778" d="M-96 -150l942 1543h84l-940 -1543h-86z" />
<glyph unicode="0" d="M68 319q0 137 49 320q46 170 110 299t125 200t129 115t116 57t91 13q34 0 65.5 -8t65.5 -31.5t59 -60.5t41.5 -100.5t16.5 -145.5q0 -152 -51 -338q-33 -122 -74.5 -222.5t-84 -167.5t-90 -118.5t-89.5 -80t-86 -46.5t-75.5 -23.5t-61.5 -5.5q-32 0 -62.5 6.5t-67 29 t-63.5 58t-45 100.5t-18 150zM182 205q0 -185 146 -185q69 0 129.5 44t110.5 129t90.5 190.5t80.5 247.5q88 312 88 454q0 193 -145 193q-60 0 -113 -33t-94 -87.5t-80 -140t-68.5 -174t-62.5 -206.5q-82 -298 -82 -432z" />
<glyph unicode="1" d="M90 -2l12 51l209 27l291 1081l-231 8l6 27q82 22 172.5 53t140.5 51l49 21h37l-334 -1241l211 -27l-14 -51q-95 6 -264 6q-183 0 -285 -6z" />
<glyph unicode="2" d="M-102 0l8 27q28 24 108.5 87.5t162 130.5t151.5 130q469 420 469 684q0 79 -43.5 124.5t-130.5 45.5q-97 0 -181 -66.5t-139 -158.5l-35 24q30 55 67.5 102t90 90.5t122.5 69t148 25.5q119 0 181.5 -60t62.5 -157q0 -66 -25.5 -136t-61 -126.5t-93 -122t-100 -107 t-103.5 -96.5q-153 -140 -356 -301l-115 -92h408q24 0 44.5 2.5t35 5.5t30.5 11.5t24 13t23 19t20.5 20t22.5 25t23 26.5l33 41h36q-23 -51 -69 -145.5t-70 -145.5h-6q-29 10 -149 10h-594z" />
<glyph unicode="3" d="M-31 94q0 36 23 57t57 21q32 0 53 -18l86 -134h31q123 0 225 65t155.5 160.5t53.5 194.5q0 214 -211 242l-4 16l2 2q114 54 219 142q138 114 138 248q0 70 -44 107.5t-112 37.5q-176 0 -297 -191l-31 23q56 105 158.5 177.5t220.5 72.5q105 0 165.5 -53t60.5 -140 q0 -206 -332 -376q31 -8 62 -27t63.5 -51t52.5 -83t20 -112q0 -145 -88 -261t-223 -176.5t-283 -60.5q-101 0 -161 31.5t-60 85.5z" />
<glyph unicode="4" d="M-12 395l8 37l821 875h45l-217 -813h264l-55 -99h-236l-118 -444h-125l119 444h-506zM121 494h399l103 383l63 223h-2q-80 -89 -135 -148z" />
<glyph unicode="5" d="M-39 94q0 36 23 57t57 21q32 0 53 -18l86 -134q19 -2 29 -2q119 0 222.5 62.5t163.5 164t60 212.5q0 122 -69 182.5t-180 60.5q-70 0 -132 -18l-20 10l215 586h479l74 90h31l-97 -213h-485l-135 -369q45 17 117 17q69 0 129 -18.5t107.5 -55t74.5 -97t27 -138.5 q0 -94 -35.5 -177.5t-96 -144.5t-139 -106t-165 -67t-173.5 -22q-101 0 -161 31.5t-60 85.5z" />
<glyph unicode="6" d="M66 268q0 140 49 283t136 268t200.5 232.5t247.5 186t272 118.5l10 -39q-202 -78 -372.5 -236t-272.5 -354l6 -4q112 100 254 100q120 0 182 -70.5t62 -199.5q0 -105 -40 -209.5t-107.5 -186t-164 -132t-202.5 -50.5q-125 0 -192.5 68.5t-67.5 224.5zM170 215 q0 -205 170 -205q99 0 185.5 86t134 212.5t47.5 252.5q0 92 -41.5 149.5t-124.5 57.5q-65 0 -132 -39.5t-110 -87.5q-49 -74 -89 -198.5t-40 -227.5z" />
<glyph unicode="7" d="M0 0q0 17 16 41q23 35 187 217q167 184 380 436t378 461h-408q-63 0 -107.5 -21t-97.5 -63q-14 -11 -76 -74h-30l198 363h31l-2 -82h625q0 -1 1 -4t1 -4l-174 -236q-609 -835 -762 -1020q-39 -47 -97 -47q-63 0 -63 33z" />
<glyph unicode="8" d="M23 207q0 69 27 133.5t68.5 113t100 92.5t114.5 74.5t118 55.5q-93 86 -136 163t-43 162q0 139 117.5 239.5t280.5 100.5q130 0 206 -57.5t76 -161.5q0 -239 -348 -409q97 -91 142 -169.5t45 -164.5q0 -109 -57 -200.5t-165 -147.5t-245 -56q-140 0 -220.5 61t-80.5 171z M129 225q0 -99 57 -153t152 -54q138 0 227.5 96t89.5 238q0 84 -45.5 154.5t-132.5 144.5q-29 -15 -45.5 -24.5t-57.5 -36t-68.5 -49.5t-64 -60t-58.5 -73.5t-38 -84.5t-16 -98zM397 1051q0 -83 33 -144t109 -133l41 -37q115 62 196.5 165.5t81.5 213.5q0 85 -54 133.5 t-149 48.5q-111 0 -184.5 -71.5t-73.5 -175.5z" />
<glyph unicode="9" d="M25 -25q202 78 372.5 236t272.5 354l-6 4q-112 -100 -254 -100q-120 0 -182 70.5t-62 199.5q0 105 40 209.5t107.5 186t164 132t202.5 50.5q125 0 192.5 -68.5t67.5 -224.5q0 -140 -49 -283t-136 -267.5t-200.5 -232t-247.5 -186t-272 -118.5zM299 731q0 -92 41.5 -149.5 t124.5 -57.5q65 0 132 39.5t110 87.5q49 74 89 198.5t40 227.5q0 205 -170 205q-99 0 -185.5 -86t-134 -212.5t-47.5 -252.5z" />
<glyph unicode=":" horiz-adv-x="444" d="M12 72q0 39 27.5 66.5t66.5 27.5q40 0 67.5 -27t27.5 -67t-27.5 -67.5t-67.5 -27.5q-38 0 -66 27.5t-28 67.5zM176 711q0 39 27.5 66.5t66.5 27.5q40 0 67.5 -27t27.5 -67t-27.5 -67.5t-67.5 -27.5q-38 0 -66 28t-28 67z" />
<glyph unicode=";" horiz-adv-x="487" d="M-33 -338q90 53 148.5 143.5t58.5 169.5q0 21 -2 29q-21 -16 -55 -16q-39 0 -63.5 24.5t-24.5 63.5q0 38 26.5 63t67.5 25q54 0 88.5 -41t34.5 -117q0 -112 -78.5 -218t-190.5 -153zM182 711q0 39 27.5 66.5t66.5 27.5q40 0 67.5 -27t27.5 -67t-27.5 -67.5t-67.5 -27.5 q-38 0 -66 28t-28 67z" />
<glyph unicode="&#x3c;" horiz-adv-x="1366" d="M119 616v107l4 4l1079 455v-70l-1036 -438v-6l1036 -439v-69l-1079 452z" />
<glyph unicode="=" horiz-adv-x="1417" d="M172 311v64h1045v-64h-1045zM172 590v63h1045v-63h-1045z" />
<glyph unicode="&#x3e;" horiz-adv-x="1357" d="M238 160v69l1036 439v6l-1036 438v70l1079 -455l4 -4v-107l-4 -4z" />
<glyph unicode="?" horiz-adv-x="747" d="M104 72q0 39 28 66.5t67 27.5q40 0 67 -27t27 -67t-27 -67.5t-67 -27.5q-39 0 -67 28t-28 67zM178 625q0 31 14 59t31.5 48t53 43.5t60.5 37t71 37.5l47 24q61 32 101.5 58.5t83 64.5t64 85t21.5 102q0 83 -47 128.5t-131 45.5q-17 0 -49 -4l-115 -178q-12 -9 -31 -9 q-24 0 -39.5 16t-15.5 46q0 67 79.5 115.5t178.5 48.5q119 0 195.5 -63t76.5 -171q0 -38 -11 -74t-25.5 -63.5t-43 -57t-50 -48.5t-61.5 -45.5t-62 -39.5t-66 -38l-43 -23q-43 -22 -62 -32.5t-50 -29.5t-44 -33t-24 -33.5t-11 -39.5q0 -44 32 -67t79 -23q38 0 76 10l6 -26 q-61 -23 -117 -23q-72 0 -122 40t-50 112z" />
<glyph unicode="@" horiz-adv-x="1572" d="M160 633q0 161 58 304t155.5 242.5t230 157.5t277.5 58q134 0 240.5 -45t171.5 -121.5t98.5 -170t33.5 -196.5q0 -80 -19 -159.5t-56.5 -150.5t-89 -126t-121 -87t-146.5 -32q-131 0 -131 107q0 28 8.5 64t16.5 59.5t21 56.5t14 35l-9 2q-66 -140 -152.5 -235t-170.5 -95 q-94 0 -94 127q0 110 61.5 252t151.5 233q126 129 233 129q35 0 57 -13t41 -44l33 80q22 14 46.5 13t29.5 -11l-148 -430q-49 -134 -49 -199q0 -41 17.5 -59.5t66.5 -18.5q109 0 199 103q64 73 102.5 180t38.5 229q0 205 -136 340.5t-355 135.5q-146 0 -270.5 -63.5 t-206 -168t-127 -235.5t-45.5 -269q0 -274 167 -445t426 -171q87 0 169.5 22t165 68.5t153.5 132t119 201.5l34 -37q-83 -206 -263.5 -321t-381.5 -115q-139 0 -262 51t-211.5 140.5t-140 218t-51.5 276.5zM596 494q0 -105 59 -105q48 0 108.5 67.5t107.5 151.5t85 174 l48 111q-10 30 -36.5 57t-66.5 27q-107 0 -203 -158q-45 -78 -73.5 -168.5t-28.5 -156.5z" />
<glyph unicode="A" horiz-adv-x="1134" d="M-135 -2l12 51l154 27l631 1050l-11 111q81 29 119 82h18l101 -1243l147 -27l-14 -51q-94 6 -205 6q-169 0 -274 -6l10 51l192 27l-26 354h-422l-209 -354l188 -27l-12 -51q-95 6 -227 6q-70 0 -172 -6zM326 473h389l-27 315l-18 263q-70 -115 -109 -181z" />
<glyph unicode="B" horiz-adv-x="1161" d="M-74 0l13 49l200 27l307 1143l-186 28l12 47h473q156 0 252 -41q144 -62 144 -215q0 -98 -52.5 -175.5t-133.5 -120t-177 -52.5l-2 -4q109 -20 176.5 -89.5t67.5 -184.5q0 -71 -29.5 -140.5t-79.5 -121.5q-143 -150 -479 -150h-506zM283 68q8 -1 68 -13t75 -12h80 q90 0 149.5 25t108.5 73q104 104 104 265q0 103 -63 163q-82 74 -281 74h-86zM449 682h88q135 0 218 29t140 86q102 105 102 264q0 190 -202 190q-40 2 -50 0l-151 -24z" />
<glyph unicode="C" horiz-adv-x="1228" d="M125 504q0 116 32 232t95.5 220.5t151 185.5t207.5 129t255 48q108 0 195 -24.5t141 -59.5l29 57h39l-58 -325h-30q-6 152 -92.5 227.5t-223.5 75.5q-112 0 -210 -52.5t-166 -137t-117.5 -190.5t-73 -213.5t-23.5 -205.5q0 -208 89 -325t258 -117q85 0 157 25.5 t125.5 72.5t91.5 96.5t74 114.5l35 -6l-117 -320h-39l2 54q-167 -91 -344 -91q-221 0 -352 135.5t-131 393.5z" />
<glyph unicode="D" horiz-adv-x="1413" d="M-72 0l13 47l198 29l305 1143l-182 30l12 45h508q96 0 179 -15t158 -49.5t128.5 -87.5t85 -134t31.5 -183q0 -152 -56 -303t-159 -262q-131 -140 -325.5 -200t-458.5 -60h-437zM285 76q12 -2 73.5 -17.5t79.5 -15.5q202 0 358.5 72t250.5 209q73 107 115 252t42 274 q0 195 -111 298t-309 103h-12l-182 -32z" />
<glyph unicode="E" horiz-adv-x="1210" d="M-72 0l13 49l198 27l305 1143l-184 28l14 47h936l-26 -270h-25l-57 139q-25 62 -41 78q-10 8 -35 8h-426l-151 -561h319q18 0 27 4.5t18 18.5l102 149h29l-108 -405h-29l-19 161q-1 14 -8.5 18.5t-23.5 4.5h-320l-149 -563l190 -31h225q54 0 81 6.5t70 39.5t112 108 l94 104h28l-116 -303h-1043z" />
<glyph unicode="F" horiz-adv-x="1091" d="M-72 -2l13 51l198 27l305 1143l-184 28l14 47h936l-26 -270h-25l-57 139q-25 62 -41 78q-10 8 -35 8h-426l-151 -561h342q18 0 27 4.5t18 18.5l102 149h29l-109 -405h-29l-18 161q-1 14 -9 18.5t-24 4.5h-342l-149 -563l207 -27l-15 -51q-95 6 -280 6q-169 0 -271 -6z " />
<glyph unicode="G" horiz-adv-x="1366" d="M127 518q0 96 24.5 193.5t69 186t111 166t147 134t181.5 89t210 32.5t196.5 -24.5t141.5 -59.5l29 57h39l-57 -325h-31q-6 152 -92.5 227.5t-223.5 75.5q-112 0 -210.5 -51t-167 -133.5t-118.5 -186.5t-73.5 -211.5t-23.5 -206.5q0 -452 366 -452q57 0 109 8l129 39 l123 461l-205 28l14 47q94 -6 275 -6q141 0 243 6l-12 -47l-170 -28l-117 -435l121 25l10 -37q-22 -14 -82 -37.5t-188.5 -50.5t-259.5 -27q-242 0 -375 135.5t-133 407.5z" />
<glyph unicode="H" horiz-adv-x="1417" d="M-72 -2l13 51l198 27l307 1143l-184 28l12 49q94 -6 258 -6q167 0 269 6l-10 -49l-197 -28l-145 -529h612l141 529l-184 28l12 49q94 -6 262 -6q158 0 260 6l-10 -49l-196 -28l-304 -1143l183 -27l-15 -51q-94 6 -266 6q-158 0 -260 -6l12 51l199 27l152 563h-611 l-149 -563l182 -27l-14 -51q-95 6 -256 6q-169 0 -271 -6z" />
<glyph unicode="I" horiz-adv-x="663" d="M-72 -2l13 51l198 27l307 1143l-184 28l12 49q94 -6 258 -6q167 0 269 6l-10 -49l-197 -28l-307 -1143l182 -27l-14 -51q-95 6 -256 6q-169 0 -271 -6z" />
<glyph unicode="J" horiz-adv-x="632" d="M-399 -317q0 43 24 63.5t53 20.5q18 0 37 -11l95 -155h14q56 0 96 35t78 96q34 58 66 142t48.5 141t41.5 153l280 1051l-198 28l12 49q95 -6 272 -6q162 0 264 6l-10 -49l-192 -28l-256 -961q-58 -218 -119 -354t-160 -232q-122 -116 -280 -116q-75 0 -120.5 34.5 t-45.5 92.5z" />
<glyph unicode="K" horiz-adv-x="1273" d="M-72 -2l13 51l198 27l307 1143l-184 28l12 49q94 -6 258 -6q167 0 269 6l-10 -49l-197 -28l-143 -531h120l619 531l-189 26l13 51q94 -6 227 -6q92 0 197 6l-15 -51l-157 -26l-594 -506l370 -637l117 -27l-14 -51q-95 6 -201 6q-178 0 -280 -6l14 51l192 27l-319 567 h-113l-151 -567l182 -27l-14 -51q-95 6 -256 6q-169 0 -271 -6z" />
<glyph unicode="L" horiz-adv-x="1167" d="M-72 0l13 49l198 27l307 1143l-184 28l12 49q94 -6 258 -6q183 0 285 6l-10 -49l-213 -28l-307 -1143l190 -31h213q34 0 52 2t43.5 9.5t48 25.5t54.5 47.5t75 77.5l100 110h29l-123 -317h-1041z" />
<glyph unicode="M" horiz-adv-x="1622" d="M-121 -2l15 51l143 27l516 938l-33 205l-192 47l18 49l406 -41l-13 -47l-69 -19l108 -735l35 -260h2q113 209 164 303l381 688l-76 19l12 47l369 39l-8 -47l-166 -37l-158 -1149l158 -27l-12 -51q-95 6 -240 6q-113 0 -215 -6l12 51l156 27l94 694q32 218 49 303h-4 q-80 -162 -129 -252l-459 -829h-38l-101 686l-35 266h-2q-84 -160 -135 -250l-336 -614l307 -31l-14 -51q-95 6 -307 6q-101 0 -203 -6z" />
<glyph unicode="N" horiz-adv-x="1433" d="M-2 -2l14 51l187 27l247 934l-122 217l-127 20l12 47h246l524 -944l92 -160h2q23 103 43 181l227 848l-247 28l12 49q94 -6 268 -6q101 0 203 6l-12 -49l-172 -28l-336 -1254h-31l-493 887l-52 94l-4 -2q-19 -78 -35 -139l-192 -729l266 -27l-14 -51q-94 6 -281 6 q-123 0 -225 -6z" />
<glyph unicode="O" horiz-adv-x="1382" d="M123 489q0 153 53 302t145 266t229 189.5t294 72.5q226 0 354.5 -137.5t128.5 -376.5q0 -122 -33 -242.5t-97 -226t-150 -186.5t-200 -128t-239 -47q-227 0 -356 137t-129 377zM274 455q0 -64 10.5 -123t35 -116t61.5 -98.5t93.5 -67t127.5 -25.5q108 0 203 54t161.5 141 t115 196t71.5 219.5t23 210.5q0 78 -18 150t-55 135t-103.5 101t-153.5 38q-90 0 -171.5 -38t-143 -102.5t-111 -147.5t-81 -174t-48.5 -181.5t-17 -171.5z" />
<glyph unicode="P" horiz-adv-x="1091" d="M-74 -2l13 51l198 27l307 1143l-184 26l14 49h388q168 0 260 -32q198 -67 198 -265q0 -89 -37.5 -173.5t-99.5 -146.5t-148.5 -100t-179.5 -38q-105 0 -182 49l29 28q48 -24 112 -24q104 0 189 65t129.5 163t44.5 204q0 109 -59.5 168t-155.5 59h-31l-135 -22l-311 -1153 l202 -27l-14 -51q-95 6 -276 6q-169 0 -271 -6z" />
<glyph unicode="Q" horiz-adv-x="1382" d="M123 489q0 153 53 302t145 266t229 189.5t294 72.5q226 0 354.5 -137.5t128.5 -376.5q0 -219 -103.5 -419.5t-279.5 -313.5q-123 -78 -463 -248l4 -8q155 53 269 53q49 0 102 -7.5t121.5 -26.5t113 -32.5t135 -43.5t128.5 -42q175 -54 319 -85t289 -31q131 0 232 41 t163 90l21 -25q-30 -30 -48.5 -46.5t-66.5 -48.5t-96.5 -49.5t-127 -32.5t-169.5 -15q-295 0 -662 116q-44 14 -161 53.5t-169.5 54.5t-135.5 31.5t-150 16.5q-146 0 -279 -74l-8 -127q-24 -20 -57 -20q-30 0 -49 22.5t-19 51.5q0 34 23.5 57.5t81.5 54.5l262 144 q45 24 107.5 54t102.5 48l40 18l-4 7q-92 -43 -199 -43q-221 0 -346 135t-125 374zM274 455q0 -64 10.5 -123t35 -116t61.5 -98.5t93.5 -67t127.5 -25.5q108 0 203 54t161.5 141t115 196t71.5 219.5t23 210.5q0 78 -18 150t-55 135t-103.5 101t-153.5 38q-90 0 -171.5 -38 t-143 -102.5t-111 -147.5t-81 -174t-48.5 -181.5t-17 -171.5z" />
<glyph unicode="R" horiz-adv-x="1169" d="M-74 -2l13 51l200 27l307 1145l-186 28l12 45h435q46 0 83.5 -3t83.5 -11.5t80 -26t63.5 -44.5t45.5 -70t16 -99q0 -89 -39 -167t-102.5 -129.5t-143.5 -81.5q-75 -28 -151 -27h-10v-4q27 -9 51.5 -28t42 -39t38 -56.5t32.5 -61.5t34 -73q12 -27 37.5 -85.5t38.5 -86.5 q43 -98 68 -120t110 -34l-14 -49q-61 4 -127 4q-57 0 -106 -4q-18 30 -36 71.5t-48 117.5t-41 104q-4 9 -19.5 46t-23 54t-25.5 52t-31 54t-34 46t-41.5 42.5t-47 28.5t-55.5 17l-147 -555l184 -27l-12 -51q-95 6 -254 6q-179 0 -281 -6zM444 662q57 -5 82 -5q181 0 293 105 q66 66 93.5 154t27.5 165q0 85 -49 127.5t-135 42.5h-37l-121 -22z" />
<glyph unicode="S" horiz-adv-x="1013" d="M-4 23l74 370h32v-18q0 -68 18 -128t54 -110t98.5 -79t143.5 -29q131 0 223 68t92 186q0 40 -13 76t-44.5 76t-52 61.5t-68.5 68.5l-107 105q-163 159 -163 319q0 69 24 126t63 94t90.5 62.5t105 36.5t108.5 11q172 0 303 -90l27 49h36l-63 -342h-33v16q0 154 -74 234 t-200 80q-116 0 -186 -61t-70 -163q0 -44 9.5 -79t35.5 -71t45 -57t65 -67l105 -104q48 -48 71.5 -74t55.5 -69.5t45.5 -86.5t13.5 -92q0 -164 -127.5 -265.5t-322.5 -101.5q-30 0 -59.5 3t-55.5 8.5t-49 11.5t-44.5 15t-37 15.5t-32.5 16.5t-25 14.5t-20 12.5t-13 8 l-43 -57h-35z" />
<glyph unicode="T" horiz-adv-x="1255" d="M154 983l153 377h39l31 -51q7 -11 14.5 -13t30.5 -2h840q17 0 22.5 0.5t14 3.5t18.5 11l63 51h43l-98 -377h-31l-26 238q-1 19 -8 23.5t-29 4.5h-320l-315 -1173l223 -27l-14 -51q-95 6 -297 6q-209 0 -311 -6l12 51l240 27l315 1173h-338q-22 0 -32.5 -4.5t-24.5 -23.5 l-183 -238h-32z" />
<glyph unicode="U" horiz-adv-x="1337" d="M174 301q0 92 39 234l184 684l-182 28l12 49q94 -6 279 -6q148 0 250 6l-13 -49l-198 -28l-193 -711q-30 -118 -30 -205q0 -46 12 -86t39 -77t80.5 -59t128.5 -22q199 0 329 140q57 62 97.5 146t81.5 237l170 637l-193 28l12 49q94 -6 228 -6q100 0 202 6l-12 -49 l-182 -28l-197 -723q-64 -240 -207 -373q-161 -148 -397 -148q-340 0 -340 326z" />
<glyph unicode="V" horiz-adv-x="1144" d="M160 1247l14 49q94 -6 223 -6q155 0 260 6l-14 -49l-190 -28l51 -727l22 -295h2q76 131 125 213l477 809l-188 28l12 49q95 -6 224 -6q74 0 176 6l-13 -49l-153 -28l-746 -1254h-34l-99 1254z" />
<glyph unicode="W" horiz-adv-x="1560" d="M160 1247l14 49q94 -6 223 -6h801q54 0 156 6l-13 -49l-133 -28l-305 -510l17 -211q19 -270 20 -301h2l127 213l477 809l-160 28l13 49q95 -6 194 -6q74 0 176 6l-12 -49l-153 -28l-746 -1254h-35l-28 354l-15 216h-4q-37 -72 -88 -156l-246 -414h-34l-99 1254zM453 1219 l51 -727l22 -295h2q76 131 125 213l119 202l-47 607l-119 24zM866 1219l17 -242l12 -193h4q49 92 92 164l160 271l-137 24z" />
<glyph unicode="X" horiz-adv-x="1261" d="M-127 -2l14 53l156 25l551 559l-238 584l-147 28l14 49q94 -6 234 -6q150 0 252 6l-13 -49l-184 -28l199 -486l477 486l-195 28l15 49q94 -6 254 -6q77 0 182 6l-14 -49l-173 -28l-528 -531l250 -612l156 -25l-13 -53q-94 6 -223 6q-179 0 -281 -6l15 53l188 25l-209 512 l-499 -512l196 -25l-14 -53q-95 6 -248 6q-72 0 -174 -6z" />
<glyph unicode="Y" horiz-adv-x="1083" d="M129 -2l14 51l197 27l141 526l-145 621l-139 24l12 49q94 -6 233 -6q151 0 256 6l-14 -49l-201 -24l135 -568l467 568l-200 24l14 49q94 -6 244 -6q48 0 153 6l-14 -49l-137 -24l-518 -623l-140 -524l197 -27l-14 -51q-94 6 -273 6q-166 0 -268 -6z" />
<glyph unicode="Z" horiz-adv-x="1193" d="M-70 0v33l1047 1079q24 25 59.5 59.5t58.5 56.5l23 21v2l-160 -2h-337h-6q-61 0 -95 -21q-36 -22 -137 -122l-145 -154h-29l141 342h969v-37l-1006 -1040q-35 -35 -80 -78t-73 -69l-27 -25v-2l232 2h317h10q58 -1 96 21q40 24 132 122l149 154h29l-146 -342h-1022z" />
<glyph unicode="[" horiz-adv-x="569" d="M-98 -444l491 1837h393l-12 -47h-307l-467 -1747h305l-12 -43h-391z" />
<glyph unicode="\" horiz-adv-x="1091" d="M270 1393h78l531 -1543h-80z" />
<glyph unicode="]" horiz-adv-x="571" d="M-240 -444l13 47h307l467 1747h-305l12 43h391l-491 -1837h-394z" />
<glyph unicode="^" horiz-adv-x="948" d="M92 682l592 713h21l223 -713l-2 -4h-68l-186 610l-502 -610h-76z" />
<glyph unicode="_" horiz-adv-x="1460" d="M8 -236l17 58h1036l-17 -58h-1036z" />
<glyph unicode="`" horiz-adv-x="540" d="M111 1333q0 22 16 35.5t37 13.5q37 0 65 -39q30 -40 33 -45l176 -251h-35l-245 213q-27 23 -37 37.5t-10 35.5z" />
<glyph unicode="a" horiz-adv-x="870" d="M2 129q0 135 74.5 309t183.5 285q155 158 287 158q41 0 68.5 -16.5t50.5 -55.5l41 98q27 17 56 15.5t36 -13.5l-213 -618q-43 -127 -43 -168q0 -47 35 -47q65 0 194 190l33 -20q-169 -271 -305 -271q-76 0 -76 80q0 10 1.5 22.5t5 28t6.5 28.5t9.5 33t10.5 32.5t12.5 36 t12 33t12.5 35t12 32.5l14 39l-8 2q-80 -169 -187 -285.5t-208 -116.5q-115 0 -115 154zM125 209q0 -127 72 -127q44 0 97.5 46.5t102.5 122t90.5 154t75.5 158.5l58 135q-8 22 -20.5 42.5t-41 40.5t-63.5 20q-130 0 -246 -193q-56 -96 -90.5 -206t-34.5 -193z" />
<glyph unicode="b" horiz-adv-x="835" d="M-25 33l424 1274l-155 34l10 35q65 5 268 29l17 -23l-207 -604q-27 -81 -55 -157t-42 -112l-14 -36h8q99 166 234 287q142 125 246 125q94 0 94 -121q0 -135 -82 -300.5t-205 -283.5q-96 -95 -200 -150t-199 -55q-53 0 -92.5 18.5t-49.5 39.5zM109 104q0 -81 63 -81 q40 0 92.5 31t100 77t84.5 89t61 77q64 89 116 200t52 199q0 82 -66 82q-120 0 -344 -311q-159 -232 -159 -363z" />
<glyph unicode="c" horiz-adv-x="638" d="M18 193q0 104 41 225.5t107.5 225t161 172.5t192.5 69q62 0 97.5 -30.5t35.5 -72.5q0 -37 -20 -61.5t-53 -24.5q-18 0 -41 9l-37 147q-82 -21 -163.5 -120.5t-123.5 -188.5q-82 -179 -82 -316q0 -70 25.5 -113.5t77.5 -43.5q50 0 95 37t95 102l27 -21 q-133 -213 -281 -213q-76 0 -115 56.5t-39 161.5z" />
<glyph unicode="d" horiz-adv-x="874" d="M2 129q0 135 74.5 309t183.5 285q155 158 287 158q72 0 110 -62l164 488l-155 34q8 27 10 35q75 5 268 29l17 -23q-320 -935 -359 -1048l-16 -43q-43 -127 -43 -168q0 -47 35 -47q65 0 194 190l33 -20q-169 -271 -305 -271q-76 0 -76 80q0 10 1.5 22.5t5 28t6.5 28.5 t9.5 33t10.5 32.5t12.5 36t12 33t12.5 35t12 32.5l14 39l-8 2q-80 -169 -187 -285.5t-208 -116.5q-115 0 -115 154zM125 209q0 -127 72 -127q44 0 97.5 46.5t102.5 122t90.5 154t75.5 158.5l58 135q-8 22 -20.5 42.5t-41 40.5t-63.5 20q-130 0 -246 -193q-56 -96 -90.5 -206 t-34.5 -193z" />
<glyph unicode="e" horiz-adv-x="667" d="M18 190q0 189 113 394q73 131 174.5 216t204.5 85q68 0 102.5 -37.5t34.5 -106.5q0 -90 -53.5 -168t-112.5 -86l-293 -10q-55 -132 -55 -254q0 -69 26.5 -111t84.5 -42q108 0 217 153l26 -20q-136 -228 -305 -228q-80 0 -122 55.5t-42 159.5zM203 510q180 29 198 33 q82 23 121 83.5t39 133.5q0 82 -55 82q-75 0 -162 -102t-141 -230z" />
<glyph unicode="f" horiz-adv-x="534" d="M-340 -348q0 37 20.5 57.5t49.5 20.5q16 0 28 -6l76 -150q91 0 150 92q67 108 118 330l181 784h-197l10 49h197q77 325 215 463q109 109 240 109q83 0 131.5 -33t48.5 -82q0 -35 -20.5 -56.5t-49.5 -21.5q-18 0 -31 9l-104 141h-10q-35 0 -68 -20.5t-57.5 -49.5 t-49.5 -78t-40.5 -86t-34 -96.5t-25.5 -86.5t-20 -77l-8 -35h186l-12 -49h-185l-198 -811q-60 -241 -168 -346q-93 -90 -221 -90q-70 0 -111 32.5t-41 86.5z" />
<glyph unicode="g" horiz-adv-x="735" d="M-117 -215q0 51 30 94t78 70t102.5 42t107.5 17l2 4q-52 25 -80.5 56.5t-28.5 81.5q0 46 33 81t78 52v4q-53 27 -81 86.5t-28 138.5q0 61 23 126.5t62 121t98 91.5t124 36q99 0 150 -80q119 78 178 78q26 0 40.5 -13.5t14.5 -37.5q0 -31 -18.5 -47.5t-46.5 -16.5l-98 31 l-56 -19q27 -62 27 -129q0 -96 -40 -185t-112 -145.5t-155 -56.5q-32 0 -62 10q-35 -32 -35 -75q0 -45 36.5 -72.5t131.5 -65.5l86 -34q35 -14 51 -21t46.5 -22t45.5 -26t35.5 -29.5t30.5 -36.5t17.5 -43t7.5 -54q0 -85 -53.5 -145.5t-137 -87.5t-186.5 -27 q-175 0 -296.5 66t-121.5 182zM-8 -184q0 -92 99.5 -160t240.5 -68q124 0 182.5 51.5t58.5 122.5q0 59 -37 90t-130 70l-160 68q-35 -4 -75.5 -16.5t-82 -33t-69 -53.5t-27.5 -71zM176 434q0 -53 19 -85t55 -32q51 0 105 52.5t94 132.5q59 121 59 219q0 53 -19 85t-55 32 q-51 0 -104.5 -51.5t-93.5 -131.5q-60 -123 -60 -221z" />
<glyph unicode="h" horiz-adv-x="839" d="M-31 4l437 1303l-156 34l10 35q65 5 268 29l17 -23l-187 -553q-24 -71 -94.5 -264t-85.5 -239h6q40 94 95.5 189t121 179.5t139.5 137.5t138 53q98 0 98 -154q0 -116 -37 -250t-96.5 -245.5t-142.5 -186t-166 -74.5q-50 0 -79.5 26.5t-29.5 72.5q0 39 21 62.5t53 23.5 t45 -23l-8 -129q54 0 104.5 46.5t87 114.5t68.5 159q61 180 61 311q0 66 -16.5 103.5t-46.5 37.5q-29 0 -65 -25.5t-69 -61.5t-72.5 -95t-68 -106t-65 -115t-53.5 -102.5t-43 -86.5q-55 -113 -66 -141l-24 -67q-17 -3 -31 -3q-44 0 -68 27z" />
<glyph unicode="i" horiz-adv-x="518" d="M43 49q0 55 51 182l170 431q29 72 29 104q0 13 -9 23t-26 10q-47 0 -91.5 -56.5t-66.5 -111.5l-37 16q34 91 111 164.5t162 73.5q40 0 63 -20t23 -54q0 -37 -35 -123l-158 -391q-55 -130 -55 -176q0 -45 35 -45q69 0 197 190l32 -20q-164 -271 -315 -271 q-37 0 -58.5 19.5t-21.5 54.5zM428 1286q0 32 23 55t55 23q34 0 57 -23t23 -55q0 -34 -23 -57t-57 -23q-32 0 -55 23t-23 57z" />
<glyph unicode="j" horiz-adv-x="466" d="M-557 -358q0 33 21 52t51 19q19 0 36 -10l64 -127q64 6 128.5 41t113.5 86q89 92 148.5 210t115.5 298l145 467q19 63 19 84q0 37 -33 37q-82 0 -166 -168l-37 20q43 94 115.5 164t159.5 70q79 0 79 -76q0 -35 -30 -137l-142 -469q-56 -183 -114.5 -288t-134.5 -181 q-99 -98 -207 -148.5t-197 -50.5q-62 0 -98.5 31t-36.5 76zM393 1286q0 32 23 55t55 23q34 0 57 -23t23 -55q0 -34 -23 -57t-57 -23q-32 0 -55 23t-23 57z" />
<glyph unicode="k" horiz-adv-x="843" d="M-29 14l441 1293l-156 34l10 35q68 5 269 29l16 -23l-291 -845h16q56 0 88 11.5t68 45.5q12 12 26 29.5t23.5 31t25.5 37t25 35.5q47 68 84 107q49 49 107 49q41 0 62.5 -19t21.5 -51q0 -34 -22.5 -58t-57.5 -24l-88 45q-5 0 -11 -5t-15 -15.5t-17 -21.5t-21 -27.5 t-22 -28.5q-6 -7 -35 -45.5t-45 -54.5q-54 -57 -127 -60l-2 -6q85 -13 119.5 -55t48.5 -146l16 -125q4 -28 7 -43.5t8.5 -35.5t14 -29.5t20.5 -9.5q25 0 56 52.5t58 137.5l35 -10q-43 -154 -109 -225q-48 -48 -94 -48q-45 0 -64 35.5t-32 130.5q-32 237 -47 279 q-30 76 -123 76h-12l-176 -519q-32 -9 -62.5 2.5t-36.5 34.5z" />
<glyph unicode="l" horiz-adv-x="471" d="M6 53q0 18 4.5 41t14 55t17.5 55.5t23 67t23 66.5l328 969l-156 34l10 35q68 5 269 29l16 -23l-371 -1083q-49 -144 -49 -178q0 -45 35 -45q64 0 197 190l32 -20q-164 -271 -317 -271q-76 0 -76 78z" />
<glyph unicode="m" horiz-adv-x="1333" d="M49 647q34 90 110.5 164t157.5 74q35 0 54.5 -18t19.5 -52q0 -39 -26 -123l-117 -364h10q94 206 201 346q162 211 284 211q38 0 58 -20.5t20 -57.5q0 -35 -13.5 -78.5t-47.5 -133.5q-7 -17 -10 -26l-93 -241h11q32 67 52 106t62 107.5t90 132.5q162 211 289 211 q76 0 76 -78q0 -62 -59 -215l-160 -420q-17 -49 -17 -68q0 -28 23 -28q33 0 84.5 56t89.5 120l33 -21q-28 -45 -51.5 -78.5t-62.5 -79.5t-81.5 -72t-83.5 -26q-73 0 -73 74q0 38 39 144l167 454q27 77 27 101q0 34 -33 34q-44 0 -110 -68t-129 -167.5t-112.5 -188.5 t-78.5 -153q-48 -98 -61 -135l-29 -84q-22 -8 -53 -0.5t-41 30.5l203 617q30 95 30 115q0 34 -32 34q-44 0 -109.5 -68t-128 -168t-111 -188t-77.5 -153q-52 -107 -62 -135l-28 -84q-22 -8 -53.5 -0.5t-41.5 30.5l197 646q24 81 24 104q0 33 -30 33q-71 0 -160 -168z" />
<glyph unicode="n" horiz-adv-x="923" d="M49 647q34 90 110.5 164t157.5 74q35 0 54.5 -18t19.5 -52q0 -39 -26 -123l-117 -364h10q31 65 52 105.5t63 108.5t90 132q162 211 289 211q75 0 75 -78q0 -62 -59 -215l-160 -420q-16 -46 -16 -68q0 -28 22 -28q33 0 84.5 56t89.5 120l33 -21q-22 -35 -38.5 -60.5 t-48 -65.5t-59 -65.5t-63.5 -45t-69 -19.5q-39 0 -56.5 21t-17.5 53q0 38 39 144l168 454q26 74 26 101q0 34 -32 34q-44 0 -110 -68t-129 -167.5t-112.5 -188.5t-78.5 -153q-52 -107 -62 -135l-28 -84q-22 -8 -53.5 -0.5t-41.5 30.5l197 646q24 81 24 104q0 33 -30 33 q-71 0 -160 -168z" />
<glyph unicode="o" horiz-adv-x="765" d="M25 225q0 83 31.5 188.5t84.5 198.5q156 273 353 273q92 0 144 -71.5t52 -186.5q0 -83 -31.5 -188.5t-85.5 -198.5q-156 -273 -352 -273q-92 0 -144 71.5t-52 186.5zM121 158q0 -67 17.5 -98t56.5 -31q67 0 145 76.5t143 199.5q113 211 113 395q0 67 -17.5 98t-56.5 31 q-67 0 -145.5 -77t-143.5 -199q-112 -209 -112 -395z" />
<glyph unicode="p" horiz-adv-x="825" d="M-246 -444l17 47l139 18l369 1149q-117 -45 -218 -127l-10 6l62 111l176 53l71 223q19 12 52.5 15t58.5 -7l-63 -192l4 -2q101 35 153 35q77 0 134 -57t57 -175q0 -168 -81 -322.5t-214.5 -248.5t-278.5 -94q-29 0 -43 2l-114 -369l190 -20l-16 -47q-99 6 -254 6 q-130 0 -191 -4zM158 37q14 -4 43 -4q107 0 210.5 97.5t165.5 236.5t62 264q0 99 -46 142.5t-112 43.5q-44 0 -84 -16z" />
<glyph unicode="q" horiz-adv-x="800" d="M2 129q0 135 74.5 309t183.5 285q155 158 287 158q41 0 68.5 -16.5t50.5 -55.5l41 98q27 17 56 15.5t36 -13.5l-432 -1288l176 -20l-17 -47q-99 6 -239 6q-144 0 -205 -4l16 47l154 18l110 328q51 150 158 426l-8 2q-80 -169 -187 -285.5t-208 -116.5q-115 0 -115 154z M125 209q0 -127 72 -127q44 0 97.5 46.5t102.5 122t90.5 154t75.5 158.5l58 135q-8 22 -20.5 42.5t-41 40.5t-63.5 20q-130 0 -246 -193q-56 -96 -90.5 -206t-34.5 -193z" />
<glyph unicode="r" horiz-adv-x="694" d="M47 649q14 33 38 70t57.5 76t78 64.5t88.5 25.5q78 0 78 -72q0 -47 -35 -143l-182 -510l4 -2q17 39 47.5 113t50.5 123t52 119t57.5 117t60 99.5t65.5 83.5t68 51.5t74 20.5q46 0 70 -25.5t24 -62.5q0 -44 -25 -69.5t-59 -25.5q-21 0 -38 11l-39 84q-26 0 -63 -41.5 t-77.5 -114t-78.5 -147.5t-78 -166.5t-62.5 -145.5t-44.5 -108l-31 -88q-33 -8 -59 0.5t-33 31.5l201 664q18 63 18 84q0 33 -30 33q-46 0 -88.5 -53.5t-71.5 -116.5z" />
<glyph unicode="s" horiz-adv-x="557" d="M-45 86q0 35 22 55.5t50 20.5q40 0 57 -27l49 -125q48 0 104 49t56 131q0 35 -9.5 70.5t-18.5 54t-29 58.5l-35 69q-21 42 -31.5 64.5t-21.5 62t-11 74.5q0 106 79.5 174t182.5 68q69 0 104.5 -25t35.5 -69q0 -37 -20 -55.5t-48 -18.5q-26 0 -39 10l-67 115 q-50 0 -89.5 -42t-39.5 -104q0 -74 49 -164l28 -53q55 -102 67 -143q13 -43 13 -88q0 -121 -84.5 -197t-195.5 -76q-68 0 -113 29.5t-45 81.5z" />
<glyph unicode="t" horiz-adv-x="520" d="M2 37q0 12 2.5 26t8 34t11 36.5t16.5 45t18 46.5t21.5 55.5t22.5 57.5l174 442h-155l20 49h154l84 203q19 15 57.5 15t55.5 -15l-84 -203h176l-23 -49h-174l-190 -481q-62 -143 -62 -186q0 -37 31 -37q19 0 43.5 16t47.5 42t47 55.5t45 58.5q9 12 13 18l33 -20 q-175 -271 -319 -271q-74 0 -74 62z" />
<glyph unicode="u" horiz-adv-x="915" d="M47 53q0 62 59 215l166 434q17 49 17 68q0 29 -25 29q-80 0 -166 -168l-37 16q37 96 114 167t157 71q39 0 56.5 -21t17.5 -53q0 -37 -39 -143l-168 -455q-27 -76 -27 -100q0 -35 33 -35q44 0 107.5 67.5t125 169t107 187t76.5 153.5q46 95 61 136l29 83q22 8 53 0.5 t41 -30.5l-193 -633q-24 -81 -24 -105q0 -32 30 -32q33 0 73 37t64.5 72.5t41.5 68.5l30 -19q-42 -93 -121 -175.5t-163 -82.5q-35 0 -54.5 18t-19.5 52q0 36 27 123l116 364h-10q-7 -15 -27 -58.5t-32.5 -68.5t-33.5 -64.5t-46 -77.5t-55 -77q-76 -99 -146 -155t-139 -56 q-76 0 -76 78z" />
<glyph unicode="v" horiz-adv-x="1019" d="M-8 600q0 49 51 124.5t133 149.5l14 5q159 -50 310 -50q68 0 133 15l31 39q7 11 31 2q17 -5 12 -13l-115 -167q-76 -117 -137.5 -254.5t-61.5 -229.5q0 -153 129 -153q79 0 148.5 55.5t113.5 140t70.5 174t30.5 166.5l-90 172q-7 21 -7 27q0 35 22.5 60.5t61.5 25.5 q26 0 43 -12t24 -34t9 -39.5t2 -41.5q0 -157 -39 -302.5t-104 -251.5t-155 -169.5t-187 -63.5q-99 0 -146 54.5t-47 144.5q0 66 33 151t83.5 164t98 141.5t88.5 106.5l-4 4q-48 -10 -104 -10q-90 0 -199 23q-21 4 -48 10t-43 9t-25 3q-35 0 -56.5 -25.5t-21.5 -60.5l2 -18 l90 -115q-8 -24 -29.5 -39.5t-52.5 -15.5q-39 0 -65.5 24.5t-26.5 73.5z" />
<glyph unicode="w" horiz-adv-x="1413" d="M-8 600q0 49 51 124.5t133 149.5l14 5q159 -50 310 -50q68 0 133 15l31 39q7 11 31 2q17 -5 12 -13l-113 -167q-76 -112 -138.5 -251.5t-62.5 -232.5q0 -153 123 -153q131 0 221 155q0 91 29 210t69 217t83.5 166.5t70.5 68.5q17 0 17 -27q0 -77 -57.5 -259t-131.5 -314 q1 -56 14 -101.5t49 -80.5t93 -35q66 0 124 59.5t93.5 146.5t57 173.5t24.5 152.5l-90 172q-8 16 -8 35q0 34 23 58t60 24q44 0 61 -33t17 -100q0 -82 -14 -180.5t-46 -205.5t-77 -194.5t-114 -144t-150 -56.5q-45 0 -80.5 18t-57 48.5t-34 62.5t-17.5 66h-6 q-111 -195 -284 -195q-81 0 -132 49.5t-51 149.5q0 66 33 151t83.5 164t98 141.5t88.5 106.5l-4 4q-48 -10 -106 -10q-88 0 -197 23q-21 4 -48 10t-43 9t-25 3q-35 0 -56.5 -25.5t-21.5 -60.5l2 -18l90 -115q-8 -24 -29.5 -39.5t-52.5 -15.5q-39 0 -65.5 24.5t-26.5 73.5z " />
<glyph unicode="x" horiz-adv-x="841" d="M-14 -25q0 87 29.5 196.5t74.5 186.5h19l-27 -247l268 305l-28 170q-21 118 -35.5 159t-42.5 41q-74 0 -101 -227l-34 2q5 139 54 231.5t124 92.5q53 0 77.5 -45.5t43.5 -153.5l32 -188l314 387h34q5 -35 5 -47q0 -77 -27 -174t-64 -156h-20l8 237l-241 -294l40 -222 q15 -86 30 -120.5t46 -34.5q20 0 37 18.5t27.5 48t17 55.5t10.5 52l35 -2q-3 -42 -14.5 -86.5t-31.5 -87.5t-53 -70t-73 -27q-57 0 -84 53t-45 158l-33 183l-338 -394h-34z" />
<glyph unicode="y" horiz-adv-x="811" d="M-301 -350q0 37 21.5 57.5t50.5 20.5q14 0 28 -7l74 -151q68 0 141 108.5t131 280.5q58 169 99 355t41 311q0 72 -16 113.5t-42 41.5q-39 0 -79.5 -53.5t-69.5 -114.5l-33 17q32 94 103.5 175t148.5 81q94 0 94 -205q0 -137 -41 -318.5t-86 -281.5l4 -2 q135 135 261.5 297.5t158.5 265.5l-45 145v9q0 36 21.5 63t62.5 27q35 0 56.5 -22t21.5 -62q0 -83 -65.5 -204t-170.5 -251q-134 -164 -331 -352q-101 -234 -183 -336q-101 -127 -213 -127q-67 0 -105 32t-38 87z" />
<glyph unicode="z" horiz-adv-x="856" d="M-27 31q0 48 68 116l577 560l-4 4q-18 -9 -41 -9q-10 0 -20.5 1.5t-23 6t-21.5 7.5t-24 10.5t-22.5 11t-24.5 13t-23 12.5q-80 39 -115 39q-44 0 -77.5 -32.5t-33.5 -61.5v-9l41 -94q-2 -20 -19.5 -35.5t-43.5 -15.5q-28 0 -46 19t-18 53q0 64 97 161q50 46 89 70.5 t81 24.5q54 0 139 -47q7 -4 30.5 -17t33 -18t27 -13t30 -11t24.5 -3q55 0 90 117q10 12 43 -14.5t25 -40.5q-12 -22 -117 -123l-542 -523l2 -2q32 9 63 9q54 0 110 -26t136 -81q79 -55 135 -55q42 0 69 34q21 26 21 50q0 7 -2 14q-14 19 -40 49.5t-34 40.5q-3 27 17.5 48.5 t50.5 21.5q33 0 57.5 -23t24.5 -69q0 -72 -80 -156q-74 -70 -172 -70q-45 0 -97.5 21.5t-76.5 37.5t-80 56q-100 62 -135 62q-22 0 -32.5 -13t-12.5 -28l18 -84q-3 -21 -20.5 -36.5t-44.5 -15.5q-26 0 -41 17t-15 39z" />
<glyph unicode="{" horiz-adv-x="575" d="M6 539l14 47q69 4 118 17.5t81.5 35.5t53 59.5t31.5 80t18 106.5l10 84q12 112 35.5 186.5t70 133t122.5 85.5t188 27q6 0 19 -1t19 -1l-14 -41h-35q-66 0 -115 -18t-78 -45t-49 -72.5t-29 -86t-17 -100.5l-9 -63q-12 -95 -26.5 -156t-38.5 -110.5t-63.5 -77t-94.5 -44.5 t-137 -24l-2 -8q203 -70 203 -238q0 -16 -2 -33t-4 -29.5t-7.5 -31.5t-8 -28.5t-11 -31t-10.5 -27t-12.5 -30t-12.5 -28.5l-23 -53q-5 -11 -22.5 -52t-25 -60t-19 -51.5t-16.5 -58t-5 -47.5q0 -69 53.5 -110t151.5 -41l-10 -35h-12q-135 0 -198.5 66t-63.5 178q0 32 6 65 t19 70t22.5 61t28 65.5t24.5 55.5l20 47q19 43 28 65.5t17.5 56t8.5 62.5q0 130 -191 179z" />
<glyph unicode="|" horiz-adv-x="407" d="M-98 -444l491 1837h88l-491 -1837h-88z" />
<glyph unicode="}" horiz-adv-x="575" d="M-231 -430l14 39h35q66 0 115.5 20t79.5 49.5t51.5 77.5t31 90.5t17.5 102.5l8 63q15 120 34 189.5t59.5 121t102.5 74t164 31.5l2 8q-105 36 -153.5 93.5t-48.5 140.5q0 13 1 26.5t2.5 24t5 25.5t5.5 23t7.5 24.5l7.5 22.5t9 24t9 22t10.5 24t9.5 23l23 54q7 16 22.5 51 t23 54.5t17.5 47.5t14.5 52t4.5 46q0 69 -53.5 110.5t-151.5 41.5l10 35h8q134 0 200 -66.5t66 -169.5q0 -43 -11 -91t-19.5 -70.5t-34.5 -81.5t-29 -66l-20 -47q-53 -121 -53 -184q0 -131 190 -179l-14 -47q-69 -4 -118 -17.5t-81 -35.5t-52.5 -59.5t-31.5 -80t-18 -106.5 l-11 -84q-10 -88 -27 -154t-48 -123.5t-76.5 -93.5t-113.5 -56.5t-157 -20.5q-6 0 -19 1t-19 1z" />
<glyph unicode="~" horiz-adv-x="1224" d="M123 510v14q0 114 62.5 192.5t179.5 78.5q82 0 262 -76l129 -55q138 -62 211 -62q83 0 127.5 55.5t52.5 149.5h31v-14q0 -73 -23 -133t-75.5 -99t-127.5 -39q-21 0 -42.5 2.5t-44.5 8t-40 10t-41 13.5t-35 13t-35.5 14.5t-29.5 12.5l-129 53q-151 64 -215 64 q-82 0 -131 -56t-55 -149z" />
<glyph unicode="&#xa1;" horiz-adv-x="417" d="M-100 -403q0 23 14 77q24 88 113 344t168 467h30q-29 -191 -80.5 -445.5t-78.5 -354.5q-10 -37 -15 -53t-18 -40.5t-33 -34.5t-49 -10q-51 0 -51 50zM184 799q0 40 27.5 67t67.5 27q39 0 66.5 -27.5t27.5 -66.5t-27.5 -66.5t-66.5 -27.5q-40 0 -67.5 27t-27.5 67z" />
<glyph unicode="&#xa2;" horiz-adv-x="698" d="M37 193q0 124 53 264.5t148.5 256.5t205.5 154l91 332h45l-86 -319q28 4 45 4q62 0 97.5 -30.5t35.5 -72.5q0 -37 -20.5 -61.5t-53.5 -24.5q-18 0 -41 9l-37 147q-27 -9 -37 -14l-204 -766q43 8 81 43t84 94l27 -21q-98 -161 -217 -202l-90 -342h-45l88 333q-6 -2 -17 -2 q-76 0 -114.5 56.5t-38.5 161.5zM152 227q0 -138 81 -155l195 729q-60 -47 -113 -122t-82 -136q-81 -177 -81 -316z" />
<glyph unicode="&#xa3;" horiz-adv-x="1216" d="M-158 -385q0 58 83 121t200 106q7 34 119 383h-248l20 56h246q59 173 127 333q100 231 175 375.5t155 239.5q140 166 309 166q84 0 137.5 -34.5t53.5 -92.5q0 -41 -22.5 -63.5t-59.5 -22.5q-25 0 -45 12l-45 141q-17 17 -60 17q-48 0 -89 -26t-77 -78.5t-60 -100 t-56 -121.5q-211 -488 -316 -745h244l-21 -56h-245q-64 -138 -106.5 -219.5t-90.5 -150.5q77 28 160 28q43 0 75 -8.5t62.5 -33t46 -41.5t53.5 -62q61 -73 89.5 -94t74.5 -21q62 0 109 49.5t47 108.5l-4 31l-86 86q-13 16 -13 43q0 36 24 57.5t62 21.5q46 0 76.5 -36.5 t30.5 -96.5q0 -126 -101.5 -225.5t-230.5 -99.5q-38 0 -70 10.5t-58.5 33t-42.5 40t-40 49.5t-33 43q-46 56 -75 76t-76 20q-53 0 -90 -14q-33 -53 -60.5 -91t-63.5 -80t-72.5 -64.5t-69.5 -22.5q-25 0 -38.5 15t-13.5 38z" />
<glyph unicode="&#xa4;" horiz-adv-x="1284" d="M227 268l107 107q-98 122 -98 280q0 156 98 281l-103 102l60 60l100 -103q124 105 287 105q158 0 280 -101l103 103l61 -62l-102 -102q102 -123 102 -283q0 -163 -104 -286l106 -105l-59 -59l-107 106q-125 -98 -280 -98q-162 0 -283 100l-106 -106zM309 655 q0 -154 107.5 -261t261.5 -107t262.5 107.5t108.5 260.5q0 154 -108.5 262.5t-262.5 108.5t-261.5 -108.5t-107.5 -262.5z" />
<glyph unicode="&#xa5;" horiz-adv-x="1230" d="M111 451l12 49h397l29 102l-31 127h-332l13 49h309l-105 445l-139 24l12 49q95 -6 234 -6q151 0 256 6l-14 -49l-201 -24l135 -568l467 568l-201 24l15 49q94 -6 243 -6q49 0 154 6l-14 -49l-138 -24l-370 -445h309l-12 -49h-338l-107 -129l-26 -100h407l-12 -49h-410 l-98 -375l197 -27l-15 -51q-95 6 -272 6q-166 0 -268 -6l14 51l197 27l100 375h-397z" />
<glyph unicode="&#xa6;" horiz-adv-x="409" d="M-94 -444l178 673h82l-178 -673h-82zM217 719l180 674h82l-180 -674h-82z" />
<glyph unicode="&#xa7;" horiz-adv-x="944" d="M-51 -328q0 40 27 64t69 24q17 0 27 -2l116 -137q125 0 207 71.5t82 162.5q0 20 -3 40t-13.5 44t-16 37.5t-24.5 44t-25 39.5t-32 47t-31 45l-39 59q-55 79 -86 131.5t-59.5 132.5t-28.5 154q0 116 62 248t158 240t223.5 179.5t248.5 71.5q69 0 107 -28.5t38 -75.5 q0 -38 -25 -63t-65 -25q-4 0 -28 4l-109 112q-109 -2 -204 -80t-95 -190q0 -71 28.5 -136t96.5 -171l49 -76q4 -7 38.5 -59t43 -66.5t33 -60t33 -72t17.5 -67t9 -78.5q0 -127 -54.5 -250t-144.5 -216t-215 -150.5t-258 -57.5q-74 0 -115.5 29.5t-41.5 80.5zM209 723 q0 -99 38 -185t109 -192l86 -131q92 -138 122.5 -222t13.5 -155h4q43 48 74.5 120t31.5 157q0 99 -40 192t-113 205l-39 59q-106 161 -144.5 256t-29.5 191h-5q-108 -145 -108 -295z" />
<glyph unicode="&#xa8;" horiz-adv-x="677" d="M115 1221q0 29 21 50t50 21q31 0 52.5 -21t21.5 -50q0 -31 -21.5 -52.5t-52.5 -21.5q-29 0 -50 21.5t-21 52.5zM420 1221q0 29 21.5 50t50.5 21q31 0 52 -21t21 -50q0 -31 -21 -52.5t-52 -21.5q-29 0 -50.5 21.5t-21.5 52.5z" />
<glyph unicode="&#xa9;" horiz-adv-x="1687" d="M166 702q0 147 57.5 281.5t155 232.5t232 156t282.5 58t283 -58t232 -156t154.5 -232.5t57.5 -281.5q0 -197 -97 -364.5t-264.5 -265t-365.5 -97.5q-197 0 -364.5 97.5t-265 265t-97.5 364.5zM221 702q0 -183 90 -340.5t245 -250.5t337 -93t337 93t245 250.5t90 340.5 q0 182 -90 339.5t-245 251t-337 93.5t-337 -93.5t-245 -251t-90 -339.5zM498 688q0 107 35.5 192t95 136t132.5 77.5t154 26.5q115 0 209 -51l9 39h32l19 -211h-29q-31 95 -95.5 139.5t-146.5 44.5q-33 0 -66 -7t-75 -31t-73 -62.5t-52.5 -109.5t-21.5 -164 q0 -83 18.5 -150.5t47.5 -109.5t67.5 -71t77 -40.5t77.5 -11.5q179 0 246 188h27l-19 -211h-30l-9 39q-1 0 -25.5 -10.5t-48.5 -19.5t-67.5 -17t-87.5 -8q-79 0 -150.5 26.5t-127.5 76t-89.5 127.5t-33.5 173z" />
<glyph unicode="&#xaa;" horiz-adv-x="747" d="M180 786q0 101 55.5 231.5t137.5 213.5q114 117 215 117q33 0 52.5 -10.5t37.5 -37.5l31 68q22 13 44 11t27 -13l-159 -461q-33 -97 -33 -125q0 -32 24 -32q46 0 144 141l30 -19q-130 -202 -233 -202q-57 0 -57 63q0 29 43 160q3 7 8 23t8 24q0 4 4 16 q-59 -121 -137.5 -203.5t-153.5 -82.5q-88 0 -88 118zM276 844q0 -92 52 -92q33 0 72.5 34.5t75.5 90.5t66.5 114.5t55.5 118.5l43 100q-9 27 -31.5 51.5t-58.5 24.5q-95 0 -180 -145q-42 -72 -68.5 -154.5t-26.5 -142.5z" />
<glyph unicode="&#xab;" horiz-adv-x="917" d="M86 578l8 28q124 67 256.5 175.5t202.5 195.5l39 -21q-24 -39 -69 -90.5t-82.5 -88t-104.5 -101t-94 -90.5q51 -93 93 -211t48 -197l-39 -12q-27 96 -100.5 221.5t-157.5 190.5zM475 569l8 29q210 129 375 340l37 -20q-34 -58 -139 -181.5t-133 -161.5q74 -257 79 -374 l-36 -13q-67 267 -191 381z" />
<glyph unicode="&#xac;" horiz-adv-x="1355" d="M145 508v63h936v-571h-86v508h-850z" />
<glyph unicode="&#xad;" horiz-adv-x="729" d="M109 475l20 74h483l-20 -74h-483z" />
<glyph unicode="&#xae;" horiz-adv-x="1687" d="M166 702q0 147 57.5 281.5t155 232.5t232 156t282.5 58t283 -58t232 -156t154.5 -232.5t57.5 -281.5q0 -197 -97 -364.5t-264.5 -265t-365.5 -97.5q-197 0 -364.5 97.5t-265 265t-97.5 364.5zM221 702q0 -183 90 -340.5t245 -250.5t337 -93t337 93t245 250.5t90 340.5 q0 182 -90 339.5t-245 251t-337 93.5t-337 -93.5t-245 -251t-90 -339.5zM553 301v39l119 16v697l-119 16v39h344q168 0 233 -68q52 -52 52 -133q0 -170 -207 -200v-2q45 -28 77.5 -66t94.5 -137q9 -13 25.5 -40.5t24 -39.5t23.5 -31t29.5 -27.5t34 -16.5t45.5 -9v-35h-180 q-18 14 -43 48t-88 134q-3 4 -19.5 31.5t-21 33.5t-19.5 29t-22 29.5t-22 23.5t-26.5 22.5t-27 15t-32.5 12.5t-35 4v-330l116 -16v-39q-39 4 -186 4q-129 0 -170 -4zM793 715h59q116 0 162 49q43 46 43 141q0 88 -43.5 129t-112.5 41h-35l-73 -12v-348z" />
<glyph unicode="&#xaf;" horiz-adv-x="737" d="M106 1133l19 69h510l-19 -69h-510z" />
<glyph unicode="&#xb0;" horiz-adv-x="774" d="M231 1102q0 126 86.5 210.5t214.5 84.5q127 0 214.5 -85t87.5 -210t-86 -210t-216 -85q-129 0 -215 85t-86 210zM293 1102q0 -103 66 -172.5t173 -69.5q106 0 173 69.5t67 172.5q0 104 -67.5 172.5t-172.5 68.5q-104 0 -171.5 -69t-67.5 -172z" />
<glyph unicode="&#xb1;" horiz-adv-x="1353" d="M133 0v63h1022v-63h-1022zM133 670v63h477v496h68v-496h477v-63h-477v-494h-68v494h-477z" />
<glyph unicode="&#xb2;" horiz-adv-x="628" d="M113 588l6 26q205 160 327 301q134 158 134 244q0 38 -24 62t-67 24q-100 0 -176 -121l-24 15q33 69 99 119.5t161 50.5q64 0 100.5 -36t36.5 -91q0 -43 -16.5 -85.5t-48.5 -81.5t-59.5 -66.5t-67.5 -61.5l-33 -31q-22 -19 -56 -46t-58 -45t-67.5 -50.5t-54.5 -40.5h217 q40 0 60.5 11.5t46.5 41.5q0 2 2 4l20 23h21q-14 -31 -43 -90.5t-39 -79.5h-8q-10 4 -66 4h-323z" />
<glyph unicode="&#xb3;" horiz-adv-x="581" d="M121 659q0 15 7.5 22t15.5 8t24 1q23 0 35 -12l53 -80h12q63 0 114.5 38t77 89t25.5 98q0 115 -127 131l-2 13q101 52 140 84q67 58 67 131q0 34 -22 51.5t-58 17.5q-45 0 -88.5 -29t-72.5 -75l-23 14q31 66 90.5 107t128.5 41q59 0 94 -27.5t35 -79.5q0 -118 -190 -207 q57 -19 87.5 -61t30.5 -86q0 -84 -50 -149t-124 -96.5t-155 -31.5q-56 0 -90.5 27t-34.5 61z" />
<glyph unicode="&#xb4;" horiz-adv-x="540" d="M102 1047l207 294q30 41 70 41q23 0 37 -13.5t14 -35.5q0 -34 -41 -69l-252 -217h-35z" />
<glyph unicode="&#xb5;" horiz-adv-x="991" d="M-88 -377q0 28 14.5 72.5t45 118.5t40.5 100q87 234 138 401l159 533l115 20q-56 -157 -76 -225l-92 -301q-2 -7 -12.5 -41.5t-14.5 -50t-9 -42t-5 -46.5q0 -105 123 -105q55 0 105.5 29t84.5 74l207 688l117 20q-49 -127 -78 -225l-119 -395q-24 -78 -24 -117 q0 -32 16.5 -45.5t48.5 -13.5q57 0 111 59l16 -18q-28 -42 -80 -78.5t-114 -36.5q-58 0 -83 31t-20 82h-6q-45 -57 -117 -94t-143 -37q-50 0 -89 19.5t-50 63.5l-2 -2l-74 -438q-6 -25 -25.5 -40t-48.5 -15q-59 0 -59 55z" />
<glyph unicode="&#xb6;" horiz-adv-x="927" d="M-133 -319q0 49 29 73.5t65 24.5q30 0 43 -10l107 -177q152 18 245 136q56 68 97 165.5t88 274.5l77 295q-54 -4 -109 4.5t-110 34t-97 65.5t-68.5 105.5t-26.5 148.5q0 136 61 235t170 156q91 47 203.5 66.5t298.5 19.5q68 0 127 -2l-10 -49l-172 -24l-297 -1117 q-67 -254 -170 -391q-138 -180 -352 -180q-91 0 -145 39.5t-54 106.5z" />
<glyph unicode="&#xb7;" horiz-adv-x="464" d="M139 541q0 39 27.5 66.5t66.5 27.5q40 0 67.5 -27t27.5 -67t-27.5 -67.5t-67.5 -27.5q-39 0 -66.5 28t-27.5 67z" />
<glyph unicode="&#xb8;" horiz-adv-x="477" d="M72 -416l2 31h28q34 0 68.5 9.5t62 35t27.5 61.5q0 52 -96 68l-14 27l159 192h33l-106 -143q47 -5 81.5 -32t34.5 -75q0 -47 -26.5 -82.5t-68.5 -55t-88 -28.5t-91 -8h-6z" />
<glyph unicode="&#xb9;" horiz-adv-x="493" d="M117 584l6 30l119 15l157 590l-118 6l6 16q43 11 93 28.5t78 29.5l29 12h31l-184 -682l112 -15l-6 -30q-70 4 -155 4q-94 0 -168 -4z" />
<glyph unicode="&#xba;" horiz-adv-x="632" d="M195 856q0 62 23.5 141.5t62.5 149.5q22 38 46.5 70.5t57.5 65t74.5 51t85.5 18.5q71 0 110 -53.5t39 -141.5q0 -62 -23.5 -142.5t-62.5 -148.5v2q-118 -204 -264 -204q-70 0 -109.5 53t-39.5 139zM270 809q0 -50 12.5 -73t41.5 -23q50 0 107 57.5t106 147.5 q84 158 84 294q0 97 -54 97q-49 0 -106 -58t-107 -149q-84 -158 -84 -293z" />
<glyph unicode="&#xbb;" horiz-adv-x="917" d="M53 225q34 58 138.5 180.5t134.5 161.5q-76 260 -80 375l37 12q66 -260 192 -376l-8 -29q-208 -128 -377 -344zM356 186q24 39 69.5 90.5t82.5 88.5t104.5 101.5t94.5 90.5q-51 93 -93.5 211t-48.5 197l39 12q27 -96 100.5 -221.5t157.5 -190.5l-8 -28 q-124 -67 -256.5 -175.5t-202.5 -195.5z" />
<glyph unicode="&#xbc;" horiz-adv-x="1372" d="M66 -45l1198 1376h67l-1198 -1376h-67zM115 584l6 30l119 15l157 590l-118 6l6 16q43 11 93 28.5t78 29.5l29 12h31l-184 -682l112 -15l-6 -30q-70 4 -155 4q-94 0 -168 -4zM735 223l8 37l447 469h29l-119 -440h149l-41 -66h-125q-10 -40 -32.5 -120.5t-32.5 -120.5h-84 l67 241h-266zM817 289h201l51 196l29 105l-58 -64z" />
<glyph unicode="&#xbd;" horiz-adv-x="1368" d="M66 -45l1198 1376h67l-1198 -1376h-67zM115 584l6 30l119 15l157 590l-118 6l6 16q43 11 93 28.5t78 29.5l29 12h31l-184 -682l112 -15l-6 -30q-70 4 -155 4q-94 0 -168 -4zM719 0l6 27q208 163 328 301q133 157 133 243q0 38 -23.5 62t-66.5 24q-101 0 -176 -120l-25 14 q33 69 99 119.5t161 50.5q64 0 100.5 -36t36.5 -91q0 -43 -16.5 -85.5t-48.5 -81.5t-59.5 -66.5t-67.5 -61.5l-33 -31q-22 -19 -56 -46t-58 -45t-67.5 -50.5t-54.5 -40.5h218q39 0 59 11.5t47 41.5q0 2 2 4l21 23h20q-14 -31 -43 -90.5t-39 -79.5h-8q-10 4 -66 4h-323z" />
<glyph unicode="&#xbe;" horiz-adv-x="1429" d="M119 659q0 23 13.5 36.5t33.5 13.5q22 0 35 -13l53 -80h12q93 0 156 73.5t63 152.5q0 115 -129 131l-2 12q101 52 140 84q69 60 69 131q0 34 -23 52t-59 18q-45 0 -89 -29.5t-73 -75.5l-22 15q31 66 90.5 106.5t128.5 40.5q57 0 91 -28.5t34 -77.5q0 -120 -186 -207 q57 -19 85.5 -61t28.5 -87q0 -62 -28.5 -114.5t-75 -87.5t-104 -54.5t-117.5 -19.5q-58 0 -91.5 18.5t-33.5 50.5zM123 -45l1198 1376h68l-1199 -1376h-67zM793 223l8 37l446 469h29l-119 -440h150l-41 -66h-125q-10 -40 -33 -120.5t-33 -120.5h-84l68 241h-266zM874 289 h201l51 196l29 105l-57 -64z" />
<glyph unicode="&#xbf;" horiz-adv-x="741" d="M-154 -295q0 44 12 84t39 75t51.5 60.5t69.5 56t71 46.5t77 45l43 22q52 27 76.5 41t56.5 36.5t44.5 44t12.5 46.5q0 44 -31.5 67t-78.5 23q-38 0 -76 -10l-6 27q58 22 117 22q72 0 122 -40t50 -111q0 -31 -13.5 -59t-32 -48.5t-53.5 -44t-60.5 -37.5t-70.5 -37l-47 -24 q-61 -32 -101.5 -58t-83 -64t-64 -85t-21.5 -102q0 -83 47 -129t131 -46q9 0 49 5l115 178q11 8 31 8q24 0 39.5 -16t15.5 -46q0 -67 -79 -115t-179 -48q-119 0 -196 62.5t-77 170.5zM381 793q0 40 27 67t67 27q39 0 66.5 -27.5t27.5 -66.5t-27.5 -67t-66.5 -28 q-40 0 -67 27.5t-27 67.5z" />
<glyph unicode="&#xc0;" horiz-adv-x="1134" d="M-135 -2l12 51l154 27l631 1050l-11 111q81 29 119 82h18l101 -1243l147 -27l-14 -51q-94 6 -205 6q-169 0 -274 -6l10 51l192 27l-26 354h-422l-209 -354l188 -27l-12 -51q-95 6 -227 6q-70 0 -172 -6zM326 473h389l-27 315l-18 263q-70 -115 -109 -181zM563 1704 q0 22 16 35.5t37 13.5q38 0 66 -39q30 -40 33 -45l176 -252h-35l-246 213q-26 23 -36.5 37.5t-10.5 36.5z" />
<glyph unicode="&#xc1;" horiz-adv-x="1134" d="M-135 -2l12 51l154 27l631 1050l-11 111q81 29 119 82h18l101 -1243l147 -27l-14 -51q-94 6 -205 6q-169 0 -274 -6l10 51l192 27l-26 354h-422l-209 -354l188 -27l-12 -51q-95 6 -227 6q-70 0 -172 -6zM326 473h389l-27 315l-18 263q-70 -115 -109 -181zM645 1417 l207 295q30 41 70 41q23 0 37 -13.5t14 -35.5q0 -35 -41 -70l-252 -217h-35z" />
<glyph unicode="&#xc2;" horiz-adv-x="1134" d="M-135 -2l12 51l154 27l631 1050l-11 111q81 29 119 82h18l101 -1243l147 -27l-14 -51q-94 6 -205 6q-169 0 -274 -6l10 51l192 27l-26 354h-422l-209 -354l188 -27l-12 -51q-95 6 -227 6q-70 0 -172 -6zM326 473h389l-27 315l-18 263q-70 -115 -109 -181zM598 1421 l301 322h25l22 -320l-6 -6h-86l-10 221l-195 -221h-49z" />
<glyph unicode="&#xc3;" horiz-adv-x="1134" d="M-135 -2l12 51l154 27l631 1050l-11 111q81 29 119 82h18l101 -1243l147 -27l-14 -51q-94 6 -205 6q-169 0 -274 -6l10 51l192 27l-26 354h-422l-209 -354l188 -27l-12 -51q-95 6 -227 6q-70 0 -172 -6zM326 473h389l-27 315l-18 263q-70 -115 -109 -181zM487 1417 q13 68 35 116.5t48.5 73.5t52 35.5t53.5 10.5q41 0 70 -18t63 -54l18 -20q28 -31 38.5 -41.5t28 -20.5t36.5 -10q48 0 81.5 50.5t45.5 115.5h39q-13 -68 -35 -116.5t-48.5 -73.5t-52 -35.5t-53.5 -10.5q-41 0 -70 18t-63 54l-14 16q-48 53 -67 65q-20 11 -40 11 q-48 0 -81.5 -50.5t-45.5 -115.5h-39z" />
<glyph unicode="&#xc4;" horiz-adv-x="1134" d="M-135 -2l12 51l154 27l631 1050l-11 111q81 29 119 82h18l101 -1243l147 -27l-14 -51q-94 6 -205 6q-169 0 -274 -6l10 51l192 27l-26 354h-422l-209 -354l188 -27l-12 -51q-95 6 -227 6q-70 0 -172 -6zM326 473h389l-27 315l-18 263q-70 -115 -109 -181zM569 1516 q0 29 21.5 50t50.5 21q31 0 52.5 -21t21.5 -50q0 -31 -21.5 -52.5t-52.5 -21.5q-29 0 -50.5 21.5t-21.5 52.5zM874 1516q0 29 21.5 50t50.5 21q31 0 52.5 -21t21.5 -50q0 -31 -21.5 -52.5t-52.5 -21.5q-29 0 -50.5 21.5t-21.5 52.5z" />
<glyph unicode="&#xc5;" horiz-adv-x="1134" d="M-135 -2l12 51l154 27l631 1050l-11 111q81 29 119 82h18l101 -1243l147 -27l-14 -51q-94 6 -205 6q-169 0 -274 -6l10 51l192 27l-26 354h-422l-209 -354l188 -27l-12 -51q-95 6 -227 6q-70 0 -172 -6zM326 473h389l-27 315l-18 263q-70 -115 -109 -181zM639 1593 q0 76 53 127.5t129 51.5q74 0 126 -50t52 -127t-52.5 -128.5t-127.5 -51.5q-74 0 -127 52t-53 126zM690 1593q0 -61 38 -97t91 -36q55 0 92 36t37 97q0 62 -38 99t-91 37q-51 0 -90 -37.5t-39 -98.5z" />
<glyph unicode="&#xc6;" horiz-adv-x="1779" d="M-174 -2l10 51l125 27l1000 1157l-191 14l12 47h998l-27 -270h-24l-58 139q-25 62 -41 78q-10 8 -35 8h-426l-151 -561h319q18 0 27 4.5t18 18.5l103 149h28l-108 -405h-29l-18 161q-1 14 -9 18.5t-24 4.5h-319l-150 -563l191 -31h225q41 0 61 2.5t51 17.5t64.5 46 t85.5 88l94 104h29l-117 -303h-1044l12 49l199 27l151 563h-346l-487 -563l227 -27l-12 -51q-94 6 -238 6q-71 0 -176 -6zM555 688h315l150 549h-4q-150 -188 -213 -262z" />
<glyph unicode="&#xc7;" horiz-adv-x="1230" d="M127 504q0 116 32 232t95.5 220.5t151 185.5t207.5 129t255 48q108 0 195 -24.5t141 -59.5l29 57h39l-58 -325h-30q-6 152 -92.5 227.5t-223.5 75.5q-112 0 -210 -52.5t-166 -137t-117 -190.5t-72.5 -213.5t-23.5 -205.5q0 -208 88.5 -325t257.5 -117q85 0 157 25.5 t125.5 72.5t91.5 96.5t74 114.5l35 -6l-117 -320h-39l2 54q-167 -91 -344 -91h-2l-82 -110q48 -5 82.5 -32t34.5 -75q0 -47 -26.5 -82.5t-68.5 -55t-88 -28.5t-91 -8h-7l3 31h28q34 0 68.5 9.5t62 35t27.5 61.5q0 52 -96 68l-15 27l133 161q-205 11 -325.5 145t-120.5 382z " />
<glyph unicode="&#xc8;" horiz-adv-x="1210" d="M-72 0l13 49l198 27l305 1143l-184 28l14 47h936l-26 -270h-25l-57 139q-25 62 -41 78q-10 8 -35 8h-426l-151 -561h319q18 0 27 4.5t18 18.5l102 149h29l-108 -405h-29l-19 161q-1 14 -8.5 18.5t-23.5 4.5h-320l-149 -563l190 -31h225q54 0 81 6.5t70 39.5t112 108 l94 104h28l-116 -303h-1043zM608 1704q0 22 16 35.5t38 13.5q37 0 65 -39q30 -40 33 -45l176 -252h-35l-246 213q-26 23 -36.5 37.5t-10.5 36.5z" />
<glyph unicode="&#xc9;" horiz-adv-x="1210" d="M-72 0l13 49l198 27l305 1143l-184 28l14 47h936l-26 -270h-25l-57 139q-25 62 -41 78q-10 8 -35 8h-426l-151 -561h319q18 0 27 4.5t18 18.5l102 149h29l-108 -405h-29l-19 161q-1 14 -8.5 18.5t-23.5 4.5h-320l-149 -563l190 -31h225q54 0 81 6.5t70 39.5t112 108 l94 104h28l-116 -303h-1043zM735 1417l207 295q30 41 70 41q23 0 37 -13.5t14 -35.5q0 -35 -41 -70l-252 -217h-35z" />
<glyph unicode="&#xca;" horiz-adv-x="1210" d="M-72 0l13 49l198 27l305 1143l-184 28l14 47h936l-26 -270h-25l-57 139q-25 62 -41 78q-10 8 -35 8h-426l-151 -561h319q18 0 27 4.5t18 18.5l102 149h29l-108 -405h-29l-19 161q-1 14 -8.5 18.5t-23.5 4.5h-320l-149 -563l190 -31h225q54 0 81 6.5t70 39.5t112 108 l94 104h28l-116 -303h-1043zM655 1421l301 322h25l23 -320l-7 -6h-86l-10 221l-194 -221h-50z" />
<glyph unicode="&#xcb;" horiz-adv-x="1210" d="M-72 0l13 49l198 27l305 1143l-184 28l14 47h936l-26 -270h-25l-57 139q-25 62 -41 78q-10 8 -35 8h-426l-151 -561h319q18 0 27 4.5t18 18.5l102 149h29l-108 -405h-29l-19 161q-1 14 -8.5 18.5t-23.5 4.5h-320l-149 -563l190 -31h225q54 0 81 6.5t70 39.5t112 108 l94 104h28l-116 -303h-1043zM618 1516q0 29 21.5 50t50.5 21q31 0 52.5 -21t21.5 -50q0 -31 -21.5 -52.5t-52.5 -21.5q-29 0 -50.5 21.5t-21.5 52.5zM924 1516q0 29 21 50t50 21q31 0 52.5 -21t21.5 -50q0 -31 -21.5 -52.5t-52.5 -21.5q-29 0 -50 21.5t-21 52.5z" />
<glyph unicode="&#xcc;" horiz-adv-x="663" d="M-72 -2l13 51l198 27l307 1143l-184 28l12 49q94 -6 258 -6q167 0 269 6l-10 -49l-197 -28l-307 -1143l182 -27l-14 -51q-95 6 -256 6q-169 0 -271 -6zM332 1704q0 22 16 35.5t37 13.5q38 0 66 -39q25 -33 32 -45l176 -252h-34l-246 213q-26 23 -36.5 37.5t-10.5 36.5z " />
<glyph unicode="&#xcd;" horiz-adv-x="663" d="M-72 -2l13 51l198 27l307 1143l-184 28l12 49q94 -6 258 -6q167 0 269 6l-10 -49l-197 -28l-307 -1143l182 -27l-14 -51q-95 6 -256 6q-169 0 -271 -6zM461 1417l207 295q30 41 69 41q23 0 37 -13.5t14 -35.5q0 -36 -40 -70l-252 -217h-35z" />
<glyph unicode="&#xce;" horiz-adv-x="663" d="M-72 -2l13 51l198 27l307 1143l-184 28l12 49q94 -6 258 -6q167 0 269 6l-10 -49l-197 -28l-307 -1143l182 -27l-14 -51q-95 6 -256 6q-169 0 -271 -6zM397 1421l301 322h25l22 -320l-6 -6h-86l-10 221l-194 -221h-50z" />
<glyph unicode="&#xcf;" horiz-adv-x="663" d="M-72 -2l13 51l198 27l307 1143l-184 28l12 49q94 -6 258 -6q167 0 269 6l-10 -49l-197 -28l-307 -1143l182 -27l-14 -51q-95 6 -256 6q-169 0 -271 -6zM375 1516q0 29 21 50t50 21q31 0 52.5 -21t21.5 -50q0 -31 -21.5 -52.5t-52.5 -21.5q-29 0 -50 21.5t-21 52.5z M680 1516q0 29 21.5 50t50.5 21q31 0 52 -21t21 -50q0 -31 -21 -52.5t-52 -21.5q-29 0 -50.5 21.5t-21.5 52.5z" />
<glyph unicode="&#xd0;" horiz-adv-x="1415" d="M-70 0l13 47l198 29l152 571h-160l14 51h160l139 521l-182 30l12 45h508q96 0 179 -15t158 -49.5t128.5 -87.5t85 -134t31.5 -183q0 -152 -56 -303t-159 -262q-131 -140 -325.5 -200t-458.5 -60h-437zM287 76q12 -2 73.5 -17.5t79.5 -15.5q202 0 358.5 72t250.5 209 q73 107 115 252t42 274q0 195 -111 298t-309 103h-12l-182 -32l-139 -521h198l-14 -51h-199z" />
<glyph unicode="&#xd1;" horiz-adv-x="1433" d="M-2 -2l14 51l187 27l247 934l-122 217l-127 20l12 47h246l524 -944l92 -160h2q23 103 43 181l227 848l-247 28l12 49q94 -6 268 -6q101 0 203 6l-12 -49l-172 -28l-336 -1254h-31l-493 887l-52 94l-4 -2q-19 -78 -35 -139l-192 -729l266 -27l-14 -51q-94 6 -281 6 q-123 0 -225 -6zM643 1417q13 68 35 116.5t48 73.5t51.5 35.5t53.5 10.5q41 0 70.5 -18t63.5 -54l18 -20q29 -32 38.5 -41.5t27 -20t36.5 -10.5q48 0 81.5 50.5t45.5 115.5h39q-13 -68 -35 -116.5t-48 -73.5t-51.5 -35.5t-53.5 -10.5q-41 0 -70 18t-63 54l-15 16q-3 4 -9 10 q-22 24 -33 35t-28.5 21t-35.5 10q-48 0 -81.5 -50.5t-45.5 -115.5h-39z" />
<glyph unicode="&#xd2;" horiz-adv-x="1382" d="M123 489q0 153 53 302t145 266t229 189.5t294 72.5q226 0 354.5 -137.5t128.5 -376.5q0 -122 -33 -242.5t-97 -226t-150 -186.5t-200 -128t-239 -47q-227 0 -356 137t-129 377zM274 455q0 -64 10.5 -123t35 -116t61.5 -98.5t93.5 -67t127.5 -25.5q108 0 203 54t161.5 141 t115 196t71.5 219.5t23 210.5q0 78 -18 150t-55 135t-103.5 101t-153.5 38q-90 0 -171.5 -38t-143 -102.5t-111 -147.5t-81 -174t-48.5 -181.5t-17 -171.5zM686 1704q0 22 16 35.5t37 13.5q38 0 66 -39q30 -40 33 -45l176 -252h-35l-246 213q-26 23 -36.5 37.5t-10.5 36.5z " />
<glyph unicode="&#xd3;" horiz-adv-x="1382" d="M123 489q0 153 53 302t145 266t229 189.5t294 72.5q226 0 354.5 -137.5t128.5 -376.5q0 -122 -33 -242.5t-97 -226t-150 -186.5t-200 -128t-239 -47q-227 0 -356 137t-129 377zM274 455q0 -64 10.5 -123t35 -116t61.5 -98.5t93.5 -67t127.5 -25.5q108 0 203 54t161.5 141 t115 196t71.5 219.5t23 210.5q0 78 -18 150t-55 135t-103.5 101t-153.5 38q-90 0 -171.5 -38t-143 -102.5t-111 -147.5t-81 -174t-48.5 -181.5t-17 -171.5zM797 1417l207 295q30 41 69 41q23 0 37 -13.5t14 -35.5q0 -35 -41 -70l-252 -217h-34z" />
<glyph unicode="&#xd4;" horiz-adv-x="1382" d="M123 489q0 153 53 302t145 266t229 189.5t294 72.5q226 0 354.5 -137.5t128.5 -376.5q0 -122 -33 -242.5t-97 -226t-150 -186.5t-200 -128t-239 -47q-227 0 -356 137t-129 377zM274 455q0 -64 10.5 -123t35 -116t61.5 -98.5t93.5 -67t127.5 -25.5q108 0 203 54t161.5 141 t115 196t71.5 219.5t23 210.5q0 78 -18 150t-55 135t-103.5 101t-153.5 38q-90 0 -171.5 -38t-143 -102.5t-111 -147.5t-81 -174t-48.5 -181.5t-17 -171.5zM741 1421l301 322h25l23 -320l-7 -6h-86l-10 221l-194 -221h-50z" />
<glyph unicode="&#xd5;" horiz-adv-x="1382" d="M123 489q0 153 53 302t145 266t229 189.5t294 72.5q226 0 354.5 -137.5t128.5 -376.5q0 -122 -33 -242.5t-97 -226t-150 -186.5t-200 -128t-239 -47q-227 0 -356 137t-129 377zM274 455q0 -64 10.5 -123t35 -116t61.5 -98.5t93.5 -67t127.5 -25.5q108 0 203 54t161.5 141 t115 196t71.5 219.5t23 210.5q0 78 -18 150t-55 135t-103.5 101t-153.5 38q-90 0 -171.5 -38t-143 -102.5t-111 -147.5t-81 -174t-48.5 -181.5t-17 -171.5zM627 1417q13 68 35 116.5t48 73.5t51.5 35.5t53.5 10.5q41 0 70 -18t63 -54l19 -20q29 -32 38.5 -41.5t27 -20 t36.5 -10.5q48 0 81.5 50.5t45.5 115.5h39q-13 -68 -35 -116.5t-48 -73.5t-51.5 -35.5t-53.5 -10.5q-41 0 -70.5 18t-63.5 54l-14 16q-3 4 -9 10q-22 24 -33 35t-28.5 21t-35.5 10q-48 0 -81.5 -50.5t-45.5 -115.5h-39z" />
<glyph unicode="&#xd6;" horiz-adv-x="1382" d="M123 489q0 153 53 302t145 266t229 189.5t294 72.5q226 0 354.5 -137.5t128.5 -376.5q0 -122 -33 -242.5t-97 -226t-150 -186.5t-200 -128t-239 -47q-227 0 -356 137t-129 377zM274 455q0 -64 10.5 -123t35 -116t61.5 -98.5t93.5 -67t127.5 -25.5q108 0 203 54t161.5 141 t115 196t71.5 219.5t23 210.5q0 78 -18 150t-55 135t-103.5 101t-153.5 38q-90 0 -171.5 -38t-143 -102.5t-111 -147.5t-81 -174t-48.5 -181.5t-17 -171.5zM721 1516q0 29 21.5 50t50.5 21q31 0 52 -21t21 -50q0 -31 -21 -52.5t-52 -21.5q-29 0 -50.5 21.5t-21.5 52.5z M1026 1516q0 29 21.5 50t50.5 21q31 0 52 -21t21 -50q0 -31 -21 -52.5t-52 -21.5q-29 0 -50.5 21.5t-21.5 52.5z" />
<glyph unicode="&#xd7;" horiz-adv-x="1200" d="M139 90l406 408l-398 397l46 45l397 -399l405 407l45 -45l-405 -405l397 -400l-45 -45l-397 400l-406 -408z" />
<glyph unicode="&#xd8;" horiz-adv-x="1382" d="M123 489q0 153 53 302t145 266t229 189.5t294 72.5q124 0 217 -43l96 158h64l-111 -183q104 -62 160.5 -176.5t56.5 -269.5q0 -122 -33 -242.5t-97 -226t-150 -186.5t-200 -128t-239 -47q-133 0 -243 52l-107 -177h-65l124 205q-194 133 -194 434zM274 455 q0 -202 93 -320l657 1079q-75 56 -178 56q-90 0 -171.5 -38t-143 -102.5t-111 -147.5t-81 -174t-48.5 -181.5t-17 -171.5zM406 94q79 -69 196 -69q108 0 203 54t161.5 141t115 196t71.5 219.5t23 210.5q0 95 -27.5 183.5t-83.5 148.5z" />
<glyph unicode="&#xd9;" horiz-adv-x="1337" d="M174 301q0 92 39 234l184 684l-182 28l12 49q94 -6 279 -6q148 0 250 6l-13 -49l-198 -28l-193 -711q-30 -118 -30 -205q0 -46 12 -86t39 -77t80.5 -59t128.5 -22q199 0 329 140q57 62 97.5 146t81.5 237l170 637l-193 28l12 49q94 -6 228 -6q100 0 202 6l-12 -49 l-182 -28l-197 -723q-64 -240 -207 -373q-161 -148 -397 -148q-340 0 -340 326zM698 1704q0 22 16 35.5t38 13.5q37 0 65 -39q30 -40 33 -45l176 -252h-35l-246 213q-26 23 -36.5 37.5t-10.5 36.5z" />
<glyph unicode="&#xda;" horiz-adv-x="1337" d="M174 301q0 92 39 234l184 684l-182 28l12 49q94 -6 279 -6q148 0 250 6l-13 -49l-198 -28l-193 -711q-30 -118 -30 -205q0 -46 12 -86t39 -77t80.5 -59t128.5 -22q199 0 329 140q57 62 97.5 146t81.5 237l170 637l-193 28l12 49q94 -6 228 -6q100 0 202 6l-12 -49 l-182 -28l-197 -723q-64 -240 -207 -373q-161 -148 -397 -148q-340 0 -340 326zM801 1417l207 295q30 41 69 41q23 0 37 -13.5t14 -35.5q0 -35 -41 -70l-251 -217h-35z" />
<glyph unicode="&#xdb;" horiz-adv-x="1337" d="M174 301q0 92 39 234l184 684l-182 28l12 49q94 -6 279 -6q148 0 250 6l-13 -49l-198 -28l-193 -711q-30 -118 -30 -205q0 -46 12 -86t39 -77t80.5 -59t128.5 -22q199 0 329 140q57 62 97.5 146t81.5 237l170 637l-193 28l12 49q94 -6 228 -6q100 0 202 6l-12 -49 l-182 -28l-197 -723q-64 -240 -207 -373q-161 -148 -397 -148q-340 0 -340 326zM748 1421l301 322h24l23 -320l-6 -6h-86l-11 221l-194 -221h-49z" />
<glyph unicode="&#xdc;" horiz-adv-x="1337" d="M174 301q0 92 39 234l184 684l-182 28l12 49q94 -6 279 -6q148 0 250 6l-13 -49l-198 -28l-193 -711q-30 -118 -30 -205q0 -46 12 -86t39 -77t80.5 -59t128.5 -22q199 0 329 140q57 62 97.5 146t81.5 237l170 637l-193 28l12 49q94 -6 228 -6q100 0 202 6l-12 -49 l-182 -28l-197 -723q-64 -240 -207 -373q-161 -148 -397 -148q-340 0 -340 326zM709 1516q0 29 21 50t50 21q31 0 52.5 -21t21.5 -50q0 -31 -21.5 -52.5t-52.5 -21.5q-29 0 -50 21.5t-21 52.5zM1014 1516q0 29 21 50t50 21q31 0 52.5 -21t21.5 -50q0 -31 -21.5 -52.5 t-52.5 -21.5q-29 0 -50 21.5t-21 52.5z" />
<glyph unicode="&#xdd;" horiz-adv-x="1083" d="M129 -2l14 51l197 27l141 526l-145 621l-139 24l12 49q94 -6 233 -6q151 0 256 6l-14 -49l-201 -24l135 -568l467 568l-200 24l14 49q94 -6 244 -6q48 0 153 6l-14 -49l-137 -24l-518 -623l-140 -524l197 -27l-14 -51q-94 6 -273 6q-166 0 -268 -6zM731 1417l207 295 q30 41 70 41q23 0 37 -13.5t14 -35.5q0 -35 -41 -70l-252 -217h-35z" />
<glyph unicode="&#xde;" horiz-adv-x="1079" d="M-74 -2l13 51l198 27l307 1136v7l-184 28l12 49q94 -6 258 -6q167 0 269 6l-11 -49l-196 -28l-43 -160h51q165 0 260 -33q199 -67 199 -264q0 -119 -62.5 -225t-170.5 -170t-232 -64q-105 0 -182 49l28 29q50 -25 113 -25q104 0 189 65t129 163t44 204q0 109 -59.5 168.5 t-155.5 59.5h-30l-135 -23l-250 -917l202 -27l-14 -51q-95 6 -276 6q-169 0 -271 -6z" />
<glyph unicode="&#xdf;" horiz-adv-x="962" d="M-340 -348q0 37 20.5 57.5t49.5 20.5q16 0 28 -6l76 -150q91 0 150 92q67 108 118 330l181 784h-197l10 49h197q75 315 215 455q109 109 250 109q106 0 170.5 -49t64.5 -144q0 -89 -44 -154.5t-124 -134.5q-5 -5 -37 -31t-43 -37.5t-31 -35t-28 -47t-8 -49.5 q0 -62 67 -193l37 -72q54 -105 54 -186q0 -122 -82 -203.5t-199 -81.5q-65 0 -109.5 29.5t-44.5 79.5q0 34 21.5 54t50.5 20q38 0 55 -27l37 -121q88 9 131 60t43 127t-41 153l-41 80q-79 151 -79 229q0 55 25.5 92.5t88.5 96.5q102 89 150.5 161t48.5 169q0 93 -42.5 133.5 t-111.5 40.5q-137 0 -231 -207q-40 -89 -96 -318l-209 -858q-56 -237 -168 -346q-93 -90 -221 -90q-70 0 -111 32.5t-41 86.5z" />
<glyph unicode="&#xe0;" horiz-adv-x="870" d="M2 129q0 135 74.5 309t183.5 285q155 158 287 158q41 0 68.5 -16.5t50.5 -55.5l41 98q27 17 56 15.5t36 -13.5l-213 -618q-43 -127 -43 -168q0 -47 35 -47q65 0 194 190l33 -20q-169 -271 -305 -271q-76 0 -76 80q0 10 1.5 22.5t5 28t6.5 28.5t9.5 33t10.5 32.5t12.5 36 t12 33t12.5 35t12 32.5l14 39l-8 2q-80 -169 -187 -285.5t-208 -116.5q-115 0 -115 154zM125 209q0 -127 72 -127q44 0 97.5 46.5t102.5 122t90.5 154t75.5 158.5l58 135q-8 22 -20.5 42.5t-41 40.5t-63.5 20q-130 0 -246 -193q-56 -96 -90.5 -206t-34.5 -193zM449 1333 q0 22 16 35.5t37 13.5q37 0 65 -39q30 -40 33 -45l176 -251h-35l-245 213q-27 23 -37 37.5t-10 35.5z" />
<glyph unicode="&#xe1;" horiz-adv-x="870" d="M2 129q0 135 74.5 309t183.5 285q155 158 287 158q41 0 68.5 -16.5t50.5 -55.5l41 98q27 17 56 15.5t36 -13.5l-213 -618q-43 -127 -43 -168q0 -47 35 -47q65 0 194 190l33 -20q-169 -271 -305 -271q-76 0 -76 80q0 10 1.5 22.5t5 28t6.5 28.5t9.5 33t10.5 32.5t12.5 36 t12 33t12.5 35t12 32.5l14 39l-8 2q-80 -169 -187 -285.5t-208 -116.5q-115 0 -115 154zM125 209q0 -127 72 -127q44 0 97.5 46.5t102.5 122t90.5 154t75.5 158.5l58 135q-8 22 -20.5 42.5t-41 40.5t-63.5 20q-130 0 -246 -193q-56 -96 -90.5 -206t-34.5 -193zM555 1047 l207 294q30 41 69 41q23 0 37.5 -13.5t14.5 -35.5q0 -34 -41 -69l-252 -217h-35z" />
<glyph unicode="&#xe2;" horiz-adv-x="870" d="M2 129q0 135 74.5 309t183.5 285q155 158 287 158q41 0 68.5 -16.5t50.5 -55.5l41 98q27 17 56 15.5t36 -13.5l-213 -618q-43 -127 -43 -168q0 -47 35 -47q65 0 194 190l33 -20q-169 -271 -305 -271q-76 0 -76 80q0 10 1.5 22.5t5 28t6.5 28.5t9.5 33t10.5 32.5t12.5 36 t12 33t12.5 35t12 32.5l14 39l-8 2q-80 -169 -187 -285.5t-208 -116.5q-115 0 -115 154zM125 209q0 -127 72 -127q44 0 97.5 46.5t102.5 122t90.5 154t75.5 158.5l58 135q-8 22 -20.5 42.5t-41 40.5t-63.5 20q-130 0 -246 -193q-56 -96 -90.5 -206t-34.5 -193zM453 1051 l313 335h25l22 -333l-6 -6h-86l-10 235l-207 -235h-49z" />
<glyph unicode="&#xe3;" horiz-adv-x="870" d="M2 129q0 135 74.5 309t183.5 285q155 158 287 158q41 0 68.5 -16.5t50.5 -55.5l41 98q27 17 56 15.5t36 -13.5l-213 -618q-43 -127 -43 -168q0 -47 35 -47q65 0 194 190l33 -20q-169 -271 -305 -271q-76 0 -76 80q0 10 1.5 22.5t5 28t6.5 28.5t9.5 33t10.5 32.5t12.5 36 t12 33t12.5 35t12 32.5l14 39l-8 2q-80 -169 -187 -285.5t-208 -116.5q-115 0 -115 154zM125 209q0 -127 72 -127q44 0 97.5 46.5t102.5 122t90.5 154t75.5 158.5l58 135q-8 22 -20.5 42.5t-41 40.5t-63.5 20q-130 0 -246 -193q-56 -96 -90.5 -206t-34.5 -193zM358 1092 q13 68 35 116.5t48.5 73t52 35t53.5 10.5q41 0 70 -18t63 -54l18 -20q28 -31 38.5 -41.5t28 -20.5t36.5 -10q48 0 81.5 50.5t45.5 115.5h39q-13 -68 -35 -116.5t-48.5 -73t-52 -35t-53.5 -10.5q-41 0 -70 17.5t-63 53.5l-14 17q-27 29 -37.5 40t-30.5 23t-39 12 q-48 0 -81.5 -50t-45.5 -115h-39z" />
<glyph unicode="&#xe4;" horiz-adv-x="870" d="M2 129q0 135 74.5 309t183.5 285q155 158 287 158q41 0 68.5 -16.5t50.5 -55.5l41 98q27 17 56 15.5t36 -13.5l-213 -618q-43 -127 -43 -168q0 -47 35 -47q65 0 194 190l33 -20q-169 -271 -305 -271q-76 0 -76 80q0 10 1.5 22.5t5 28t6.5 28.5t9.5 33t10.5 32.5t12.5 36 t12 33t12.5 35t12 32.5l14 39l-8 2q-80 -169 -187 -285.5t-208 -116.5q-115 0 -115 154zM125 209q0 -127 72 -127q44 0 97.5 46.5t102.5 122t90.5 154t75.5 158.5l58 135q-8 22 -20.5 42.5t-41 40.5t-63.5 20q-130 0 -246 -193q-56 -96 -90.5 -206t-34.5 -193zM449 1221 q0 29 21 50t50 21q31 0 52.5 -21t21.5 -50q0 -31 -21.5 -52.5t-52.5 -21.5q-29 0 -50 21.5t-21 52.5zM754 1221q0 29 21 50t50 21q31 0 52.5 -21t21.5 -50q0 -31 -21.5 -52.5t-52.5 -21.5q-29 0 -50 21.5t-21 52.5z" />
<glyph unicode="&#xe5;" horiz-adv-x="870" d="M2 129q0 135 74.5 309t183.5 285q155 158 287 158q41 0 68.5 -16.5t50.5 -55.5l41 98q27 17 56 15.5t36 -13.5l-213 -618q-43 -127 -43 -168q0 -47 35 -47q65 0 194 190l33 -20q-169 -271 -305 -271q-76 0 -76 80q0 10 1.5 22.5t5 28t6.5 28.5t9.5 33t10.5 32.5t12.5 36 t12 33t12.5 35t12 32.5l14 39l-8 2q-80 -169 -187 -285.5t-208 -116.5q-115 0 -115 154zM125 209q0 -127 72 -127q44 0 97.5 46.5t102.5 122t90.5 154t75.5 158.5l58 135q-8 22 -20.5 42.5t-41 40.5t-63.5 20q-130 0 -246 -193q-56 -96 -90.5 -206t-34.5 -193zM469 1217 q0 76 53 127t129 51q74 0 126 -50t52 -126q0 -77 -53 -129t-127 -52t-127 52t-53 127zM520 1217q0 -61 38 -97.5t91 -36.5q54 0 91.5 36.5t37.5 97.5q0 62 -37.5 98.5t-91.5 36.5q-51 0 -90 -37t-39 -98z" />
<glyph unicode="&#xe6;" horiz-adv-x="1107" d="M2 129q0 135 74.5 309t183.5 285q155 158 287 158q41 0 68.5 -16.5t50.5 -55.5l41 98q27 17 56 15.5t36 -13.5l-31 -92q90 68 182 68q68 0 102.5 -37.5t34.5 -106.5q0 -90 -53 -168t-112 -86l-293 -10q-56 -134 -56 -254q0 -69 26.5 -111t84.5 -42q108 0 217 153l27 -20 q-136 -228 -305 -228q-80 0 -122 55.5t-42 159.5q0 38 6 82h-6q-76 -134 -165.5 -215.5t-176.5 -81.5q-115 0 -115 154zM125 209q0 -127 72 -127q44 0 97.5 46.5t102.5 122t90.5 154t75.5 158.5l58 135q-8 22 -20.5 42.5t-41 40.5t-63.5 20q-130 0 -246 -193 q-56 -96 -90.5 -206t-34.5 -193zM643 510q181 29 199 33q82 23 120.5 83t38.5 134q0 82 -55 82q-75 0 -162 -102t-141 -230z" />
<glyph unicode="&#xe7;" horiz-adv-x="643" d="M-78 -416l2 31h29q34 0 68.5 9.5t62 35t27.5 61.5q0 52 -97 68l-14 27l135 164q-115 27 -115 213q0 104 41 225.5t107.5 225t161 172.5t192.5 69q62 0 97.5 -30.5t35.5 -72.5q0 -37 -20 -61.5t-53 -24.5q-18 0 -41 9l-37 147q-82 -21 -163.5 -120.5t-123.5 -188.5 q-82 -179 -82 -316q0 -70 25.5 -113.5t77.5 -43.5q50 0 95 37t95 102l27 -21q-133 -213 -281 -213h-6l-82 -110q48 -5 82.5 -32t34.5 -75q0 -47 -26.5 -82.5t-69 -55t-88.5 -28.5t-91 -8h-6z" />
<glyph unicode="&#xe8;" horiz-adv-x="667" d="M18 190q0 189 113 394q73 131 174.5 216t204.5 85q68 0 102.5 -37.5t34.5 -106.5q0 -90 -53.5 -168t-112.5 -86l-293 -10q-55 -132 -55 -254q0 -69 26.5 -111t84.5 -42q108 0 217 153l26 -20q-136 -228 -305 -228q-80 0 -122 55.5t-42 159.5zM203 510q180 29 198 33 q82 23 121 83.5t39 133.5q0 82 -55 82q-75 0 -162 -102t-141 -230zM387 1333q0 22 16 35.5t37 13.5q38 0 66 -39q30 -40 33 -45l176 -251h-35l-246 213q-27 23 -37 37.5t-10 35.5z" />
<glyph unicode="&#xe9;" horiz-adv-x="667" d="M18 190q0 189 113 394q73 131 174.5 216t204.5 85q68 0 102.5 -37.5t34.5 -106.5q0 -90 -53.5 -168t-112.5 -86l-293 -10q-55 -132 -55 -254q0 -69 26.5 -111t84.5 -42q108 0 217 153l26 -20q-136 -228 -305 -228q-80 0 -122 55.5t-42 159.5zM203 510q180 29 198 33 q82 23 121 83.5t39 133.5q0 82 -55 82q-75 0 -162 -102t-141 -230zM483 1047l207 294q30 41 70 41q23 0 37 -13.5t14 -35.5q0 -34 -41 -69l-252 -217h-35z" />
<glyph unicode="&#xea;" horiz-adv-x="667" d="M18 190q0 189 113 394q73 131 174.5 216t204.5 85q68 0 102.5 -37.5t34.5 -106.5q0 -90 -53.5 -168t-112.5 -86l-293 -10q-55 -132 -55 -254q0 -69 26.5 -111t84.5 -42q108 0 217 153l26 -20q-136 -228 -305 -228q-80 0 -122 55.5t-42 159.5zM203 510q180 29 198 33 q82 23 121 83.5t39 133.5q0 82 -55 82q-75 0 -162 -102t-141 -230zM379 1051l313 335h25l22 -333l-6 -6h-86l-10 235l-207 -235h-49z" />
<glyph unicode="&#xeb;" horiz-adv-x="667" d="M18 190q0 189 113 394q73 131 174.5 216t204.5 85q68 0 102.5 -37.5t34.5 -106.5q0 -90 -53.5 -168t-112.5 -86l-293 -10q-55 -132 -55 -254q0 -69 26.5 -111t84.5 -42q108 0 217 153l26 -20q-136 -228 -305 -228q-80 0 -122 55.5t-42 159.5zM203 510q180 29 198 33 q82 23 121 83.5t39 133.5q0 82 -55 82q-75 0 -162 -102t-141 -230zM371 1221q0 29 21 50t50 21q31 0 52.5 -21t21.5 -50q0 -31 -21.5 -52.5t-52.5 -21.5q-29 0 -50 21.5t-21 52.5zM676 1221q0 29 21.5 50t50.5 21q31 0 52 -21t21 -50q0 -31 -21 -52.5t-52 -21.5 q-29 0 -50.5 21.5t-21.5 52.5z" />
<glyph unicode="&#xec;" horiz-adv-x="518" d="M43 49q0 55 51 182l170 431q29 72 29 104q0 13 -9 23t-26 10q-47 0 -91.5 -56.5t-66.5 -111.5l-37 16q34 91 111 164.5t162 73.5q40 0 63 -20t23 -54q0 -37 -35 -123l-158 -391q-55 -130 -55 -176q0 -45 35 -45q69 0 197 190l32 -20q-164 -271 -315 -271 q-37 0 -58.5 19.5t-21.5 54.5zM205 1333q0 22 16 35.5t37 13.5q38 0 66 -39q25 -33 32 -45l176 -251h-34l-246 213q-27 23 -37 37.5t-10 35.5z" />
<glyph unicode="&#xed;" horiz-adv-x="518" d="M43 49q0 55 51 182l170 431q29 72 29 104q0 13 -9 23t-26 10q-47 0 -91.5 -56.5t-66.5 -111.5l-37 16q34 91 111 164.5t162 73.5q40 0 63 -20t23 -54q0 -37 -35 -123l-158 -391q-55 -130 -55 -176q0 -45 35 -45q69 0 197 190l32 -20q-164 -271 -315 -271 q-37 0 -58.5 19.5t-21.5 54.5zM332 1047l207 294q30 41 69 41q23 0 37 -13.5t14 -35.5q0 -34 -41 -69l-251 -217h-35z" />
<glyph unicode="&#xee;" horiz-adv-x="518" d="M43 49q0 55 51 182l170 431q29 72 29 104q0 13 -9 23t-26 10q-47 0 -91.5 -56.5t-66.5 -111.5l-37 16q34 91 111 164.5t162 73.5q40 0 63 -20t23 -54q0 -37 -35 -123l-158 -391q-55 -130 -55 -176q0 -45 35 -45q69 0 197 190l32 -20q-164 -271 -315 -271 q-37 0 -58.5 19.5t-21.5 54.5zM233 1051l314 335h24l23 -333l-6 -6h-86l-10 235l-207 -235h-49z" />
<glyph unicode="&#xef;" horiz-adv-x="518" d="M43 49q0 55 51 182l170 431q29 72 29 104q0 13 -9 23t-26 10q-47 0 -91.5 -56.5t-66.5 -111.5l-37 16q34 91 111 164.5t162 73.5q40 0 63 -20t23 -54q0 -37 -35 -123l-158 -391q-55 -130 -55 -176q0 -45 35 -45q69 0 197 190l32 -20q-164 -271 -315 -271 q-37 0 -58.5 19.5t-21.5 54.5zM215 1221q0 29 21.5 50t50.5 21q31 0 52 -21t21 -50q0 -31 -21 -52.5t-52 -21.5q-29 0 -50.5 21.5t-21.5 52.5zM520 1221q0 29 21.5 50t50.5 21q31 0 52.5 -21t21.5 -50q0 -31 -21.5 -52.5t-52.5 -21.5q-29 0 -50.5 21.5t-21.5 52.5z" />
<glyph unicode="&#xf0;" horiz-adv-x="917" d="M37 279q0 130 60 258t165.5 212.5t222.5 84.5q55 0 98 -16.5t69 -44.5t40.5 -56t20.5 -58h8q32 337 -109 525l-239 -166l-23 35l236 161q-77 86 -193 140l19 32q137 -52 231 -131l191 131l22 -34l-182 -125q178 -178 178 -473q0 -101 -21.5 -207.5t-67.5 -209t-110 -183 t-156 -130t-198 -49.5q-129 0 -195.5 84.5t-66.5 219.5zM158 215q0 -205 159 -205q121 0 208 107t134 274q23 88 23 162q0 113 -50 174t-124 61q-66 0 -124.5 -42t-98.5 -107t-69.5 -143t-43.5 -151t-14 -130z" />
<glyph unicode="&#xf1;" horiz-adv-x="923" d="M49 647q34 90 110.5 164t157.5 74q35 0 54.5 -18t19.5 -52q0 -39 -26 -123l-117 -364h10q31 65 52 105.5t63 108.5t90 132q162 211 289 211q75 0 75 -78q0 -62 -59 -215l-160 -420q-16 -46 -16 -68q0 -28 22 -28q33 0 84.5 56t89.5 120l33 -21q-22 -35 -38.5 -60.5 t-48 -65.5t-59 -65.5t-63.5 -45t-69 -19.5q-39 0 -56.5 21t-17.5 53q0 38 39 144l168 454q26 74 26 101q0 34 -32 34q-44 0 -110 -68t-129 -167.5t-112.5 -188.5t-78.5 -153q-52 -107 -62 -135l-28 -84q-22 -8 -53.5 -0.5t-41.5 30.5l197 646q24 81 24 104q0 33 -30 33 q-71 0 -160 -168zM340 1092q13 68 35 116.5t48 73t51.5 35t53.5 10.5q41 0 70.5 -18t63.5 -54l18 -20q29 -32 38.5 -41.5t27 -20t36.5 -10.5q48 0 81.5 50.5t45.5 115.5h39q-13 -68 -35 -116.5t-48 -73t-51.5 -35t-53.5 -10.5q-41 0 -70 17.5t-63 53.5l-15 17q-47 52 -65 63 q-20 12 -41 12q-48 0 -81.5 -50t-45.5 -115h-39z" />
<glyph unicode="&#xf2;" horiz-adv-x="765" d="M25 225q0 83 31.5 188.5t84.5 198.5q156 273 353 273q92 0 144 -71.5t52 -186.5q0 -83 -31.5 -188.5t-85.5 -198.5q-156 -273 -352 -273q-92 0 -144 71.5t-52 186.5zM121 158q0 -67 17.5 -98t56.5 -31q67 0 145 76.5t143 199.5q113 211 113 395q0 67 -17.5 98t-56.5 31 q-67 0 -145.5 -77t-143.5 -199q-112 -209 -112 -395zM365 1333q0 22 16 35.5t37 13.5q37 0 65 -39q30 -40 33 -45l176 -251h-35l-245 213q-27 23 -37 37.5t-10 35.5z" />
<glyph unicode="&#xf3;" horiz-adv-x="765" d="M25 225q0 83 31.5 188.5t84.5 198.5q156 273 353 273q92 0 144 -71.5t52 -186.5q0 -83 -31.5 -188.5t-85.5 -198.5q-156 -273 -352 -273q-92 0 -144 71.5t-52 186.5zM121 158q0 -67 17.5 -98t56.5 -31q67 0 145 76.5t143 199.5q113 211 113 395q0 67 -17.5 98t-56.5 31 q-67 0 -145.5 -77t-143.5 -199q-112 -209 -112 -395zM469 1047l207 294q30 41 69 41q23 0 37.5 -13.5t14.5 -35.5q0 -34 -41 -69l-252 -217h-35z" />
<glyph unicode="&#xf4;" horiz-adv-x="765" d="M25 225q0 83 31.5 188.5t84.5 198.5q156 273 353 273q92 0 144 -71.5t52 -186.5q0 -83 -31.5 -188.5t-85.5 -198.5q-156 -273 -352 -273q-92 0 -144 71.5t-52 186.5zM121 158q0 -67 17.5 -98t56.5 -31q67 0 145 76.5t143 199.5q113 211 113 395q0 67 -17.5 98t-56.5 31 q-67 0 -145.5 -77t-143.5 -199q-112 -209 -112 -395zM375 1051l313 335h25l22 -333l-6 -6h-86l-10 235l-207 -235h-49z" />
<glyph unicode="&#xf5;" horiz-adv-x="765" d="M25 225q0 83 31.5 188.5t84.5 198.5q156 273 353 273q92 0 144 -71.5t52 -186.5q0 -83 -31.5 -188.5t-85.5 -198.5q-156 -273 -352 -273q-92 0 -144 71.5t-52 186.5zM121 158q0 -67 17.5 -98t56.5 -31q67 0 145 76.5t143 199.5q113 211 113 395q0 67 -17.5 98t-56.5 31 q-67 0 -145.5 -77t-143.5 -199q-112 -209 -112 -395zM283 1092q13 68 35 116.5t48 73t51.5 35t53.5 10.5q41 0 70 -18t63 -54l19 -20q29 -32 38.5 -41.5t27 -20t36.5 -10.5q48 0 81.5 50.5t45.5 115.5h39q-13 -68 -35 -116.5t-48.5 -73t-52 -35t-53.5 -10.5q-41 0 -70 17.5 t-63 53.5l-14 17q-47 52 -65 63q-20 12 -41 12q-48 0 -81.5 -50t-45.5 -115h-39z" />
<glyph unicode="&#xf6;" horiz-adv-x="765" d="M25 225q0 83 31.5 188.5t84.5 198.5q156 273 353 273q92 0 144 -71.5t52 -186.5q0 -83 -31.5 -188.5t-85.5 -198.5q-156 -273 -352 -273q-92 0 -144 71.5t-52 186.5zM121 158q0 -67 17.5 -98t56.5 -31q67 0 145 76.5t143 199.5q113 211 113 395q0 67 -17.5 98t-56.5 31 q-67 0 -145.5 -77t-143.5 -199q-112 -209 -112 -395zM383 1221q0 29 21.5 50t50.5 21q31 0 52 -21t21 -50q0 -31 -21 -52.5t-52 -21.5q-29 0 -50.5 21.5t-21.5 52.5zM688 1221q0 29 21.5 50t50.5 21q31 0 52.5 -21t21.5 -50q0 -31 -21.5 -52.5t-52.5 -21.5q-29 0 -50.5 21.5 t-21.5 52.5z" />
<glyph unicode="&#xf7;" horiz-adv-x="1310" d="M125 449v63h1044v-63h-1044zM532 82q0 44 32.5 76t76.5 32t76.5 -32t32.5 -76t-32.5 -76.5t-76.5 -32.5t-76.5 32.5t-32.5 76.5zM535 879q0 44 32 76t76 32t76.5 -32t32.5 -76t-32.5 -76.5t-76.5 -32.5t-76 32.5t-32 76.5z" />
<glyph unicode="&#xf8;" horiz-adv-x="765" d="M-29 -150l111 183q-57 66 -57 192q0 83 31.5 188.5t84.5 198.5q156 273 353 273q46 0 92 -27l114 189h50l-132 -213q72 -75 72 -207q0 -83 -31.5 -188.5t-85.5 -198.5q-156 -273 -352 -273q-57 0 -108 33l-90 -150h-52zM121 158q0 -28 4 -56l436 715q-15 12 -39 12 q-67 0 -145.5 -77t-143.5 -199q-112 -209 -112 -395zM143 49q14 -20 52 -20q67 0 145 76.5t143 199.5q113 211 113 395q0 45 -10 78z" />
<glyph unicode="&#xf9;" horiz-adv-x="915" d="M47 53q0 62 59 215l166 434q17 49 17 68q0 29 -25 29q-80 0 -166 -168l-37 16q37 96 114 167t157 71q39 0 56.5 -21t17.5 -53q0 -37 -39 -143l-168 -455q-27 -76 -27 -100q0 -35 33 -35q44 0 107.5 67.5t125 169t107 187t76.5 153.5q46 95 61 136l29 83q22 8 53 0.5 t41 -30.5l-193 -633q-24 -81 -24 -105q0 -32 30 -32q33 0 73 37t64.5 72.5t41.5 68.5l30 -19q-42 -93 -121 -175.5t-163 -82.5q-35 0 -54.5 18t-19.5 52q0 36 27 123l116 364h-10q-7 -15 -27 -58.5t-32.5 -68.5t-33.5 -64.5t-46 -77.5t-55 -77q-76 -99 -146 -155t-139 -56 q-76 0 -76 78zM401 1333q0 22 16 35.5t38 13.5q37 0 65 -39q30 -40 33 -45l176 -251h-35l-245 213q-19 17 -27 25t-14.5 20.5t-6.5 27.5z" />
<glyph unicode="&#xfa;" horiz-adv-x="915" d="M47 53q0 62 59 215l166 434q17 49 17 68q0 29 -25 29q-80 0 -166 -168l-37 16q37 96 114 167t157 71q39 0 56.5 -21t17.5 -53q0 -37 -39 -143l-168 -455q-27 -76 -27 -100q0 -35 33 -35q44 0 107.5 67.5t125 169t107 187t76.5 153.5q46 95 61 136l29 83q22 8 53 0.5 t41 -30.5l-193 -633q-24 -81 -24 -105q0 -32 30 -32q33 0 73 37t64.5 72.5t41.5 68.5l30 -19q-42 -93 -121 -175.5t-163 -82.5q-35 0 -54.5 18t-19.5 52q0 36 27 123l116 364h-10q-7 -15 -27 -58.5t-32.5 -68.5t-33.5 -64.5t-46 -77.5t-55 -77q-76 -99 -146 -155t-139 -56 q-76 0 -76 78zM469 1047l207 294q30 41 69 41q23 0 37.5 -13.5t14.5 -35.5q0 -34 -41 -69l-252 -217h-35z" />
<glyph unicode="&#xfb;" horiz-adv-x="915" d="M47 53q0 62 59 215l166 434q17 49 17 68q0 29 -25 29q-80 0 -166 -168l-37 16q37 96 114 167t157 71q39 0 56.5 -21t17.5 -53q0 -37 -39 -143l-168 -455q-27 -76 -27 -100q0 -35 33 -35q44 0 107.5 67.5t125 169t107 187t76.5 153.5q46 95 61 136l29 83q22 8 53 0.5 t41 -30.5l-193 -633q-24 -81 -24 -105q0 -32 30 -32q33 0 73 37t64.5 72.5t41.5 68.5l30 -19q-42 -93 -121 -175.5t-163 -82.5q-35 0 -54.5 18t-19.5 52q0 36 27 123l116 364h-10q-7 -15 -27 -58.5t-32.5 -68.5t-33.5 -64.5t-46 -77.5t-55 -77q-76 -99 -146 -155t-139 -56 q-76 0 -76 78zM418 1051l313 335h25l22 -333l-6 -6h-86l-10 235l-207 -235h-49z" />
<glyph unicode="&#xfc;" horiz-adv-x="915" d="M47 53q0 62 59 215l166 434q17 49 17 68q0 29 -25 29q-80 0 -166 -168l-37 16q37 96 114 167t157 71q39 0 56.5 -21t17.5 -53q0 -37 -39 -143l-168 -455q-27 -76 -27 -100q0 -35 33 -35q44 0 107.5 67.5t125 169t107 187t76.5 153.5q46 95 61 136l29 83q22 8 53 0.5 t41 -30.5l-193 -633q-24 -81 -24 -105q0 -32 30 -32q33 0 73 37t64.5 72.5t41.5 68.5l30 -19q-42 -93 -121 -175.5t-163 -82.5q-35 0 -54.5 18t-19.5 52q0 36 27 123l116 364h-10q-7 -15 -27 -58.5t-32.5 -68.5t-33.5 -64.5t-46 -77.5t-55 -77q-76 -99 -146 -155t-139 -56 q-76 0 -76 78zM403 1221q0 29 21.5 50t50.5 21q31 0 52.5 -21t21.5 -50q0 -31 -21.5 -52.5t-52.5 -21.5q-29 0 -50.5 21.5t-21.5 52.5zM709 1221q0 29 21 50t50 21q31 0 52.5 -21t21.5 -50q0 -31 -21.5 -52.5t-52.5 -21.5q-29 0 -50 21.5t-21 52.5z" />
<glyph unicode="&#xfd;" horiz-adv-x="811" d="M-301 -350q0 37 21.5 57.5t50.5 20.5q14 0 28 -7l74 -151q68 0 141 108.5t131 280.5q58 169 99 355t41 311q0 72 -16 113.5t-42 41.5q-39 0 -79.5 -53.5t-69.5 -114.5l-33 17q32 94 103.5 175t148.5 81q94 0 94 -205q0 -137 -41 -318.5t-86 -281.5l4 -2 q135 135 261.5 297.5t158.5 265.5l-45 145v9q0 36 21.5 63t62.5 27q35 0 56.5 -22t21.5 -62q0 -83 -65.5 -204t-170.5 -251q-134 -164 -331 -352q-101 -234 -183 -336q-101 -127 -213 -127q-67 0 -105 32t-38 87zM471 1047l207 294q30 41 70 41q23 0 37 -13.5t14 -35.5 q0 -34 -41 -69l-252 -217h-35z" />
<glyph unicode="&#xfe;" horiz-adv-x="825" d="M-246 -444l17 47l139 18l369 1149q-117 -45 -218 -127l-10 6l62 111l178 53l160 494l-156 34l10 35q65 5 268 29l17 -23l-182 -530l4 -2q101 35 153 35q77 0 134 -57t57 -175q0 -168 -81 -322.5t-214.5 -248.5t-278.5 -94q-29 0 -43 2l-114 -369l190 -20l-16 -47 q-99 6 -254 6q-130 0 -191 -4zM158 37q14 -4 43 -4q107 0 210.5 97.5t165.5 236.5t62 264q0 99 -46 142.5t-112 43.5q-44 0 -84 -16z" />
<glyph unicode="&#xff;" horiz-adv-x="811" d="M-301 -350q0 37 21.5 57.5t50.5 20.5q14 0 28 -7l74 -151q68 0 141 108.5t131 280.5q58 169 99 355t41 311q0 72 -16 113.5t-42 41.5q-39 0 -79.5 -53.5t-69.5 -114.5l-33 17q32 94 103.5 175t148.5 81q94 0 94 -205q0 -137 -41 -318.5t-86 -281.5l4 -2 q135 135 261.5 297.5t158.5 265.5l-45 145v9q0 36 21.5 63t62.5 27q35 0 56.5 -22t21.5 -62q0 -83 -65.5 -204t-170.5 -251q-134 -164 -331 -352q-101 -234 -183 -336q-101 -127 -213 -127q-67 0 -105 32t-38 87zM422 1221q0 29 21.5 50t50.5 21q31 0 52 -21t21 -50 q0 -31 -21 -52.5t-52 -21.5q-29 0 -50.5 21.5t-21.5 52.5zM727 1221q0 29 21.5 50t50.5 21q31 0 52 -21t21 -50q0 -31 -21 -52.5t-52 -21.5q-29 0 -50.5 21.5t-21.5 52.5z" />
<glyph unicode="&#x152;" horiz-adv-x="1880" d="M123 516q0 107 34 218.5t98.5 211t149 178t195 124.5t227.5 46h1063l-26 -270h-25l-57 139q-25 62 -41 78q-10 8 -35 8h-428l-246 2q132 -64 206.5 -190t74.5 -283q0 -44 -6 -90h237q18 0 27 4.5t18 18.5l103 149h28l-108 -405h-29l-18 161q-1 14 -9 18.5t-24 4.5h-234 q-36 -188 -171 -356.5t-312 -241.5q150 4 254 4h297q41 0 61 2.5t51 17.5t64.5 46t85.5 88l94 104h29l-117 -303h-1024q-234 -1 -360.5 145t-126.5 371zM274 473q0 -84 18 -158t55.5 -136t102.5 -98t152 -36q100 0 191 49.5t157 131t115 183.5t73.5 209t24.5 205 q0 77 -17 148t-53 134.5t-102 101.5t-155 38q-125 0 -233.5 -73t-178.5 -187t-110 -248.5t-40 -263.5z" />
<glyph unicode="&#x153;" horiz-adv-x="1142" d="M25 225q0 83 31.5 188.5t84.5 198.5q156 273 353 273q75 0 125 -50.5t65 -134.5q146 185 301 185q68 0 102.5 -37.5t34.5 -106.5q0 -90 -53.5 -168t-112.5 -86l-292 -10q-56 -134 -56 -254q0 -69 26.5 -111t84.5 -42q108 0 217 153l27 -20q-68 -113 -146.5 -170.5 t-159.5 -57.5q-136 0 -155 164q-130 -172 -281 -172q-92 0 -144 71.5t-52 186.5zM121 158q0 -67 17.5 -98t56.5 -31q67 0 145 76.5t143 199.5q113 211 113 395q0 67 -17.5 98t-56.5 31q-67 0 -145.5 -77t-143.5 -199q-112 -209 -112 -395zM678 510q181 29 199 33 q82 23 120.5 83t38.5 134q0 82 -55 82q-75 0 -162 -102t-141 -230z" />
<glyph unicode="&#x178;" horiz-adv-x="1083" d="M129 -2l14 51l197 27l141 526l-145 621l-139 24l12 49q94 -6 233 -6q151 0 256 6l-14 -49l-201 -24l135 -568l467 568l-200 24l14 49q94 -6 244 -6q48 0 153 6l-14 -49l-137 -24l-518 -623l-140 -524l197 -27l-14 -51q-94 6 -273 6q-166 0 -268 -6zM604 1516 q0 29 21.5 50t50.5 21q31 0 52.5 -21t21.5 -50q0 -31 -21.5 -52.5t-52.5 -21.5q-29 0 -50.5 21.5t-21.5 52.5zM909 1516q0 29 21.5 50t50.5 21q31 0 52.5 -21t21.5 -50q0 -31 -21.5 -52.5t-52.5 -21.5q-29 0 -50.5 21.5t-21.5 52.5z" />
<glyph unicode="&#x2c6;" horiz-adv-x="1705" d="M444 1051l314 335h24l23 -333l-6 -6h-86l-11 235l-206 -235h-50z" />
<glyph unicode="&#x2dc;" horiz-adv-x="811" d="M102 1092q13 68 35 116.5t48.5 73t52 35t53.5 10.5q41 0 70 -18t63 -54l18 -20q28 -31 38.5 -41.5t28 -20.5t36.5 -10q48 0 81.5 50.5t45.5 115.5h39q-13 -68 -35 -116.5t-48.5 -73t-52 -35t-53.5 -10.5q-41 0 -70 17.5t-63 53.5l-14 17q-27 29 -37.5 40t-30.5 23t-39 12 q-48 0 -81.5 -50t-45.5 -115h-39z" />
<glyph unicode="&#x2000;" horiz-adv-x="886" />
<glyph unicode="&#x2001;" horiz-adv-x="1772" />
<glyph unicode="&#x2002;" horiz-adv-x="886" />
<glyph unicode="&#x2003;" horiz-adv-x="1772" />
<glyph unicode="&#x2004;" horiz-adv-x="590" />
<glyph unicode="&#x2005;" horiz-adv-x="443" />
<glyph unicode="&#x2006;" horiz-adv-x="295" />
<glyph unicode="&#x2007;" horiz-adv-x="295" />
<glyph unicode="&#x2008;" horiz-adv-x="221" />
<glyph unicode="&#x2009;" horiz-adv-x="354" />
<glyph unicode="&#x200a;" horiz-adv-x="98" />
<glyph unicode="&#x2010;" horiz-adv-x="729" d="M109 475l20 74h483l-20 -74h-483z" />
<glyph unicode="&#x2011;" horiz-adv-x="729" d="M109 475l20 74h483l-20 -74h-483z" />
<glyph unicode="&#x2012;" horiz-adv-x="729" d="M109 475l20 74h483l-20 -74h-483z" />
<glyph unicode="&#x2013;" horiz-adv-x="1316" d="M106 416l17 57h1044l-16 -57h-1045z" />
<glyph unicode="&#x2014;" horiz-adv-x="2336" d="M106 416l17 57h2064l-16 -57h-2065z" />
<glyph unicode="&#x2018;" horiz-adv-x="407" d="M231 1032q0 112 78.5 218t190.5 153l10 -27q-90 -53 -148.5 -143.5t-58.5 -169.5q0 -21 2 -29q23 17 55 17q40 0 64.5 -24.5t24.5 -63.5q0 -38 -27 -63.5t-68 -25.5q-54 0 -88.5 41t-34.5 117z" />
<glyph unicode="&#x2019;" horiz-adv-x="391" d="M207 893q90 53 148.5 143.5t58.5 169.5q0 21 -2 29q-21 -16 -56 -16q-39 0 -63.5 24.5t-24.5 63.5q0 38 26.5 63t67.5 25q54 0 88.5 -41t34.5 -117q0 -112 -78 -218.5t-190 -152.5z" />
<glyph unicode="&#x201a;" horiz-adv-x="421" d="M-66 -338q90 53 148.5 143.5t58.5 169.5q0 21 -2 29q-21 -16 -55 -16q-39 0 -63.5 24.5t-24.5 63.5q0 38 26.5 63t67.5 25q54 0 88.5 -41t34.5 -117q0 -112 -78 -218.5t-190 -152.5z" />
<glyph unicode="&#x201c;" horiz-adv-x="741" d="M231 1034q0 112 78.5 218t190.5 153l10 -27q-90 -53 -148.5 -143.5t-58.5 -169.5q0 -21 2 -29q23 17 55 17q40 0 64.5 -24.5t24.5 -63.5q0 -38 -27 -63t-68 -25q-54 0 -88.5 40.5t-34.5 116.5zM565 1034q0 112 78.5 218t190.5 153l10 -27q-90 -53 -148.5 -143.5 t-58.5 -169.5q0 -21 2 -29q23 17 55 17q39 0 63.5 -24.5t24.5 -63.5q0 -38 -26.5 -63t-67.5 -25q-54 0 -88.5 40.5t-34.5 116.5z" />
<glyph unicode="&#x201d;" horiz-adv-x="724" d="M207 893q90 53 148.5 143.5t58.5 169.5q0 21 -2 29q-21 -16 -56 -16q-39 0 -63.5 24.5t-24.5 63.5q0 38 26.5 63t67.5 25q54 0 88.5 -41t34.5 -117q0 -112 -78 -218.5t-190 -152.5zM541 893q90 53 148.5 143.5t58.5 169.5q0 17 -3 29q-21 -16 -55 -16q-39 0 -63.5 24.5 t-24.5 63.5q0 38 26.5 63t67.5 25q54 0 88.5 -41t34.5 -117q0 -112 -78 -218.5t-190 -152.5z" />
<glyph unicode="&#x201e;" horiz-adv-x="755" d="M-66 -338q90 53 148.5 143.5t58.5 169.5q0 21 -2 29q-21 -16 -55 -16q-39 0 -63.5 24.5t-24.5 63.5q0 38 26.5 63t67.5 25q54 0 88.5 -41t34.5 -117q0 -112 -78 -218.5t-190 -152.5zM268 -338q90 53 148.5 143.5t58.5 169.5q0 21 -2 29q-21 -16 -55 -16q-39 0 -63.5 24.5 t-24.5 63.5q0 38 26.5 63t67.5 25q54 0 88.5 -41t34.5 -117q0 -112 -78 -218.5t-190 -152.5z" />
<glyph unicode="&#x2022;" horiz-adv-x="616" d="M178 537q0 52 39 90.5t90 38.5q53 0 91 -38t38 -91t-38 -91t-91 -38q-51 0 -90 38.5t-39 90.5z" />
<glyph unicode="&#x2026;" horiz-adv-x="1644" d="M-6 72q0 39 27.5 66.5t66.5 27.5q40 0 67 -27t27 -67t-27 -67.5t-67 -27.5q-38 0 -66 27.5t-28 67.5zM629 72q0 39 27.5 66.5t66.5 27.5q40 0 67 -27t27 -67t-27 -67.5t-67 -27.5q-39 0 -66.5 27.5t-27.5 67.5zM1243 72q0 39 27.5 66.5t66.5 27.5q40 0 67.5 -27t27.5 -67 t-27.5 -67.5t-67.5 -27.5q-39 0 -66.5 27.5t-27.5 67.5z" />
<glyph unicode="&#x202f;" horiz-adv-x="354" />
<glyph unicode="&#x2039;" horiz-adv-x="593" d="M86 578l8 28q124 67 256.5 175.5t202.5 195.5l39 -21q-24 -39 -69 -90.5t-82.5 -88t-104.5 -101t-94 -90.5q51 -93 93 -211t48 -197l-39 -12q-27 96 -100.5 221.5t-157.5 190.5z" />
<glyph unicode="&#x203a;" horiz-adv-x="589" d="M29 186q24 39 69.5 91t82 88t105 101.5t93.5 90.5q-51 93 -93 211t-48 197l38 12q27 -96 101 -221.5t158 -190.5l-9 -28q-124 -67 -256 -175t-202 -196z" />
<glyph unicode="&#x205f;" horiz-adv-x="443" />
<glyph unicode="&#x20ac;" horiz-adv-x="1316" d="M90 547l19 47h188q5 58 31 158h-197l19 47h192q36 106 94.5 198t137 165t180.5 115t215 42q68 0 127.5 -14t89 -28.5t67.5 -37.5l27 53h37l-51 -317h-31q0 151 -74 225t-194 74q-111 0 -207.5 -67t-161 -171.5t-104.5 -236.5h464l-18 -47h-461q-20 -87 -28 -158h467 l-19 -47h-453q-2 -25 -2 -74q0 -213 83 -330.5t225 -117.5q131 0 227 85t154 222l34 -6l-100 -318h-41l2 53q-2 -1 -16 -10t-25.5 -15t-31 -16t-41 -17t-48 -14t-59 -10.5t-66.5 -3.5q-206 0 -327 138.5t-121 392.5v41h-203z" />
<glyph unicode="&#x2122;" horiz-adv-x="2152" d="M289 1090l33 247h32l31 -34q9 -9 33 -9h516q24 0 33 9l30 34h37l33 -247h-41l-61 147q-6 13 -12.5 16.5t-20.5 3.5h-197v-714l146 -17v-37q-97 5 -203 5q-98 0 -205 -5v37l143 17v714h-196q-14 0 -20.5 -3.5t-10.5 -16.5l-63 -147h-37zM1061 489v37l106 17l97 633l-27 69 l-88 21l4 37l252 -23v-35l-37 -14l156 -414l57 -147h2q39 113 59 164l146 397l-43 14l2 35l229 23l4 -35l-92 -23l82 -702l96 -17v-37q-103 5 -147 5q-93 0 -195 -5v37l125 17l-49 432l-14 153h-2l-41 -122l-193 -521h-24l-172 459l-64 178h-2q-8 -96 -18 -170l-64 -409 l131 -17v-37q-102 5 -147 5q-22 0 -129 -5z" />
<glyph unicode="&#x25fc;" horiz-adv-x="880" d="M0 0v881h881v-881h-881z" />
</font>
</defs>
</svg>
