<?xml version="1.0" standalone="no"?>
<!DOCTYPE svg PUBLIC "-//W3C//DTD SVG 1.1//EN" "http://www.w3.org/Graphics/SVG/1.1/DTD/svg11.dtd" >
<svg xmlns="http://www.w3.org/2000/svg" xmlns:xlink="http://www.w3.org/1999/xlink" version="1.1">
<metadata>
Created by FontForge 20161116 at Tue Aug 25 13:23:20 2015
 By Jimmy Wärting
Copyright (c) 2013 Schick Toikka. All rights reserved. Noe Display is a trademark of Schick Toikka. Unauthorised copying or modification of any of its data is illegal.
</metadata>
<defs>
<font id="NoeDisplay-BoldItalic" horiz-adv-x="312" >
  <font-face 
    font-family="Noe Display Bold"
    font-weight="700"
    font-style="italic"
    font-stretch="normal"
    units-per-em="1000"
    panose-1="2 10 8 0 9 4 0 0 0 2"
    ascent="750"
    descent="-250"
    x-height="503"
    cap-height="703"
    bbox="-296 -260 1199 993"
    underline-thickness="19"
    underline-position="-100"
    slope="-12"
    stemh="19"
    stemv="185"
    unicode-range="U+0020-FB02"
  />
<missing-glyph horiz-adv-x="600" 
d="M557 -250h-488v1001h488v-1001zM323 251l215 -462v927zM302 252l-214 464v-925zM313 230l-214 -461h427zM525 732h-425l212 -458z" />
    <glyph glyph-name="fi" unicode="fi" horiz-adv-x="592" 
d="M39 68l51 304c4 22 14 73 20 95h-65v20h70c36 125 103 226 258 226c41 0 125 -12 164 -28l-67 -150h-2l-85 144c-6 10 -11 16 -24 16c-52 0 -77 -70 -101 -208h135c13 0 27 2 40 3l136 13l-88 -345c-6 -26 -11 -45 -11 -60c0 -13 5 -24 21 -24c13 0 25 7 37 22
c16 21 31 47 43 85h2c-17 -101 -85 -189 -170 -189c-59 0 -83 43 -83 89c0 22 4 51 10 75l75 289c5 18 1 22 -12 22h-139l-53 -304c-34 -193 -115 -399 -289 -399c-41 0 -73 8 -101 25l70 160h2l54 -151c4 -10 7 -12 13 -12c8 0 16 5 23 16c30 43 46 146 66 266z" />
    <glyph glyph-name="fl" unicode="fl" horiz-adv-x="585" 
d="M39 68l55 321c4 26 10 52 16 78h-65v20h70c36 126 101 226 239 226c40 0 68 -13 94 -29l158 44l-129 -571c-6 -25 -8 -44 -8 -55c0 -17 4 -28 22 -28c14 0 27 8 38 22c17 21 31 49 42 85h2c-11 -67 -39 -113 -68 -142c-29 -28 -64 -47 -102 -47c-58 0 -86 41 -86 92
c0 22 5 52 10 74l112 491c3 15 1 17 -8 24c-14 11 -39 22 -61 22c-62 0 -88 -68 -113 -208h107v-20h-110l-53 -304c-34 -193 -115 -399 -289 -399c-41 0 -73 8 -101 25l70 160h2l54 -151c4 -10 7 -12 13 -12c9 0 17 7 25 20c29 46 44 146 64 262z" />
    <glyph glyph-name="f_b" unicode="fb" horiz-adv-x="826" 
d="M809 349c0 -194 -134 -357 -267 -357c-41 0 -72 15 -91 43l-150 -43l138 657c3 15 1 17 -8 24c-14 11 -39 22 -61 22c-62 0 -88 -68 -113 -208h107v-20h-110l-53 -304c-34 -193 -115 -399 -289 -399c-41 0 -73 8 -101 25l70 160h2l54 -151c4 -10 7 -12 13 -12
c10 0 19 9 27 24c25 47 42 144 62 258l55 321c4 26 10 52 16 78h-65v20h70c36 126 101 226 239 226c40 0 68 -13 94 -29l158 44l-88 -403h2c33 92 90 177 170 177c63 0 119 -40 119 -153zM549 359c-24 -44 -50 -117 -92 -316c9 -9 22 -11 32 -11c52 0 89 52 115 116
c30 75 45 169 45 210c0 47 -13 64 -32 64c-16 0 -41 -14 -68 -63z" />
    <glyph glyph-name="f_h" unicode="fh" horiz-adv-x="858" 
d="M448 0h-148l141 649c3 15 1 17 -9 24c-14 11 -40 22 -61 22c-62 0 -89 -68 -114 -208h107v-20h-110l-53 -304c-34 -193 -115 -399 -289 -399c-41 0 -73 8 -101 25l70 160h2l54 -151c4 -10 7 -12 13 -12c11 0 19 13 29 33c24 49 42 142 60 249l55 321c4 26 10 52 16 78
h-65v20h70c36 126 102 226 240 226c39 0 69 -13 94 -29l159 44l-92 -430h2c52 129 132 205 212 205c56 0 90 -38 90 -91c0 -37 -13 -81 -24 -115l-40 -130c-9 -27 -14 -52 -14 -69c0 -16 7 -24 20 -24s26 7 38 22c19 23 31 54 42 85h2c-19 -118 -92 -189 -172 -189
c-58 0 -89 37 -89 85c0 36 12 74 24 111l46 141c9 26 15 51 15 68c0 15 -8 24 -22 24c-35 0 -69 -38 -91 -75c-28 -47 -54 -118 -107 -346z" />
    <glyph glyph-name="f_j" unicode="fj" horiz-adv-x="578" 
d="M398 467h-144l-53 -304c-34 -193 -115 -399 -289 -399c-41 0 -73 8 -101 25l70 160h2l54 -151c3 -10 7 -12 13 -12c13 0 20 17 32 45c20 49 40 137 57 237l53 311c4 23 12 66 18 88h-65v20h70c36 125 103 226 258 226c41 0 125 -12 164 -28l-67 -150h-2l-85 144
c-6 10 -11 16 -24 16c-52 0 -77 -70 -101 -208h135c13 0 27 1 40 2l143 14l-80 -352c-42 -187 -115 -387 -307 -387c-41 0 -72 9 -98 25l80 159h2l38 -151c2 -9 6 -11 13 -11c12 0 20 12 32 31c29 46 58 147 78 246l76 380c4 18 1 24 -12 24z" />
    <glyph glyph-name="f_k" unicode="fk" horiz-adv-x="823" 
d="M645 -8c-54 0 -82 29 -93 98l-20 122c-5 28 -13 57 -24 56l-58 -268h-148l138 649c3 14 1 17 -8 24c-15 11 -40 22 -62 22c-62 0 -88 -68 -113 -208h107v-20h-110l-53 -304c-34 -193 -115 -399 -289 -399c-41 0 -73 8 -101 25l70 160h2l54 -151c4 -10 7 -12 13 -12
c10 0 18 9 27 25c26 47 43 144 62 257l55 321c4 26 10 52 16 78h-65v20h70c36 126 101 226 239 226c40 0 68 -13 94 -29l158 44l-97 -452l150 105c16 11 19 14 19 21c0 4 -4 11 -12 24l-37 59v2h249v-2l-143 -77c-22 -12 -32 -17 -47 -28l-38 -28l42 -203
c11 -54 19 -75 41 -75c15 0 28 9 39 24c16 20 28 47 39 83h2c-19 -120 -92 -189 -168 -189z" />
    <glyph glyph-name="g_f" unicode="gf" horiz-adv-x="803" 
d="M186 -236c-142 0 -237 46 -237 119c0 57 56 92 138 109c-45 15 -76 41 -76 83c0 51 48 97 144 108c-63 18 -109 60 -109 135c0 114 106 184 228 184c49 0 97 -13 133 -34c11 -7 14 -8 22 0l133 133h2l-33 -165h-91c16 -16 32 -47 32 -83c0 -119 -114 -181 -230 -181
c-26 0 -52 3 -76 8c-15 -5 -27 -17 -27 -31c0 -15 12 -29 46 -36l128 -25c93 -19 136 -72 136 -135c0 -67 -41 -118 -99 -150c19 -13 41 -21 65 -21c37 0 55 21 74 66c20 48 32 102 53 220l56 322c4 23 9 56 15 78h-61v19h66c36 129 103 226 244 226c41 0 80 -5 119 -22
l-71 -156h-2l-52 147c-4 12 -6 13 -16 13c-43 0 -58 -81 -79 -208h107v-19h-111l-53 -305c-34 -193 -105 -399 -280 -399c-33 0 -68 12 -92 30c-43 -20 -94 -30 -146 -30zM242 -46c-57 13 -107 23 -147 35c-33 -25 -50 -57 -50 -97c0 -64 71 -110 148 -110s131 39 131 98
c0 32 -19 60 -82 74zM287 485c-60 0 -98 -133 -98 -218c0 -50 11 -78 38 -78c62 0 101 130 101 216c0 50 -10 80 -41 80z" />
    <glyph glyph-name="q_f" unicode="qf" horiz-adv-x="829" 
d="M137 -8c-68 0 -117 61 -117 155c0 192 124 356 256 356c47 0 79 -16 101 -46l149 46h2l-144 -670c-4 -18 -5 -21 6 -31c13 -11 30 -20 51 -20c36 0 55 21 73 66c19 48 32 102 53 220l56 322c4 23 10 56 16 78h-65v19h69c36 129 103 226 244 226c41 0 80 -5 119 -22
l-70 -156h-2l-53 147c-4 12 -6 13 -16 13c-43 0 -57 -81 -79 -208h107v-19h-111l-52 -305c-33 -193 -106 -398 -280 -398c-15 0 -30 3 -45 7h-267v2l82 48c13 7 15 11 19 29l70 324h-2c-35 -98 -90 -183 -170 -183zM282 147c22 45 45 108 89 301c-8 10 -22 15 -35 15
c-40 0 -76 -35 -101 -85c-40 -77 -57 -183 -57 -243c0 -42 11 -62 34 -62c22 0 47 27 70 74z" />
    <glyph glyph-name="g_j" unicode="gj" horiz-adv-x="788" 
d="M401 -236c-32 0 -61 10 -82 24c-40 -16 -86 -24 -133 -24c-142 0 -237 46 -237 119c0 57 56 92 138 109c-45 15 -76 41 -76 83c0 51 48 97 144 108c-63 18 -109 60 -109 135c0 114 106 184 228 184c49 0 97 -13 133 -34c11 -7 14 -8 22 0l133 133h2l-33 -165h-91
c16 -16 32 -47 32 -83c0 -119 -114 -181 -230 -181c-26 0 -52 3 -76 8c-15 -5 -27 -17 -27 -31c0 -15 12 -29 46 -36l128 -25c93 -19 136 -72 136 -135c0 -72 -45 -125 -109 -156c22 -11 41 -15 57 -15c24 0 43 8 59 26c39 44 65 147 87 255l74 365c4 17 0 22 -11 28l-58 29
v2l238 16l-81 -352c-52 -229 -126 -387 -304 -387zM123 -18l-28 7c-33 -25 -50 -57 -50 -97c0 -64 71 -110 148 -110s131 39 131 98c0 32 -19 60 -82 74c-16 4 -113 26 -119 28zM287 485c-60 0 -98 -133 -98 -218c0 -50 11 -78 38 -78c62 0 101 130 101 216
c0 50 -10 80 -41 80zM733 551c-41 0 -77 24 -77 68c0 50 42 82 89 82c43 0 76 -26 76 -69c0 -49 -40 -81 -88 -81z" />
    <glyph glyph-name=".notdef" horiz-adv-x="600" 
d="M557 -250h-488v1001h488v-1001zM323 251l215 -462v927zM302 252l-214 464v-925zM313 230l-214 -461h427zM525 732h-425l212 -458z" />
    <glyph glyph-name="Eth" unicode="&#xd0;" horiz-adv-x="713" 
d="M35 350v19h88l51 248c3 15 2 18 -5 26l-56 58v2h311c190 0 289 -109 289 -265c0 -241 -173 -438 -413 -438h-328v2l76 57c11 9 14 12 17 27l54 264h-84zM381 683c-18 0 -19 -2 -23 -21l-61 -293h109v-19h-113l-63 -307c-4 -20 -2 -23 19 -23h16c141 0 222 178 252 348
c9 48 14 95 14 142c0 107 -36 173 -122 173h-28z" />
    <glyph glyph-name="eth" unicode="&#xf0;" horiz-adv-x="540" 
d="M186 533l-8 17l145 68c-24 47 -63 77 -121 92v2c3 0 15 -1 27 -2c73 -6 130 -25 174 -55l131 61l6 -17l-121 -57c73 -59 103 -151 103 -261c0 -207 -105 -390 -308 -390c-125 0 -196 81 -196 203c0 162 117 301 235 301c53 0 85 -21 104 -56c-1 64 -8 118 -26 162z
M215 10c72 0 140 264 142 417c-11 13 -23 18 -42 18c-92 0 -141 -215 -141 -342c0 -56 9 -93 41 -93z" />
    <glyph glyph-name="Lslash" unicode="&#x141;" horiz-adv-x="567" 
d="M239 20h85c18 0 23 1 37 18l180 222h2l-53 -260h-523v2l78 64c11 9 14 11 17 26l40 195l-77 -31l-6 18l87 35l62 302c3 15 3 18 -4 27l-54 63v2h321v-2l-79 -63c-11 -9 -12 -12 -15 -27l-46 -226l113 46l6 -18l-124 -51l-65 -319c-4 -21 -3 -23 18 -23z" />
    <glyph glyph-name="lslash" unicode="&#x142;" horiz-adv-x="323" 
d="M334 728l-80 -350l91 37l6 -17l-102 -42l-45 -199c-6 -25 -8 -44 -8 -55c0 -17 4 -28 22 -28c13 0 26 8 37 22c17 22 32 49 43 85h2c-12 -71 -43 -119 -76 -149c-28 -24 -60 -40 -95 -40c-57 0 -86 41 -86 92c0 22 6 52 11 74l29 130l-79 -32l-7 18l91 37l77 337
c4 18 1 21 -9 26l-60 27v2z" />
    <glyph glyph-name="Scaron" unicode="&#x160;" horiz-adv-x="550" 
d="M374 740h-2l-127 174l1 2l146 -67l179 67l1 -2zM518 215c0 -123 -119 -224 -287 -225c-80 0 -168 8 -233 29l66 237h2l75 -226c4 -13 8 -15 21 -17c14 -2 29 -4 46 -4c76 0 147 43 147 125c0 59 -41 101 -108 150l-37 27c-67 49 -116 106 -116 190c0 126 109 211 255 212
c73 0 149 -8 218 -27l-48 -224h-2l-92 215c-4 10 -8 13 -18 15c-13 2 -28 3 -43 3c-65 0 -121 -35 -121 -108c0 -59 43 -109 111 -157l35 -25c76 -54 129 -105 129 -190z" />
    <glyph glyph-name="scaron" unicode="&#x161;" horiz-adv-x="406" 
d="M255 532h-2l-127 174l1 2l146 -67l179 67l1 -2zM270 298c62 -50 95 -84 95 -141c0 -77 -65 -165 -207 -165c-53 0 -117 12 -163 33l57 172h2l74 -175c4 -9 6 -11 18 -13c6 -1 9 -1 14 -1c52 0 82 33 82 75c0 34 -30 55 -92 107c-64 55 -92 98 -92 155
c0 81 64 158 187 158c50 0 96 -7 154 -23l-56 -169h-2l-74 166c-3 7 -5 9 -13 9h-6c-44 0 -72 -28 -72 -70c0 -34 29 -66 94 -118z" />
    <glyph glyph-name="Yacute" unicode="&#xdd;" horiz-adv-x="621" 
d="M583 543l-166 -238c-10 -14 -11 -20 -15 -38l-35 -171c-3 -15 -3 -17 5 -26l60 -68v-2h-337v2l87 68c11 9 13 11 16 26l31 154c3 11 3 17 0 25l-101 316c-6 19 -11 30 -18 43l-36 67v2h312v-2l-74 -69c-10 -9 -11 -12 -8 -24l89 -306l170 247c11 15 10 18 4 31l-61 121v2
h250v-2l-138 -121c-17 -15 -23 -20 -35 -37zM374 745l-1 1l109 165h164v-2z" />
    <glyph glyph-name="yacute" unicode="&#xfd;" horiz-adv-x="485" 
d="M260 378c20 -76 39 -217 35 -353l2 -1c28 41 47 86 62 127c19 53 29 112 29 158c0 61 -16 110 -49 148v2l157 44c-16 -195 -103 -392 -215 -527c-104 -127 -248 -212 -332 -212c-13 0 -25 2 -32 6l56 167h2l105 -96c7 -7 12 -7 19 -3c17 10 32 21 52 38c8 7 10 13 10 26
v14c0 180 -32 366 -60 450c-9 28 -18 35 -29 35c-17 0 -37 -22 -61 -86h-2c14 100 70 188 147 188c66 0 86 -61 104 -125zM222 537l-1 1l109 165h164v-2z" />
    <glyph glyph-name="Thorn" unicode="&#xde;" horiz-adv-x="644" 
d="M287 0h-320v2l79 63c11 8 13 12 16 27l106 519c3 15 3 18 -4 27l-54 63v2h321v-2l-79 -63c-11 -9 -12 -12 -15 -27l-8 -39h88c123 0 227 -50 227 -178c0 -170 -148 -263 -344 -263h-62l-8 -39c-3 -15 -3 -18 4 -27l53 -63v-2zM242 151h36c123 0 191 145 191 272
c0 81 -35 129 -101 129h-43z" />
    <glyph glyph-name="thorn" unicode="&#xfe;" horiz-adv-x="525" 
d="M307 728l-89 -403h2c33 93 91 178 171 178c64 0 118 -47 118 -149c0 -198 -134 -362 -266 -362c-44 0 -69 10 -91 37l-39 -188c-3 -14 -3 -17 10 -23l93 -44v-2h-318v2l49 39c13 10 15 13 18 28l172 803c4 20 5 24 -10 31l-58 26v2zM243 348c-30 -58 -56 -165 -87 -308
c10 -7 21 -10 34 -10c33 0 66 24 99 84c35 66 60 164 60 251c0 40 -14 57 -31 57c-21 0 -49 -20 -75 -74z" />
    <glyph glyph-name="Zcaron" unicode="&#x17d;" horiz-adv-x="614" 
d="M419 740h-2l-127 174l1 2l146 -67l179 67l1 -2zM527 0h-564v2l533 681h-179c-18 0 -22 -1 -31 -12l-191 -236h-3l56 268h553l-1 -2l-532 -681h189c17 0 21 1 30 12l192 235h2z" />
    <glyph glyph-name="zcaron" unicode="&#x17e;" horiz-adv-x="404" 
d="M275 532h-2l-127 174l1 2l146 -67l179 67l1 -2zM337 47c-33 -46 -68 -59 -104 -59c-33 0 -64 12 -111 26c-24 7 -52 18 -75 18c-25 0 -49 -6 -62 -44h-2c1 13 3 26 7 39c8 29 24 54 52 80l237 226c-22 2 -51 10 -72 17c-38 12 -76 24 -104 24c-29 0 -58 -13 -80 -80h-2
c32 178 97 215 154 215c32 0 65 -13 116 -30c22 -7 50 -17 71 -17c27 0 56 12 70 52h2c-4 -45 -25 -84 -64 -121l-242 -231c60 -4 130 -38 178 -38c30 0 61 12 88 87h2c-11 -75 -37 -132 -59 -164z" />
    <glyph glyph-name="onehalf" unicode="&#xbd;" horiz-adv-x="520" 
d="M390 718l-53 -257c-1 -5 -1 -7 4 -10l57 -30v-2h-236v2l69 30c7 3 8 5 9 10l38 183c1 5 2 7 -4 9l-65 18v2zM482 361v-19h-399v19h399zM268 294c70 0 111 -27 111 -71c0 -72 -100 -122 -202 -151v-2h107c20 0 25 1 36 9l39 28h2l-40 -107h-250v2c32 24 94 77 101 83
c54 45 111 94 111 157c0 25 -13 37 -34 37h-5c-7 0 -11 -3 -14 -8l-66 -97h-2l-28 95c40 16 83 25 134 25z" />
    <glyph glyph-name="onequarter" unicode="&#xbc;" horiz-adv-x="520" 
d="M83 342v19h399v-19h-399zM363 71h-66l-7 -34c-1 -5 -1 -7 4 -10l33 -25v-2h-179v2l47 25c4 2 6 5 7 11l7 33h-141v2l206 216h67l-41 -203h10c7 0 12 2 17 8l62 81h2zM100 86h112l31 148zM398 421v-2h-236v2l69 30c7 3 8 5 9 10l38 183c1 5 2 7 -4 9l-65 18v2l181 45
l-53 -257c-1 -5 -1 -7 4 -10z" />
    <glyph glyph-name="onesuperior" unicode="&#xb9;" horiz-adv-x="266" 
d="M294 421v-2h-236v2l69 30c7 3 8 5 9 10l38 183c1 5 1 8 -4 9l-65 18v2l181 45l-53 -257c-1 -5 -1 -7 4 -10z" />
    <glyph glyph-name="threequarters" unicode="&#xbe;" horiz-adv-x="520" 
d="M363 71h-66l-7 -34c-1 -5 -1 -7 4 -10l33 -25v-2h-179v2l47 25c4 2 6 5 7 11l7 33h-141v2l206 216h67l-41 -203h10c7 0 12 2 17 8l62 81h2zM444 510c0 -69 -84 -96 -167 -96c-43 0 -84 7 -116 20l75 98h2l16 -94c1 -5 3 -8 11 -8h8c41 0 76 36 76 85c0 30 -21 51 -63 55
v2c46 4 83 37 83 89c0 25 -15 37 -33 37h-7c-7 0 -10 -3 -14 -8l-64 -93h-2l-29 91c37 14 79 25 128 25c74 0 116 -26 116 -66c0 -43 -40 -68 -101 -73v-2c50 -3 81 -28 81 -62zM100 86h112l31 148zM475 342h-412v19h412v-19z" />
    <glyph glyph-name="threesuperior" unicode="&#xb3;" 
d="M340 510c0 -69 -84 -96 -167 -96c-43 0 -84 7 -116 20l75 98h2l16 -94c1 -5 3 -8 11 -8h8c41 0 76 36 76 85c0 30 -21 51 -63 55v2c46 4 83 37 83 89c0 25 -15 37 -33 37h-7c-7 0 -10 -3 -14 -8l-64 -93h-2l-29 91c37 14 79 25 128 25c74 0 116 -26 116 -66
c0 -43 -40 -68 -101 -73v-2c50 -3 81 -28 81 -62z" />
    <glyph glyph-name="twosuperior" unicode="&#xb2;" 
d="M250 713c70 0 111 -27 111 -71c0 -72 -100 -122 -202 -151v-2h107c20 0 25 1 36 9l39 28h2l-40 -107h-250v2c32 24 94 77 101 83c54 45 111 94 111 157c0 25 -13 37 -34 37h-5c-7 0 -11 -3 -14 -8l-66 -97h-2l-28 95c40 16 83 25 134 25z" />
    <glyph glyph-name="brokenbar" unicode="&#xa6;" horiz-adv-x="220" 
d="M17 -250l-18 4l89 435l19 -4zM133 320l-19 4l87 426l19 -4z" />
    <glyph glyph-name="minus" unicode="&#x2212;" horiz-adv-x="540" 
d="M70 314v19h440v-19h-440z" />
    <glyph glyph-name="multiply" unicode="&#xd7;" horiz-adv-x="540" 
d="M142 161l-14 14l148 148l-149 149l14 14l149 -149l149 149l14 -14l-149 -149l148 -148l-14 -14l-148 148z" />
    <glyph glyph-name="space" unicode=" " horiz-adv-x="192" 
 />
    <glyph glyph-name="exclam" unicode="!" horiz-adv-x="310" 
d="M367 703l-215 -484h-2l-19 484h236zM127 147c43 0 76 -27 76 -70c0 -48 -39 -85 -87 -85c-41 0 -73 29 -73 70c0 49 38 85 84 85z" />
    <glyph glyph-name="quotedbl" unicode="&#x22;" horiz-adv-x="363" 
d="M220 605l-84 -146h-2l-20 157c-1 8 -1 13 -1 17c0 42 21 80 68 80c36 0 56 -23 56 -53c0 -17 -7 -38 -17 -55zM395 605l-85 -146h-2l-20 157c-1 7 -1 13 -1 17c0 42 22 80 68 80c36 0 57 -23 57 -53c0 -17 -7 -38 -17 -55z" />
    <glyph glyph-name="numbersign" unicode="#" horiz-adv-x="588" 
d="M511 215h-134l-54 -189l-18 6l52 183h-156l-54 -189l-18 6l52 183h-126v19h131l58 203h-126v19h132l56 197l20 -6l-55 -191h155l56 197l20 -6l-55 -191h126v-19h-132l-58 -203h128v-19zM265 437l-58 -203h155l58 203h-155z" />
    <glyph glyph-name="dollar" unicode="$" horiz-adv-x="555" 
d="M519 215c0 -121 -114 -219 -277 -224l-18 -95l-18 1l18 93c-78 1 -162 9 -225 29l66 237h2l75 -226c4 -13 8 -15 21 -17c14 -2 29 -4 46 -4c6 0 12 0 19 1l49 252l-66 49c-67 49 -116 106 -116 190c0 126 109 211 255 212h15l15 78l19 -1l-15 -78c62 -2 125 -10 184 -26
l-48 -224h-2l-92 215c-4 10 -8 13 -18 15c-12 2 -24 3 -28 3l-48 -248l58 -42c76 -55 129 -105 129 -190zM244 587c0 -47 27 -88 71 -127l46 235c-63 -1 -117 -37 -117 -108zM356 134c0 44 -23 79 -63 114l-46 -235c60 12 109 53 109 121z" />
    <glyph glyph-name="percent" unicode="%" horiz-adv-x="682" 
d="M289 698c-51 0 -82 -164 -82 -220c0 -32 7 -49 29 -49c52 0 82 169 82 221c0 32 -7 48 -29 48zM293 713c70 0 116 -49 116 -111c0 -111 -67 -188 -177 -188c-70 0 -116 50 -116 112c0 111 68 187 177 187zM488 275c-51 0 -82 -164 -82 -220c0 -32 7 -49 29 -49
c52 0 82 169 82 221c0 32 -7 48 -29 48zM492 290c70 0 116 -49 116 -111c0 -111 -67 -188 -177 -188c-70 0 -116 50 -116 112c0 111 68 187 177 187zM693 701l-645 -711l-14 14l644 710z" />
    <glyph glyph-name="ampersand" unicode="&#x26;" horiz-adv-x="706" 
d="M621 232c0 -134 -120 -242 -293 -242c-180 0 -293 91 -293 218c0 129 101 211 226 230v2c-99 12 -129 64 -129 113c0 93 90 159 231 159c64 0 109 -8 153 -25l-77 -147h-2l-50 142c-4 11 -6 12 -20 12c-61 0 -110 -61 -110 -141c0 -42 13 -83 50 -109v-2
c-88 -27 -145 -88 -145 -170c0 -93 70 -165 194 -165c134 0 213 73 213 156c0 56 -28 96 -83 96c-45 0 -76 -28 -76 -62c0 -26 21 -47 57 -44l1 -2c-23 -23 -53 -32 -81 -32c-52 0 -98 34 -98 89c0 45 34 76 95 111l205 117c25 14 31 29 31 44c0 19 -19 36 -50 33l-1 2
c25 18 56 28 85 28c53 0 92 -27 92 -83c0 -46 -34 -76 -80 -100l-164 -86v-2c70 -4 119 -65 119 -140z" />
    <glyph glyph-name="quotesingle" unicode="'" horiz-adv-x="188" 
d="M237 660c0 -17 -7 -38 -17 -55l-84 -146h-2l-20 157c-1 7 -1 13 -1 17c0 42 21 80 68 80c36 0 56 -23 56 -53z" />
    <glyph glyph-name="parenleft" unicode="(" horiz-adv-x="340" 
d="M270 666c44 34 108 60 158 71l1 -2c-42 -29 -78 -65 -111 -109c-102 -135 -154 -348 -154 -506c0 -101 18 -204 84 -272l-2 -2c-139 69 -192 188 -192 333c0 206 78 381 216 487z" />
    <glyph glyph-name="parenright" unicode=")" horiz-adv-x="340" 
d="M303 404c0 -206 -78 -382 -216 -487c-44 -33 -108 -60 -158 -71l-1 2c51 36 93 85 130 142c88 133 135 327 135 473c0 101 -18 205 -84 272l2 2c139 -69 192 -187 192 -333z" />
    <glyph glyph-name="asterisk" unicode="*" horiz-adv-x="424" 
d="M328 703l-64 -171l144 112l40 -124l-182 8l149 -102l-105 -76l-48 175l-51 -174l-105 76l152 100l-180 -6l40 124l141 -113l-61 171h130z" />
    <glyph glyph-name="plus" unicode="+" horiz-adv-x="540" 
d="M71 314v19h209v211h20v-211h210v-19h-210v-210h-20v210h-209z" />
    <glyph glyph-name="comma" unicode="," horiz-adv-x="243" 
d="M55 9c-28 6 -48 29 -48 62c0 46 37 81 82 81c44 0 73 -33 73 -77c0 -82 -71 -147 -136 -180c-17 -9 -39 -19 -56 -22v1c19 10 35 21 48 36c23 24 41 53 48 83c2 10 -1 14 -11 16z" />
    <glyph glyph-name="hyphen" unicode="-" horiz-adv-x="351" 
d="M48 237v20h260v-20h-260z" />
    <glyph glyph-name="period" unicode="." horiz-adv-x="243" 
d="M91 147c42 0 75 -27 75 -70c0 -48 -39 -85 -86 -85c-41 0 -74 29 -74 70c0 49 39 85 85 85z" />
    <glyph glyph-name="slash" unicode="/" horiz-adv-x="380" 
d="M443 729l-472 -882l-16 11l471 880z" />
    <glyph glyph-name="zero" unicode="0" horiz-adv-x="655" 
d="M279 8c111 0 206 337 206 540c0 98 -22 147 -69 147c-112 0 -206 -338 -206 -540c0 -98 22 -147 69 -147zM282 -10c-151 0 -238 105 -238 265c0 260 155 458 369 458c151 0 238 -105 238 -265c0 -260 -155 -458 -369 -458z" />
    <glyph glyph-name="one" unicode="1" horiz-adv-x="385" 
d="M252 91c-2 -12 -3 -16 5 -24l66 -65v-2h-340v2l93 65c13 9 14 12 16 24l95 464c2 12 2 16 -7 20l-85 34v2l284 110h2z" />
    <glyph glyph-name="two" unicode="2" horiz-adv-x="544" 
d="M329 713c143 0 223 -53 223 -168c0 -171 -205 -304 -431 -414h249c28 0 31 1 49 17l80 72h2l-79 -220h-452v2c105 101 204 194 269 268c89 101 148 198 148 305c0 68 -22 119 -73 119c-5 0 -12 0 -18 -1c-15 -2 -18 -3 -26 -16l-123 -196h-2l-44 179c76 33 158 53 228 53
z" />
    <glyph glyph-name="three" unicode="3" horiz-adv-x="543" 
d="M503 212c0 -122 -113 -222 -304 -222c-91 0 -161 16 -214 39l106 202h2l45 -199c4 -16 9 -19 24 -21c6 -1 12 -1 17 -1c77 0 146 85 146 208c0 69 -29 130 -107 142v2c111 19 172 109 172 210c0 74 -27 122 -77 122c-6 0 -11 0 -19 -1c-14 -2 -16 -3 -24 -15l-123 -196
h-2l-44 180c65 26 147 51 228 51c152 0 222 -76 222 -166c0 -100 -95 -166 -197 -179v-2c98 -14 149 -78 149 -154z" />
    <glyph glyph-name="four" unicode="4" horiz-adv-x="591" 
d="M393 90c-2 -11 -1 -15 7 -23l58 -65v-2h-327v2l85 64c12 9 15 13 17 24l18 89h-265v1l393 523h141l-105 -504h19c13 0 17 1 28 14l139 177h2l-56 -211h-136zM24 199h231l86 420z" />
    <glyph glyph-name="five" unicode="5" horiz-adv-x="536" 
d="M507 244c0 -152 -117 -254 -313 -254c-84 0 -156 17 -210 38l109 202h2l43 -196c4 -19 8 -20 26 -23c7 -1 10 -1 17 -1c77 0 147 101 147 213c0 95 -43 147 -116 147c-40 0 -85 -14 -119 -32l-2 1l85 366c4 -1 176 -8 201 -8h57c53 0 94 6 125 32l28 24h2l-29 -98
c-23 -79 -64 -95 -153 -97c-22 0 -52 -1 -76 0l-168 8l-45 -198c47 38 115 65 195 65c105 0 194 -71 194 -189z" />
    <glyph glyph-name="six" unicode="6" horiz-adv-x="594" 
d="M287 -9c-140 0 -243 94 -243 271c0 227 140 451 379 451c76 0 135 -11 197 -34l-90 -190h-2l-68 188c-6 14 -10 17 -27 17h-12c-84 0 -150 -146 -185 -304c38 31 84 47 137 47c102 0 193 -65 193 -190c0 -143 -109 -256 -279 -256zM307 400c-27 0 -51 -7 -74 -24
c-16 -76 -25 -153 -25 -217c0 -100 28 -148 76 -148c79 0 120 106 120 216c0 107 -25 173 -97 173z" />
    <glyph glyph-name="seven" unicode="7" horiz-adv-x="509" 
d="M503 589c-13 -15 -22 -30 -31 -48c-79 -156 -153 -343 -228 -541h-207v2c142 214 321 451 430 566v2h-307c-16 0 -21 -1 -33 -13l-68 -65h-1l64 211h478v-2z" />
    <glyph glyph-name="eight" unicode="8" horiz-adv-x="559" 
d="M531 207c0 -139 -135 -217 -285 -217c-124 0 -228 57 -228 167c0 106 91 162 190 176l-24 21c-47 41 -78 90 -78 153c0 138 130 206 259 206c105 0 197 -59 197 -154c0 -91 -77 -143 -167 -160l29 -24c57 -47 107 -94 107 -168zM312 245l-97 82c-49 -36 -86 -88 -86 -163
c0 -87 47 -156 126 -156c62 0 116 46 116 125c0 42 -18 78 -59 112zM255 594c0 -55 25 -100 70 -137l62 -51c47 39 68 84 68 152c0 83 -37 137 -106 137c-58 0 -94 -44 -94 -101z" />
    <glyph glyph-name="nine" unicode="9" horiz-adv-x="601" 
d="M352 713c142 0 245 -94 245 -271c0 -227 -140 -451 -379 -451c-76 0 -135 11 -197 34l90 190h2l68 -188c5 -14 9 -17 25 -17h14c83 0 149 146 185 304c-38 -31 -83 -47 -134 -47c-107 0 -196 66 -196 191c0 142 108 255 277 255zM334 304c26 0 51 7 74 24
c16 75 25 153 25 217c0 101 -28 149 -78 149c-77 0 -118 -107 -118 -216c0 -108 30 -174 97 -174z" />
    <glyph glyph-name="colon" unicode=":" horiz-adv-x="243" 
d="M91 147c42 0 75 -27 75 -70c0 -48 -39 -85 -86 -85c-41 0 -74 29 -74 70c0 49 39 85 85 85zM158 477c42 0 76 -27 76 -69c0 -48 -40 -86 -87 -86c-41 0 -74 29 -74 70c0 49 39 85 85 85z" />
    <glyph glyph-name="semicolon" unicode=";" horiz-adv-x="243" 
d="M89 152c44 0 73 -33 73 -77c0 -82 -71 -146 -136 -180c-17 -9 -39 -18 -56 -22v1c19 10 35 21 48 36c22 25 41 53 48 83c2 10 -1 14 -11 16c-28 6 -48 29 -48 62c0 46 37 81 82 81zM157 477c42 0 76 -27 76 -69c0 -48 -40 -86 -87 -86c-41 0 -74 29 -74 70
c0 49 39 85 85 85z" />
    <glyph glyph-name="less" unicode="&#x3c;" horiz-adv-x="540" 
d="M70 324l390 179l7 -19l-353 -161l353 -161l-7 -19l-390 179v2z" />
    <glyph glyph-name="equal" unicode="=" horiz-adv-x="540" 
d="M70 404v19h440v-19h-440zM70 225v19h440v-19h-440z" />
    <glyph glyph-name="greater" unicode="&#x3e;" horiz-adv-x="540" 
d="M509 322l-390 -179l-7 19l353 161l-353 161l7 19l390 -179v-2z" />
    <glyph glyph-name="question" unicode="?" horiz-adv-x="459" 
d="M223 231c-40 1 -77 41 -77 82c0 121 213 150 213 288c0 46 -18 93 -70 93c-4 0 -10 0 -17 -1c-16 -2 -22 -5 -29 -16l-124 -196h-2l-43 179c66 30 159 53 231 53c131 0 213 -53 213 -150c0 -144 -172 -190 -253 -250c-17 -13 -32 -27 -38 -43c-4 -11 -6 -23 -3 -37z
M174 147c42 0 75 -27 75 -70c0 -48 -39 -85 -86 -85c-41 0 -74 29 -74 70c0 49 39 85 85 85z" />
    <glyph glyph-name="at" unicode="@" horiz-adv-x="1004" 
d="M958 323c0 -176 -112 -331 -267 -331c-85 0 -153 45 -153 135c0 11 1 23 3 35l-3 1c-35 -101 -90 -171 -164 -171c-61 0 -118 50 -118 154c0 184 121 357 260 357c46 0 80 -16 100 -45l156 46l2 -2l-80 -322c-9 -34 -13 -63 -13 -86c0 -48 18 -72 56 -72
c83 0 201 123 201 303c0 206 -158 358 -390 358c-263 0 -475 -208 -475 -491c0 -262 203 -399 422 -399c110 0 193 40 252 76l9 -16c-56 -36 -148 -79 -263 -79c-220 0 -440 133 -440 418c0 296 223 510 497 510c249 0 408 -166 408 -379zM537 191c9 17 67 232 73 257
c-8 11 -23 14 -34 14c-45 0 -80 -41 -101 -82c-34 -67 -60 -168 -60 -250c0 -42 15 -57 34 -57c28 0 66 51 88 118z" />
    <glyph glyph-name="A" unicode="A" horiz-adv-x="632" 
d="M382 96l-16 149h-219l-42 -80c-9 -16 -7 -19 1 -35l63 -128v-2h-237v2l123 128c18 19 21 23 31 42l226 426c10 19 10 21 1 35l-44 68v2h216l66 -593c2 -17 6 -26 12 -41l27 -67v-2h-278v2l62 67c8 8 9 14 8 27zM329 588l-171 -323h206z" />
    <glyph glyph-name="B" unicode="B" horiz-adv-x="655" 
d="M111 703h346c128 0 208 -50 208 -142c0 -112 -89 -180 -232 -190v-2c117 -6 183 -61 183 -158c0 -128 -114 -211 -287 -211h-362v2l79 63c11 9 13 12 16 27l107 519c3 15 3 18 -6 28l-52 62v2zM336 356h-52l-64 -313c-4 -20 -1 -23 22 -23h28c102 0 170 91 170 216
c0 77 -33 120 -104 120zM347 661l-59 -285h51c93 0 153 95 153 200c0 64 -31 107 -88 107h-32c-16 0 -21 -4 -25 -22z" />
    <glyph glyph-name="C" unicode="C" horiz-adv-x="614" 
d="M308 -10c-175 0 -272 113 -272 276c0 249 164 447 410 447c73 0 140 -5 213 -21l-51 -246h-2l-101 232c-6 14 -12 17 -26 17h-17c-126 0 -243 -220 -243 -499c0 -107 33 -188 106 -188h15c18 0 23 4 32 14l196 237h2l-50 -249c-71 -14 -140 -20 -212 -20z" />
    <glyph glyph-name="D" unicode="D" horiz-adv-x="710" 
d="M110 703h318c170 0 282 -106 282 -270c0 -247 -181 -433 -440 -433h-303v2l79 63c10 9 13 12 16 27l106 519c3 15 3 18 -4 27l-54 63v2zM373 683c-19 0 -22 -2 -26 -21l-127 -619c-5 -22 -3 -23 20 -23h17c121 0 205 119 245 273c18 69 28 145 28 222
c0 102 -54 168 -130 168h-27z" />
    <glyph glyph-name="E" unicode="E" horiz-adv-x="594" 
d="M238 20h107c18 0 25 0 39 18l162 208h2l-48 -246h-533v2l78 62c11 9 14 13 17 28l106 519c3 15 3 18 -4 27l-54 63v2h523l-50 -242h-2l-84 203c-8 18 -11 19 -28 19h-94c-22 0 -24 -2 -28 -22l-62 -299h65c16 1 18 2 35 17l109 101h2l-52 -255h-2l-67 101
c-10 15 -14 16 -29 16h-65l-61 -299c-4 -21 -2 -23 18 -23z" />
    <glyph glyph-name="F" unicode="F" horiz-adv-x="569" 
d="M347 661l-62 -299h66c15 1 18 2 35 17l108 101h2l-52 -255h-2l-67 101c-10 15 -13 16 -29 16h-65l-50 -247c-3 -15 -3 -19 6 -26l84 -67v-2h-354v2l79 62c10 9 13 13 16 28l107 519c3 15 2 18 -5 27l-53 63v2h522l-49 -242h-2l-84 203c-8 18 -11 19 -28 19h-94
c-22 0 -25 -2 -29 -22z" />
    <glyph glyph-name="G" unicode="G" horiz-adv-x="674" 
d="M295 -10c-156 0 -259 112 -259 278c0 254 166 445 423 445c68 0 145 -5 222 -23l-50 -245h-2l-106 232c-6 13 -8 17 -23 17h-23c-151 0 -258 -222 -258 -497c0 -127 39 -183 108 -183c22 0 42 4 62 13l39 190c3 17 3 20 -3 29l-43 63v2h299v-2l-69 -63
c-9 -10 -12 -13 -15 -29l-47 -227l-136 26c-42 -17 -80 -26 -119 -26z" />
    <glyph glyph-name="H" unicode="H" horiz-adv-x="752" 
d="M737 611l-107 -519c-3 -15 -3 -18 5 -27l53 -63v-2h-321v2l79 63c11 8 13 12 16 27l53 258h-232l-53 -258c-3 -15 -3 -18 4 -27l53 -63v-2h-320v2l79 63c11 8 13 12 16 27l106 519c3 15 3 18 -4 27l-54 63v2h321v-2l-79 -63c-11 -9 -12 -12 -15 -27l-50 -241h232l50 241
c3 15 2 18 -5 27l-54 63v2h321v-2l-79 -63c-11 -8 -12 -12 -15 -27z" />
    <glyph glyph-name="I" unicode="I" horiz-adv-x="352" 
d="M230 92c-3 -15 -3 -18 4 -27l53 -63v-2h-320v2l79 63c11 8 13 12 16 27l106 519c3 15 3 18 -4 27l-54 63v2h321v-2l-79 -63c-11 -9 -12 -12 -15 -27z" />
    <glyph glyph-name="J" unicode="J" horiz-adv-x="327" 
d="M327 611l-107 -516c-40 -196 -158 -298 -365 -306v2c103 48 163 139 189 264l114 556c3 15 3 19 -4 27l-54 63v2h321v-2l-79 -63c-11 -9 -12 -12 -15 -27z" />
    <glyph glyph-name="K" unicode="K" horiz-adv-x="687" 
d="M337 611l-107 -519c-3 -15 -3 -18 4 -27l53 -63v-2h-320v2l79 63c11 8 13 12 16 27l106 519c3 15 3 18 -4 27l-54 63l1 2h320v-2l-79 -63c-11 -9 -12 -12 -15 -27zM570 95c5 -11 13 -26 22 -37l47 -56v-2h-212l-137 343l252 224c17 16 16 21 7 37l-53 97v2h309v-2
l-186 -104c-29 -16 -36 -20 -59 -40l-132 -115z" />
    <glyph glyph-name="L" unicode="L" horiz-adv-x="569" 
d="M337 611l-116 -568c-4 -21 -3 -23 18 -23h85c18 0 23 1 37 18l180 222h2l-53 -260h-523v2l78 64c11 8 14 11 17 26l106 519c3 15 3 18 -4 27l-54 63v2h321v-2l-79 -63c-11 -9 -12 -12 -15 -27z" />
    <glyph glyph-name="M" unicode="M" horiz-adv-x="875" 
d="M751 89c-3 -13 -2 -16 5 -24l53 -63v-2h-320v2l79 63c10 8 12 11 15 24l83 402c3 17 10 42 15 63l-342 -562h-2l-128 513c-2 7 -8 31 -11 48l-79 -385c-3 -16 -2 -18 6 -33l74 -133v-2h-248v2l128 133c14 15 16 17 19 33l82 396c4 17 3 19 -3 29l-60 108v2h213l123 -487
l296 487h204v-2l-81 -73c-11 -9 -12 -11 -15 -25z" />
    <glyph glyph-name="N" unicode="N" horiz-adv-x="686" 
d="M648 535l-110 -535h-103l-236 533l-75 -365c-3 -16 -2 -18 6 -32l74 -134v-2h-249v2l128 134c14 14 16 17 19 32l78 378c3 16 5 21 -2 32l-75 123v2h205l241 -548l78 380c3 15 2 17 -6 32l-75 134v2h250v-2l-129 -134c-13 -14 -16 -17 -19 -32z" />
    <glyph glyph-name="O" unicode="O" horiz-adv-x="709" 
d="M420 713c194 0 289 -117 289 -283c0 -248 -162 -440 -383 -440c-194 0 -289 117 -289 283c0 248 162 440 383 440zM312 9c132 0 218 351 218 515c0 124 -34 170 -96 170c-132 0 -218 -351 -218 -515c0 -124 34 -170 96 -170z" />
    <glyph glyph-name="P" unicode="P" horiz-adv-x="645" 
d="M110 703h334c123 0 227 -51 227 -178c0 -171 -148 -264 -345 -264h-62l-32 -159c-3 -17 0 -21 7 -28l77 -72v-2h-349v2l79 63c11 8 13 12 16 27l106 519c3 15 3 20 -4 28l-54 62v2zM347 661l-79 -380h43c118 0 185 145 185 273c0 79 -33 129 -89 129h-33
c-18 0 -23 -4 -27 -22z" />
    <glyph glyph-name="Q" unicode="Q" horiz-adv-x="709" 
d="M420 713c194 0 290 -117 290 -283c0 -248 -163 -440 -384 -440c-45 0 -85 7 -119 18l-50 -38l209 -60c44 -12 92 -21 129 -21c33 0 73 10 106 26l48 23l2 -1l-61 -81c-44 -58 -99 -92 -171 -92c-48 0 -90 12 -137 27l-185 58c-30 10 -52 14 -72 14c-3 0 -24 0 -33 -1
l-1 2l197 151c-101 43 -151 137 -151 258c0 248 162 440 383 440zM312 9c132 0 218 351 218 515c0 124 -34 170 -96 170c-132 0 -218 -351 -218 -515c0 -124 34 -170 96 -170z" />
    <glyph glyph-name="R" unicode="R" horiz-adv-x="666" 
d="M327 331h-52l-48 -236c-4 -18 -4 -23 3 -31l50 -62v-2h-313v2l78 64c10 8 9 14 13 31l106 511c4 18 3 22 -4 31l-50 62v2h370c107 0 189 -52 189 -151c0 -127 -104 -208 -256 -212v-2l109 -36l43 -218c3 -15 10 -25 22 -40l34 -42v-2h-214l-61 319c-2 9 -7 12 -19 12z
M343 660l-64 -310h66c83 0 149 101 149 216c0 81 -31 118 -83 118h-38c-24 0 -26 -5 -30 -24z" />
    <glyph glyph-name="S" unicode="S" horiz-adv-x="550" 
d="M518 215c0 -123 -119 -224 -287 -225c-80 0 -168 8 -233 29l66 237h2l75 -226c4 -13 8 -15 21 -17c14 -2 29 -4 46 -4c76 0 147 43 147 125c0 59 -41 101 -108 150l-37 27c-67 49 -116 106 -116 190c0 126 109 211 255 212c73 0 149 -8 218 -27l-48 -224h-2l-92 215
c-4 10 -8 13 -18 15c-13 2 -28 3 -43 3c-65 0 -121 -35 -121 -108c0 -59 43 -109 111 -157l35 -25c76 -54 129 -105 129 -190z" />
    <glyph glyph-name="T" unicode="T" horiz-adv-x="617" 
d="M363 100c-3 -15 -2 -21 5 -30l59 -68v-2h-337v2l87 68c11 8 14 15 17 30l120 583h-54c-16 0 -21 0 -34 -18l-168 -232h-2l56 270h581l-55 -270h-2l-74 232c-6 17 -10 18 -25 18h-54z" />
    <glyph glyph-name="U" unicode="U" horiz-adv-x="657" 
d="M574 256c-34 -166 -109 -266 -289 -266c-139 0 -216 64 -216 183c0 21 3 45 8 70l76 367c3 15 2 19 -5 28l-50 63v2h317v-2l-78 -63c-10 -8 -13 -13 -16 -28l-74 -360c-7 -34 -10 -63 -10 -88c0 -97 48 -135 120 -135c94 0 165 74 196 227l56 270c6 29 5 38 -11 65
l-64 112v2h240v-2l-110 -115c-24 -25 -28 -33 -34 -62z" />
    <glyph glyph-name="V" unicode="V" horiz-adv-x="602" 
d="M305 0h-118l-69 593c-2 16 -5 28 -11 41l-28 67v2h278v-2l-62 -67c-8 -8 -9 -14 -8 -27l55 -491l218 420c8 16 6 21 -1 36l-63 129v2h236v-2l-120 -127c-17 -19 -22 -23 -32 -43z" />
    <glyph glyph-name="W" unicode="W" horiz-adv-x="970" 
d="M980 574c-18 -19 -23 -23 -33 -43l-273 -531h-120l-42 401l-209 -401h-121l-64 593c-2 16 -5 28 -11 41l-28 67v2h278v-2l-61 -67c-8 -9 -10 -14 -9 -26l52 -496l170 324l-16 157c-2 16 -5 27 -9 38l-25 70v2h272v-2l-62 -67c-8 -8 -10 -14 -9 -26l50 -494l218 422
c8 16 6 21 -1 36l-63 129v2h236v-2z" />
    <glyph glyph-name="X" unicode="X" horiz-adv-x="675" 
d="M539 538l-112 -117l136 -311c7 -15 15 -27 22 -36l51 -72v-2h-313v2l60 61c10 10 10 14 5 26l-83 190l-124 -130c-15 -15 -15 -19 -10 -31l49 -116v-2h-276v2l163 110c25 17 39 26 64 53l126 132l-129 296c-7 15 -15 27 -22 36l-51 72v2h313v-2l-59 -61
c-10 -10 -11 -14 -6 -26l76 -175l110 115c15 15 16 19 11 31l-51 116v2h277v-2l-162 -110c-25 -17 -40 -26 -65 -53z" />
    <glyph glyph-name="Y" unicode="Y" horiz-adv-x="621" 
d="M583 543l-166 -238c-10 -14 -11 -20 -15 -38l-35 -171c-3 -15 -3 -17 5 -26l60 -68v-2h-337v2l87 68c11 9 13 11 16 26l31 154c3 11 3 17 0 25l-101 316c-6 19 -11 30 -18 43l-36 67v2h312v-2l-74 -69c-10 -9 -11 -12 -8 -24l89 -306l170 247c11 15 10 18 4 31l-61 121v2
h250v-2l-138 -121c-17 -15 -23 -20 -35 -37z" />
    <glyph glyph-name="Z" unicode="Z" horiz-adv-x="614" 
d="M527 0h-564v2l533 681h-179c-18 0 -22 -1 -31 -12l-191 -236h-3l56 268h553l-1 -2l-532 -681h189c17 0 21 1 30 12l192 235h2z" />
    <glyph glyph-name="bracketleft" unicode="[" horiz-adv-x="364" 
d="M264 641l-143 -697c-2 -12 -2 -13 8 -17l144 -53v-2l-269 -12l176 865l264 -12v-2l-165 -53c-12 -4 -13 -5 -15 -17z" />
    <glyph glyph-name="backslash" unicode="\" horiz-adv-x="380" 
d="M242 -152l-117 886l19 4l117 -886z" />
    <glyph glyph-name="bracketright" unicode="]" horiz-adv-x="364" 
d="M118 -56l143 697c2 12 2 13 -9 17l-144 53v2l269 12l-176 -865l-264 12v2l166 53c12 4 13 5 15 17z" />
    <glyph glyph-name="asciicircum" unicode="^" horiz-adv-x="540" 
d="M290 713l179 -390l-18 -9l-162 354l-162 -354l-18 9l179 390h2z" />
    <glyph glyph-name="underscore" unicode="_" horiz-adv-x="500" 
d="M445 -91h-490v19h490v-19z" />
    <glyph glyph-name="grave" unicode="`" horiz-adv-x="351" 
d="M39 703h163l110 -165l-1 -1l-272 164v2z" />
    <glyph glyph-name="a" unicode="a" horiz-adv-x="559" 
d="M535 502c-25 -107 -75 -308 -84 -341c-7 -25 -10 -44 -10 -59c0 -19 7 -29 20 -29c16 0 29 11 42 29c14 20 28 44 40 80l2 -1c-21 -109 -84 -189 -168 -189c-49 0 -83 31 -84 88c0 23 6 58 15 94h-2c-37 -110 -91 -182 -169 -182c-60 0 -117 51 -117 158
c0 182 119 353 257 353c46 0 76 -15 101 -46l156 46zM371 448c-8 11 -21 15 -34 15c-43 0 -75 -38 -97 -78c-36 -64 -61 -168 -61 -250c0 -45 14 -62 33 -62c22 0 44 20 67 69c29 61 67 195 92 306z" />
    <glyph glyph-name="b" unicode="b" horiz-adv-x="523" 
d="M304 728l-89 -403h2c33 92 90 177 169 177c64 0 120 -40 120 -153c0 -194 -134 -357 -267 -357c-41 0 -72 15 -91 43l-149 -43h-1l137 656c4 18 1 21 -10 26l-59 27v2zM246 359c-25 -44 -50 -117 -92 -316c8 -9 21 -11 32 -11c51 0 89 52 115 116c30 75 45 169 45 210
c0 47 -13 64 -32 64c-16 0 -41 -14 -68 -63z" />
    <glyph glyph-name="c" unicode="c" horiz-adv-x="436" 
d="M198 -8c-108 0 -181 74 -181 192c0 163 120 319 298 319c49 0 92 -7 138 -23l-80 -196h-1l-52 187c-3 12 -5 13 -13 13c-63 0 -125 -169 -125 -272c0 -87 41 -124 87 -124c47 0 96 31 137 109h2c-37 -143 -116 -205 -210 -205z" />
    <glyph glyph-name="d" unicode="d" horiz-adv-x="553" 
d="M136 -8c-57 0 -116 52 -116 164c0 179 119 347 257 347c37 0 74 -14 88 -48l41 193c4 18 1 21 -9 26l-60 27v2l238 25l-126 -572c-4 -17 -7 -36 -7 -52c0 -19 5 -31 21 -31c26 0 57 39 79 109l2 -1c-14 -74 -43 -124 -74 -152c-26 -23 -57 -37 -91 -37
c-50 0 -86 30 -86 88c0 21 4 53 15 94h-2c-38 -112 -91 -182 -170 -182zM284 153c22 49 48 139 79 292c-11 9 -25 14 -38 14c-27 0 -57 -20 -83 -65c-39 -68 -64 -183 -64 -253c0 -51 13 -68 33 -68c26 0 52 31 73 80z" />
    <glyph glyph-name="e" unicode="e" horiz-adv-x="467" 
d="M204 -8c-111 0 -187 76 -187 201c0 160 127 310 298 310c88 0 149 -40 149 -108c0 -95 -116 -164 -282 -165c-1 -8 -1 -16 -1 -23c0 -83 36 -123 99 -123c60 0 119 40 154 122l2 -1c-33 -156 -135 -213 -232 -213zM313 484c-55 0 -118 -130 -130 -242
c107 11 159 93 159 184c0 36 -8 58 -29 58z" />
    <glyph glyph-name="f" unicode="f" horiz-adv-x="300" 
d="M201 163c-34 -193 -115 -399 -289 -399c-41 0 -73 8 -101 25l70 160h2l54 -151c3 -10 7 -12 13 -12c9 0 17 7 24 18c30 45 45 146 65 264l55 322c4 26 10 52 16 78h-65v19h70c35 126 100 226 244 226c41 0 79 -5 118 -22l-70 -156h-2l-52 147c-5 12 -6 13 -17 13
c-43 0 -58 -83 -79 -208h108v-19h-111z" />
    <glyph glyph-name="g" unicode="g" horiz-adv-x="503" 
d="M531 436h-91c16 -16 32 -47 32 -83c0 -119 -114 -181 -230 -181c-26 0 -52 3 -76 8c-15 -5 -27 -17 -27 -31c0 -15 12 -29 46 -36l128 -25c93 -18 136 -72 136 -135c0 -122 -130 -189 -263 -189c-142 0 -237 46 -237 119c0 57 56 92 138 109c-45 15 -76 41 -76 83
c0 51 48 97 144 108c-63 18 -109 60 -109 135c0 114 106 184 228 184c49 0 97 -13 133 -34c11 -7 14 -8 22 0l133 133h2zM119 -17c-1 0 -23 6 -24 6c-33 -25 -50 -57 -50 -97c0 -64 71 -110 148 -110s131 39 131 98c0 32 -19 60 -82 74zM287 485c-60 0 -98 -133 -98 -218
c0 -50 11 -78 38 -78c62 0 101 130 101 216c0 50 -10 80 -41 80z" />
    <glyph glyph-name="h" unicode="h" horiz-adv-x="555" 
d="M517 412c0 -37 -13 -81 -24 -115l-40 -130c-8 -27 -15 -52 -15 -69c0 -16 8 -24 21 -24s26 7 38 22c19 23 31 54 41 85h2c-18 -118 -91 -189 -171 -189c-58 0 -90 37 -90 85c0 36 12 74 24 111l46 141c9 26 16 51 16 68c0 15 -8 24 -22 24c-35 0 -69 -38 -91 -75
c-28 -47 -54 -118 -107 -346h-148l143 648c4 18 1 21 -10 26l-59 27v2l238 25l-97 -430h2c53 129 133 205 212 205c56 0 91 -38 91 -91z" />
    <glyph glyph-name="i" unicode="i" horiz-adv-x="299" 
d="M113 -8c-59 0 -84 43 -84 89c0 22 5 51 11 75l69 271c5 18 2 22 -8 28l-61 30v2l240 16l-87 -345c-7 -26 -11 -45 -11 -60c0 -13 5 -24 20 -24c13 0 26 7 38 22c16 20 31 47 42 85h2c-16 -101 -86 -189 -171 -189zM236 701c42 0 75 -26 75 -69c0 -49 -39 -81 -88 -81
c-41 0 -77 24 -77 68c0 50 42 82 90 82z" />
    <glyph glyph-name="j" unicode="j" horiz-adv-x="279" 
d="M196 151c-43 -187 -118 -387 -319 -387c-40 0 -73 9 -99 25l70 159h2l54 -151c3 -9 7 -11 13 -11c10 0 19 8 29 19c35 41 65 150 87 258l75 365c3 17 0 22 -12 28l-58 29v2l239 16zM146 619c0 50 42 82 90 82c42 0 75 -26 75 -69c0 -49 -39 -81 -88 -81
c-41 0 -77 24 -77 68z" />
    <glyph glyph-name="k" unicode="k" horiz-adv-x="521" 
d="M343 -8c-54 0 -82 29 -93 98l-20 122c-5 28 -13 57 -24 56l-58 -268h-149l137 648c4 18 1 21 -10 26l-59 27v2l238 25l-98 -452l150 105c16 11 19 14 19 21c0 4 -4 11 -12 24l-37 59v2h249v-2l-143 -77c-22 -12 -32 -17 -47 -28l-38 -28l42 -203c11 -54 19 -75 41 -75
c15 0 28 9 39 24c16 20 28 47 39 83h2c-19 -120 -92 -189 -168 -189z" />
    <glyph glyph-name="l" unicode="l" horiz-adv-x="285" 
d="M102 -8c-57 0 -86 41 -86 92c0 22 6 52 11 74l111 490c4 18 1 21 -9 26l-60 27v2l238 25l-130 -571c-6 -25 -8 -44 -8 -55c0 -17 4 -28 22 -28c13 0 26 8 37 22c17 22 32 49 43 85h2c-12 -71 -43 -119 -76 -149c-28 -24 -60 -40 -95 -40z" />
    <glyph glyph-name="m" unicode="m" horiz-adv-x="852" 
d="M750 167c-8 -27 -14 -52 -14 -69c0 -16 7 -24 20 -24c14 0 27 7 38 22c18 24 32 54 42 85h2c-18 -118 -92 -189 -171 -189c-58 0 -90 37 -90 85c0 37 11 73 24 111l46 141c9 26 16 52 16 69c0 15 -8 23 -22 23c-22 0 -45 -16 -65 -39c-47 -57 -72 -122 -133 -382h-149
l77 342c6 26 10 44 10 56c0 17 -8 23 -19 23c-18 0 -44 -17 -65 -43c-42 -53 -73 -123 -131 -378h-149l94 424c5 23 4 25 -10 32l-59 29v2l239 16l-44 -201h2c46 114 130 201 200 201c49 0 95 -32 95 -102c0 -24 -9 -59 -19 -96h2c47 118 130 198 210 198
c55 0 88 -38 88 -91c0 -37 -13 -80 -24 -115z" />
    <glyph glyph-name="n" unicode="n" horiz-adv-x="578" 
d="M477 167c-9 -27 -14 -52 -14 -69c0 -16 7 -24 20 -24s26 7 38 22c19 23 31 54 42 85h2c-19 -118 -92 -189 -172 -189c-58 0 -89 37 -89 85c0 36 12 74 24 111l46 141c9 26 15 52 15 69c0 14 -7 23 -23 23c-27 0 -55 -24 -78 -56c-41 -57 -70 -137 -122 -365h-149l94 424
c5 23 4 24 -10 32l-59 29v2l239 16l-44 -201h2c47 117 130 201 214 201c55 0 88 -38 88 -91c0 -37 -14 -80 -24 -115z" />
    <glyph glyph-name="o" unicode="o" horiz-adv-x="525" 
d="M217 -9c-97 0 -199 49 -199 202c0 171 127 310 290 310c96 0 199 -49 199 -202c0 -175 -131 -310 -290 -310zM213 9c73 -1 137 230 137 395c0 36 -5 81 -38 81c-73 0 -137 -230 -137 -395c0 -38 6 -81 38 -81z" />
    <glyph glyph-name="p" unicode="p" horiz-adv-x="546" 
d="M264 -8c-43 0 -70 12 -91 38l-44 -189c-3 -14 -2 -17 11 -23l94 -44v-2h-320v2l49 39c13 10 15 13 18 28l130 586c4 19 4 23 -9 29l-60 29v2l239 16l-44 -195h2c34 92 92 195 175 195c63 0 116 -41 116 -146c0 -201 -134 -365 -266 -365zM273 352
c-27 -48 -52 -122 -97 -310c10 -6 22 -9 34 -9c32 0 68 27 100 86c36 66 61 159 61 248c0 42 -13 55 -30 55c-19 0 -42 -24 -68 -70z" />
    <glyph glyph-name="q" unicode="q" horiz-adv-x="529" 
d="M276 503c47 0 80 -16 103 -46l148 46h1l-142 -662c-3 -14 -3 -17 7 -26l50 -41v-2h-305v2l82 48c13 7 15 11 19 29l70 324h-2c-35 -98 -90 -183 -170 -183c-68 0 -117 61 -117 155c0 192 124 356 256 356zM282 147c21 44 45 108 89 301c-8 10 -22 15 -35 15
c-40 0 -76 -35 -101 -85c-40 -77 -57 -183 -57 -243c0 -42 11 -62 34 -62c22 0 48 27 70 74z" />
    <glyph glyph-name="r" unicode="r" horiz-adv-x="414" 
d="M168 0h-148l89 424c5 23 5 25 -11 33l-57 28v2l239 16l-42 -197h1c44 121 93 197 166 197c17 0 36 -3 51 -15l-77 -217h-2l-53 121c-3 6 -5 9 -9 9c-5 0 -9 -3 -15 -10c-11 -13 -21 -27 -36 -57c-21 -43 -43 -93 -96 -334z" />
    <glyph glyph-name="s" unicode="s" horiz-adv-x="406" 
d="M270 298c62 -50 95 -84 95 -141c0 -77 -65 -165 -207 -165c-53 0 -117 12 -163 33l57 172h2l74 -175c4 -9 6 -11 18 -13c6 -1 9 -1 14 -1c52 0 82 33 82 75c0 34 -30 55 -92 107c-64 55 -92 98 -92 155c0 81 64 158 187 158c50 0 96 -7 154 -23l-56 -169h-2l-74 166
c-3 7 -5 9 -13 9h-6c-44 0 -72 -28 -72 -70c0 -34 29 -66 94 -118z" />
    <glyph glyph-name="t" unicode="t" horiz-adv-x="311" 
d="M192 157c-5 -25 -9 -43 -9 -58s6 -25 21 -25c13 0 25 8 36 20c18 21 33 49 44 87h2c-11 -71 -41 -119 -73 -148c-27 -25 -62 -41 -97 -41c-60 0 -85 45 -85 87c0 25 6 54 11 77l71 311h-70v20h63c14 0 21 3 28 10l171 188h2l-43 -198h100v-20h-105z" />
    <glyph glyph-name="u" unicode="u" horiz-adv-x="583" 
d="M476 155c-5 -22 -8 -42 -8 -56c0 -17 8 -26 21 -26c15 0 27 10 39 24c16 20 30 46 42 84h2c-14 -75 -44 -123 -74 -150c-26 -25 -60 -39 -94 -39c-57 0 -87 33 -87 87c0 34 13 88 20 114h-2c-46 -119 -133 -201 -207 -201c-56 0 -90 37 -90 91c0 37 14 80 24 115l40 130
c9 27 14 52 14 68s-7 25 -20 25c-11 0 -26 -8 -38 -22c-19 -23 -31 -52 -42 -79h-2c26 112 92 183 172 183c58 0 89 -37 89 -85c0 -35 -11 -74 -24 -112l-46 -140c-9 -26 -15 -53 -15 -69c0 -15 8 -24 24 -24c26 0 50 27 72 57c41 56 64 129 123 355l151 15z" />
    <glyph glyph-name="v" unicode="v" horiz-adv-x="467" 
d="M242 286l-31 -105c-6 -19 -12 -45 -12 -64c0 -28 11 -53 44 -53c73 0 134 123 134 233c0 50 -10 89 -32 126c-5 9 -16 25 -24 34v2l157 44c-7 -208 -146 -511 -327 -511c-73 0 -104 49 -104 105c0 28 8 67 19 107l31 121c6 24 14 51 14 70c0 16 -6 25 -21 25
c-26 0 -49 -28 -83 -87h-2c43 122 104 170 172 170c60 0 88 -34 88 -97c0 -38 -12 -83 -23 -120z" />
    <glyph glyph-name="w" unicode="w" horiz-adv-x="723" 
d="M469 182c-5 -23 -10 -44 -10 -63c0 -31 11 -55 44 -55c64 0 130 112 130 232c0 46 -9 84 -25 119c-6 13 -15 31 -23 42v2l150 44c-13 -233 -158 -511 -316 -511c-54 0 -92 34 -92 106c0 16 2 35 6 55h-2c-28 -85 -88 -161 -179 -161c-74 0 -105 49 -105 104
c0 29 8 67 18 107l32 122c7 24 14 51 14 70c0 16 -6 25 -21 25c-25 0 -49 -28 -83 -87h-2c43 122 103 170 172 170c60 0 88 -34 88 -97c0 -38 -12 -82 -23 -120l-32 -107c-7 -22 -13 -48 -13 -68c0 -29 13 -47 37 -47c38 0 68 46 91 115c27 83 44 198 53 304l151 20
c-13 -125 -37 -217 -60 -321z" />
    <glyph glyph-name="x" unicode="x" horiz-adv-x="499" 
d="M349 141c9 -46 26 -63 44 -63c27 0 55 30 78 98h2c-22 -119 -99 -184 -169 -184c-52 0 -86 29 -101 102l-13 64c-8 -18 -16 -34 -24 -49c-45 -85 -76 -117 -125 -117c-25 0 -48 9 -65 29l74 179h2l31 -71c8 -19 19 -23 32 -23c33 0 56 40 72 67l-34 181
c-9 46 -26 63 -45 63c-26 0 -55 -29 -77 -96h-2c22 117 99 182 169 182c52 0 87 -29 101 -102l13 -67c10 18 16 34 24 49c45 87 77 120 126 120c26 0 48 -9 65 -29l-73 -179h-2l-36 77c-6 13 -16 17 -29 17c-27 0 -55 -43 -72 -70z" />
    <glyph glyph-name="y" unicode="y" horiz-adv-x="488" 
d="M260 378c20 -76 39 -217 35 -353l2 -1c28 41 47 86 62 127c19 53 29 112 29 158c0 61 -16 110 -49 148v2l157 44c-16 -195 -103 -392 -215 -527c-104 -127 -248 -212 -332 -212c-13 0 -25 2 -32 6l56 167h2l105 -96c7 -7 12 -7 19 -3c17 10 32 21 52 38c8 7 10 13 10 26
v14c0 180 -32 366 -60 450c-9 28 -18 35 -29 35c-17 0 -37 -22 -61 -86h-2c14 100 70 188 147 188c66 0 86 -61 104 -125z" />
    <glyph glyph-name="z" unicode="z" horiz-adv-x="404" 
d="M337 47c-33 -46 -68 -59 -104 -59c-33 0 -64 12 -111 26c-24 7 -52 18 -75 18c-25 0 -49 -6 -62 -44h-2c1 13 3 26 7 39c8 29 24 54 52 80l237 226c-22 2 -51 10 -72 17c-38 12 -76 24 -104 24c-29 0 -58 -13 -80 -80h-2c32 178 97 215 154 215c32 0 65 -13 116 -30
c22 -7 50 -17 71 -17c27 0 56 12 70 52h2c-4 -45 -25 -84 -64 -121l-242 -231c60 -4 130 -38 178 -38c30 0 61 12 88 87h2c-11 -75 -37 -132 -59 -164z" />
    <glyph glyph-name="braceleft" unicode="{" horiz-adv-x="353" 
d="M45 291v2c48 6 89 37 94 76l24 181c18 143 122 177 213 177c22 0 42 -3 62 -7v-2c-100 3 -149 -82 -157 -142l-23 -173c-8 -58 -55 -99 -123 -110v-2c62 -13 92 -57 77 -112l-47 -171c-17 -63 -4 -143 98 -141v-2c-21 -4 -43 -7 -64 -7c-91 0 -173 64 -142 176l50 178
c12 41 -16 73 -62 79z" />
    <glyph glyph-name="bar" unicode="|" horiz-adv-x="220" 
d="M17 -250l-18 4l202 996l19 -4z" />
    <glyph glyph-name="braceright" unicode="}" horiz-adv-x="353" 
d="M325 294v-2c-49 -6 -90 -37 -95 -76l-23 -181c-19 -142 -123 -177 -214 -177c-21 0 -42 3 -61 7v2c101 -2 148 82 156 142l23 174c7 57 55 100 123 109v2c-62 13 -93 57 -77 113l47 171c17 62 3 143 -98 140v2c21 4 43 7 64 7c92 0 174 -64 142 -176l-50 -178
c-11 -40 17 -73 63 -79z" />
    <glyph glyph-name="asciitilde" unicode="~" horiz-adv-x="503" 
d="M380 276c-90 0 -145 66 -227 66c-43 0 -75 -24 -96 -58l-16 10c16 27 49 67 112 67c90 0 145 -66 227 -66c43 0 76 25 97 59l16 -11c-16 -27 -50 -67 -113 -67z" />
    <glyph glyph-name="Adieresis" unicode="&#xc4;" horiz-adv-x="632" 
d="M382 96l-16 149h-219l-42 -80c-9 -16 -7 -19 1 -35l63 -128v-2h-237v2l123 128c18 19 21 23 31 42l226 426c10 19 10 21 1 35l-44 68v2h216l66 -593c2 -17 6 -26 12 -41l27 -67v-2h-278v2l62 67c8 8 9 14 8 27zM329 588l-171 -323h206zM309 897c37 0 65 -22 65 -60
c0 -43 -35 -71 -76 -71c-35 0 -66 21 -66 59c0 44 37 72 77 72zM506 897c37 0 65 -22 65 -60c0 -43 -34 -71 -75 -71c-36 0 -66 21 -66 59c0 44 36 72 76 72z" />
    <glyph glyph-name="Aring" unicode="&#xc5;" horiz-adv-x="632" 
d="M382 96l-16 149h-219l-42 -80c-9 -16 -7 -19 1 -35l63 -128v-2h-237v2l123 128c18 19 21 23 31 42l226 426c10 19 10 21 1 35l-44 68v2h216l66 -593c2 -17 6 -26 12 -41l27 -67v-2h-278v2l62 67c8 8 9 14 8 27zM329 588l-171 -323h206zM394 747c-44 0 -81 32 -81 80
c0 57 45 106 107 106c44 0 81 -31 81 -79c0 -58 -45 -107 -107 -107zM418 913c-45 0 -83 -38 -83 -85c0 -37 26 -61 61 -61c45 0 83 38 83 86c0 37 -26 60 -61 60z" />
    <glyph glyph-name="Ccedilla" unicode="&#xc7;" horiz-adv-x="614" 
d="M403 -124c0 -67 -63 -112 -137 -112c-65 0 -116 36 -108 95h2c4 -43 45 -57 73 -57c39 0 76 27 76 69c0 28 -25 43 -55 43c-12 0 -25 -1 -39 -7l-1 2l84 81c-169 4 -262 116 -262 276c0 249 164 447 410 447c73 0 140 -5 213 -21l-51 -246h-2l-101 232
c-6 14 -12 17 -26 17h-17c-126 0 -243 -220 -243 -499c0 -107 33 -188 106 -188h15c18 0 23 4 32 14l196 237h2l-50 -249c-71 -14 -140 -20 -212 -20h-3l-16 -50c11 2 21 3 30 3c52 0 84 -29 84 -67z" />
    <glyph glyph-name="Eacute" unicode="&#xc9;" horiz-adv-x="594" 
d="M335 745l-1 1l109 165h164v-2zM238 20h107c18 0 25 0 39 18l162 208h2l-48 -246h-533v2l78 62c11 9 14 13 17 28l106 519c3 15 3 18 -4 27l-54 63v2h523l-50 -242h-2l-84 203c-8 18 -11 19 -28 19h-94c-22 0 -24 -2 -28 -22l-62 -299h65c16 1 18 2 35 17l109 101h2
l-52 -255h-2l-67 101c-10 15 -14 16 -29 16h-65l-61 -299c-4 -21 -2 -23 18 -23z" />
    <glyph glyph-name="Ntilde" unicode="&#xd1;" horiz-adv-x="686" 
d="M648 535l-110 -535h-103l-236 533l-75 -365c-3 -16 -2 -18 6 -32l74 -134v-2h-249v2l128 134c14 14 16 17 19 32l78 378c3 16 5 21 -2 32l-75 123v2h205l241 -548l78 380c3 15 2 17 -6 32l-75 134v2h250v-2l-129 -134c-13 -14 -16 -17 -19 -32zM616 896h2
c-12 -75 -56 -126 -111 -126c-51 0 -86 49 -131 49c-28 0 -54 -12 -74 -49h-2c11 75 55 126 110 126c52 0 86 -49 131 -49c27 0 55 12 75 49z" />
    <glyph glyph-name="Odieresis" unicode="&#xd6;" horiz-adv-x="709" 
d="M376 897c37 0 65 -22 65 -60c0 -43 -35 -71 -76 -71c-35 0 -66 21 -66 59c0 44 37 72 77 72zM573 897c37 0 65 -22 65 -60c0 -43 -34 -71 -75 -71c-36 0 -66 21 -66 59c0 44 36 72 76 72zM420 713c194 0 289 -117 289 -283c0 -248 -162 -440 -383 -440
c-194 0 -289 117 -289 283c0 248 162 440 383 440zM312 9c132 0 218 351 218 515c0 124 -34 170 -96 170c-132 0 -218 -351 -218 -515c0 -124 34 -170 96 -170z" />
    <glyph glyph-name="Udieresis" unicode="&#xdc;" horiz-adv-x="657" 
d="M404 897c37 0 65 -22 65 -60c0 -43 -35 -71 -76 -71c-35 0 -66 21 -66 59c0 44 37 72 77 72zM601 897c37 0 65 -22 65 -60c0 -43 -34 -71 -75 -71c-36 0 -66 21 -66 59c0 44 36 72 76 72zM574 256c-34 -166 -109 -266 -289 -266c-139 0 -216 64 -216 183c0 21 3 45 8 70
l76 367c3 15 2 19 -5 28l-50 63v2h317v-2l-78 -63c-10 -8 -13 -13 -16 -28l-74 -360c-7 -34 -10 -63 -10 -88c0 -97 48 -135 120 -135c94 0 165 74 196 227l56 270c6 29 5 38 -11 65l-64 112v2h240v-2l-110 -115c-24 -25 -28 -33 -34 -62z" />
    <glyph glyph-name="aacute" unicode="&#xe1;" horiz-adv-x="559" 
d="M535 502c-25 -107 -75 -308 -84 -341c-7 -25 -10 -44 -10 -59c0 -19 7 -29 20 -29c16 0 29 11 42 29c14 20 28 44 40 80l2 -1c-21 -109 -84 -189 -168 -189c-49 0 -83 31 -84 88c0 23 6 58 15 94h-2c-37 -110 -91 -182 -169 -182c-60 0 -117 51 -117 158
c0 182 119 353 257 353c46 0 76 -15 101 -46l156 46zM371 448c-8 11 -21 15 -34 15c-43 0 -75 -38 -97 -78c-36 -64 -61 -168 -61 -250c0 -45 14 -62 33 -62c22 0 44 20 67 69c29 61 67 195 92 306zM271 537l-1 1l109 165h164v-2z" />
    <glyph glyph-name="agrave" unicode="&#xe0;" horiz-adv-x="559" 
d="M535 502c-25 -107 -75 -308 -84 -341c-7 -25 -10 -44 -10 -59c0 -19 7 -29 20 -29c16 0 29 11 42 29c14 20 28 44 40 80l2 -1c-21 -109 -84 -189 -168 -189c-49 0 -83 31 -84 88c0 23 6 58 15 94h-2c-37 -110 -91 -182 -169 -182c-60 0 -117 51 -117 158
c0 182 119 353 257 353c46 0 76 -15 101 -46l156 46zM371 448c-8 11 -21 15 -34 15c-43 0 -75 -38 -97 -78c-36 -64 -61 -168 -61 -250c0 -45 14 -62 33 -62c22 0 44 20 67 69c29 61 67 195 92 306zM170 703h163l110 -165l-1 -1l-272 164v2z" />
    <glyph glyph-name="acircumflex" unicode="&#xe2;" horiz-adv-x="559" 
d="M535 502c-25 -107 -75 -308 -84 -341c-7 -25 -10 -44 -10 -59c0 -19 7 -29 20 -29c16 0 29 11 42 29c14 20 28 44 40 80l2 -1c-21 -109 -84 -189 -168 -189c-49 0 -83 31 -84 88c0 23 6 58 15 94h-2c-37 -110 -91 -182 -169 -182c-60 0 -117 51 -117 158
c0 182 119 353 257 353c46 0 76 -15 101 -46l156 46zM371 448c-8 11 -21 15 -34 15c-43 0 -75 -38 -97 -78c-36 -64 -61 -168 -61 -250c0 -45 14 -62 33 -62c22 0 44 20 67 69c29 61 67 195 92 306zM384 711l128 -175l-2 -1l-145 70l-180 -70l-1 2l198 174h2z" />
    <glyph glyph-name="adieresis" unicode="&#xe4;" horiz-adv-x="559" 
d="M535 502c-25 -107 -75 -308 -84 -341c-7 -25 -10 -44 -10 -59c0 -19 7 -29 20 -29c16 0 29 11 42 29c14 20 28 44 40 80l2 -1c-21 -109 -84 -189 -168 -189c-49 0 -83 31 -84 88c0 23 6 58 15 94h-2c-37 -110 -91 -182 -169 -182c-60 0 -117 51 -117 158
c0 182 119 353 257 353c46 0 76 -15 101 -46l156 46zM371 448c-8 11 -21 15 -34 15c-43 0 -75 -38 -97 -78c-36 -64 -61 -168 -61 -250c0 -45 14 -62 33 -62c22 0 44 20 67 69c29 61 67 195 92 306zM274 689c37 0 65 -22 65 -60c0 -43 -35 -71 -76 -71c-35 0 -66 21 -66 59
c0 44 37 72 77 72zM471 689c37 0 65 -22 65 -60c0 -43 -34 -71 -75 -71c-36 0 -66 21 -66 59c0 44 36 72 76 72z" />
    <glyph glyph-name="atilde" unicode="&#xe3;" horiz-adv-x="559" 
d="M535 502c-25 -107 -75 -308 -84 -341c-7 -25 -10 -44 -10 -59c0 -19 7 -29 20 -29c16 0 29 11 42 29c14 20 28 44 40 80l2 -1c-21 -109 -84 -189 -168 -189c-49 0 -83 31 -84 88c0 23 6 58 15 94h-2c-37 -110 -91 -182 -169 -182c-60 0 -117 51 -117 158
c0 182 119 353 257 353c46 0 76 -15 101 -46l156 46zM371 448c-8 11 -21 15 -34 15c-43 0 -75 -38 -97 -78c-36 -64 -61 -168 -61 -250c0 -45 14 -62 33 -62c22 0 44 20 67 69c29 61 67 195 92 306zM526 688h2c-12 -75 -56 -126 -111 -126c-51 0 -86 49 -131 49
c-28 0 -54 -12 -74 -49h-2c11 75 55 126 110 126c52 0 86 -49 131 -49c27 0 55 12 75 49z" />
    <glyph glyph-name="aring" unicode="&#xe5;" horiz-adv-x="559" 
d="M535 502c-25 -107 -75 -308 -84 -341c-7 -25 -10 -44 -10 -59c0 -19 7 -29 20 -29c16 0 29 11 42 29c14 20 28 44 40 80l2 -1c-21 -109 -84 -189 -168 -189c-49 0 -83 31 -84 88c0 23 6 58 15 94h-2c-37 -110 -91 -182 -169 -182c-60 0 -117 51 -117 158
c0 182 119 353 257 353c46 0 76 -15 101 -46l156 46zM371 448c-8 11 -21 15 -34 15c-43 0 -75 -38 -97 -78c-36 -64 -61 -168 -61 -250c0 -45 14 -62 33 -62c22 0 44 20 67 69c29 61 67 195 92 306zM359 539c-44 0 -81 32 -81 80c0 57 45 106 107 106c44 0 81 -31 81 -79
c0 -58 -45 -107 -107 -107zM383 705c-45 0 -83 -38 -83 -85c0 -37 26 -61 61 -61c45 0 83 38 83 86c0 37 -26 60 -61 60z" />
    <glyph glyph-name="ccedilla" unicode="&#xe7;" horiz-adv-x="436" 
d="M295 -124c0 -67 -63 -112 -137 -112c-65 0 -116 36 -108 95h2c4 -43 45 -57 73 -57c39 0 76 27 76 69c0 28 -25 43 -55 43c-12 0 -25 -1 -39 -7l-1 2l87 83c-105 3 -176 76 -176 192c0 163 120 319 298 319c49 0 92 -7 138 -23l-80 -196h-1l-52 187c-3 12 -5 13 -13 13
c-63 0 -125 -169 -125 -272c0 -87 41 -124 87 -124c47 0 96 31 137 109h2c-37 -143 -116 -205 -210 -205l-17 -52c11 2 21 3 30 3c52 0 84 -29 84 -67z" />
    <glyph glyph-name="eacute" unicode="&#xe9;" horiz-adv-x="467" 
d="M246 537l-1 1l109 165h164v-2zM204 -8c-111 0 -187 76 -187 201c0 160 127 310 298 310c88 0 149 -40 149 -108c0 -95 -116 -164 -282 -165c-1 -8 -1 -16 -1 -23c0 -83 36 -123 99 -123c60 0 119 40 154 122l2 -1c-33 -156 -135 -213 -232 -213zM313 484
c-55 0 -118 -130 -130 -242c107 11 159 93 159 184c0 36 -8 58 -29 58z" />
    <glyph glyph-name="egrave" unicode="&#xe8;" horiz-adv-x="467" 
d="M204 -8c-111 0 -187 76 -187 201c0 160 127 310 298 310c88 0 149 -40 149 -108c0 -95 -116 -164 -282 -165c-1 -8 -1 -16 -1 -23c0 -83 36 -123 99 -123c60 0 119 40 154 122l2 -1c-33 -156 -135 -213 -232 -213zM313 484c-55 0 -118 -130 -130 -242
c107 11 159 93 159 184c0 36 -8 58 -29 58zM145 703h163l110 -165l-1 -1l-272 164v2z" />
    <glyph glyph-name="ecircumflex" unicode="&#xea;" horiz-adv-x="467" 
d="M359 711l128 -175l-2 -1l-145 70l-180 -70l-1 2l198 174h2zM204 -8c-111 0 -187 76 -187 201c0 160 127 310 298 310c88 0 149 -40 149 -108c0 -95 -116 -164 -282 -165c-1 -8 -1 -16 -1 -23c0 -83 36 -123 99 -123c60 0 119 40 154 122l2 -1
c-33 -156 -135 -213 -232 -213zM313 484c-55 0 -118 -130 -130 -242c107 11 159 93 159 184c0 36 -8 58 -29 58z" />
    <glyph glyph-name="edieresis" unicode="&#xeb;" horiz-adv-x="467" 
d="M249 689c37 0 65 -22 65 -60c0 -43 -35 -71 -76 -71c-35 0 -66 21 -66 59c0 44 37 72 77 72zM446 689c37 0 65 -22 65 -60c0 -43 -34 -71 -75 -71c-36 0 -66 21 -66 59c0 44 36 72 76 72zM204 -8c-111 0 -187 76 -187 201c0 160 127 310 298 310c88 0 149 -40 149 -108
c0 -95 -116 -164 -282 -165c-1 -8 -1 -16 -1 -23c0 -83 36 -123 99 -123c60 0 119 40 154 122l2 -1c-33 -156 -135 -213 -232 -213zM313 484c-55 0 -118 -130 -130 -242c107 11 159 93 159 184c0 36 -8 58 -29 58z" />
    <glyph glyph-name="iacute" unicode="&#xed;" horiz-adv-x="298" 
d="M113 537l-1 1l109 165h164v-2zM113 -8c-59 0 -84 43 -84 89c0 22 5 51 11 75l69 271c5 18 2 23 -8 28l-61 30v2l240 16l-87 -345c-7 -26 -11 -45 -11 -60c0 -13 5 -24 20 -24c13 0 26 7 38 22c16 20 31 47 42 85h2c-16 -101 -86 -189 -171 -189z" />
    <glyph glyph-name="igrave" unicode="&#xec;" horiz-adv-x="298" 
d="M113 -8c-59 0 -84 43 -84 89c0 22 5 51 11 75l69 271c5 18 2 23 -8 28l-61 30v2l240 16l-87 -345c-7 -26 -11 -45 -11 -60c0 -13 5 -24 20 -24c13 0 26 7 38 22c16 20 31 47 42 85h2c-16 -101 -86 -189 -171 -189zM13 703h163l110 -165l-1 -1l-272 164v2z" />
    <glyph glyph-name="icircumflex" unicode="&#xee;" horiz-adv-x="296" 
d="M218 711l128 -175l-2 -1l-145 70l-180 -70l-1 2l198 174h2zM108 -8c-59 0 -84 43 -84 89c0 22 5 51 11 75l69 271c5 18 2 23 -8 28l-61 30v2l240 16l-87 -345c-7 -26 -11 -45 -11 -60c0 -13 5 -24 20 -24c13 0 26 7 38 22c16 20 31 47 42 85h2
c-16 -101 -86 -189 -171 -189z" />
    <glyph glyph-name="idieresis" unicode="&#xef;" horiz-adv-x="296" 
d="M113 689c37 0 65 -22 65 -60c0 -43 -35 -71 -76 -71c-35 0 -66 21 -66 59c0 44 37 72 77 72zM310 689c37 0 65 -22 65 -60c0 -43 -34 -71 -75 -71c-36 0 -66 21 -66 59c0 44 36 72 76 72zM109 -8c-59 0 -84 43 -84 89c0 22 5 51 11 75l69 271c5 18 2 23 -8 28l-61 30v2
l240 16l-87 -345c-7 -26 -11 -45 -11 -60c0 -13 5 -24 20 -24c13 0 26 7 38 22c16 20 31 47 42 85h2c-16 -101 -86 -189 -171 -189z" />
    <glyph glyph-name="ntilde" unicode="&#xf1;" horiz-adv-x="578" 
d="M477 167c-9 -27 -14 -52 -14 -69c0 -16 7 -24 20 -24s26 7 38 22c19 23 31 54 42 85h2c-19 -118 -92 -189 -172 -189c-58 0 -89 37 -89 85c0 36 12 74 24 111l46 141c9 26 15 52 15 69c0 14 -7 23 -23 23c-27 0 -55 -24 -78 -56c-41 -57 -70 -137 -122 -365h-149l94 424
c5 23 4 24 -10 32l-59 29v2l239 16l-44 -201h2c47 117 130 201 214 201c55 0 88 -38 88 -91c0 -37 -14 -80 -24 -115zM526 688h2c-12 -75 -56 -126 -111 -126c-51 0 -86 49 -131 49c-28 0 -54 -12 -74 -49h-2c11 75 55 126 110 126c52 0 86 -49 131 -49c27 0 55 12 75 49z
" />
    <glyph glyph-name="oacute" unicode="&#xf3;" horiz-adv-x="525" 
d="M244 537l-1 1l109 165h164v-2zM217 -9c-97 0 -199 49 -199 202c0 171 127 310 290 310c96 0 199 -49 199 -202c0 -175 -131 -310 -290 -310zM213 9c73 -1 137 230 137 395c0 36 -5 81 -38 81c-73 0 -137 -230 -137 -395c0 -38 6 -81 38 -81z" />
    <glyph glyph-name="ograve" unicode="&#xf2;" horiz-adv-x="525" 
d="M217 -9c-97 0 -199 49 -199 202c0 171 127 310 290 310c96 0 199 -49 199 -202c0 -175 -131 -310 -290 -310zM213 9c73 -1 137 230 137 395c0 36 -5 81 -38 81c-73 0 -137 -230 -137 -395c0 -38 6 -81 38 -81zM143 703h163l110 -165l-1 -1l-272 164v2z" />
    <glyph glyph-name="ocircumflex" unicode="&#xf4;" horiz-adv-x="525" 
d="M357 711l128 -175l-2 -1l-145 70l-180 -70l-1 2l198 174h2zM217 -9c-97 0 -199 49 -199 202c0 171 127 310 290 310c96 0 199 -49 199 -202c0 -175 -131 -310 -290 -310zM213 9c73 -1 137 230 137 395c0 36 -5 81 -38 81c-73 0 -137 -230 -137 -395c0 -38 6 -81 38 -81z
" />
    <glyph glyph-name="odieresis" unicode="&#xf6;" horiz-adv-x="525" 
d="M247 689c37 0 65 -22 65 -60c0 -43 -35 -71 -76 -71c-35 0 -66 21 -66 59c0 44 37 72 77 72zM444 689c37 0 65 -22 65 -60c0 -43 -34 -71 -75 -71c-36 0 -66 21 -66 59c0 44 36 72 76 72zM217 -9c-97 0 -199 49 -199 202c0 171 127 310 290 310c96 0 199 -49 199 -202
c0 -175 -131 -310 -290 -310zM213 9c73 -1 137 230 137 395c0 36 -5 81 -38 81c-73 0 -137 -230 -137 -395c0 -38 6 -81 38 -81z" />
    <glyph glyph-name="otilde" unicode="&#xf5;" horiz-adv-x="525" 
d="M217 -9c-97 0 -199 49 -199 202c0 171 127 310 290 310c96 0 199 -49 199 -202c0 -175 -131 -310 -290 -310zM213 9c73 -1 137 230 137 395c0 36 -5 81 -38 81c-73 0 -137 -230 -137 -395c0 -38 6 -81 38 -81zM498 688h2c-12 -75 -56 -126 -111 -126
c-51 0 -86 49 -131 49c-28 0 -54 -12 -74 -49h-2c11 75 55 126 110 126c52 0 86 -49 131 -49c27 0 55 12 75 49z" />
    <glyph glyph-name="uacute" unicode="&#xfa;" horiz-adv-x="583" 
d="M266 537l-1 1l109 165h164v-2zM476 155c-5 -22 -8 -42 -8 -56c0 -17 8 -26 21 -26c15 0 27 10 39 24c16 20 30 46 42 84h2c-14 -75 -44 -123 -74 -150c-26 -25 -60 -39 -94 -39c-57 0 -87 33 -87 87c0 34 13 88 20 114h-2c-46 -119 -133 -201 -207 -201
c-56 0 -90 37 -90 91c0 37 14 80 24 115l40 130c9 27 14 52 14 68s-7 25 -20 25c-11 0 -26 -8 -38 -22c-19 -23 -31 -52 -42 -79h-2c26 112 92 183 172 183c58 0 89 -37 89 -85c0 -35 -11 -74 -24 -112l-46 -140c-9 -26 -15 -53 -15 -69c0 -15 8 -24 24 -24
c26 0 50 27 72 57c41 56 64 129 123 355l151 15z" />
    <glyph glyph-name="ugrave" unicode="&#xf9;" horiz-adv-x="583" 
d="M476 155c-5 -22 -8 -42 -8 -56c0 -17 8 -26 21 -26c15 0 27 10 39 24c16 20 30 46 42 84h2c-14 -75 -44 -123 -74 -150c-26 -25 -60 -39 -94 -39c-57 0 -87 33 -87 87c0 34 13 88 20 114h-2c-46 -119 -133 -201 -207 -201c-56 0 -90 37 -90 91c0 37 14 80 24 115l40 130
c9 27 14 52 14 68s-7 25 -20 25c-11 0 -26 -8 -38 -22c-19 -23 -31 -52 -42 -79h-2c26 112 92 183 172 183c58 0 89 -37 89 -85c0 -35 -11 -74 -24 -112l-46 -140c-9 -26 -15 -53 -15 -69c0 -15 8 -24 24 -24c26 0 50 27 72 57c41 56 64 129 123 355l151 15zM165 703h163
l110 -165l-1 -1l-272 164v2z" />
    <glyph glyph-name="ucircumflex" unicode="&#xfb;" horiz-adv-x="583" 
d="M379 711l128 -175l-2 -1l-145 70l-180 -70l-1 2l198 174h2zM476 155c-5 -22 -8 -42 -8 -56c0 -17 8 -26 21 -26c15 0 27 10 39 24c16 20 30 46 42 84h2c-14 -75 -44 -123 -74 -150c-26 -25 -60 -39 -94 -39c-57 0 -87 33 -87 87c0 34 13 88 20 114h-2
c-46 -119 -133 -201 -207 -201c-56 0 -90 37 -90 91c0 37 14 80 24 115l40 130c9 27 14 52 14 68s-7 25 -20 25c-11 0 -26 -8 -38 -22c-19 -23 -31 -52 -42 -79h-2c26 112 92 183 172 183c58 0 89 -37 89 -85c0 -35 -11 -74 -24 -112l-46 -140c-9 -26 -15 -53 -15 -69
c0 -15 8 -24 24 -24c26 0 50 27 72 57c41 56 64 129 123 355l151 15z" />
    <glyph glyph-name="udieresis" unicode="&#xfc;" horiz-adv-x="583" 
d="M269 689c37 0 65 -22 65 -60c0 -43 -35 -71 -76 -71c-35 0 -66 21 -66 59c0 44 37 72 77 72zM466 689c37 0 65 -22 65 -60c0 -43 -34 -71 -75 -71c-36 0 -66 21 -66 59c0 44 36 72 76 72zM476 155c-5 -22 -8 -42 -8 -56c0 -17 8 -26 21 -26c15 0 27 10 39 24
c16 20 30 46 42 84h2c-14 -75 -44 -123 -74 -150c-26 -25 -60 -39 -94 -39c-57 0 -87 33 -87 87c0 34 13 88 20 114h-2c-46 -119 -133 -201 -207 -201c-56 0 -90 37 -90 91c0 37 14 80 24 115l40 130c9 27 14 52 14 68s-7 25 -20 25c-11 0 -26 -8 -38 -22
c-19 -23 -31 -52 -42 -79h-2c26 112 92 183 172 183c58 0 89 -37 89 -85c0 -35 -11 -74 -24 -112l-46 -140c-9 -26 -15 -53 -15 -69c0 -15 8 -24 24 -24c26 0 50 27 72 57c41 56 64 129 123 355l151 15z" />
    <glyph glyph-name="dagger" unicode="&#x2020;" horiz-adv-x="429" 
d="M111 514v19h153l35 173l19 -3l-34 -170h148v-19h-152l-77 -384l-19 3l76 381h-149z" />
    <glyph glyph-name="degree" unicode="&#xb0;" horiz-adv-x="324" 
d="M69 589c0 74 59 122 127 122c69 0 127 -48 127 -122c0 -72 -58 -119 -127 -119c-68 0 -127 47 -127 119zM90 589c0 -59 51 -100 106 -100c57 0 107 41 107 100c0 61 -50 103 -107 103c-55 0 -106 -42 -106 -103z" />
    <glyph glyph-name="cent" unicode="&#xa2;" horiz-adv-x="451" 
d="M196 -8c-105 0 -179 74 -179 192c0 158 113 310 283 318l20 103l18 -3l-20 -99c48 -1 90 -8 135 -23l-80 -196h-2l-51 187c-2 6 -3 10 -6 11l-76 -388c10 -4 20 -6 31 -6c46 0 96 31 137 109h2c-34 -132 -106 -194 -189 -203l-20 -102l-18 3l19 97h-4zM182 212
c0 -55 16 -90 40 -108l74 378c-59 -17 -114 -173 -114 -270z" />
    <glyph glyph-name="sterling" unicode="&#xa3;" horiz-adv-x="588" 
d="M62 296v19h87c-17 48 -44 101 -44 161c0 144 113 237 288 237c79 0 130 -5 206 -21l-51 -232h-2l-93 217c-4 10 -11 15 -27 15h-13c-104 0 -136 -126 -136 -217c0 -45 8 -87 8 -130c0 -10 -1 -20 -2 -30h172v-19h-174c-11 -73 -51 -137 -133 -157v-2h254c42 0 45 2 69 23
l75 67h2l-79 -227h-493v2l112 110c42 41 75 82 75 138c0 14 -4 30 -8 46h-93z" />
    <glyph glyph-name="section" unicode="&#xa7;" horiz-adv-x="541" 
d="M184 -186c-65 0 -118 5 -167 19l88 189h2l50 -174c4 -15 7 -18 25 -18h12c51 0 101 38 101 91c0 39 -35 70 -97 112l-36 25c-85 59 -116 98 -116 157c0 93 87 160 173 176c-50 38 -73 83 -73 135c0 115 107 187 225 187c66 0 119 -5 167 -19l-88 -188h-2l-50 174
c-4 14 -7 17 -24 17h-12c-51 0 -102 -37 -102 -90c0 -39 33 -71 95 -112l37 -25c87 -57 116 -103 116 -154c0 -100 -87 -164 -173 -179c49 -39 73 -83 73 -135c0 -114 -105 -188 -224 -188zM314 320c-18 14 -77 55 -87 64c-30 -13 -60 -44 -60 -86c0 -30 27 -55 73 -90
c17 -13 76 -56 86 -65c31 13 61 45 61 87c0 29 -26 56 -73 90z" />
    <glyph glyph-name="bullet" unicode="&#x2022;" horiz-adv-x="344" 
d="M189 255c-58 0 -104 40 -104 99c0 62 52 110 112 110c59 0 104 -44 104 -101c0 -65 -50 -108 -112 -108z" />
    <glyph glyph-name="paragraph" unicode="&#xb6;" horiz-adv-x="608" 
d="M360 -250l-21 1l48 249h-60c-137 0 -251 78 -251 255c0 219 132 448 388 448h159v-19h-81l-130 -665h77v-19h-80zM328 19h63l130 665h-64z" />
    <glyph glyph-name="germandbls" unicode="&#xdf;" horiz-adv-x="596" 
d="M269 539l-80 -415c-16 -83 -42 -167 -77 -230c-41 -74 -105 -130 -204 -130c-40 0 -70 9 -98 25l71 159h2l53 -148c4 -11 9 -14 15 -14c41 0 60 144 87 294l68 369c1 6 2 13 4 19h-65v19h69c43 165 132 226 276 226c119 0 180 -46 180 -102c0 -45 -32 -78 -81 -107
l-65 -38c-26 -15 -42 -32 -42 -58c0 -33 34 -60 65 -86l47 -39c51 -42 75 -75 75 -132c0 -90 -84 -159 -213 -159c-52 0 -116 11 -166 33l86 147h2l44 -151c2 -6 4 -8 13 -10c8 -1 18 -1 27 -1c48 0 83 27 83 69c0 33 -34 62 -65 91l-39 37c-41 38 -72 71 -72 116
c0 43 26 77 68 107l59 41c53 37 76 89 76 145c0 47 -27 79 -77 79c-67 0 -106 -52 -126 -156z" />
    <glyph glyph-name="registered" unicode="&#xae;" horiz-adv-x="813" 
d="M426 713c208 0 359 -147 359 -361c0 -203 -142 -362 -359 -362c-220 0 -359 160 -359 362c0 206 160 361 359 361zM426 694c-189 0 -338 -147 -338 -342c0 -192 130 -343 338 -343c205 0 338 150 338 343c0 203 -141 342 -338 342zM249 166v2l36 33c5 4 5 7 5 15v282
c0 8 0 10 -5 15l-36 33v2h220c67 0 127 -26 127 -97c0 -58 -45 -95 -121 -101v-2l73 -19l51 -117c3 -8 8 -13 16 -20l27 -24v-2h-141l-65 171c-2 4 -5 7 -12 7h-28v-128c0 -8 0 -10 5 -15l36 -33v-2h-188zM396 519v-159h30c33 0 57 23 57 83c0 64 -21 88 -53 88h-21
c-13 0 -13 -3 -13 -12z" />
    <glyph glyph-name="copyright" unicode="&#xa9;" horiz-adv-x="813" 
d="M426 713c208 0 359 -147 359 -361c0 -203 -142 -362 -359 -362c-220 0 -359 160 -359 362c0 206 160 361 359 361zM426 694c-189 0 -338 -147 -338 -342c0 -192 130 -343 338 -343c205 0 338 150 338 343c0 203 -141 342 -338 342zM365 351c0 -121 29 -191 85 -191h7
c9 0 14 3 19 10l89 128h2v-144c-40 -8 -86 -11 -126 -11c-138 0 -205 83 -205 208c0 126 75 209 202 209c42 0 89 -3 129 -12v-139h-2l-89 125c-6 7 -9 9 -17 9h-9c-55 0 -85 -75 -85 -192z" />
    <glyph glyph-name="trademark" unicode="&#x2122;" horiz-adv-x="918" 
d="M525 452c0 -18 1 -20 12 -34l45 -53v-2h-131v2l45 53c10 13 10 16 10 34v193c0 9 -3 13 -6 16l-34 40v2h124l92 -201l82 201h121v-2l-33 -34c-4 -4 -4 -6 -4 -13v-247c0 -7 1 -9 5 -13l32 -29v-2h-169v2l33 30c4 4 4 5 4 12v193c0 8 0 20 1 30l-109 -271h-1l-119 263
v-170zM322 412c0 -8 1 -11 5 -15l33 -32v-2h-172v2l34 32c4 4 5 7 5 15v273h-24c-8 0 -12 -1 -17 -10l-64 -103h-2l8 131h292l8 -131h-2l-65 105c-5 8 -8 8 -16 8h-23v-273z" />
    <glyph glyph-name="acute" unicode="&#xb4;" horiz-adv-x="351" 
d="M50 537l-1 1l109 165h164v-2z" />
    <glyph glyph-name="dieresis" unicode="&#xa8;" horiz-adv-x="439" 
d="M127 689c37 0 65 -22 65 -60c0 -43 -35 -71 -76 -71c-35 0 -66 21 -66 59c0 44 37 72 77 72zM324 689c37 0 65 -22 65 -60c0 -43 -34 -71 -75 -71c-36 0 -66 21 -66 59c0 44 36 72 76 72z" />
    <glyph glyph-name="notequal" unicode="&#x2260;" horiz-adv-x="540" 
d="M70 404v19h264l56 101l17 -10l-51 -91h154v-19h-164l-89 -160h253v-19h-264l-59 -107l-17 10l54 97h-154v19h164l89 160h-253z" />
    <glyph glyph-name="AE" unicode="&#xc6;" horiz-adv-x="927" 
d="M553 40c-4 -18 -1 -20 13 -20h115c17 0 23 2 33 14l164 212h4l-49 -246h-533v2l80 63c9 8 11 11 14 24l32 156h-231l-63 -77c-17 -21 -18 -26 -11 -45l44 -121v-2h-246v2l139 119c25 22 35 28 49 46l355 433c12 15 12 18 5 28l-54 73v2h553l-50 -242h-2l-85 206
c-5 13 -10 16 -25 16h-103c-14 0 -16 -2 -20 -20l-62 -301h67c13 1 16 2 29 14l113 104h2l-53 -255h-2l-69 104c-8 11 -11 13 -24 13h-67zM501 611c0 3 1 6 1 8l-292 -355h220z" />
    <glyph glyph-name="Oslash" unicode="&#xd8;" horiz-adv-x="709" 
d="M420 713c32 0 61 -4 88 -10l34 76l18 -7l-33 -74c122 -36 182 -137 182 -268c0 -248 -162 -440 -383 -440c-39 0 -74 5 -105 13l-38 -85l-19 7l37 85c-110 40 -164 137 -164 263c0 248 162 440 383 440zM312 9c132 0 218 351 218 515c0 60 -8 101 -23 128l-267 -604
c17 -28 41 -39 72 -39zM216 179c0 -46 4 -81 13 -107l265 598c-16 17 -36 24 -60 24c-132 0 -218 -351 -218 -515z" />
    <glyph glyph-name="infinity" unicode="&#x221e;" horiz-adv-x="768" 
d="M73 325c0 71 54 141 132 141c81 0 132 -66 199 -129c67 64 117 129 199 129c78 0 132 -70 132 -141s-54 -141 -132 -141c-82 0 -132 66 -199 129c-67 -63 -118 -129 -199 -129c-78 0 -132 70 -132 141zM93 325c0 -61 43 -122 112 -122c74 0 120 60 186 122
c-66 63 -112 122 -186 122c-69 0 -112 -61 -112 -122zM603 203c69 0 112 61 112 122s-43 122 -112 122c-75 0 -119 -59 -186 -122c67 -63 111 -122 186 -122z" />
    <glyph glyph-name="plusminus" unicode="&#xb1;" horiz-adv-x="540" 
d="M70 365v19h210v160h20v-160h211v-19h-211v-161h-20v161h-210zM511 105h-441v19h441v-19z" />
    <glyph glyph-name="lessequal" unicode="&#x2264;" horiz-adv-x="540" 
d="M91 374l389 129l6 -19l-339 -111l339 -111l-6 -19l-389 129v2zM70 102v19h440v-19h-440z" />
    <glyph glyph-name="greaterequal" unicode="&#x2265;" horiz-adv-x="540" 
d="M100 503l389 -129v-2l-389 -129l-6 19l339 111l-339 111zM510 121v-19h-440v19h440z" />
    <glyph glyph-name="yen" unicode="&#xa5;" horiz-adv-x="617" 
d="M539 259h-144l-16 -80h140v-19h-144l-13 -64c-3 -15 -3 -17 5 -26l60 -68v-2h-337v2l87 68c11 9 13 11 16 26l13 64h-151v19h155l16 80h-151v19h148l-100 313c-6 19 -11 30 -18 43l-36 67v2h312v-2l-74 -69c-10 -9 -11 -12 -8 -24l89 -306l170 247c11 15 10 18 4 31
l-61 121v2h250v-2l-138 -121c-17 -15 -23 -20 -35 -37l-166 -238c-7 -11 -10 -17 -13 -27h140v-19z" />
    <glyph glyph-name="mu" unicode="&#xb5;" horiz-adv-x="598" 
d="M407 -8c-51 0 -83 31 -83 90c0 36 14 92 20 111h-2c-41 -102 -101 -164 -156 -185c-5 -2 -10 -3 -15 -4l-39 -163c-3 -14 -2 -17 11 -23l94 -44v-2h-320v2l49 39c13 10 14 13 18 28l125 487c7 28 13 52 13 68s-6 25 -19 25s-27 -9 -39 -23c-17 -21 -30 -53 -41 -78h-2
c26 111 91 183 170 183c60 0 90 -38 90 -85c0 -37 -11 -74 -23 -112l-44 -140c-8 -26 -16 -53 -16 -69s7 -24 22 -24c30 0 62 39 84 73c19 30 39 77 58 143c5 17 47 171 52 196l152 15l-83 -344c-5 -21 -8 -44 -8 -55c0 -19 7 -28 22 -28c29 0 61 44 79 108h2
c-10 -64 -36 -109 -56 -132c-31 -38 -69 -57 -115 -57z" />
    <glyph glyph-name="partialdiff" unicode="&#x2202;" horiz-adv-x="540" 
d="M214 -9c-125 0 -196 81 -196 203c0 162 117 301 235 301c53 0 85 -21 104 -56c-2 147 -39 243 -156 272v2c6 0 19 -1 30 -2c211 -19 291 -154 291 -330c0 -207 -105 -390 -308 -390zM215 10c72 0 140 264 142 417c-11 13 -23 18 -42 18c-92 0 -141 -215 -141 -342
c0 -56 9 -93 41 -93z" />
    <glyph glyph-name="summation" unicode="&#x2211;" horiz-adv-x="584" 
d="M433 360l-444 -340h351c18 0 25 1 39 19l161 203h2l-48 -242h-555v2l340 266l-141 355c-3 8 -10 22 -21 33l-44 44v3h551l-45 -239h-2l-88 200c-8 18 -12 19 -29 19h-157z" />
    <glyph glyph-name="product" unicode="&#x220f;" horiz-adv-x="752" 
d="M737 611l-107 -519c-3 -15 -3 -18 5 -27l53 -63v-2h-321v2l79 63c10 9 13 12 16 27l121 591h-231l-122 -591c-3 -15 -3 -18 4 -27l53 -63v-2h-320v2l79 63c10 9 13 12 16 27l106 519c3 15 3 18 -4 27l-54 63v2h721v-2l-79 -63c-11 -8 -12 -12 -15 -27z" />
    <glyph glyph-name="pi" unicode="&#x3c0;" horiz-adv-x="633" 
d="M588 418l-69 -346c-3 -13 -3 -16 4 -24l40 -46v-2h-280v2l58 46c11 8 12 11 15 24l80 403h-149l-81 -403c-3 -13 -2 -16 5 -24l40 -46v-2h-279v2l57 46c10 8 11 11 14 24l69 346c3 13 2 16 -4 25l-39 50v2h592v-2l-59 -50c-10 -9 -11 -12 -14 -25z" />
    <glyph glyph-name="integral" unicode="&#x222b;" horiz-adv-x="442" 
d="M104 68l56 322c29 168 86 323 264 323c41 0 80 -5 119 -22l-70 -156h-2l-52 147c-4 12 -6 13 -17 13c-45 0 -59 -90 -82 -226l-53 -306c-34 -193 -115 -399 -290 -399c-40 0 -72 8 -101 25l70 160h2l55 -151c4 -10 7 -12 12 -12c7 0 14 3 20 11c32 40 47 145 69 271z" />
    <glyph glyph-name="ordfeminine" unicode="&#xaa;" horiz-adv-x="389" 
d="M135 366c-41 0 -80 35 -80 107c0 124 81 241 175 241c31 0 56 -12 69 -31l105 31l1 -1c-17 -72 -51 -204 -57 -227c-6 -24 -8 -35 -8 -44c0 -14 5 -21 16 -21c16 0 33 23 54 68l2 -1c-9 -32 -21 -59 -36 -79c-22 -29 -48 -43 -78 -43c-34 0 -56 23 -57 59c0 16 3 33 9 54
l-2 1c-25 -66 -60 -114 -113 -114zM186 421c19 0 45 33 59 78c3 5 34 122 49 176c-6 7 -15 11 -23 11c-29 0 -52 -26 -67 -52c-24 -44 -41 -115 -41 -172c0 -30 9 -41 23 -41z" />
    <glyph glyph-name="ordmasculine" unicode="&#xba;" horiz-adv-x="381" 
d="M193 366c-66 0 -134 33 -134 136c0 117 86 211 197 211c64 0 133 -32 133 -136c0 -121 -88 -211 -196 -211zM191 380c50 -1 93 154 93 266c0 23 -3 54 -26 54c-50 0 -93 -155 -93 -267c0 -25 4 -53 26 -53z" />
    <glyph glyph-name="Omega" unicode="&#x2126;" horiz-adv-x="765" 
d="M746 445c0 -187 -131 -332 -344 -358l-14 -68h126c17 0 29 1 44 18l173 196h2l-66 -233h-303l21 102c115 23 177 312 177 443c0 94 -30 150 -96 150c-108 0 -206 -234 -206 -442c0 -80 22 -133 65 -150l-21 -103h-302l27 233h2l95 -196c8 -17 19 -18 37 -18h125l14 70
c-150 21 -228 128 -228 257c0 206 167 367 386 367c172 0 286 -114 286 -268z" />
    <glyph glyph-name="ae" unicode="&#xe6;" horiz-adv-x="751" 
d="M489 -8c-103 0 -176 65 -187 173l-3 -11c-33 -96 -84 -162 -162 -162c-60 0 -117 51 -117 158c0 182 119 353 258 353c58 0 103 -23 126 -77c51 47 119 77 196 77c87 0 149 -40 149 -108c0 -95 -116 -164 -282 -165c-1 -8 -1 -16 -1 -23c0 -83 36 -123 98 -123
c64 0 120 40 155 122l2 -1c-31 -156 -136 -213 -232 -213zM213 73c29 0 65 50 88 116v4c0 84 35 165 93 223c-15 33 -36 46 -62 46c-38 0 -70 -37 -92 -77c-36 -64 -61 -168 -61 -251c0 -45 14 -61 34 -61zM597 484c-54 0 -117 -130 -129 -242c107 11 158 93 158 184
c0 36 -8 58 -29 58z" />
    <glyph glyph-name="oslash" unicode="&#xf8;" horiz-adv-x="525" 
d="M217 -9c-20 0 -40 2 -59 7l-34 -79l-19 7l34 77c-67 22 -121 78 -121 190c0 171 127 310 290 310c16 0 33 -2 49 -5l34 76l18 -7l-32 -73c70 -21 130 -77 130 -193c0 -175 -131 -310 -290 -310zM213 9c73 -1 137 230 137 395c0 8 0 17 -1 26l-170 -386
c5 -20 15 -35 34 -35zM175 90v-6l166 378c-5 14 -14 23 -29 23c-73 0 -137 -230 -137 -395z" />
    <glyph glyph-name="questiondown" unicode="&#xbf;" horiz-adv-x="441" 
d="M242 262c40 -1 77 -41 77 -82c0 -121 -213 -150 -213 -288c0 -46 18 -93 70 -93c4 0 10 0 17 1c16 2 22 5 29 16l124 196h2l43 -179c-66 -30 -159 -53 -231 -53c-131 0 -213 53 -213 150c0 144 171 191 253 250c17 13 32 27 38 43c4 11 6 23 3 37zM291 346
c-42 0 -75 27 -75 70c0 48 39 85 86 85c41 0 74 -29 74 -70c0 -49 -39 -85 -85 -85z" />
    <glyph glyph-name="exclamdown" unicode="&#xa1;" horiz-adv-x="283" 
d="M150 275l20 -484h-237l215 484h2zM173 347c-43 0 -76 27 -76 70c0 48 39 85 87 85c41 0 73 -29 73 -70c0 -49 -38 -85 -84 -85z" />
    <glyph glyph-name="logicalnot" unicode="&#xac;" horiz-adv-x="540" 
d="M501 109h-20v206h-441v19h461v-225z" />
    <glyph glyph-name="radical" unicode="&#x221a;" horiz-adv-x="540" 
d="M523 750l-263 -750h-2l-158 445l18 5l141 -393l245 698z" />
    <glyph glyph-name="florin" unicode="&#x192;" horiz-adv-x="442" 
d="M104 68l38 220h-101v20h105l14 82c29 168 86 323 264 323c41 0 80 -5 119 -22l-70 -156h-2l-52 147c-4 12 -6 13 -17 13c-45 0 -59 -90 -82 -226l-28 -161h111v-20h-115l-21 -125c-32 -193 -115 -399 -290 -399c-40 0 -72 8 -101 25l70 160h2l55 -151c4 -10 7 -12 12 -12
c7 0 15 4 21 11c33 40 46 146 68 271z" />
    <glyph glyph-name="approxequal" unicode="&#x2248;" horiz-adv-x="540" 
d="M403 369c-90 0 -145 66 -227 66c-43 0 -76 -25 -97 -59l-16 11c16 27 50 67 113 67c90 0 145 -66 227 -66c43 0 75 24 96 58l17 -10c-16 -27 -50 -67 -113 -67zM403 191c-90 0 -145 66 -227 66c-43 0 -76 -25 -97 -59l-16 11c16 27 50 67 113 67c90 0 145 -66 227 -66
c43 0 75 24 96 58l17 -10c-16 -27 -50 -67 -113 -67z" />
    <glyph glyph-name="Delta" unicode="&#x2206;" horiz-adv-x="582" 
d="M448 703l78 -703h-567v2l316 596c10 19 10 21 1 35l-44 68v2h216zM292 588l-300 -568h362z" />
    <glyph glyph-name="guillemotleft" unicode="&#xab;" horiz-adv-x="466" 
d="M29 252l271 230l1 -1l-142 -234l46 -225l-2 -1l-174 229v2zM216 252l271 230l1 -1l-142 -234l47 -225l-2 -1l-175 229v2z" />
    <glyph glyph-name="guillemotright" unicode="&#xbb;" horiz-adv-x="466" 
d="M254 250l-271 -229l-2 1l143 233l-47 226l2 1l175 -230v-2zM440 250l-271 -229l-2 1l143 233l-47 226l2 1l175 -230v-2z" />
    <glyph glyph-name="ellipsis" unicode="&#x2026;" horiz-adv-x="726" 
d="M82 -8c-41 0 -73 28 -73 68c0 51 40 87 86 87c42 0 75 -26 75 -68c0 -50 -40 -87 -88 -87zM320 -8c-41 0 -73 28 -73 68c0 51 39 87 86 87c42 0 75 -26 75 -68c0 -50 -40 -87 -88 -87zM558 -8c-40 0 -73 28 -73 68c0 51 40 87 86 87c42 0 75 -26 75 -68
c0 -50 -39 -87 -88 -87z" />
    <glyph glyph-name="uni00A0" unicode="&#xa0;" horiz-adv-x="192" 
 />
    <glyph glyph-name="Agrave" unicode="&#xc0;" horiz-adv-x="632" 
d="M382 96l-16 149h-219l-42 -80c-9 -16 -7 -19 1 -35l63 -128v-2h-237v2l123 128c18 19 21 23 31 42l226 426c10 19 10 21 1 35l-44 68v2h216l66 -593c2 -17 6 -26 12 -41l27 -67v-2h-278v2l62 67c8 8 9 14 8 27zM329 588l-171 -323h206zM205 911h163l110 -165l-1 -1
l-272 164v2z" />
    <glyph glyph-name="Atilde" unicode="&#xc3;" horiz-adv-x="632" 
d="M382 96l-16 149h-219l-42 -80c-9 -16 -7 -19 1 -35l63 -128v-2h-237v2l123 128c18 19 21 23 31 42l226 426c10 19 10 21 1 35l-44 68v2h216l66 -593c2 -17 6 -26 12 -41l27 -67v-2h-278v2l62 67c8 8 9 14 8 27zM329 588l-171 -323h206zM561 896h2
c-12 -75 -56 -126 -111 -126c-51 0 -86 49 -131 49c-28 0 -54 -12 -74 -49h-2c11 75 55 126 110 126c52 0 86 -49 131 -49c27 0 55 12 75 49z" />
    <glyph glyph-name="Otilde" unicode="&#xd5;" horiz-adv-x="709" 
d="M420 713c194 0 289 -117 289 -283c0 -248 -162 -440 -383 -440c-194 0 -289 117 -289 283c0 248 162 440 383 440zM312 9c132 0 218 351 218 515c0 124 -34 170 -96 170c-132 0 -218 -351 -218 -515c0 -124 34 -170 96 -170zM628 896h2c-12 -75 -56 -126 -111 -126
c-51 0 -86 49 -131 49c-28 0 -54 -12 -74 -49h-2c11 75 55 126 110 126c52 0 86 -49 131 -49c27 0 55 12 75 49z" />
    <glyph glyph-name="OE" unicode="&#x152;" horiz-adv-x="972" 
d="M725 661l-61 -299h65c15 1 19 2 35 17l108 101h2l-52 -255h-2l-67 101c-10 15 -13 16 -28 16h-65l-61 -299c-4 -21 -3 -23 18 -23h107c18 0 24 1 38 18l162 208h3l-49 -246h-448c-26 -6 -66 -10 -99 -10c-197 0 -294 118 -294 280c0 246 165 443 394 443
c64 0 89 -4 136 -10h444l-49 -242h-2l-84 203c-8 18 -11 19 -28 19h-94c-22 0 -25 -2 -29 -22zM528 666c-23 22 -48 28 -79 28c-149 0 -227 -365 -227 -513c0 -115 31 -172 98 -173c46 0 72 16 94 43c13 16 19 34 23 54l100 490c8 37 4 58 -9 71z" />
    <glyph glyph-name="oe" unicode="&#x153;" horiz-adv-x="780" 
d="M517 -8c-56 0 -101 21 -133 66c-48 -44 -102 -67 -166 -67c-97 0 -198 49 -198 202c0 171 126 310 290 310c55 0 111 -19 144 -69c45 46 107 69 174 69c88 0 150 -40 150 -108c0 -95 -116 -164 -282 -165c-1 -7 -1 -17 -1 -23c0 -83 35 -123 98 -123c64 0 119 40 155 122
l2 -1c-31 -156 -136 -213 -233 -213zM215 9c72 -1 136 230 136 395c0 35 -5 81 -38 81c-73 0 -136 -230 -136 -395c0 -37 5 -81 38 -81zM626 484c-54 0 -118 -130 -129 -241c107 10 158 92 158 183c0 36 -8 58 -29 58z" />
    <glyph glyph-name="endash" unicode="&#x2013;" horiz-adv-x="500" 
d="M5 237v19h490v-19h-490z" />
    <glyph glyph-name="emdash" unicode="&#x2014;" horiz-adv-x="1000" 
d="M5 237v19h990v-19h-990z" />
    <glyph glyph-name="quotedblleft" unicode="&#x201c;" horiz-adv-x="394" 
d="M420 537c0 -43 -34 -74 -75 -74c-42 0 -70 29 -70 72c0 75 66 134 125 164c16 8 36 17 52 20v-2c-19 -10 -34 -20 -47 -34c-19 -21 -36 -46 -41 -72c-2 -10 1 -13 11 -15c25 -5 45 -29 45 -59zM234 537c0 -43 -34 -74 -75 -74s-69 29 -69 72c0 74 65 131 122 162
c17 9 38 19 54 22v-2c-20 -10 -35 -21 -47 -35c-18 -20 -34 -46 -40 -71c-2 -10 0 -13 10 -15c26 -5 45 -29 45 -59z" />
    <glyph glyph-name="quotedblright" unicode="&#x201d;" horiz-adv-x="394" 
d="M163 565c2 10 0 13 -10 15c-25 5 -45 29 -45 59c0 42 34 74 75 74c42 0 69 -29 69 -72c0 -75 -65 -132 -123 -163c-16 -9 -37 -18 -53 -22v2c20 10 34 21 46 34c20 21 35 47 41 73zM349 565c2 10 0 13 -10 15c-26 5 -46 29 -46 59c0 42 34 74 76 74c41 0 69 -29 69 -72
c0 -75 -65 -134 -124 -164c-16 -8 -37 -17 -53 -21v2c19 10 34 21 47 34c20 21 35 47 41 73z" />
    <glyph glyph-name="quoteleft" unicode="&#x2018;" horiz-adv-x="209" 
d="M189 597c26 -5 46 -29 46 -59c0 -42 -34 -74 -76 -74c-41 0 -69 29 -69 72c0 76 68 134 127 165c15 8 34 16 50 19v-2c-19 -10 -33 -19 -46 -32c-20 -21 -37 -47 -42 -74c-2 -10 0 -13 10 -15z" />
    <glyph glyph-name="quoteright" unicode="&#x2019;" horiz-adv-x="208" 
d="M252 641c0 -75 -65 -131 -123 -163c-16 -9 -37 -18 -53 -22v2c20 10 33 21 46 34c20 21 35 47 41 73c2 10 0 13 -10 15c-25 5 -45 29 -45 59c0 42 34 74 75 74c42 0 69 -29 69 -72z" />
    <glyph glyph-name="divide" unicode="&#xf7;" horiz-adv-x="540" 
d="M50 311v19h440v-19h-440zM276 551c41 0 72 -24 72 -65c0 -47 -37 -78 -84 -78c-39 0 -73 24 -73 65c0 48 40 78 85 78zM276 231c41 0 72 -24 72 -65c0 -47 -37 -78 -84 -78c-39 0 -73 24 -73 65c0 48 40 78 85 78z" />
    <glyph glyph-name="lozenge" unicode="&#x25ca;" horiz-adv-x="540" 
d="M510 324l-219 -405h-2l-219 405l219 405h2zM290 688l-197 -364l197 -364l197 364z" />
    <glyph glyph-name="ydieresis" unicode="&#xff;" horiz-adv-x="485" 
d="M260 378c20 -76 39 -217 35 -353l2 -1c28 41 47 86 62 127c19 53 29 112 29 158c0 61 -16 110 -49 148v2l157 44c-16 -195 -103 -392 -215 -527c-104 -127 -248 -212 -332 -212c-13 0 -25 2 -32 6l56 167h2l105 -96c7 -7 12 -7 19 -3c17 10 32 21 52 38c8 7 10 13 10 26
v14c0 180 -32 366 -60 450c-9 28 -18 35 -29 35c-17 0 -37 -22 -61 -86h-2c14 100 70 188 147 188c66 0 86 -61 104 -125zM225 689c37 0 65 -22 65 -60c0 -43 -35 -71 -76 -71c-35 0 -66 21 -66 59c0 44 37 72 77 72zM422 689c37 0 65 -22 65 -60c0 -43 -34 -71 -75 -71
c-36 0 -66 21 -66 59c0 44 36 72 76 72z" />
    <glyph glyph-name="Ydieresis" unicode="&#x178;" horiz-adv-x="621" 
d="M583 543l-166 -238c-10 -14 -11 -20 -15 -38l-35 -171c-3 -15 -3 -17 5 -26l60 -68v-2h-337v2l87 68c11 9 13 11 16 26l31 154c3 11 3 17 0 25l-101 316c-6 19 -11 30 -18 43l-36 67v2h312v-2l-74 -69c-10 -9 -11 -12 -8 -24l89 -306l170 247c11 15 10 18 4 31l-61 121v2
h250v-2l-138 -121c-17 -15 -23 -20 -35 -37zM377 897c37 0 65 -22 65 -60c0 -43 -35 -71 -76 -71c-35 0 -66 21 -66 59c0 44 37 72 77 72zM574 897c37 0 65 -22 65 -60c0 -43 -34 -71 -75 -71c-36 0 -66 21 -66 59c0 44 36 72 76 72z" />
    <glyph glyph-name="fraction" unicode="&#x2044;" horiz-adv-x="48" 
d="M363 701l-645 -711l-14 14l644 710z" />
    <glyph glyph-name="Euro" unicode="&#x20ac;" horiz-adv-x="670" 
d="M468 285h-189c-3 -29 -4 -59 -4 -89c0 -107 33 -188 106 -188h15c18 0 23 4 32 14l196 237h2l-50 -249c-71 -14 -140 -20 -212 -20c-175 0 -272 113 -272 276v19h-90v20h91c2 32 7 64 15 94h-83v20h89c53 172 195 294 388 294c73 0 140 -5 213 -21l-51 -246h-2l-101 232
c-6 14 -12 17 -26 17h-17c-90 0 -175 -112 -217 -276h190v-20h-194c-7 -30 -13 -62 -16 -94h187v-20z" />
    <glyph glyph-name="guilsinglleft" unicode="&#x2039;" horiz-adv-x="279" 
d="M29 252l272 230l1 -1l-142 -234l46 -225l-2 -1l-175 229v2z" />
    <glyph glyph-name="guilsinglright" unicode="&#x203a;" horiz-adv-x="279" 
d="M254 250l-271 -229l-2 1l143 233l-47 226l2 1l175 -230v-2z" />
    <glyph glyph-name="daggerdbl" unicode="&#x2021;" horiz-adv-x="429" 
d="M389 301h-152l-34 -171l-19 3l33 168h-149v19h153l39 194h-149v19h153l35 173l19 -3l-34 -170h148v-19h-152l-39 -194h148v-19z" />
    <glyph glyph-name="periodcentered" unicode="&#xb7;" horiz-adv-x="242" 
d="M154 498c42 0 75 -27 75 -70c0 -48 -39 -85 -86 -85c-41 0 -74 29 -74 70c0 49 39 85 85 85z" />
    <glyph glyph-name="quotesinglbase" unicode="&#x201a;" horiz-adv-x="208" 
d="M49 -9c2 10 0 13 -10 15c-25 6 -45 29 -45 59c0 43 34 74 75 74c42 0 69 -29 69 -72c0 -75 -66 -134 -125 -164c-16 -8 -36 -17 -51 -20v2c19 10 33 20 46 33c20 21 35 47 41 73z" />
    <glyph glyph-name="quotedblbase" unicode="&#x201e;" horiz-adv-x="395" 
d="M49 -9c2 10 0 13 -10 15c-25 6 -45 29 -45 59c0 43 34 74 75 74c42 0 69 -29 69 -72c0 -74 -63 -132 -121 -162c-17 -9 -38 -18 -55 -22v2c21 11 35 22 48 37c19 20 33 44 39 69zM236 -9c2 10 -1 13 -11 15c-25 6 -45 29 -45 59c0 43 34 74 75 74c42 0 70 -29 70 -72
c0 -73 -65 -129 -122 -161c-16 -9 -38 -19 -55 -23v2c19 11 35 21 47 35c18 20 36 45 41 71z" />
    <glyph glyph-name="perthousand" unicode="&#x2030;" horiz-adv-x="981" 
d="M289 698c-51 0 -82 -164 -82 -220c0 -32 7 -49 29 -49c52 0 82 169 82 221c0 32 -7 48 -29 48zM293 713c70 0 116 -49 116 -111c0 -111 -67 -188 -177 -188c-70 0 -116 50 -116 112c0 111 68 187 177 187zM488 275c-51 0 -82 -164 -82 -220c0 -32 7 -49 29 -49
c52 0 82 169 82 221c0 32 -7 48 -29 48zM492 290c70 0 116 -49 116 -111c0 -111 -67 -188 -177 -188c-70 0 -116 50 -116 112c0 111 68 187 177 187zM823 275c-51 0 -82 -164 -82 -220c0 -32 7 -49 29 -49c52 0 82 169 82 221c0 32 -7 48 -29 48zM827 290
c70 0 116 -49 116 -111c0 -111 -67 -188 -177 -188c-70 0 -116 50 -116 112c0 111 68 187 177 187zM693 701l-645 -711l-14 14l644 710z" />
    <glyph glyph-name="Acircumflex" unicode="&#xc2;" horiz-adv-x="632" 
d="M382 96l-16 149h-219l-42 -80c-9 -16 -7 -19 1 -35l63 -128v-2h-237v2l123 128c18 19 21 23 31 42l226 426c10 19 10 21 1 35l-44 68v2h216l66 -593c2 -17 6 -26 12 -41l27 -67v-2h-278v2l62 67c8 8 9 14 8 27zM329 588l-171 -323h206zM419 919l128 -175l-2 -1l-145 70
l-180 -70l-1 2l198 174h2z" />
    <glyph glyph-name="Ecircumflex" unicode="&#xca;" horiz-adv-x="594" 
d="M448 919l128 -175l-2 -1l-145 70l-180 -70l-1 2l198 174h2zM238 20h107c18 0 25 0 39 18l162 208h2l-48 -246h-533v2l78 62c11 9 14 13 17 28l106 519c3 15 3 18 -4 27l-54 63v2h523l-50 -242h-2l-84 203c-8 18 -11 19 -28 19h-94c-22 0 -24 -2 -28 -22l-62 -299h65
c16 1 18 2 35 17l109 101h2l-52 -255h-2l-67 101c-10 15 -14 16 -29 16h-65l-61 -299c-4 -21 -2 -23 18 -23z" />
    <glyph glyph-name="Aacute" unicode="&#xc1;" horiz-adv-x="632" 
d="M382 96l-16 149h-219l-42 -80c-9 -16 -7 -19 1 -35l63 -128v-2h-237v2l123 128c18 19 21 23 31 42l226 426c10 19 10 21 1 35l-44 68v2h216l66 -593c2 -17 6 -26 12 -41l27 -67v-2h-278v2l62 67c8 8 9 14 8 27zM329 588l-171 -323h206zM306 745l-1 1l109 165h164v-2z" />
    <glyph glyph-name="Edieresis" unicode="&#xcb;" horiz-adv-x="594" 
d="M338 897c37 0 65 -22 65 -60c0 -43 -35 -71 -76 -71c-35 0 -66 21 -66 59c0 44 37 72 77 72zM535 897c37 0 65 -22 65 -60c0 -43 -34 -71 -75 -71c-36 0 -66 21 -66 59c0 44 36 72 76 72zM238 20h107c18 0 25 0 39 18l162 208h2l-48 -246h-533v2l78 62c11 9 14 13 17 28
l106 519c3 15 3 18 -4 27l-54 63v2h523l-50 -242h-2l-84 203c-8 18 -11 19 -28 19h-94c-22 0 -24 -2 -28 -22l-62 -299h65c16 1 18 2 35 17l109 101h2l-52 -255h-2l-67 101c-10 15 -14 16 -29 16h-65l-61 -299c-4 -21 -2 -23 18 -23z" />
    <glyph glyph-name="Egrave" unicode="&#xc8;" horiz-adv-x="594" 
d="M238 20h107c18 0 25 0 39 18l162 208h2l-48 -246h-533v2l78 62c11 9 14 13 17 28l106 519c3 15 3 18 -4 27l-54 63v2h523l-50 -242h-2l-84 203c-8 18 -11 19 -28 19h-94c-22 0 -24 -2 -28 -22l-62 -299h65c16 1 18 2 35 17l109 101h2l-52 -255h-2l-67 101
c-10 15 -14 16 -29 16h-65l-61 -299c-4 -21 -2 -23 18 -23zM234 911h163l110 -165l-1 -1l-272 164v2z" />
    <glyph glyph-name="Iacute" unicode="&#xcd;" horiz-adv-x="352" 
d="M230 92c-3 -15 -3 -18 4 -27l53 -63v-2h-320v2l79 63c11 8 13 12 16 27l106 519c3 15 3 18 -4 27l-54 63v2h321v-2l-79 -63c-11 -9 -12 -12 -15 -27zM204 745l-1 1l109 165h164v-2z" />
    <glyph glyph-name="Icircumflex" unicode="&#xce;" horiz-adv-x="352" 
d="M230 92c-3 -15 -3 -18 4 -27l53 -63v-2h-320v2l79 63c11 8 13 12 16 27l106 519c3 15 3 18 -4 27l-54 63v2h321v-2l-79 -63c-11 -9 -12 -12 -15 -27zM317 919l128 -175l-2 -1l-145 70l-180 -70l-1 2l198 174h2z" />
    <glyph glyph-name="Idieresis" unicode="&#xcf;" horiz-adv-x="352" 
d="M230 92c-3 -15 -3 -18 4 -27l53 -63v-2h-320v2l79 63c11 8 13 12 16 27l106 519c3 15 3 18 -4 27l-54 63v2h321v-2l-79 -63c-11 -9 -12 -12 -15 -27zM207 897c37 0 65 -22 65 -60c0 -43 -35 -71 -76 -71c-35 0 -66 21 -66 59c0 44 37 72 77 72zM404 897
c37 0 65 -22 65 -60c0 -43 -34 -71 -75 -71c-36 0 -66 21 -66 59c0 44 36 72 76 72z" />
    <glyph glyph-name="Igrave" unicode="&#xcc;" horiz-adv-x="352" 
d="M230 92c-3 -15 -3 -18 4 -27l53 -63v-2h-320v2l79 63c11 8 13 12 16 27l106 519c3 15 3 18 -4 27l-54 63v2h321v-2l-79 -63c-11 -9 -12 -12 -15 -27zM103 911h163l110 -165l-1 -1l-272 164v2z" />
    <glyph glyph-name="Oacute" unicode="&#xd3;" horiz-adv-x="709" 
d="M373 745l-1 1l109 165h164v-2zM420 713c194 0 289 -117 289 -283c0 -248 -162 -440 -383 -440c-194 0 -289 117 -289 283c0 248 162 440 383 440zM312 9c132 0 218 351 218 515c0 124 -34 170 -96 170c-132 0 -218 -351 -218 -515c0 -124 34 -170 96 -170z" />
    <glyph glyph-name="Ocircumflex" unicode="&#xd4;" horiz-adv-x="709" 
d="M486 919l128 -175l-2 -1l-145 70l-180 -70l-1 2l198 174h2zM420 713c194 0 289 -117 289 -283c0 -248 -162 -440 -383 -440c-194 0 -289 117 -289 283c0 248 162 440 383 440zM312 9c132 0 218 351 218 515c0 124 -34 170 -96 170c-132 0 -218 -351 -218 -515
c0 -124 34 -170 96 -170z" />
    <glyph glyph-name="apple" unicode="&#xf8ff;" horiz-adv-x="1254" 
d="M666 341c-21 0 -62 3 -80 3c-76 0 -108 -38 -136 -100c-30 -67 -73 -120 -165 -120c-25 0 -60 4 -83 4c-77 0 -128 -48 -128 -106c0 -11 0 -16 1 -22h-19c-1 7 -1 11 -1 22c0 72 61 125 148 125c24 0 62 -4 83 -4c79 0 122 49 147 109c23 56 65 111 153 111
c21 0 62 -3 80 -3c74 0 109 39 137 101c30 66 72 118 164 118c25 0 60 -4 83 -4c77 0 130 51 130 106c0 11 0 16 -1 22h19c1 -7 1 -11 1 -22c0 -70 -63 -125 -150 -125c-24 0 -62 4 -83 4c-77 0 -117 -41 -146 -107c-29 -69 -75 -112 -154 -112z" />
    <glyph glyph-name="Ograve" unicode="&#xd2;" horiz-adv-x="709" 
d="M420 713c194 0 289 -117 289 -283c0 -248 -162 -440 -383 -440c-194 0 -289 117 -289 283c0 248 162 440 383 440zM312 9c132 0 218 351 218 515c0 124 -34 170 -96 170c-132 0 -218 -351 -218 -515c0 -124 34 -170 96 -170zM272 911h163l110 -165l-1 -1l-272 164v2z" />
    <glyph glyph-name="Uacute" unicode="&#xda;" horiz-adv-x="657" 
d="M401 745l-1 1l109 165h164v-2zM574 256c-34 -166 -109 -266 -289 -266c-139 0 -216 64 -216 183c0 21 3 45 8 70l76 367c3 15 2 19 -5 28l-50 63v2h317v-2l-78 -63c-10 -8 -13 -13 -16 -28l-74 -360c-7 -34 -10 -63 -10 -88c0 -97 48 -135 120 -135c94 0 165 74 196 227
l56 270c6 29 5 38 -11 65l-64 112v2h240v-2l-110 -115c-24 -25 -28 -33 -34 -62z" />
    <glyph glyph-name="Ucircumflex" unicode="&#xdb;" horiz-adv-x="657" 
d="M514 919l128 -175l-2 -1l-145 70l-180 -70l-1 2l198 174h2zM574 256c-34 -166 -109 -266 -289 -266c-139 0 -216 64 -216 183c0 21 3 45 8 70l76 367c3 15 2 19 -5 28l-50 63v2h317v-2l-78 -63c-10 -8 -13 -13 -16 -28l-74 -360c-7 -34 -10 -63 -10 -88
c0 -97 48 -135 120 -135c94 0 165 74 196 227l56 270c6 29 5 38 -11 65l-64 112v2h240v-2l-110 -115c-24 -25 -28 -33 -34 -62z" />
    <glyph glyph-name="Ugrave" unicode="&#xd9;" horiz-adv-x="657" 
d="M574 256c-34 -166 -109 -266 -289 -266c-139 0 -216 64 -216 183c0 21 3 45 8 70l76 367c3 15 2 19 -5 28l-50 63v2h317v-2l-78 -63c-10 -8 -13 -13 -16 -28l-74 -360c-7 -34 -10 -63 -10 -88c0 -97 48 -135 120 -135c94 0 165 74 196 227l56 270c6 29 5 38 -11 65
l-64 112v2h240v-2l-110 -115c-24 -25 -28 -33 -34 -62zM300 911h163l110 -165l-1 -1l-272 164v2z" />
    <glyph glyph-name="dotlessi" unicode="&#x131;" horiz-adv-x="298" 
d="M113 -8c-59 0 -84 43 -84 89c0 22 5 51 11 75l69 271c5 18 2 23 -8 28l-61 30v2l240 16l-87 -345c-7 -26 -11 -45 -11 -60c0 -13 5 -24 20 -24c13 0 26 7 38 22c16 20 31 47 42 85h2c-16 -101 -86 -189 -171 -189z" />
    <glyph glyph-name="circumflex" unicode="&#x2c6;" horiz-adv-x="428" 
d="M250 711l128 -175l-2 -1l-145 70l-180 -70l-1 2l198 174h2z" />
    <glyph glyph-name="tilde" unicode="&#x2dc;" horiz-adv-x="418" 
d="M366 688h2c-12 -75 -56 -126 -111 -126c-51 0 -86 49 -131 49c-28 0 -54 -12 -74 -49h-2c11 75 55 126 110 126c52 0 86 -49 131 -49c27 0 55 12 75 49z" />
    <glyph glyph-name="macron" unicode="&#xaf;" horiz-adv-x="385" 
d="M331 592h-280v20h280v-20z" />
    <glyph glyph-name="breve" unicode="&#x2d8;" horiz-adv-x="369" 
d="M173 617c72 0 128 33 144 95h2c-2 -122 -77 -172 -152 -172c-59 0 -117 31 -117 102c0 20 4 43 15 70h2c-9 -62 34 -95 106 -95z" />
    <glyph glyph-name="dotaccent" unicode="&#x2d9;" horiz-adv-x="257" 
d="M135 697c41 0 72 -24 72 -65c0 -47 -37 -78 -84 -78c-39 0 -73 24 -73 65c0 48 40 78 85 78z" />
    <glyph glyph-name="ring" unicode="&#x2da;" horiz-adv-x="290" 
d="M132 539c-44 0 -81 32 -81 80c0 57 45 106 107 106c44 0 81 -31 81 -79c0 -58 -45 -107 -107 -107zM156 705c-45 0 -83 -38 -83 -85c0 -37 26 -61 61 -61c45 0 83 38 83 86c0 37 -26 60 -61 60z" />
    <glyph glyph-name="cedilla" unicode="&#xb8;" horiz-adv-x="362" 
d="M298 -124c0 -67 -63 -112 -137 -112c-65 0 -116 36 -108 95h2c4 -43 45 -57 73 -57c39 0 76 27 76 69c0 28 -25 43 -55 43c-12 0 -25 -1 -39 -7l-1 2l92 88h2l-19 -57c11 2 21 3 30 3c52 0 84 -29 84 -67z" />
    <glyph glyph-name="hungarumlaut" unicode="&#x2dd;" horiz-adv-x="488" 
d="M142 703h129v-2l-219 -170h-2zM309 703h129v-2l-219 -170h-2z" />
    <glyph glyph-name="ogonek" unicode="&#x2db;" horiz-adv-x="337" 
d="M137 -124c0 -36 24 -56 60 -56c27 0 61 13 89 45l1 -1c-28 -53 -76 -100 -147 -100c-50 0 -90 28 -90 80c0 89 103 143 181 158v-2c-52 -20 -94 -68 -94 -124z" />
    <glyph glyph-name="caron" unicode="&#x2c7;" horiz-adv-x="428" 
d="M179 532h-2l-127 174l1 2l146 -67l179 67l1 -2z" />
    <glyph glyph-name="AEacute" unicode="&#x1fc;" horiz-adv-x="927" 
d="M617 746l-1 1l109 165h164v-2zM553 40c-4 -18 -1 -20 13 -20h115c17 0 23 2 33 14l164 212h4l-49 -246h-533v2l80 63c9 8 11 11 14 24l32 156h-231l-63 -77c-17 -21 -18 -26 -11 -45l44 -121v-2h-246v2l139 119c25 22 35 28 49 46l355 433c12 15 12 18 5 28l-54 73v2h553
l-50 -242h-2l-85 206c-5 13 -10 16 -25 16h-103c-14 0 -16 -2 -20 -20l-62 -301h67c13 1 16 2 29 14l113 104h2l-53 -255h-2l-69 104c-8 11 -11 13 -24 13h-67zM501 611c0 3 1 6 1 8l-292 -355h220z" />
    <glyph glyph-name="Abreve" unicode="&#x102;" horiz-adv-x="632" 
d="M382 96l-16 149h-219l-42 -80c-9 -16 -7 -19 1 -35l63 -128v-2h-237v2l123 128c18 19 21 23 31 42l226 426c10 19 10 21 1 35l-44 68v2h216l66 -593c2 -17 6 -26 12 -41l27 -67v-2h-278v2l62 67c8 8 9 14 8 27zM329 588l-171 -323h206zM398 825c72 0 128 33 144 95h2
c-2 -122 -77 -172 -152 -172c-59 0 -117 31 -117 102c0 20 4 43 15 70h2c-9 -62 34 -95 106 -95z" />
    <glyph glyph-name="Amacron" unicode="&#x100;" horiz-adv-x="632" 
d="M382 96l-16 149h-219l-42 -80c-9 -16 -7 -19 1 -35l63 -128v-2h-237v2l123 128c18 19 21 23 31 42l226 426c10 19 10 21 1 35l-44 68v2h216l66 -593c2 -17 6 -26 12 -41l27 -67v-2h-278v2l62 67c8 8 9 14 8 27zM329 588l-171 -323h206zM538 800h-280v20h280v-20z" />
    <glyph glyph-name="Aogonek" unicode="&#x104;" horiz-adv-x="632" 
d="M382 96l-16 149h-219l-42 -80c-9 -16 -7 -19 1 -35l63 -128v-2h-237v2l123 128c18 19 21 23 31 42l226 426c10 19 10 21 1 35l-44 68v2h216l66 -593c2 -17 6 -26 12 -41l27 -67v-2h-264c-50 -16 -90 -68 -90 -124c0 -36 23 -56 59 -56c27 0 61 13 90 45l1 -1
c-28 -53 -77 -100 -148 -100c-49 0 -90 28 -90 80c0 84 89 143 166 160l60 65c8 8 9 14 8 27zM329 588l-171 -323h206z" />
    <glyph glyph-name="Aringacute" unicode="&#x1fa;" horiz-adv-x="636" 
d="M398 993h145v-2l-159 -95c-22 -13 -45 -28 -55 -41c23 21 47 26 70 26c53 0 96 -27 96 -72c0 -44 -43 -71 -95 -71c-48 0 -95 29 -95 71c0 16 6 29 14 43zM325 809c0 -32 37 -52 75 -52c41 0 74 19 74 52c0 34 -33 53 -75 53c-40 0 -74 -19 -74 -53zM382 96l-16 149h-219
l-42 -80c-9 -16 -7 -19 1 -35l63 -128v-2h-237v2l123 128c18 19 21 23 31 42l226 426c10 19 10 21 1 35l-44 68v2h216l66 -593c2 -17 6 -26 12 -41l27 -67v-2h-278v2l62 67c8 8 9 14 8 27zM329 588l-171 -323h206z" />
    <glyph glyph-name="Cacute" unicode="&#x106;" horiz-adv-x="614" 
d="M378 745l-1 1l109 165h164v-2zM308 -10c-175 0 -272 113 -272 276c0 249 164 447 410 447c73 0 140 -5 213 -21l-51 -246h-2l-101 232c-6 14 -12 17 -26 17h-17c-126 0 -243 -220 -243 -499c0 -107 33 -188 106 -188h15c18 0 23 4 32 14l196 237h2l-50 -249
c-71 -14 -140 -20 -212 -20z" />
    <glyph glyph-name="Ccaron" unicode="&#x10c;" horiz-adv-x="614" 
d="M459 740h-2l-127 174l1 2l146 -67l179 67l1 -2zM308 -10c-175 0 -272 113 -272 276c0 249 164 447 410 447c73 0 140 -5 213 -21l-51 -246h-2l-101 232c-6 14 -12 17 -26 17h-17c-126 0 -243 -220 -243 -499c0 -107 33 -188 106 -188h15c18 0 23 4 32 14l196 237h2
l-50 -249c-71 -14 -140 -20 -212 -20z" />
    <glyph glyph-name="Ccircumflex" unicode="&#x108;" horiz-adv-x="614" 
d="M491 919l128 -175l-2 -1l-145 70l-180 -70l-1 2l198 174h2zM308 -10c-175 0 -272 113 -272 276c0 249 164 447 410 447c73 0 140 -5 213 -21l-51 -246h-2l-101 232c-6 14 -12 17 -26 17h-17c-126 0 -243 -220 -243 -499c0 -107 33 -188 106 -188h15c18 0 23 4 32 14
l196 237h2l-50 -249c-71 -14 -140 -20 -212 -20z" />
    <glyph glyph-name="Cdotaccent" unicode="&#x10a;" horiz-adv-x="614" 
d="M308 -10c-175 0 -272 113 -272 276c0 249 164 447 410 447c73 0 140 -5 213 -21l-51 -246h-2l-101 232c-6 14 -12 17 -26 17h-17c-126 0 -243 -220 -243 -499c0 -107 33 -188 106 -188h15c18 0 23 4 32 14l196 237h2l-50 -249c-71 -14 -140 -20 -212 -20zM484 905
c41 0 72 -24 72 -65c0 -47 -37 -78 -84 -78c-39 0 -73 24 -73 65c0 48 40 78 85 78z" />
    <glyph glyph-name="Dcaron" unicode="&#x10e;" horiz-adv-x="706" 
d="M411 740h-2l-127 174l1 2l146 -67l179 67l1 -2zM105 703h318c170 0 282 -106 282 -270c0 -247 -181 -433 -440 -433h-303v2l79 63c10 9 13 12 16 27l106 519c3 15 3 18 -4 27l-54 63v2zM368 683c-19 0 -22 -2 -26 -21l-127 -619c-5 -22 -3 -23 20 -23h17
c121 0 205 119 245 273c18 69 28 145 28 222c0 102 -54 168 -130 168h-27z" />
    <glyph glyph-name="Dcroat" unicode="&#x110;" horiz-adv-x="715" 
d="M35 350v19h88l51 248c3 15 2 18 -5 26l-56 58v2h311c190 0 289 -109 289 -265c0 -241 -173 -438 -413 -438h-328v2l76 57c11 9 14 12 17 27l54 264h-84zM381 683c-18 0 -19 -2 -23 -21l-61 -293h109v-19h-113l-63 -307c-4 -20 -2 -23 19 -23h16c141 0 222 178 252 348
c9 48 14 95 14 142c0 107 -36 173 -122 173h-28z" />
    <glyph glyph-name="Ebreve" unicode="&#x114;" horiz-adv-x="594" 
d="M238 20h107c18 0 25 0 39 18l162 208h2l-48 -246h-533v2l78 62c11 9 14 13 17 28l106 519c3 15 3 18 -4 27l-54 63v2h523l-50 -242h-2l-84 203c-8 18 -11 19 -28 19h-94c-22 0 -24 -2 -28 -22l-62 -299h65c16 1 18 2 35 17l109 101h2l-52 -255h-2l-67 101
c-10 15 -14 16 -29 16h-65l-61 -299c-4 -21 -2 -23 18 -23zM427 825c72 0 128 33 144 95h2c-2 -122 -77 -172 -152 -172c-59 0 -117 31 -117 102c0 20 4 43 15 70h2c-9 -62 34 -95 106 -95z" />
    <glyph glyph-name="Ecaron" unicode="&#x11a;" horiz-adv-x="594" 
d="M415 740h-2l-127 174l1 2l146 -67l179 67l1 -2zM238 20h107c18 0 25 0 39 18l162 208h2l-48 -246h-533v2l78 62c11 9 14 13 17 28l106 519c3 15 3 18 -4 27l-54 63v2h523l-50 -242h-2l-84 203c-8 18 -11 19 -28 19h-94c-22 0 -24 -2 -28 -22l-62 -299h65c16 1 18 2 35 17
l109 101h2l-52 -255h-2l-67 101c-10 15 -14 16 -29 16h-65l-61 -299c-4 -21 -2 -23 18 -23z" />
    <glyph glyph-name="Edotaccent" unicode="&#x116;" horiz-adv-x="594" 
d="M238 20h107c18 0 25 0 39 18l162 208h2l-48 -246h-533v2l78 62c11 9 14 13 17 28l106 519c3 15 3 18 -4 27l-54 63v2h523l-50 -242h-2l-84 203c-8 18 -11 19 -28 19h-94c-22 0 -24 -2 -28 -22l-62 -299h65c16 1 18 2 35 17l109 101h2l-52 -255h-2l-67 101
c-10 15 -14 16 -29 16h-65l-61 -299c-4 -21 -2 -23 18 -23zM440 905c41 0 72 -24 72 -65c0 -47 -37 -78 -84 -78c-39 0 -73 24 -73 65c0 48 40 78 85 78z" />
    <glyph glyph-name="Emacron" unicode="&#x112;" horiz-adv-x="594" 
d="M238 20h107c18 0 25 0 39 18l162 208h2l-48 -246h-533v2l78 62c11 9 14 13 17 28l106 519c3 15 3 18 -4 27l-54 63v2h523l-50 -242h-2l-84 203c-8 18 -11 19 -28 19h-94c-22 0 -24 -2 -28 -22l-62 -299h65c16 1 18 2 35 17l109 101h2l-52 -255h-2l-67 101
c-10 15 -14 16 -29 16h-65l-61 -299c-4 -21 -2 -23 18 -23zM566 800h-280v20h280v-20z" />
    <glyph glyph-name="Eng" unicode="&#x14a;" horiz-adv-x="723" 
d="M697 502l-80 -402c-40 -203 -161 -310 -367 -310l-1 2c100 39 164 123 190 253l87 437c4 19 6 37 6 52c0 66 -35 95 -93 95c-45 0 -99 -28 -125 -54l-99 -483c-3 -15 -3 -18 4 -27l53 -63v-2h-320v2l79 63c11 8 12 12 15 27l107 519c3 15 3 18 -4 27l-54 63v2h245
l-23 -114c42 68 137 122 217 122c101 0 169 -53 169 -155c0 -17 -2 -35 -6 -54z" />
    <glyph glyph-name="Eogonek" unicode="&#x118;" horiz-adv-x="594" 
d="M238 20h107c18 0 25 0 39 18l162 208h2l-48 -246h-91c-53 -20 -94 -68 -94 -124c0 -36 23 -56 59 -56c27 0 62 13 90 45l1 -1c-28 -53 -77 -100 -147 -100c-51 0 -90 28 -90 80c0 84 90 138 166 156h-427v2l78 62c11 9 14 13 17 28l106 519c3 15 3 18 -4 27l-54 63v2h523
l-50 -242h-2l-84 203c-8 18 -11 19 -28 19h-94c-22 0 -24 -2 -28 -22l-62 -299h65c16 1 18 2 35 17l109 101h2l-52 -255h-2l-67 101c-10 15 -14 16 -29 16h-65l-61 -299c-4 -21 -2 -23 18 -23z" />
    <glyph glyph-name="Gbreve" unicode="&#x11e;" horiz-adv-x="671" 
d="M295 -10c-156 0 -259 112 -259 278c0 254 166 445 423 445c68 0 145 -5 222 -23l-50 -245h-2l-106 232c-6 13 -8 17 -23 17h-23c-151 0 -258 -222 -258 -497c0 -127 39 -183 108 -183c22 0 42 4 62 13l39 190c3 17 3 20 -3 29l-43 63v2h299v-2l-69 -63
c-9 -10 -12 -13 -15 -29l-47 -227l-136 26c-42 -17 -80 -26 -119 -26zM470 825c72 0 128 33 144 95h2c-2 -122 -77 -172 -152 -172c-59 0 -117 31 -117 102c0 20 4 43 15 70h2c-9 -62 34 -95 106 -95z" />
    <glyph glyph-name="Gcircumflex" unicode="&#x11c;" horiz-adv-x="671" 
d="M491 919l128 -175l-2 -1l-145 70l-180 -70l-1 2l198 174h2zM295 -10c-156 0 -259 112 -259 278c0 254 166 445 423 445c68 0 145 -5 222 -23l-50 -245h-2l-106 232c-6 13 -8 17 -23 17h-23c-151 0 -258 -222 -258 -497c0 -127 39 -183 108 -183c22 0 42 4 62 13l39 190
c3 17 3 20 -3 29l-43 63v2h299v-2l-69 -63c-9 -10 -12 -13 -15 -29l-47 -227l-136 26c-42 -17 -80 -26 -119 -26z" />
    <glyph glyph-name="Gcommaaccent" unicode="&#x122;" horiz-adv-x="671" 
d="M275 -160c-20 0 -43 16 -43 50c0 41 33 72 72 72c36 0 61 -24 61 -61c0 -62 -52 -118 -112 -146c-13 -6 -30 -13 -44 -15v2c19 9 36 23 46 35c15 18 22 36 26 53c2 8 1 10 -6 10zM295 -10c-156 0 -259 112 -259 278c0 254 166 445 423 445c68 0 145 -5 222 -23l-50 -245
h-2l-106 232c-6 13 -8 17 -23 17h-23c-151 0 -258 -222 -258 -497c0 -127 39 -183 108 -183c22 0 42 4 62 13l39 190c3 17 3 20 -3 29l-43 63v2h299v-2l-69 -63c-9 -10 -12 -13 -15 -29l-47 -227l-136 26c-42 -17 -80 -26 -119 -26z" />
    <glyph glyph-name="Gdotaccent" unicode="&#x120;" horiz-adv-x="671" 
d="M295 -10c-156 0 -259 112 -259 278c0 254 166 445 423 445c68 0 145 -5 222 -23l-50 -245h-2l-106 232c-6 13 -8 17 -23 17h-23c-151 0 -258 -222 -258 -497c0 -127 39 -183 108 -183c22 0 42 4 62 13l39 190c3 17 3 20 -3 29l-43 63v2h299v-2l-69 -63
c-9 -10 -12 -13 -15 -29l-47 -227l-136 26c-42 -17 -80 -26 -119 -26zM483 905c41 0 72 -24 72 -65c0 -47 -37 -78 -84 -78c-39 0 -73 24 -73 65c0 48 40 78 85 78z" />
    <glyph glyph-name="Hbar" unicode="&#x126;" horiz-adv-x="760" 
d="M641 89c-4 -19 -3 -22 4 -30l53 -57v-2h-321v2l74 59c10 8 12 12 15 29l39 192h-229l-40 -193c-4 -19 -3 -22 4 -30l53 -57v-2h-322v2l74 59c10 8 12 12 15 29l76 370h-76v19h80l28 135c4 19 3 22 -4 30l-53 57v2h322v-2l-75 -59c-10 -8 -10 -12 -14 -29l-28 -134h230
l28 135c4 19 3 22 -4 30l-53 57v2h321v-2l-74 -59c-10 -8 -11 -12 -15 -29l-28 -134h73v-19h-77zM312 460l-32 -158h229l33 158h-230z" />
    <glyph glyph-name="Hcircumflex" unicode="&#x124;" horiz-adv-x="752" 
d="M516 919l128 -175l-2 -1l-145 70l-180 -70l-1 2l198 174h2zM737 611l-107 -519c-3 -15 -3 -18 5 -27l53 -63v-2h-321v2l79 63c11 8 13 12 16 27l53 258h-232l-53 -258c-3 -15 -3 -18 4 -27l53 -63v-2h-320v2l79 63c11 8 13 12 16 27l106 519c3 15 3 18 -4 27l-54 63v2
h321v-2l-79 -63c-11 -9 -12 -12 -15 -27l-50 -241h232l50 241c3 15 2 18 -5 27l-54 63v2h321v-2l-79 -63c-11 -8 -12 -12 -15 -27z" />
    <glyph glyph-name="IJ" unicode="&#x132;" horiz-adv-x="679" 
d="M230 92c-3 -15 -3 -18 4 -27l53 -63v-2h-320v2l79 63c11 8 13 12 16 27l106 519c3 15 3 18 -4 27l-54 63v2h321v-2l-79 -63c-11 -9 -12 -12 -15 -27zM678 611l-107 -516c-40 -196 -158 -298 -365 -306v2c103 48 163 139 189 264l114 556c3 15 3 19 -4 27l-54 63v2h321v-2
l-79 -63c-11 -9 -12 -12 -15 -27z" />
    <glyph glyph-name="Iacute_Jacute" horiz-adv-x="704" 
d="M234 92c-3 -15 -3 -18 4 -27l53 -63v-2h-320v2l79 63c11 8 13 12 16 27l106 519c3 15 3 18 -4 27l-54 63v2h321v-2l-79 -63c-11 -9 -12 -12 -15 -27zM236 747l-1 1l109 165h164v-2zM591 747l-1 1l109 165h164v-2zM695 611l-107 -516c-40 -196 -158 -298 -365 -306v2
c103 48 163 139 189 264l114 556c3 15 3 19 -4 27l-54 63v2h321v-2l-79 -63c-11 -9 -12 -12 -15 -27z" />
    <glyph glyph-name="Ibreve" unicode="&#x12c;" horiz-adv-x="352" 
d="M230 92c-3 -15 -3 -18 4 -27l53 -63v-2h-320v2l79 63c11 8 13 12 16 27l106 519c3 15 3 18 -4 27l-54 63v2h321v-2l-79 -63c-11 -9 -12 -12 -15 -27zM296 825c72 0 128 33 144 95h2c-2 -122 -77 -172 -152 -172c-59 0 -117 31 -117 102c0 20 4 43 15 70h2
c-9 -62 34 -95 106 -95z" />
    <glyph glyph-name="Idotaccent" unicode="&#x130;" horiz-adv-x="352" 
d="M230 92c-3 -15 -3 -18 4 -27l53 -63v-2h-320v2l79 63c11 8 13 12 16 27l106 519c3 15 3 18 -4 27l-54 63v2h321v-2l-79 -63c-11 -9 -12 -12 -15 -27zM309 905c41 0 72 -24 72 -65c0 -47 -37 -78 -84 -78c-39 0 -73 24 -73 65c0 48 40 78 85 78z" />
    <glyph glyph-name="Imacron" unicode="&#x12a;" horiz-adv-x="352" 
d="M230 92c-3 -15 -3 -18 4 -27l53 -63v-2h-320v2l79 63c11 8 13 12 16 27l106 519c3 15 3 18 -4 27l-54 63v2h321v-2l-79 -63c-11 -9 -12 -12 -15 -27zM435 800h-280v20h280v-20z" />
    <glyph glyph-name="Iogonek" unicode="&#x12e;" horiz-adv-x="352" 
d="M230 92c-3 -15 -3 -18 4 -27l53 -63v-2h-121c-52 -20 -94 -68 -94 -124c0 -36 24 -56 60 -56c27 0 60 13 88 45l2 -1c-28 -53 -76 -100 -147 -100c-50 0 -90 28 -90 80c0 84 91 138 167 156h-185v2l79 63c11 8 13 12 16 27l106 519c3 15 3 18 -4 27l-54 63v2h321v-2
l-79 -63c-11 -9 -12 -12 -15 -27z" />
    <glyph glyph-name="Itilde" unicode="&#x128;" horiz-adv-x="352" 
d="M230 92c-3 -15 -3 -18 4 -27l53 -63v-2h-320v2l79 63c11 8 13 12 16 27l106 519c3 15 3 18 -4 27l-54 63v2h321v-2l-79 -63c-11 -9 -12 -12 -15 -27zM459 896h2c-12 -75 -56 -126 -111 -126c-51 0 -86 49 -131 49c-28 0 -54 -12 -74 -49h-2c11 75 55 126 110 126
c52 0 86 -49 131 -49c27 0 55 12 75 49z" />
    <glyph glyph-name="Jacute" horiz-adv-x="327" 
d="M232 752l-1 1l109 165h164v-2zM327 611l-107 -516c-40 -196 -158 -298 -365 -306v2c103 48 163 139 189 264l114 556c3 15 3 19 -4 27l-54 63v2h321v-2l-79 -63c-11 -9 -12 -12 -15 -27z" />
    <glyph glyph-name="Jcircumflex" unicode="&#x134;" horiz-adv-x="327" 
d="M301 919l128 -175l-2 -1l-145 70l-180 -70l-1 2l198 174h2zM327 611l-107 -516c-40 -196 -158 -298 -365 -306v2c103 48 163 139 189 264l114 556c3 15 3 19 -4 27l-54 63v2h321v-2l-79 -63c-11 -9 -12 -12 -15 -27z" />
    <glyph glyph-name="Kcommaaccent" unicode="&#x136;" horiz-adv-x="687" 
d="M283 -160c-20 0 -43 16 -43 50c0 41 33 72 72 72c36 0 61 -24 61 -61c0 -62 -52 -118 -112 -146c-13 -6 -30 -13 -44 -15v2c19 9 36 23 46 35c15 18 22 36 26 53c2 8 1 10 -6 10zM337 611l-107 -519c-3 -15 -3 -18 4 -27l53 -63v-2h-320v2l79 63c11 8 13 12 16 27
l106 519c3 15 3 18 -4 27l-54 63l1 2h320v-2l-79 -63c-11 -9 -12 -12 -15 -27zM570 95c5 -11 13 -26 22 -37l47 -56v-2h-212l-137 343l252 224c17 16 16 21 7 37l-53 97v2h309v-2l-186 -104c-29 -16 -36 -20 -59 -40l-132 -115z" />
    <glyph glyph-name="Lacute" unicode="&#x139;" horiz-adv-x="569" 
d="M200 745l-1 1l109 165h164v-2zM337 611l-116 -568c-4 -21 -3 -23 18 -23h85c18 0 23 1 37 18l180 222h2l-53 -260h-523v2l78 64c11 8 14 11 17 26l106 519c3 15 3 18 -4 27l-54 63v2h321v-2l-79 -63c-11 -9 -12 -12 -15 -27z" />
    <glyph glyph-name="Lcaron" unicode="&#x13d;" horiz-adv-x="569" 
d="M464 508l43 195h119v-2l-160 -193h-2zM337 611l-116 -568c-4 -21 -3 -23 18 -23h85c18 0 23 1 37 18l180 222h2l-53 -260h-523v2l78 64c11 8 14 11 17 26l106 519c3 15 3 18 -4 27l-54 63v2h321v-2l-79 -63c-11 -9 -12 -12 -15 -27z" />
    <glyph glyph-name="Lcommaaccent" unicode="&#x13b;" horiz-adv-x="569" 
d="M222 -160c-20 0 -43 16 -43 50c0 41 33 72 72 72c36 0 61 -24 61 -61c0 -62 -52 -118 -112 -146c-13 -6 -30 -13 -44 -15v2c19 9 36 23 46 35c15 18 22 36 26 53c2 8 1 10 -6 10zM337 611l-116 -568c-4 -21 -3 -23 18 -23h85c18 0 23 1 37 18l180 222h2l-53 -260h-523v2
l78 64c11 8 14 11 17 26l106 519c3 15 3 18 -4 27l-54 63v2h321v-2l-79 -63c-11 -9 -12 -12 -15 -27z" />
    <glyph glyph-name="Ldot" unicode="&#x13f;" horiz-adv-x="569" 
d="M337 611l-116 -568c-4 -21 -3 -23 18 -23h85c18 0 23 1 37 18l180 222h2l-53 -260h-523v2l78 64c11 8 14 11 17 26l106 519c3 15 3 18 -4 27l-54 63v2h321v-2l-79 -63c-11 -9 -12 -12 -15 -27zM473 468c41 0 72 -24 72 -65c0 -47 -37 -78 -84 -78c-39 0 -73 24 -73 65
c0 48 40 78 85 78z" />
    <glyph glyph-name="Nacute" unicode="&#x143;" horiz-adv-x="686" 
d="M361 745l-1 1l109 165h164v-2zM648 535l-110 -535h-103l-236 533l-75 -365c-3 -16 -2 -18 6 -32l74 -134v-2h-249v2l128 134c14 14 16 17 19 32l78 378c3 16 5 21 -2 32l-75 123v2h205l241 -548l78 380c3 15 2 17 -6 32l-75 134v2h250v-2l-129 -134
c-13 -14 -16 -17 -19 -32z" />
    <glyph glyph-name="Ncaron" unicode="&#x147;" horiz-adv-x="686" 
d="M442 740h-2l-127 174l1 2l146 -67l179 67l1 -2zM648 535l-110 -535h-103l-236 533l-75 -365c-3 -16 -2 -18 6 -32l74 -134v-2h-249v2l128 134c14 14 16 17 19 32l78 378c3 16 5 21 -2 32l-75 123v2h205l241 -548l78 380c3 15 2 17 -6 32l-75 134v2h250v-2l-129 -134
c-13 -14 -16 -17 -19 -32z" />
    <glyph glyph-name="Ncommaaccent" unicode="&#x145;" horiz-adv-x="686" 
d="M254 -160c-20 0 -43 16 -43 50c0 41 33 72 72 72c36 0 61 -24 61 -61c0 -62 -52 -118 -112 -146c-13 -6 -30 -13 -44 -15v2c19 9 36 23 46 35c15 18 22 36 26 53c2 8 1 10 -6 10zM648 535l-110 -535h-103l-236 533l-75 -365c-3 -16 -2 -18 6 -32l74 -134v-2h-249v2
l128 134c14 14 16 17 19 32l78 378c3 16 5 21 -2 32l-75 123v2h205l241 -548l78 380c3 15 2 17 -6 32l-75 134v2h250v-2l-129 -134c-13 -14 -16 -17 -19 -32z" />
    <glyph glyph-name="Obreve" unicode="&#x14e;" horiz-adv-x="709" 
d="M420 713c194 0 289 -117 289 -283c0 -248 -162 -440 -383 -440c-194 0 -289 117 -289 283c0 248 162 440 383 440zM312 9c132 0 218 351 218 515c0 124 -34 170 -96 170c-132 0 -218 -351 -218 -515c0 -124 34 -170 96 -170zM465 825c72 0 128 33 144 95h2
c-2 -122 -77 -172 -152 -172c-59 0 -117 31 -117 102c0 20 4 43 15 70h2c-9 -62 34 -95 106 -95z" />
    <glyph glyph-name="Ohungarumlaut" unicode="&#x150;" horiz-adv-x="709" 
d="M432 911h129v-2l-219 -170h-2zM599 911h129v-2l-219 -170h-2zM420 713c194 0 289 -117 289 -283c0 -248 -162 -440 -383 -440c-194 0 -289 117 -289 283c0 248 162 440 383 440zM312 9c132 0 218 351 218 515c0 124 -34 170 -96 170c-132 0 -218 -351 -218 -515
c0 -124 34 -170 96 -170z" />
    <glyph glyph-name="Omacron" unicode="&#x14c;" horiz-adv-x="709" 
d="M605 800h-280v20h280v-20zM420 713c194 0 289 -117 289 -283c0 -248 -162 -440 -383 -440c-194 0 -289 117 -289 283c0 248 162 440 383 440zM312 9c132 0 218 351 218 515c0 124 -34 170 -96 170c-132 0 -218 -351 -218 -515c0 -124 34 -170 96 -170z" />
    <glyph glyph-name="Oslashacute" unicode="&#x1fe;" horiz-adv-x="709" 
d="M420 713c32 0 61 -4 88 -10l34 76l18 -7l-33 -74c122 -36 182 -137 182 -268c0 -248 -162 -440 -383 -440c-39 0 -74 5 -105 13l-38 -85l-19 7l37 85c-110 40 -164 137 -164 263c0 248 162 440 383 440zM312 9c132 0 218 351 218 515c0 60 -8 101 -23 128l-267 -604
c17 -28 41 -39 72 -39zM216 179c0 -46 4 -81 13 -107l265 598c-16 17 -36 24 -60 24c-132 0 -218 -351 -218 -515zM486 911h164v-2l-272 -164l-1 1z" />
    <glyph glyph-name="Racute" unicode="&#x154;" horiz-adv-x="666" 
d="M340 745l-1 1l109 165h164v-2zM327 331h-52l-48 -236c-4 -18 -4 -23 3 -31l50 -62v-2h-313v2l78 64c10 8 9 14 13 31l106 511c4 18 3 22 -4 31l-50 62v2h370c107 0 189 -52 189 -151c0 -127 -104 -208 -256 -212v-2l109 -36l43 -218c3 -15 10 -25 22 -40l34 -42v-2h-214
l-61 319c-2 9 -7 12 -19 12zM343 660l-64 -310h66c83 0 149 101 149 216c0 81 -31 118 -83 118h-38c-24 0 -26 -5 -30 -24z" />
    <glyph glyph-name="Rcaron" unicode="&#x158;" horiz-adv-x="666" 
d="M421 740h-2l-127 174l1 2l146 -67l179 67l1 -2zM327 331h-52l-48 -236c-4 -18 -4 -23 3 -31l50 -62v-2h-313v2l78 64c10 8 9 14 13 31l106 511c4 18 3 22 -4 31l-50 62v2h370c107 0 189 -52 189 -151c0 -127 -104 -208 -256 -212v-2l109 -36l43 -218c3 -15 10 -25 22 -40
l34 -42v-2h-214l-61 319c-2 9 -7 12 -19 12zM343 660l-64 -310h66c83 0 149 101 149 216c0 81 -31 118 -83 118h-38c-24 0 -26 -5 -30 -24z" />
    <glyph glyph-name="Rcommaaccent" unicode="&#x156;" horiz-adv-x="666" 
d="M286 -160c-20 0 -43 16 -43 50c0 41 33 72 72 72c36 0 61 -24 61 -61c0 -62 -52 -118 -112 -146c-13 -6 -30 -13 -44 -15v2c19 9 36 23 46 35c15 18 22 36 26 53c2 8 1 10 -6 10zM327 331h-52l-48 -236c-4 -18 -4 -23 3 -31l50 -62v-2h-313v2l78 64c10 8 9 14 13 31
l106 511c4 18 3 22 -4 31l-50 62v2h370c107 0 189 -52 189 -151c0 -127 -104 -208 -256 -212v-2l109 -36l43 -218c3 -15 10 -25 22 -40l34 -42v-2h-214l-61 319c-2 9 -7 12 -19 12zM343 660l-64 -310h66c83 0 149 101 149 216c0 81 -31 118 -83 118h-38
c-24 0 -26 -5 -30 -24z" />
    <glyph glyph-name="Sacute" unicode="&#x15a;" horiz-adv-x="550" 
d="M293 745l-1 1l109 165h164v-2zM518 215c0 -123 -119 -224 -287 -225c-80 0 -168 8 -233 29l66 237h2l75 -226c4 -13 8 -15 21 -17c14 -2 29 -4 46 -4c76 0 147 43 147 125c0 59 -41 101 -108 150l-37 27c-67 49 -116 106 -116 190c0 126 109 211 255 212
c73 0 149 -8 218 -27l-48 -224h-2l-92 215c-4 10 -8 13 -18 15c-13 2 -28 3 -43 3c-65 0 -121 -35 -121 -108c0 -59 43 -109 111 -157l35 -25c76 -54 129 -105 129 -190z" />
    <glyph glyph-name="Scedilla" unicode="&#x15e;" horiz-adv-x="550" 
d="M334 -124c0 -67 -63 -112 -137 -112c-65 0 -116 36 -108 95h2c4 -43 45 -57 73 -57c39 0 76 27 76 69c0 28 -25 43 -55 43c-12 0 -25 -1 -39 -7l-1 2l84 81c-79 0 -167 8 -231 29l66 237h2l75 -226c4 -13 8 -15 21 -17c14 -2 29 -4 46 -4c76 0 147 43 147 125
c0 59 -41 101 -108 150l-37 27c-67 49 -116 106 -116 190c0 126 109 211 255 212c73 0 149 -8 218 -27l-48 -224h-2l-92 215c-4 10 -8 13 -18 15c-13 2 -28 3 -43 3c-65 0 -121 -35 -121 -108c0 -59 43 -109 111 -157l35 -25c76 -54 129 -105 129 -190
c0 -122 -117 -222 -282 -225l-16 -50c11 2 21 3 30 3c52 0 84 -29 84 -67z" />
    <glyph glyph-name="Scircumflex" unicode="&#x15c;" horiz-adv-x="550" 
d="M406 919l128 -175l-2 -1l-145 70l-180 -70l-1 2l198 174h2zM518 215c0 -123 -119 -224 -287 -225c-80 0 -168 8 -233 29l66 237h2l75 -226c4 -13 8 -15 21 -17c14 -2 29 -4 46 -4c76 0 147 43 147 125c0 59 -41 101 -108 150l-37 27c-67 49 -116 106 -116 190
c0 126 109 211 255 212c73 0 149 -8 218 -27l-48 -224h-2l-92 215c-4 10 -8 13 -18 15c-13 2 -28 3 -43 3c-65 0 -121 -35 -121 -108c0 -59 43 -109 111 -157l35 -25c76 -54 129 -105 129 -190z" />
    <glyph glyph-name="Scommaaccent" unicode="&#x218;" horiz-adv-x="550" 
d="M190 -160c-20 0 -43 16 -43 50c0 41 33 72 72 72c36 0 61 -24 61 -61c0 -62 -52 -118 -112 -146c-13 -6 -30 -13 -44 -15v2c19 9 36 23 46 35c15 18 22 36 26 53c2 8 1 10 -6 10zM518 215c0 -123 -119 -224 -287 -225c-80 0 -168 8 -233 29l66 237h2l75 -226
c4 -13 8 -15 21 -17c14 -2 29 -4 46 -4c76 0 147 43 147 125c0 59 -41 101 -108 150l-37 27c-67 49 -116 106 -116 190c0 126 109 211 255 212c73 0 149 -8 218 -27l-48 -224h-2l-92 215c-4 10 -8 13 -18 15c-13 2 -28 3 -43 3c-65 0 -121 -35 -121 -108
c0 -59 43 -109 111 -157l35 -25c76 -54 129 -105 129 -190z" />
    <glyph glyph-name="Tbar" unicode="&#x166;" horiz-adv-x="617" 
d="M540 352v-19h-129l-48 -233c-3 -15 -2 -21 5 -30l59 -68v-2h-337v2l87 68c11 8 14 15 17 30l48 233h-123v19h127l68 331h-54c-16 0 -21 0 -34 -18l-168 -232h-2l56 270h581l-55 -270h-2l-74 232c-5 17 -10 18 -25 18h-54l-68 -331h125z" />
    <glyph glyph-name="Tcaron" unicode="&#x164;" horiz-adv-x="617" 
d="M412 740h-2l-127 174l1 2l146 -67l179 67l1 -2zM363 100c-3 -15 -2 -21 5 -30l59 -68v-2h-337v2l87 68c11 8 14 15 17 30l120 583h-54c-16 0 -21 0 -34 -18l-168 -232h-2l56 270h581l-55 -270h-2l-74 232c-6 17 -10 18 -25 18h-54z" />
    <glyph glyph-name="Tcommaaccent" unicode="&#x162;" horiz-adv-x="617" 
d="M213 -160c-20 0 -43 16 -43 50c0 41 33 72 72 72c36 0 61 -24 61 -61c0 -62 -52 -118 -112 -146c-13 -6 -30 -13 -44 -15v2c19 9 36 23 46 35c15 18 22 36 26 53c2 8 1 10 -6 10zM363 100c-3 -15 -2 -21 5 -30l59 -68v-2h-337v2l87 68c11 8 14 15 17 30l120 583h-54
c-16 0 -21 0 -34 -18l-168 -232h-2l56 270h581l-55 -270h-2l-74 232c-6 17 -10 18 -25 18h-54z" />
    <glyph glyph-name="Ubreve" unicode="&#x16c;" horiz-adv-x="657" 
d="M574 256c-34 -166 -109 -266 -289 -266c-139 0 -216 64 -216 183c0 21 3 45 8 70l76 367c3 15 2 19 -5 28l-50 63v2h317v-2l-78 -63c-10 -8 -13 -13 -16 -28l-74 -360c-7 -34 -10 -63 -10 -88c0 -97 48 -135 120 -135c94 0 165 74 196 227l56 270c6 29 5 38 -11 65
l-64 112v2h240v-2l-110 -115c-24 -25 -28 -33 -34 -62zM493 825c72 0 128 33 144 95h2c-2 -122 -77 -172 -152 -172c-59 0 -117 31 -117 102c0 20 4 43 15 70h2c-9 -62 34 -95 106 -95z" />
    <glyph glyph-name="Uhungarumlaut" unicode="&#x170;" horiz-adv-x="657" 
d="M574 256c-34 -166 -109 -266 -289 -266c-139 0 -216 64 -216 183c0 21 3 45 8 70l76 367c3 15 2 19 -5 28l-50 63v2h317v-2l-78 -63c-10 -8 -13 -13 -16 -28l-74 -360c-7 -34 -10 -63 -10 -88c0 -97 48 -135 120 -135c94 0 165 74 196 227l56 270c6 29 5 38 -11 65
l-64 112v2h240v-2l-110 -115c-24 -25 -28 -33 -34 -62zM460 911h129v-2l-219 -170h-2zM627 911h129v-2l-219 -170h-2z" />
    <glyph glyph-name="Umacron" unicode="&#x16a;" horiz-adv-x="657" 
d="M574 256c-34 -166 -109 -266 -289 -266c-139 0 -216 64 -216 183c0 21 3 45 8 70l76 367c3 15 2 19 -5 28l-50 63v2h317v-2l-78 -63c-10 -8 -13 -13 -16 -28l-74 -360c-7 -34 -10 -63 -10 -88c0 -97 48 -135 120 -135c94 0 165 74 196 227l56 270c6 29 5 38 -11 65
l-64 112v2h240v-2l-110 -115c-24 -25 -28 -33 -34 -62zM633 800h-280v20h280v-20z" />
    <glyph glyph-name="Uogonek" unicode="&#x172;" horiz-adv-x="657" 
d="M249 -236c-50 0 -90 28 -90 80c0 79 77 125 147 147c-7 -1 -14 -1 -21 -1c-139 0 -216 64 -216 183c0 21 3 45 8 70l76 367c3 15 2 19 -5 28l-51 63v2h318v-2l-78 -63c-10 -9 -13 -13 -16 -28l-74 -360c-7 -34 -10 -63 -10 -88c0 -97 48 -135 120 -135
c94 0 165 74 196 227l56 270c6 29 5 38 -11 65l-64 112v2h240v-2l-110 -115c-24 -25 -28 -33 -34 -62l-56 -268c-31 -152 -97 -249 -246 -264c-47 -22 -82 -64 -82 -116c0 -36 24 -56 60 -56c27 0 60 13 88 45l2 -1c-28 -53 -76 -100 -147 -100z" />
    <glyph glyph-name="Uring" unicode="&#x16e;" horiz-adv-x="657" 
d="M489 747c-44 0 -81 32 -81 80c0 57 45 106 107 106c44 0 81 -31 81 -79c0 -58 -45 -107 -107 -107zM513 913c-45 0 -83 -38 -83 -85c0 -37 26 -61 61 -61c45 0 83 38 83 86c0 37 -26 60 -61 60zM574 256c-34 -166 -109 -266 -289 -266c-139 0 -216 64 -216 183
c0 21 3 45 8 70l76 367c3 15 2 19 -5 28l-50 63v2h317v-2l-78 -63c-10 -8 -13 -13 -16 -28l-74 -360c-7 -34 -10 -63 -10 -88c0 -97 48 -135 120 -135c94 0 165 74 196 227l56 270c6 29 5 38 -11 65l-64 112v2h240v-2l-110 -115c-24 -25 -28 -33 -34 -62z" />
    <glyph glyph-name="Utilde" unicode="&#x168;" horiz-adv-x="657" 
d="M574 256c-34 -166 -109 -266 -289 -266c-139 0 -216 64 -216 183c0 21 3 45 8 70l76 367c3 15 2 19 -5 28l-50 63v2h317v-2l-78 -63c-10 -8 -13 -13 -16 -28l-74 -360c-7 -34 -10 -63 -10 -88c0 -97 48 -135 120 -135c94 0 165 74 196 227l56 270c6 29 5 38 -11 65
l-64 112v2h240v-2l-110 -115c-24 -25 -28 -33 -34 -62zM656 896h2c-12 -75 -56 -126 -111 -126c-51 0 -86 49 -131 49c-28 0 -54 -12 -74 -49h-2c11 75 55 126 110 126c52 0 86 -49 131 -49c27 0 55 12 75 49z" />
    <glyph glyph-name="Wacute" unicode="&#x1e82;" horiz-adv-x="970" 
d="M526 745l-1 1l109 165h164v-2zM980 574c-18 -19 -23 -23 -33 -43l-273 -531h-120l-42 401l-209 -401h-121l-64 593c-2 16 -5 28 -11 41l-28 67v2h278v-2l-61 -67c-8 -9 -10 -14 -9 -26l52 -496l170 324l-16 157c-2 16 -5 27 -9 38l-25 70v2h272v-2l-62 -67
c-8 -8 -10 -14 -9 -26l50 -494l218 422c8 16 6 21 -1 36l-63 129v2h236v-2z" />
    <glyph glyph-name="Wcircumflex" unicode="&#x174;" horiz-adv-x="970" 
d="M639 919l128 -175l-2 -1l-145 70l-180 -70l-1 2l198 174h2zM980 574c-18 -19 -23 -23 -33 -43l-273 -531h-120l-42 401l-209 -401h-121l-64 593c-2 16 -5 28 -11 41l-28 67v2h278v-2l-61 -67c-8 -9 -10 -14 -9 -26l52 -496l170 324l-16 157c-2 16 -5 27 -9 38l-25 70v2
h272v-2l-62 -67c-8 -8 -10 -14 -9 -26l50 -494l218 422c8 16 6 21 -1 36l-63 129v2h236v-2z" />
    <glyph glyph-name="Wdieresis" unicode="&#x1e84;" horiz-adv-x="970" 
d="M529 897c37 0 65 -22 65 -60c0 -43 -35 -71 -76 -71c-35 0 -66 21 -66 59c0 44 37 72 77 72zM726 897c37 0 65 -22 65 -60c0 -43 -34 -71 -75 -71c-36 0 -66 21 -66 59c0 44 36 72 76 72zM980 574c-18 -19 -23 -23 -33 -43l-273 -531h-120l-42 401l-209 -401h-121
l-64 593c-2 16 -5 28 -11 41l-28 67v2h278v-2l-61 -67c-8 -9 -10 -14 -9 -26l52 -496l170 324l-16 157c-2 16 -5 27 -9 38l-25 70v2h272v-2l-62 -67c-8 -8 -10 -14 -9 -26l50 -494l218 422c8 16 6 21 -1 36l-63 129v2h236v-2z" />
    <glyph glyph-name="Wgrave" unicode="&#x1e80;" horiz-adv-x="970" 
d="M980 574c-18 -19 -23 -23 -33 -43l-273 -531h-120l-42 401l-209 -401h-121l-64 593c-2 16 -5 28 -11 41l-28 67v2h278v-2l-61 -67c-8 -9 -10 -14 -9 -26l52 -496l170 324l-16 157c-2 16 -5 27 -9 38l-25 70v2h272v-2l-62 -67c-8 -8 -10 -14 -9 -26l50 -494l218 422
c8 16 6 21 -1 36l-63 129v2h236v-2zM425 911h163l110 -165l-1 -1l-272 164v2z" />
    <glyph glyph-name="Ycircumflex" unicode="&#x176;" horiz-adv-x="621" 
d="M583 543l-166 -238c-10 -14 -11 -20 -15 -38l-35 -171c-3 -15 -3 -17 5 -26l60 -68v-2h-337v2l87 68c11 9 13 11 16 26l31 154c3 11 3 17 0 25l-101 316c-6 19 -11 30 -18 43l-36 67v2h312v-2l-74 -69c-10 -9 -11 -12 -8 -24l89 -306l170 247c11 15 10 18 4 31l-61 121v2
h250v-2l-138 -121c-17 -15 -23 -20 -35 -37zM487 919l128 -175l-2 -1l-145 70l-180 -70l-1 2l198 174h2z" />
    <glyph glyph-name="Ygrave" unicode="&#x1ef2;" horiz-adv-x="621" 
d="M583 543l-166 -238c-10 -14 -11 -20 -15 -38l-35 -171c-3 -15 -3 -17 5 -26l60 -68v-2h-337v2l87 68c11 9 13 11 16 26l31 154c3 11 3 17 0 25l-101 316c-6 19 -11 30 -18 43l-36 67v2h312v-2l-74 -69c-10 -9 -11 -12 -8 -24l89 -306l170 247c11 15 10 18 4 31l-61 121v2
h250v-2l-138 -121c-17 -15 -23 -20 -35 -37zM273 911h163l110 -165l-1 -1l-272 164v2z" />
    <glyph glyph-name="Zacute" unicode="&#x179;" horiz-adv-x="614" 
d="M338 745l-1 1l109 165h164v-2zM527 0h-564v2l533 681h-179c-18 0 -22 -1 -31 -12l-191 -236h-3l56 268h553l-1 -2l-532 -681h189c17 0 21 1 30 12l192 235h2z" />
    <glyph glyph-name="Zdotaccent" unicode="&#x17b;" horiz-adv-x="614" 
d="M527 0h-564v2l533 681h-179c-18 0 -22 -1 -31 -12l-191 -236h-3l56 268h553l-1 -2l-532 -681h189c17 0 21 1 30 12l192 235h2zM443 905c41 0 72 -24 72 -65c0 -47 -37 -78 -84 -78c-39 0 -73 24 -73 65c0 48 40 78 85 78z" />
    <glyph glyph-name="abreve" unicode="&#x103;" horiz-adv-x="559" 
d="M535 502c-25 -107 -75 -308 -84 -341c-7 -25 -10 -44 -10 -59c0 -19 7 -29 20 -29c16 0 29 11 42 29c14 20 28 44 40 80l2 -1c-21 -109 -84 -189 -168 -189c-49 0 -83 31 -84 88c0 23 6 58 15 94h-2c-37 -110 -91 -182 -169 -182c-60 0 -117 51 -117 158
c0 182 119 353 257 353c46 0 76 -15 101 -46l156 46zM371 448c-8 11 -21 15 -34 15c-43 0 -75 -38 -97 -78c-36 -64 -61 -168 -61 -250c0 -45 14 -62 33 -62c22 0 44 20 67 69c29 61 67 195 92 306zM363 617c72 0 128 33 144 95h2c-2 -122 -77 -172 -152 -172
c-59 0 -117 31 -117 102c0 20 4 43 15 70h2c-9 -62 34 -95 106 -95z" />
    <glyph glyph-name="aeacute" unicode="&#x1fd;" horiz-adv-x="751" 
d="M377 537l-1 1l109 165h164v-2zM489 -8c-103 0 -176 65 -187 173l-3 -11c-33 -96 -84 -162 -162 -162c-60 0 -117 51 -117 158c0 182 119 353 258 353c58 0 103 -23 126 -77c51 47 119 77 196 77c87 0 149 -40 149 -108c0 -95 -116 -164 -282 -165c-1 -8 -1 -16 -1 -23
c0 -83 36 -123 98 -123c64 0 120 40 155 122l2 -1c-31 -156 -136 -213 -232 -213zM213 73c29 0 65 50 88 116v4c0 84 35 165 93 223c-15 33 -36 46 -62 46c-38 0 -70 -37 -92 -77c-36 -64 -61 -168 -61 -251c0 -45 14 -61 34 -61zM597 484c-54 0 -117 -130 -129 -242
c107 11 158 93 158 184c0 36 -8 58 -29 58z" />
    <glyph glyph-name="amacron" unicode="&#x101;" horiz-adv-x="559" 
d="M535 502c-25 -107 -75 -308 -84 -341c-7 -25 -10 -44 -10 -59c0 -19 7 -29 20 -29c16 0 29 11 42 29c14 20 28 44 40 80l2 -1c-21 -109 -84 -189 -168 -189c-49 0 -83 31 -84 88c0 23 6 58 15 94h-2c-37 -110 -91 -182 -169 -182c-60 0 -117 51 -117 158
c0 182 119 353 257 353c46 0 76 -15 101 -46l156 46zM371 448c-8 11 -21 15 -34 15c-43 0 -75 -38 -97 -78c-36 -64 -61 -168 -61 -250c0 -45 14 -62 33 -62c22 0 44 20 67 69c29 61 67 195 92 306zM503 592h-280v20h280v-20z" />
    <glyph glyph-name="aogonek" unicode="&#x105;" horiz-adv-x="559" 
d="M321 -236c-50 0 -90 28 -90 80c0 80 82 128 152 148h-6c-49 0 -83 31 -84 88c0 23 6 58 15 94h-2c-37 -110 -91 -182 -169 -182c-60 0 -117 51 -117 158c0 182 119 353 257 353c46 0 76 -15 101 -46l156 46l1 -1c-25 -107 -76 -308 -84 -341c-7 -25 -10 -44 -10 -59
c0 -19 7 -29 20 -29c16 0 29 11 42 29c14 20 28 44 40 80l2 -1c-19 -96 -70 -170 -139 -185c-49 -22 -88 -66 -88 -120c0 -36 24 -56 60 -56c27 0 60 13 88 45l2 -1c-28 -53 -76 -100 -147 -100zM371 448c-8 11 -21 15 -34 15c-43 0 -75 -38 -97 -78
c-36 -64 -61 -168 -61 -250c0 -45 14 -62 33 -62c22 0 44 20 67 69c29 61 67 195 92 306z" />
    <glyph glyph-name="aringacute" unicode="&#x1fb;" horiz-adv-x="559" 
d="M361 780h145v-2l-159 -94c-22 -13 -45 -29 -55 -41c23 20 48 25 70 25c53 0 96 -27 96 -72c0 -43 -43 -70 -95 -70c-48 0 -95 29 -95 70c0 17 6 30 14 44zM288 597c0 -33 37 -52 75 -52c41 0 74 19 74 52c0 34 -33 52 -75 52c-40 0 -74 -19 -74 -52zM451 161
c-7 -25 -10 -44 -10 -59c0 -19 7 -29 20 -29c16 0 29 11 42 29c14 20 28 44 40 80l2 -1c-21 -109 -84 -189 -168 -189c-49 0 -83 31 -84 88c0 23 6 58 15 94h-2c-37 -110 -91 -182 -169 -182c-60 0 -117 51 -117 158c0 182 119 353 257 353c46 0 76 -15 101 -46l156 46l1 -1
c-25 -107 -76 -308 -84 -341zM371 448c-8 11 -21 15 -34 15c-43 0 -75 -38 -97 -78c-36 -64 -61 -168 -61 -250c0 -45 14 -62 33 -62c22 0 44 20 67 69c29 61 67 195 92 306z" />
    <glyph glyph-name="cacute" unicode="&#x107;" horiz-adv-x="436" 
d="M241 537l-1 1l109 165h164v-2zM198 -8c-108 0 -181 74 -181 192c0 163 120 319 298 319c49 0 92 -7 138 -23l-80 -196h-1l-52 187c-3 12 -5 13 -13 13c-63 0 -125 -169 -125 -272c0 -87 41 -124 87 -124c47 0 96 31 137 109h2c-37 -143 -116 -205 -210 -205z" />
    <glyph glyph-name="caronslovak" horiz-adv-x="262" 
d="M50 508l43 195h119v-2l-160 -193h-2z" />
    <glyph glyph-name="ccaron" unicode="&#x10d;" horiz-adv-x="436" 
d="M321 532h-2l-127 174l1 2l146 -67l179 67l1 -2zM198 -8c-108 0 -181 74 -181 192c0 163 120 319 298 319c49 0 92 -7 138 -23l-80 -196h-1l-52 187c-3 12 -5 13 -13 13c-63 0 -125 -169 -125 -272c0 -87 41 -124 87 -124c47 0 96 31 137 109h2
c-37 -143 -116 -205 -210 -205z" />
    <glyph glyph-name="ccircumflex" unicode="&#x109;" horiz-adv-x="436" 
d="M354 711l128 -175l-2 -1l-145 70l-180 -70l-1 2l198 174h2zM198 -8c-108 0 -181 74 -181 192c0 163 120 319 298 319c49 0 92 -7 138 -23l-80 -196h-1l-52 187c-3 12 -5 13 -13 13c-63 0 -125 -169 -125 -272c0 -87 41 -124 87 -124c47 0 96 31 137 109h2
c-37 -143 -116 -205 -210 -205z" />
    <glyph glyph-name="cdotaccent" unicode="&#x10b;" horiz-adv-x="436" 
d="M198 -8c-108 0 -181 74 -181 192c0 163 120 319 298 319c49 0 92 -7 138 -23l-80 -196h-1l-52 187c-3 12 -5 13 -13 13c-63 0 -125 -169 -125 -272c0 -87 41 -124 87 -124c47 0 96 31 137 109h2c-37 -143 -116 -205 -210 -205zM346 697c41 0 72 -24 72 -65
c0 -47 -37 -78 -84 -78c-39 0 -73 24 -73 65c0 48 40 78 85 78z" />
    <glyph glyph-name="commaaccent" unicode="&#xf6c3;" horiz-adv-x="257" 
d="M116 -160c-20 0 -43 16 -43 50c0 41 33 72 72 72c36 0 61 -24 61 -61c0 -62 -52 -118 -112 -146c-13 -6 -30 -13 -44 -15v2c19 9 36 23 46 35c15 18 22 36 26 53c2 8 1 10 -6 10z" />
    <glyph glyph-name="commatop" horiz-adv-x="257" 
d="M134 689c-2 -8 0 -10 6 -11c21 -3 43 -15 43 -49c0 -41 -34 -72 -73 -72c-35 0 -60 24 -60 61c0 60 49 110 105 141c15 8 35 17 51 20v-2c-20 -11 -39 -26 -49 -39c-13 -17 -20 -34 -23 -49z" />
    <glyph glyph-name="currency" unicode="&#xa4;" horiz-adv-x="735" 
d="M114 64l-14 14l112 112c-39 40 -62 95 -62 162s24 122 62 162l-112 113l13 14l113 -113c42 36 99 57 161 57s119 -21 161 -58l113 113l14 -13l-113 -113c39 -40 63 -95 63 -162s-24 -122 -62 -162l111 -112l-13 -14l-113 113c-42 -37 -99 -57 -161 -57s-119 20 -161 56z
M170 352c0 -131 97 -213 217 -213s217 82 217 213c0 130 -97 214 -217 214s-217 -84 -217 -214z" />
    <glyph glyph-name="dcaron" unicode="&#x10f;" horiz-adv-x="551" 
d="M633 703l-43 -195h2l160 193v2h-119zM136 -8c-57 0 -116 52 -116 164c0 179 119 347 257 347c37 0 74 -14 88 -48l41 193c4 18 1 21 -9 26l-60 27v2l238 25l-126 -572c-4 -17 -7 -36 -7 -52c0 -19 5 -31 21 -31c26 0 57 39 79 109l2 -1c-14 -74 -43 -124 -74 -152
c-26 -23 -57 -37 -91 -37c-50 0 -86 30 -86 88c0 21 4 53 15 94h-2c-38 -112 -91 -182 -170 -182zM284 153c22 49 48 139 79 292c-11 9 -25 14 -38 14c-27 0 -57 -20 -83 -65c-39 -68 -64 -183 -64 -253c0 -51 13 -68 33 -68c26 0 52 31 73 80z" />
    <glyph glyph-name="dcroat" unicode="&#x111;" horiz-adv-x="552" 
d="M611 567h-72l-90 -411c-4 -17 -7 -36 -7 -52c0 -19 5 -31 21 -31c26 0 57 39 79 109l2 -1c-14 -74 -43 -124 -74 -152c-26 -23 -57 -37 -91 -37c-50 0 -86 30 -86 88c0 21 4 53 15 94h-2c-38 -112 -91 -182 -170 -182c-57 0 -116 52 -116 164c0 179 119 347 257 347
c37 0 74 -14 88 -48l24 112h-117v19h121l13 62c4 18 1 21 -9 26l-60 27v2l238 25l-32 -142h68v-19zM284 153c22 49 48 139 79 292c-11 9 -25 14 -38 14c-27 0 -57 -20 -83 -65c-39 -68 -64 -183 -64 -253c0 -51 13 -68 33 -68c26 0 52 31 73 80z" />
    <glyph glyph-name="dotlessj" unicode="&#x237;" horiz-adv-x="279" 
d="M-123 -236c-40 0 -73 9 -99 25l70 159h2l54 -151c3 -9 7 -11 13 -11s12 2 17 6c41 31 73 148 99 271l75 365c3 17 0 22 -12 28l-58 29v2l239 16l-81 -352c-43 -187 -118 -387 -319 -387z" />
    <glyph glyph-name="ebreve" unicode="&#x115;" horiz-adv-x="467" 
d="M204 -8c-111 0 -187 76 -187 201c0 160 127 310 298 310c88 0 149 -40 149 -108c0 -95 -116 -164 -282 -165c-1 -8 -1 -16 -1 -23c0 -83 36 -123 99 -123c60 0 119 40 154 122l2 -1c-33 -156 -135 -213 -232 -213zM313 484c-55 0 -118 -130 -130 -242
c107 11 159 93 159 184c0 36 -8 58 -29 58zM338 617c72 0 128 33 144 95h2c-2 -122 -77 -172 -152 -172c-59 0 -117 31 -117 102c0 20 4 43 15 70h2c-9 -62 34 -95 106 -95z" />
    <glyph glyph-name="ecaron" unicode="&#x11b;" horiz-adv-x="467" 
d="M326 532h-2l-127 174l1 2l146 -67l179 67l1 -2zM204 -8c-111 0 -187 76 -187 201c0 160 127 310 298 310c88 0 149 -40 149 -108c0 -95 -116 -164 -282 -165c-1 -8 -1 -16 -1 -23c0 -83 36 -123 99 -123c60 0 119 40 154 122l2 -1c-33 -156 -135 -213 -232 -213zM313 484
c-55 0 -118 -130 -130 -242c107 11 159 93 159 184c0 36 -8 58 -29 58z" />
    <glyph glyph-name="edotaccent" unicode="&#x117;" horiz-adv-x="467" 
d="M204 -8c-111 0 -187 76 -187 201c0 160 127 310 298 310c88 0 149 -40 149 -108c0 -95 -116 -164 -282 -165c-1 -8 -1 -16 -1 -23c0 -83 36 -123 99 -123c60 0 119 40 154 122l2 -1c-33 -156 -135 -213 -232 -213zM313 484c-55 0 -118 -130 -130 -242
c107 11 159 93 159 184c0 36 -8 58 -29 58zM351 697c41 0 72 -24 72 -65c0 -47 -37 -78 -84 -78c-39 0 -73 24 -73 65c0 48 40 78 85 78z" />
    <glyph glyph-name="emacron" unicode="&#x113;" horiz-adv-x="467" 
d="M204 -8c-111 0 -187 76 -187 201c0 160 127 310 298 310c88 0 149 -40 149 -108c0 -95 -116 -164 -282 -165c-1 -8 -1 -16 -1 -23c0 -83 36 -123 99 -123c60 0 119 40 154 122l2 -1c-33 -156 -135 -213 -232 -213zM313 484c-55 0 -118 -130 -130 -242
c107 11 159 93 159 184c0 36 -8 58 -29 58zM477 592h-280v20h280v-20z" />
    <glyph glyph-name="eng" unicode="&#x14b;" horiz-adv-x="568" 
d="M523 297l-53 -215c-45 -184 -147 -280 -353 -288v2c106 41 164 138 194 264l60 247c8 33 18 71 18 91c0 14 -7 23 -23 23c-27 0 -55 -25 -78 -56c-37 -51 -57 -113 -89 -232c-5 -17 -27 -108 -33 -133h-149l94 424c5 23 4 25 -10 32l-59 29v2l239 16l-44 -201h2
c47 117 130 201 214 201c55 0 88 -38 88 -91c0 -38 -9 -80 -18 -115z" />
    <glyph glyph-name="eogonek" unicode="&#x119;" horiz-adv-x="467" 
d="M160 -236c-51 0 -90 28 -90 80c0 79 79 128 150 149c-6 -1 -11 -1 -16 -1c-111 0 -187 76 -187 201c0 160 127 310 298 310c88 0 149 -40 149 -108c0 -95 -116 -164 -282 -165c-1 -8 -1 -16 -1 -23c0 -83 36 -123 99 -123c60 0 119 39 154 121h2
c-29 -138 -112 -198 -198 -210c-47 -23 -81 -67 -81 -119c0 -36 24 -56 59 -56c27 0 61 13 89 45l2 -1c-28 -53 -77 -100 -147 -100zM313 484c-55 0 -118 -130 -130 -242c107 11 159 93 159 184c0 36 -8 58 -29 58z" />
    <glyph glyph-name="estimated" unicode="&#x212e;" horiz-adv-x="664" 
d="M609 237h-508c4 -139 112 -228 243 -228c107 0 199 61 231 159l21 -7c-35 -107 -135 -171 -252 -171c-146 0 -264 99 -264 256c0 158 118 257 264 257s265 -99 265 -257v-9zM344 483c-131 0 -238 -89 -243 -227h487c-5 138 -113 227 -244 227z" />
    <glyph glyph-name="gbreve" unicode="&#x11f;" horiz-adv-x="503" 
d="M531 436h-91c16 -16 32 -47 32 -83c0 -119 -114 -181 -230 -181c-26 0 -52 3 -76 8c-15 -5 -27 -17 -27 -31c0 -15 12 -29 46 -36l128 -25c93 -18 136 -72 136 -135c0 -122 -130 -189 -263 -189c-142 0 -237 46 -237 119c0 57 56 92 138 109c-45 15 -76 41 -76 83
c0 51 48 97 144 108c-63 18 -109 60 -109 135c0 114 106 184 228 184c49 0 97 -13 133 -34c11 -7 14 -8 22 0l133 133h2zM119 -17c-1 0 -23 6 -24 6c-33 -25 -50 -57 -50 -97c0 -64 71 -110 148 -110s131 39 131 98c0 32 -19 60 -82 74zM287 485c-60 0 -98 -133 -98 -218
c0 -50 11 -78 38 -78c62 0 101 130 101 216c0 50 -10 80 -41 80zM315 617c72 0 128 33 144 95h2c-2 -122 -77 -172 -152 -172c-59 0 -117 31 -117 102c0 20 4 43 15 70h2c-9 -62 34 -95 106 -95z" />
    <glyph glyph-name="gcircumflex" unicode="&#x11d;" horiz-adv-x="503" 
d="M336 711l128 -175l-2 -1l-145 70l-180 -70l-1 2l198 174h2zM531 436h-91c16 -16 32 -47 32 -83c0 -119 -114 -181 -230 -181c-26 0 -52 3 -76 8c-15 -5 -27 -17 -27 -31c0 -15 12 -29 46 -36l128 -25c93 -18 136 -72 136 -135c0 -122 -130 -189 -263 -189
c-142 0 -237 46 -237 119c0 57 56 92 138 109c-45 15 -76 41 -76 83c0 51 48 97 144 108c-63 18 -109 60 -109 135c0 114 106 184 228 184c49 0 97 -13 133 -34c11 -7 14 -8 22 0l133 133h2zM119 -17c-1 0 -23 6 -24 6c-33 -25 -50 -57 -50 -97c0 -64 71 -110 148 -110
s131 39 131 98c0 32 -19 60 -82 74zM287 485c-60 0 -98 -133 -98 -218c0 -50 11 -78 38 -78c62 0 101 130 101 216c0 50 -10 80 -41 80z" />
    <glyph glyph-name="gcommaaccent" unicode="&#x123;" horiz-adv-x="503" 
d="M531 436h-91c16 -16 32 -47 32 -83c0 -119 -114 -181 -230 -181c-26 0 -52 3 -76 8c-15 -5 -27 -17 -27 -31c0 -15 12 -29 46 -36l128 -25c93 -18 136 -72 136 -135c0 -122 -130 -189 -263 -189c-142 0 -237 46 -237 119c0 57 56 92 138 109c-45 15 -76 41 -76 83
c0 51 48 97 144 108c-63 18 -109 60 -109 135c0 114 106 184 228 184c49 0 97 -13 133 -34c11 -7 14 -8 22 0l133 133h2zM119 -17c-1 0 -23 6 -24 6c-33 -25 -50 -57 -50 -97c0 -64 71 -110 148 -110s131 39 131 98c0 32 -19 60 -82 74zM287 485c-60 0 -98 -133 -98 -218
c0 -50 11 -78 38 -78c62 0 101 130 101 216c0 50 -10 80 -41 80zM339 689c-2 -8 0 -10 6 -11c21 -3 43 -15 43 -49c0 -41 -34 -72 -73 -72c-35 0 -60 24 -60 61c0 60 49 110 105 141c15 8 35 17 51 20v-2c-20 -11 -39 -26 -49 -39c-13 -17 -20 -34 -23 -49z" />
    <glyph glyph-name="gdotaccent" unicode="&#x121;" horiz-adv-x="503" 
d="M531 436h-91c16 -16 32 -47 32 -83c0 -119 -114 -181 -230 -181c-26 0 -52 3 -76 8c-15 -5 -27 -17 -27 -31c0 -15 12 -29 46 -36l128 -25c93 -18 136 -72 136 -135c0 -122 -130 -189 -263 -189c-142 0 -237 46 -237 119c0 57 56 92 138 109c-45 15 -76 41 -76 83
c0 51 48 97 144 108c-63 18 -109 60 -109 135c0 114 106 184 228 184c49 0 97 -13 133 -34c11 -7 14 -8 22 0l133 133h2zM119 -17c-1 0 -23 6 -24 6c-33 -25 -50 -57 -50 -97c0 -64 71 -110 148 -110s131 39 131 98c0 32 -19 60 -82 74zM287 485c-60 0 -98 -133 -98 -218
c0 -50 11 -78 38 -78c62 0 101 130 101 216c0 50 -10 80 -41 80zM328 697c41 0 72 -24 72 -65c0 -47 -37 -78 -84 -78c-39 0 -73 24 -73 65c0 48 40 78 85 78z" />
    <glyph glyph-name="hbar" unicode="&#x127;" horiz-adv-x="558" 
d="M372 -8c-58 0 -90 37 -90 85c0 36 12 74 24 111l46 141c9 26 16 51 16 68c0 15 -8 24 -22 24c-35 0 -69 -38 -91 -75c-28 -47 -54 -118 -107 -346h-148l125 567h-67v19h71l14 62c4 18 1 21 -10 26l-59 27v2l238 25l-32 -142h126v-19h-131l-60 -269h2
c53 129 133 205 212 205c56 0 91 -38 91 -91c0 -37 -13 -81 -24 -115l-40 -130c-8 -27 -15 -52 -15 -69c0 -16 8 -24 21 -24s26 7 38 22c19 23 31 54 41 85h2c-18 -118 -91 -189 -171 -189z" />
    <glyph glyph-name="hcircumflex" unicode="&#x125;" horiz-adv-x="558" 
d="M262 919l128 -175l-2 -1l-145 70l-180 -70l-1 2l198 174h2zM519 412c0 -37 -13 -81 -24 -115l-40 -130c-8 -27 -15 -52 -15 -69c0 -16 8 -24 21 -24s26 7 38 22c19 23 31 54 41 85h2c-18 -118 -91 -189 -171 -189c-58 0 -90 37 -90 85c0 36 12 74 24 111l46 141
c9 26 16 51 16 68c0 15 -8 24 -22 24c-35 0 -69 -38 -91 -75c-28 -47 -54 -118 -107 -346h-148l143 648c4 18 1 21 -10 26l-59 27v2l238 25l-97 -430h2c53 129 133 205 212 205c56 0 91 -38 91 -91z" />
    <glyph glyph-name="ibreve" unicode="&#x12d;" horiz-adv-x="298" 
d="M113 -8c-59 0 -84 43 -84 89c0 22 5 51 11 75l69 271c5 18 2 23 -8 28l-61 30v2l240 16l-87 -345c-7 -26 -11 -45 -11 -60c0 -13 5 -24 20 -24c13 0 26 7 38 22c16 20 31 47 42 85h2c-16 -101 -86 -189 -171 -189zM205 617c72 0 128 33 144 95h2
c-2 -122 -77 -172 -152 -172c-59 0 -117 31 -117 102c0 20 4 43 15 70h2c-9 -62 34 -95 106 -95z" />
    <glyph glyph-name="ij" unicode="&#x133;" horiz-adv-x="577" 
d="M113 -8c-59 0 -84 43 -84 89c0 22 5 51 11 75l69 271c5 18 2 22 -8 28l-61 30v2l240 16l-87 -345c-7 -26 -11 -45 -11 -60c0 -13 5 -24 20 -24c13 0 26 7 38 22c16 20 31 47 42 85h2c-16 -101 -86 -189 -171 -189zM236 701c42 0 75 -26 75 -69c0 -49 -39 -81 -88 -81
c-41 0 -77 24 -77 68c0 50 42 82 90 82zM493 151c-43 -187 -118 -387 -319 -387c-40 0 -73 9 -99 25l70 159h2l54 -151c3 -9 7 -11 13 -11c10 0 19 8 29 19c35 41 65 150 87 258l75 365c3 17 0 22 -12 28l-58 29v2l239 16zM443 619c0 50 42 82 90 82c42 0 75 -26 75 -69
c0 -49 -39 -81 -88 -81c-41 0 -77 24 -77 68z" />
    <glyph glyph-name="imacron" unicode="&#x12b;" horiz-adv-x="298" 
d="M113 -8c-59 0 -84 43 -84 89c0 22 5 51 11 75l69 271c5 18 2 23 -8 28l-61 30v2l240 16l-87 -345c-7 -26 -11 -45 -11 -60c0 -13 5 -24 20 -24c13 0 26 7 38 22c16 20 31 47 42 85h2c-16 -101 -86 -189 -171 -189zM344 592h-280v20h280v-20z" />
    <glyph glyph-name="iogonek" unicode="&#x12f;" horiz-adv-x="298" 
d="M55 -236c-51 0 -90 28 -90 80c0 78 78 127 148 148c-59 1 -83 43 -83 89c0 22 5 51 11 75l69 271c5 18 2 22 -8 28l-61 30v2l240 16l-87 -345c-7 -26 -11 -45 -11 -60c0 -13 5 -24 20 -24c13 0 26 7 38 22c16 20 31 47 42 85h2c-15 -95 -77 -178 -155 -188
c-45 -23 -78 -66 -78 -117c0 -36 23 -56 59 -56c27 0 62 13 90 45l1 -1c-28 -53 -77 -100 -147 -100zM237 701c42 0 75 -26 75 -69c0 -49 -39 -81 -88 -81c-41 0 -77 24 -77 68c0 50 42 82 90 82z" />
    <glyph glyph-name="itilde" unicode="&#x129;" horiz-adv-x="298" 
d="M109 -8c-59 0 -84 43 -84 89c0 22 5 51 11 75l69 271c5 18 2 23 -8 28l-61 30v2l240 16l-87 -345c-7 -26 -11 -45 -11 -60c0 -13 5 -24 20 -24c13 0 26 7 38 22c16 20 31 47 42 85h2c-16 -101 -86 -189 -171 -189zM364 688h2c-12 -75 -56 -126 -111 -126
c-51 0 -86 49 -131 49c-28 0 -54 -12 -74 -49h-2c11 75 55 126 110 126c52 0 86 -49 131 -49c27 0 55 12 75 49z" />
    <glyph glyph-name="jacute" horiz-adv-x="279" 
d="M-123 -236c-40 0 -73 9 -99 25l70 159h2l54 -151c3 -9 7 -11 13 -11s12 2 17 6c41 31 73 148 99 271l75 365c3 17 0 22 -12 28l-58 29v2l239 16l-81 -352c-43 -187 -118 -387 -319 -387zM119 537l-1 1l109 165h164v-2z" />
    <glyph glyph-name="jcircumflex" unicode="&#x135;" horiz-adv-x="279" 
d="M-123 -236c-40 0 -73 9 -99 25l70 159h2l54 -151c3 -9 7 -11 13 -11s12 2 17 6c41 31 73 148 99 271l75 365c3 17 0 22 -12 28l-58 29v2l239 16l-81 -352c-43 -187 -118 -387 -319 -387zM229 711l128 -175l-2 -1l-145 70l-180 -70l-1 2l198 174h2z" />
    <glyph glyph-name="kcommaaccent" unicode="&#x137;" horiz-adv-x="523" 
d="M172 -160c-20 0 -43 16 -43 50c0 41 33 72 72 72c36 0 61 -24 61 -61c0 -62 -52 -118 -112 -146c-13 -6 -30 -13 -44 -15v2c19 9 36 23 46 35c15 18 22 36 26 53c2 8 1 10 -6 10zM345 -8c-54 0 -82 29 -93 98l-20 122c-5 28 -13 57 -24 56l-58 -268h-149l137 648
c4 18 1 21 -10 26l-59 27v2l238 25l-98 -452l150 105c16 11 19 14 19 21c0 4 -4 11 -12 24l-37 59v2h249v-2l-143 -77c-22 -12 -32 -17 -47 -28l-38 -28l42 -203c11 -54 19 -75 41 -75c15 0 28 9 39 24c16 20 28 47 39 83h2c-19 -120 -92 -189 -168 -189z" />
    <glyph glyph-name="kgreenlandic" unicode="&#x138;" horiz-adv-x="533" 
d="M354 -8c-54 0 -80 29 -92 98l-23 128c-5 29 -13 52 -22 50l-58 -268h-148l89 425c5 22 5 25 -10 32l-60 28v2l239 16l-50 -227l150 105c16 11 18 15 18 21c0 5 -3 13 -11 25l-38 59v2h249v-2l-143 -78c-21 -12 -32 -17 -47 -28l-38 -28l42 -203c11 -54 20 -75 41 -75
c17 0 30 12 43 31c14 21 25 43 35 76h2c-19 -120 -92 -189 -168 -189z" />
    <glyph glyph-name="lacute" unicode="&#x13a;" horiz-adv-x="285" 
d="M145 745l-1 1l109 165h164v-2zM102 -8c-57 0 -86 41 -86 92c0 22 6 52 11 74l111 490c4 18 1 21 -9 26l-60 27v2l238 25l-130 -571c-6 -25 -8 -44 -8 -55c0 -17 4 -28 22 -28c13 0 26 8 37 22c17 22 32 49 43 85h2c-12 -71 -43 -119 -76 -149c-28 -24 -60 -40 -95 -40z
" />
    <glyph glyph-name="lcaron" unicode="&#x13e;" horiz-adv-x="291" 
d="M345 703l-43 -195h2l160 193v2h-119zM102 -8c-57 0 -86 41 -86 92c0 22 6 52 11 74l111 490c4 18 1 21 -9 26l-60 27v2l238 25l-130 -571c-6 -25 -8 -44 -8 -55c0 -17 4 -28 22 -28c13 0 26 8 37 22c17 22 32 49 43 85h2c-12 -71 -43 -119 -76 -149
c-28 -24 -60 -40 -95 -40z" />
    <glyph glyph-name="lcommaaccent" unicode="&#x13c;" horiz-adv-x="285" 
d="M56 -160c-20 0 -43 16 -43 50c0 41 33 72 72 72c36 0 61 -24 61 -61c0 -62 -52 -118 -112 -146c-13 -6 -30 -13 -44 -15v2c19 9 36 23 46 35c15 18 22 36 26 53c2 8 1 10 -6 10zM102 -8c-57 0 -86 41 -86 92c0 22 6 52 11 74l111 490c4 18 1 21 -9 26l-60 27v2l238 25
l-130 -571c-6 -25 -8 -44 -8 -55c0 -17 4 -28 22 -28c13 0 26 8 37 22c17 22 32 49 43 85h2c-12 -71 -43 -119 -76 -149c-28 -24 -60 -40 -95 -40z" />
    <glyph glyph-name="ldot" unicode="&#x140;" horiz-adv-x="402" 
d="M102 -8c-57 0 -86 41 -86 92c0 22 6 52 11 74l111 490c4 18 1 21 -9 26l-60 27v2l238 25l-130 -571c-6 -25 -8 -44 -8 -55c0 -17 4 -28 22 -28c13 0 26 8 37 22c17 22 32 49 43 85h2c-12 -71 -43 -119 -76 -149c-28 -24 -60 -40 -95 -40zM356 456c41 0 72 -24 72 -65
c0 -47 -37 -78 -84 -78c-39 0 -73 24 -73 65c0 48 40 78 85 78z" />
    <glyph glyph-name="nacute" unicode="&#x144;" horiz-adv-x="578" 
d="M271 537l-1 1l109 165h164v-2zM477 167c-9 -27 -14 -52 -14 -69c0 -16 7 -24 20 -24s26 7 38 22c19 23 31 54 42 85h2c-19 -118 -92 -189 -172 -189c-58 0 -89 37 -89 85c0 36 12 74 24 111l46 141c9 26 15 52 15 69c0 14 -7 23 -23 23c-27 0 -55 -24 -78 -56
c-41 -57 -70 -137 -122 -365h-149l94 424c5 23 4 24 -10 32l-59 29v2l239 16l-44 -201h2c47 117 130 201 214 201c55 0 88 -38 88 -91c0 -37 -14 -80 -24 -115z" />
    <glyph glyph-name="napostrophe" unicode="&#x149;" horiz-adv-x="643" 
d="M76 591c-20 0 -43 16 -43 50c0 41 33 72 72 72c36 0 61 -24 61 -61c0 -62 -52 -118 -112 -146c-13 -6 -30 -13 -44 -15v2c19 9 36 23 46 35c15 18 22 36 26 53c2 8 1 10 -6 10zM542 167c-9 -27 -14 -52 -14 -69c0 -16 7 -24 20 -24s26 7 38 22c19 23 31 54 42 85h2
c-19 -118 -92 -189 -172 -189c-58 0 -89 37 -89 85c0 36 12 74 24 111l46 141c9 26 15 52 15 69c0 14 -7 23 -23 23c-27 0 -55 -24 -78 -56c-41 -57 -70 -137 -122 -365h-149l94 424c5 23 4 24 -10 32l-59 29v2l239 16l-44 -201h2c47 117 130 201 214 201
c55 0 88 -38 88 -91c0 -37 -14 -80 -24 -115z" />
    <glyph glyph-name="ncaron" unicode="&#x148;" horiz-adv-x="578" 
d="M352 532h-2l-127 174l1 2l146 -67l179 67l1 -2zM477 167c-9 -27 -14 -52 -14 -69c0 -16 7 -24 20 -24s26 7 38 22c19 23 31 54 42 85h2c-19 -118 -92 -189 -172 -189c-58 0 -89 37 -89 85c0 36 12 74 24 111l46 141c9 26 15 52 15 69c0 14 -7 23 -23 23
c-27 0 -55 -24 -78 -56c-41 -57 -70 -137 -122 -365h-149l94 424c5 23 4 24 -10 32l-59 29v2l239 16l-44 -201h2c47 117 130 201 214 201c55 0 88 -38 88 -91c0 -37 -14 -80 -24 -115z" />
    <glyph glyph-name="ncommaaccent" unicode="&#x146;" horiz-adv-x="578" 
d="M203 -160c-20 0 -43 16 -43 50c0 41 33 72 72 72c36 0 61 -24 61 -61c0 -62 -52 -118 -112 -146c-13 -6 -30 -13 -44 -15v2c19 9 36 23 46 35c15 18 22 36 26 53c2 8 1 10 -6 10zM477 167c-9 -27 -14 -52 -14 -69c0 -16 7 -24 20 -24s26 7 38 22c19 23 31 54 42 85h2
c-19 -118 -92 -189 -172 -189c-58 0 -89 37 -89 85c0 36 12 74 24 111l46 141c9 26 15 52 15 69c0 14 -7 23 -23 23c-27 0 -55 -24 -78 -56c-41 -57 -70 -137 -122 -365h-149l94 424c5 23 4 24 -10 32l-59 29v2l239 16l-44 -201h2c47 117 130 201 214 201
c55 0 88 -38 88 -91c0 -37 -14 -80 -24 -115z" />
    <glyph glyph-name="obreve" unicode="&#x14f;" horiz-adv-x="525" 
d="M217 -9c-97 0 -199 49 -199 202c0 171 127 310 290 310c96 0 199 -49 199 -202c0 -175 -131 -310 -290 -310zM213 9c73 -1 137 230 137 395c0 36 -5 81 -38 81c-73 0 -137 -230 -137 -395c0 -38 6 -81 38 -81zM336 617c72 0 128 33 144 95h2c-2 -122 -77 -172 -152 -172
c-59 0 -117 31 -117 102c0 20 4 43 15 70h2c-9 -62 34 -95 106 -95z" />
    <glyph glyph-name="ohungarumlaut" unicode="&#x151;" horiz-adv-x="525" 
d="M302 703h129v-2l-219 -170h-2zM469 703h129v-2l-219 -170h-2zM217 -9c-97 0 -199 49 -199 202c0 171 127 310 290 310c96 0 199 -49 199 -202c0 -175 -131 -310 -290 -310zM213 9c73 -1 137 230 137 395c0 36 -5 81 -38 81c-73 0 -137 -230 -137 -395c0 -38 6 -81 38 -81
z" />
    <glyph glyph-name="omacron" unicode="&#x14d;" horiz-adv-x="525" 
d="M475 592h-280v20h280v-20zM217 -9c-97 0 -199 49 -199 202c0 171 127 310 290 310c96 0 199 -49 199 -202c0 -175 -131 -310 -290 -310zM213 9c73 -1 137 230 137 395c0 36 -5 81 -38 81c-73 0 -137 -230 -137 -395c0 -38 6 -81 38 -81z" />
    <glyph glyph-name="oslashacute" unicode="&#x1ff;" horiz-adv-x="525" 
d="M217 -9c-20 0 -40 2 -59 7l-34 -79l-19 7l34 77c-67 22 -121 78 -121 190c0 171 127 310 290 310c16 0 33 -2 49 -5l34 76l18 -7l-32 -73c70 -21 130 -77 130 -193c0 -175 -131 -310 -290 -310zM213 9c73 -1 137 230 137 395c0 8 0 17 -1 26l-170 -386
c5 -20 15 -35 34 -35zM175 90v-6l166 378c-5 14 -14 23 -29 23c-73 0 -137 -230 -137 -395zM367 703h164v-2l-272 -164l-1 1z" />
    <glyph glyph-name="racute" unicode="&#x155;" horiz-adv-x="416" 
d="M209 537l-1 1l109 165h164v-2zM168 0h-148l89 424c5 23 5 25 -11 33l-57 28v2l239 16l-42 -197h1c44 121 93 197 166 197c17 0 36 -3 51 -15l-77 -217h-2l-53 121c-3 6 -5 9 -9 9c-5 0 -9 -3 -15 -10c-11 -13 -21 -27 -36 -57c-21 -43 -43 -93 -96 -334z" />
    <glyph glyph-name="rcaron" unicode="&#x159;" horiz-adv-x="416" 
d="M290 532h-2l-127 174l1 2l146 -67l179 67l1 -2zM168 0h-148l89 424c5 23 5 25 -11 33l-57 28v2l239 16l-42 -197h1c44 121 93 197 166 197c17 0 36 -3 51 -15l-77 -217h-2l-53 121c-3 6 -5 9 -9 9c-5 0 -9 -3 -15 -10c-11 -13 -21 -27 -36 -57c-21 -43 -43 -93 -96 -334z
" />
    <glyph glyph-name="rcommaaccent" unicode="&#x157;" horiz-adv-x="416" 
d="M52 -160c-20 0 -43 16 -43 50c0 41 33 72 72 72c36 0 61 -24 61 -61c0 -62 -52 -118 -112 -146c-13 -6 -30 -13 -44 -15v2c19 9 36 23 46 35c15 18 22 36 26 53c2 8 1 10 -6 10zM168 0h-148l89 424c5 23 5 25 -11 33l-57 28v2l239 16l-42 -197h1c44 121 93 197 166 197
c17 0 36 -3 51 -15l-77 -217h-2l-53 121c-3 6 -5 9 -9 9c-5 0 -9 -3 -15 -10c-11 -13 -21 -27 -36 -57c-21 -43 -43 -93 -96 -334z" />
    <glyph glyph-name="sacute" unicode="&#x15b;" horiz-adv-x="406" 
d="M174 537l-1 1l109 165h164v-2zM270 298c62 -50 95 -84 95 -141c0 -77 -65 -165 -207 -165c-53 0 -117 12 -163 33l57 172h2l74 -175c4 -9 6 -11 18 -13c6 -1 9 -1 14 -1c52 0 82 33 82 75c0 34 -30 55 -92 107c-64 55 -92 98 -92 155c0 81 64 158 187 158
c50 0 96 -7 154 -23l-56 -169h-2l-74 166c-3 7 -5 9 -13 9h-6c-44 0 -72 -28 -72 -70c0 -34 29 -66 94 -118z" />
    <glyph glyph-name="scedilla" unicode="&#x15f;" horiz-adv-x="406" 
d="M259 -124c0 -67 -63 -112 -137 -112c-65 0 -116 36 -108 95h2c4 -43 45 -57 73 -57c39 0 76 27 76 69c0 28 -25 43 -55 43c-12 0 -25 -1 -39 -7l-1 2l87 83c-53 0 -117 12 -162 33l57 172h2l74 -175c4 -9 6 -11 18 -13c6 -1 9 -1 14 -1c52 0 82 33 82 75
c0 34 -30 55 -92 107c-64 55 -92 98 -92 155c0 81 64 158 187 158c50 0 96 -7 154 -23l-56 -169h-2l-74 166c-3 7 -5 9 -13 9h-6c-44 0 -72 -28 -72 -70c0 -34 29 -66 94 -118c62 -50 95 -84 95 -141c0 -76 -64 -163 -203 -165l-17 -52c11 2 21 3 30 3c52 0 84 -29 84 -67z
" />
    <glyph glyph-name="scircumflex" unicode="&#x15d;" horiz-adv-x="406" 
d="M287 711l128 -175l-2 -1l-145 70l-180 -70l-1 2l198 174h2zM270 298c62 -50 95 -84 95 -141c0 -77 -65 -165 -207 -165c-53 0 -117 12 -163 33l57 172h2l74 -175c4 -9 6 -11 18 -13c6 -1 9 -1 14 -1c52 0 82 33 82 75c0 34 -30 55 -92 107c-64 55 -92 98 -92 155
c0 81 64 158 187 158c50 0 96 -7 154 -23l-56 -169h-2l-74 166c-3 7 -5 9 -13 9h-6c-44 0 -72 -28 -72 -70c0 -34 29 -66 94 -118z" />
    <glyph glyph-name="scommaaccent" unicode="&#x219;" horiz-adv-x="406" 
d="M115 -160c-20 0 -43 16 -43 50c0 41 33 72 72 72c36 0 61 -24 61 -61c0 -62 -52 -118 -112 -146c-13 -6 -30 -13 -44 -15v2c19 9 36 23 46 35c15 18 22 36 26 53c2 8 1 10 -6 10zM270 298c62 -50 95 -84 95 -141c0 -77 -65 -165 -207 -165c-53 0 -117 12 -163 33l57 172
h2l74 -175c4 -9 6 -11 18 -13c6 -1 9 -1 14 -1c52 0 82 33 82 75c0 34 -30 55 -92 107c-64 55 -92 98 -92 155c0 81 64 158 187 158c50 0 96 -7 154 -23l-56 -169h-2l-74 166c-3 7 -5 9 -13 9h-6c-44 0 -72 -28 -72 -70c0 -34 29 -66 94 -118z" />
    <glyph glyph-name="smiley" horiz-adv-x="794" 
d="M392 -4c-209 0 -343 134 -343 318c0 219 179 393 392 393c197 0 340 -128 340 -319c0 -216 -165 -392 -389 -392zM392 15c211 0 369 165 369 372c0 179 -131 301 -319 301c-201 0 -373 -162 -373 -372c0 -175 125 -301 323 -301zM398 83c-134 0 -231 81 -232 189h-2
c-17 0 -33 5 -35 36l2 1c6 -9 18 -16 33 -16c20 0 46 8 59 30h2c-5 -31 -22 -44 -40 -49c3 -100 86 -172 215 -172c120 0 202 71 222 171c-17 2 -31 10 -31 32c0 5 1 11 3 18h2c2 -22 25 -30 45 -30c16 0 30 7 39 16l2 -1c-11 -25 -26 -34 -40 -36
c-22 -114 -120 -189 -244 -189zM489 456c21 101 45 160 59 160c6 0 10 -11 10 -31c0 -27 -6 -71 -18 -129c-20 -97 -43 -154 -58 -154c-6 0 -9 11 -9 32c0 26 5 68 16 122zM326 456c21 101 45 160 60 160c6 0 9 -11 9 -31c0 -27 -6 -71 -18 -129c-20 -97 -44 -154 -57 -154
c-7 0 -10 11 -10 33c0 26 5 68 16 121z" />
    <glyph glyph-name="tbar" unicode="&#x167;" horiz-adv-x="326" 
d="M312 685h2l-43 -198h100v-20h-105l-26 -117h98v-19h-102l-37 -174c-5 -25 -9 -43 -9 -58s6 -25 21 -25c13 0 25 8 36 20c18 21 33 49 44 87h2c-11 -71 -41 -119 -73 -148c-27 -25 -62 -41 -97 -41c-60 0 -85 45 -85 87c0 25 6 54 11 77l40 175h-71v19h75l27 117h-70v20
h63c14 0 21 3 28 10z" />
    <glyph glyph-name="tcaron" unicode="&#x165;" horiz-adv-x="311" 
d="M341 508l43 195h119v-2l-160 -193h-2zM192 157c-5 -25 -9 -43 -9 -58s6 -25 21 -25c13 0 25 8 36 20c18 21 33 49 44 87h2c-11 -71 -41 -119 -73 -148c-27 -25 -62 -41 -97 -41c-60 0 -85 45 -85 87c0 25 6 54 11 77l71 311h-70v20h63c14 0 21 3 28 10l171 188h2
l-43 -198h100v-20h-105z" />
    <glyph glyph-name="tcommaaccent" unicode="&#x163;" horiz-adv-x="311" 
d="M69 -160c-20 0 -43 16 -43 50c0 41 33 72 72 72c36 0 61 -24 61 -61c0 -62 -52 -118 -112 -146c-13 -6 -30 -13 -44 -15v2c19 9 36 23 46 35c15 18 22 36 26 53c2 8 1 10 -6 10zM192 157c-5 -25 -9 -43 -9 -58s6 -25 21 -25c13 0 25 8 36 20c18 21 33 49 44 87h2
c-11 -71 -41 -119 -73 -148c-27 -25 -62 -41 -97 -41c-60 0 -85 45 -85 87c0 25 6 54 11 77l71 311h-70v20h63c14 0 21 3 28 10l171 188h2l-43 -198h100v-20h-105z" />
    <glyph glyph-name="ubreve" unicode="&#x16d;" horiz-adv-x="583" 
d="M476 155c-5 -22 -8 -42 -8 -56c0 -17 8 -26 21 -26c15 0 27 10 39 24c16 20 30 46 42 84h2c-14 -75 -44 -123 -74 -150c-26 -25 -60 -39 -94 -39c-57 0 -87 33 -87 87c0 34 13 88 20 114h-2c-46 -119 -133 -201 -207 -201c-56 0 -90 37 -90 91c0 37 14 80 24 115l40 130
c9 27 14 52 14 68s-7 25 -20 25c-11 0 -26 -8 -38 -22c-19 -23 -31 -52 -42 -79h-2c26 112 92 183 172 183c58 0 89 -37 89 -85c0 -35 -11 -74 -24 -112l-46 -140c-9 -26 -15 -53 -15 -69c0 -15 8 -24 24 -24c26 0 50 27 72 57c41 56 64 129 123 355l151 15zM358 617
c72 0 128 33 144 95h2c-2 -122 -77 -172 -152 -172c-59 0 -117 31 -117 102c0 20 4 43 15 70h2c-9 -62 34 -95 106 -95z" />
    <glyph glyph-name="uhungarumlaut" unicode="&#x171;" horiz-adv-x="583" 
d="M476 155c-5 -22 -8 -42 -8 -56c0 -17 8 -26 21 -26c15 0 27 10 39 24c16 20 30 46 42 84h2c-14 -75 -44 -123 -74 -150c-26 -25 -60 -39 -94 -39c-57 0 -87 33 -87 87c0 34 13 88 20 114h-2c-46 -119 -133 -201 -207 -201c-56 0 -90 37 -90 91c0 37 14 80 24 115l40 130
c9 27 14 52 14 68s-7 25 -20 25c-11 0 -26 -8 -38 -22c-19 -23 -31 -52 -42 -79h-2c26 112 92 183 172 183c58 0 89 -37 89 -85c0 -35 -11 -74 -24 -112l-46 -140c-9 -26 -15 -53 -15 -69c0 -15 8 -24 24 -24c26 0 50 27 72 57c41 56 64 129 123 355l151 15zM324 703h129v-2
l-219 -170h-2zM491 703h129v-2l-219 -170h-2z" />
    <glyph glyph-name="umacron" unicode="&#x16b;" horiz-adv-x="583" 
d="M476 155c-5 -22 -8 -42 -8 -56c0 -17 8 -26 21 -26c15 0 27 10 39 24c16 20 30 46 42 84h2c-14 -75 -44 -123 -74 -150c-26 -25 -60 -39 -94 -39c-57 0 -87 33 -87 87c0 34 13 88 20 114h-2c-46 -119 -133 -201 -207 -201c-56 0 -90 37 -90 91c0 37 14 80 24 115l40 130
c9 27 14 52 14 68s-7 25 -20 25c-11 0 -26 -8 -38 -22c-19 -23 -31 -52 -42 -79h-2c26 112 92 183 172 183c58 0 89 -37 89 -85c0 -35 -11 -74 -24 -112l-46 -140c-9 -26 -15 -53 -15 -69c0 -15 8 -24 24 -24c26 0 50 27 72 57c41 56 64 129 123 355l151 15zM497 592h-280
v20h280v-20z" />
    <glyph glyph-name="uni00AD" unicode="&#xad;" horiz-adv-x="351" 
d="M46 237v20h260v-20h-260z" />
    <glyph glyph-name="uni01B5" unicode="&#x1b5;" horiz-adv-x="623" 
d="M562 341h-144l-250 -321h189c17 0 21 1 30 12l192 235h2l-54 -267h-564v2l265 339h-139v19h154l253 323h-179c-18 0 -22 -1 -31 -12l-191 -236h-3l56 268h553v-2l-268 -341h129v-19z" />
    <glyph glyph-name="uni01B6" unicode="&#x1b6;" horiz-adv-x="403" 
d="M338 47c-33 -46 -68 -59 -104 -59c-33 0 -64 12 -111 26c-24 7 -52 18 -75 18c-25 0 -49 -6 -62 -44h-2c1 13 3 26 7 39c8 29 25 53 52 80l143 137h-139v18h158l75 71c-22 2 -51 10 -72 17c-38 12 -76 24 -104 24c-29 0 -58 -13 -80 -80h-2c32 178 97 215 154 215
c32 0 65 -13 116 -30c22 -7 50 -17 71 -17c27 0 56 12 70 52h2c-4 -45 -25 -84 -64 -121l-137 -131h130v-18h-149l-86 -82c60 -4 130 -38 178 -38c30 0 61 13 88 88h2c-11 -75 -37 -133 -59 -165z" />
    <glyph glyph-name="uni021A" unicode="&#x21a;" horiz-adv-x="617" 
d="M213 -160c-20 0 -43 16 -43 50c0 41 33 72 72 72c36 0 61 -24 61 -61c0 -62 -52 -118 -112 -146c-13 -6 -30 -13 -44 -15v2c19 9 36 23 46 35c15 18 22 36 26 53c2 8 1 10 -6 10zM363 100c-3 -15 -2 -21 5 -30l59 -68v-2h-337v2l87 68c11 8 14 15 17 30l120 583h-54
c-16 0 -21 0 -34 -18l-168 -232h-2l56 270h581l-55 -270h-2l-74 232c-6 17 -10 18 -25 18h-54z" />
    <glyph glyph-name="uni021B" unicode="&#x21b;" horiz-adv-x="311" 
d="M69 -160c-20 0 -43 16 -43 50c0 41 33 72 72 72c36 0 61 -24 61 -61c0 -62 -52 -118 -112 -146c-13 -6 -30 -13 -44 -15v2c19 9 36 23 46 35c15 18 22 36 26 53c2 8 1 10 -6 10zM192 157c-5 -25 -9 -43 -9 -58s6 -25 21 -25c13 0 25 8 36 20c18 21 33 49 44 87h2
c-11 -71 -41 -119 -73 -148c-27 -25 -62 -41 -97 -41c-60 0 -85 45 -85 87c0 25 6 54 11 77l71 311h-70v20h63c14 0 21 3 28 10l171 188h2l-43 -198h100v-20h-105z" />
    <glyph glyph-name="uni02C9" unicode="&#x2c9;" horiz-adv-x="385" 
d="M391 592h-281v20h281v-20z" />
    <glyph glyph-name="uni0394" unicode="&#x394;" horiz-adv-x="582" 
d="M526 0h-567v2l316 596c10 19 10 21 1 35l-44 68v2h216zM292 588l-300 -568h362z" />
    <glyph glyph-name="uni03A9" unicode="&#x3a9;" horiz-adv-x="765" 
d="M667 0h-303l21 102c115 23 177 312 177 443c0 94 -30 150 -96 150c-108 0 -206 -234 -206 -442c0 -80 22 -133 65 -150l-21 -103h-302l27 233h2l95 -196c9 -16 19 -18 37 -18h125l14 70c-150 21 -228 128 -228 257c0 206 167 367 386 367c172 0 286 -114 286 -268
c0 -187 -131 -332 -344 -358l-14 -68h126c17 0 28 2 44 18l173 196h2z" />
    <glyph glyph-name="uni03BC" unicode="&#x3bc;" horiz-adv-x="598" 
d="M475 101c0 -19 7 -28 22 -28c29 0 61 44 79 108h2c-10 -64 -36 -109 -56 -132c-32 -38 -69 -57 -115 -57c-51 0 -83 31 -83 90c0 36 14 92 20 111h-2c-41 -102 -102 -164 -157 -184l-14 -5l-38 -163c-3 -14 -2 -17 10 -23l95 -44v-2h-321v2l50 39c13 10 14 13 18 28
l124 487c7 28 13 52 13 68s-6 25 -19 25s-28 -9 -40 -23c-17 -21 -29 -53 -40 -78h-2c26 111 91 183 170 183c60 0 90 -38 90 -85c0 -37 -11 -74 -23 -112l-44 -140c-8 -26 -16 -53 -16 -69s7 -24 22 -24c30 0 63 38 84 73c20 29 39 77 58 143c5 17 47 171 52 196l151 15
l1 -1l-83 -343c-5 -21 -8 -44 -8 -55z" />
    <glyph glyph-name="uni1E8A" unicode="&#x1e8a;" horiz-adv-x="675" 
d="M539 538l-112 -117l136 -311c7 -15 15 -27 22 -36l51 -72v-2h-313v2l60 61c10 10 10 14 5 26l-83 190l-124 -130c-15 -15 -15 -19 -10 -31l49 -116v-2h-276v2l163 110c25 17 39 26 64 53l126 132l-129 296c-7 15 -15 27 -22 36l-51 72v2h313v-2l-59 -61
c-10 -10 -11 -14 -6 -26l76 -175l110 115c15 15 16 19 11 31l-51 116v2h277v-2l-162 -110c-25 -17 -40 -26 -65 -53zM467 905c41 0 72 -24 72 -65c0 -47 -37 -78 -84 -78c-39 0 -73 24 -73 65c0 48 40 78 85 78z" />
    <glyph glyph-name="uni1E8B" unicode="&#x1e8b;" horiz-adv-x="500" 
d="M349 141c9 -46 26 -63 44 -63c27 0 55 30 78 98h2c-22 -119 -99 -184 -169 -184c-52 0 -86 29 -101 102l-13 64c-8 -18 -16 -34 -24 -49c-45 -85 -76 -117 -125 -117c-25 0 -48 9 -65 29l74 179h2l31 -71c8 -19 19 -23 32 -23c33 0 56 40 72 67l-34 181
c-9 46 -26 63 -45 63c-26 0 -55 -29 -77 -96h-2c22 117 99 182 169 182c52 0 87 -29 101 -102l13 -67c10 18 16 34 24 49c45 87 77 120 126 120c26 0 48 -9 65 -29l-73 -179h-2l-36 77c-6 13 -16 17 -29 17c-27 0 -55 -43 -72 -70zM343 697c41 0 72 -24 72 -65
c0 -47 -37 -78 -84 -78c-39 0 -73 24 -73 65c0 48 40 78 85 78z" />
    <glyph glyph-name="uni2153" unicode="&#x2153;" horiz-adv-x="520" 
d="M482 361v-19h-399v19h399zM390 718l-53 -257c-1 -5 -1 -7 4 -10l57 -30v-2h-236v2l69 30c7 3 8 5 9 10l38 183c1 5 1 8 -4 9l-65 18v2zM360 91c0 -69 -84 -96 -167 -96c-43 0 -84 7 -116 20l75 98h2l16 -94c1 -5 3 -8 11 -8h8c41 0 76 36 76 85c0 30 -21 51 -63 55v2
c46 4 83 37 83 89c0 25 -15 37 -33 37h-7c-7 0 -10 -3 -14 -8l-64 -93h-2l-29 91c37 14 79 25 128 25c74 0 116 -26 116 -66c0 -43 -40 -68 -101 -73v-2c50 -3 81 -28 81 -62z" />
    <glyph glyph-name="uni2154" unicode="&#x2154;" horiz-adv-x="520" 
d="M487 361v-19h-399v19h399zM385 228c0 -43 -40 -68 -101 -73v-2c50 -3 81 -28 81 -62c0 -69 -84 -96 -167 -96c-43 0 -84 7 -116 20l75 98h2l16 -94c1 -5 3 -8 11 -8h8c41 0 76 36 76 85c0 30 -21 51 -63 55v2c46 4 83 37 83 89c0 25 -15 37 -33 37h-7c-7 0 -10 -3 -14 -8
l-64 -93h-2l-29 91c37 14 79 25 128 25c74 0 116 -26 116 -66zM358 713c70 0 111 -27 111 -71c0 -72 -100 -122 -202 -151v-2h107c20 0 25 1 36 9l39 28h2l-40 -107h-250v2c32 24 94 77 101 83c54 45 111 94 111 157c0 25 -13 37 -34 37h-5c-7 0 -11 -3 -14 -8l-66 -97h-2
l-28 95c40 16 83 25 134 25z" />
    <glyph glyph-name="uni2155" unicode="&#x2155;" horiz-adv-x="520" 
d="M85 361h399v-19h-399v19zM392 718l-53 -257c-1 -5 -1 -7 4 -10l57 -30v-2h-236v2l69 30c7 3 8 5 9 10l38 183c1 5 1 8 -4 9l-65 18v2zM172 224l-20 -70c30 18 62 30 104 30c65 0 102 -37 102 -84c0 -68 -68 -106 -165 -106c-48 0 -91 10 -115 20l75 96h2l17 -92
c1 -6 2 -8 11 -8h9c41 0 69 38 69 83c0 35 -24 58 -70 58c-20 0 -38 -8 -56 -18l-2 1l40 154c24 -2 61 -5 101 -5c20 0 44 1 61 2c18 1 29 3 43 15l10 9h2c-3 -11 -10 -35 -14 -45c-12 -32 -22 -40 -48 -43c-17 -2 -47 -2 -74 -2c-28 0 -59 1 -82 5z" />
    <glyph glyph-name="uni2156" unicode="&#x2156;" horiz-adv-x="520" 
d="M483 342h-399v19h399v-19zM375 264c-12 -32 -22 -40 -48 -43c-17 -2 -47 -2 -74 -2c-28 0 -59 1 -82 5l-20 -70c30 18 62 30 104 30c65 0 102 -37 102 -84c0 -68 -68 -106 -165 -106c-48 0 -91 10 -115 20l75 96h2l17 -92c1 -6 2 -8 11 -8h9c41 0 69 38 69 83
c0 35 -24 58 -70 58c-20 0 -38 -8 -56 -18l-2 1l40 154c24 -2 61 -5 101 -5c20 0 44 1 61 2c18 1 29 3 43 15l10 9h2c-3 -11 -10 -35 -14 -45zM354 713c70 0 111 -27 111 -71c0 -72 -100 -122 -202 -151v-2h107c20 0 25 1 36 9l39 28h2l-40 -107h-250v2c32 24 94 77 101 83
c54 45 111 94 111 157c0 25 -13 37 -34 37h-5c-7 0 -11 -3 -14 -8l-66 -97h-2l-28 95c40 16 83 25 134 25z" />
    <glyph glyph-name="uni2157" unicode="&#x2157;" horiz-adv-x="520" 
d="M490 361v-19h-399v19h399zM382 264c-12 -32 -22 -40 -48 -43c-17 -2 -47 -2 -74 -2c-28 0 -59 1 -82 5l-20 -70c30 18 62 30 104 30c65 0 102 -37 102 -84c0 -68 -68 -106 -165 -106c-48 0 -91 10 -115 20l75 96h2l17 -92c1 -6 2 -8 11 -8h9c41 0 69 38 69 83
c0 35 -24 58 -70 58c-20 0 -38 -8 -56 -18l-2 1l40 154c24 -2 61 -5 101 -5c20 0 44 1 61 2c18 1 29 3 43 15l10 9h2c-3 -11 -10 -35 -14 -45zM452 510c0 -69 -84 -96 -167 -96c-43 0 -84 7 -116 20l75 98h2l16 -94c1 -5 3 -8 11 -8h8c41 0 76 36 76 85c0 30 -21 51 -63 55
v2c46 4 83 37 83 89c0 25 -15 37 -33 37h-7c-7 0 -10 -3 -14 -8l-64 -93h-2l-29 91c37 14 79 25 128 25c74 0 116 -26 116 -66c0 -43 -40 -68 -101 -73v-2c50 -3 81 -28 81 -62z" />
    <glyph glyph-name="uni2158" unicode="&#x2158;" horiz-adv-x="520" 
d="M482 342h-399v19h399v-19zM446 490h-66l-7 -34c-1 -5 -1 -7 4 -10l33 -25v-2h-179v2l47 25c4 3 6 5 7 11l7 33h-141v2l206 216h67l-41 -203h10c7 0 12 2 17 8l62 81h2zM183 505h112l31 148zM356 100c0 -68 -68 -106 -165 -106c-48 0 -91 10 -115 20l75 96h2l17 -92
c1 -6 2 -8 11 -8h9c41 0 69 38 69 83c0 35 -24 58 -70 58c-20 0 -38 -8 -56 -18l-2 1l40 154c24 -2 61 -5 101 -5c20 0 44 1 61 2c18 1 29 3 43 15l10 9h2c-3 -11 -10 -35 -14 -45c-12 -32 -22 -40 -48 -43c-17 -2 -47 -2 -74 -2c-28 0 -59 1 -82 5l-20 -70
c30 18 62 30 104 30c65 0 102 -37 102 -84z" />
    <glyph glyph-name="uni2159" unicode="&#x2159;" horiz-adv-x="520" 
d="M87 342v19h399v-19h-399zM213 673l181 45l-53 -257c-1 -5 -1 -7 4 -10l57 -30v-2h-236v2l69 30c7 3 8 5 9 10l38 183c1 5 0 8 -4 9l-65 18v2zM221 -5c-81 0 -125 48 -125 110c0 109 74 189 187 189c44 0 80 -4 115 -15l-61 -83h-2l-34 76c-2 5 -4 7 -12 7h-7
c-43 0 -69 -63 -82 -125c23 17 48 28 83 28c47 0 88 -29 88 -73c0 -59 -49 -114 -150 -114zM238 158c-16 0 -25 -4 -40 -15c-6 -32 -9 -64 -9 -84c0 -38 11 -48 32 -48c33 0 60 50 60 95c0 29 -13 52 -43 52z" />
    <glyph glyph-name="uni215A" unicode="&#x215a;" horiz-adv-x="520" 
d="M486 361v-19h-399v19h399zM461 684c-12 -32 -22 -40 -48 -43c-17 -2 -47 -2 -74 -2c-28 0 -59 1 -82 5l-20 -70c30 18 62 30 104 30c65 0 102 -37 102 -84c0 -68 -68 -106 -165 -106c-48 0 -91 10 -115 20l74 96h2l18 -92c1 -6 2 -8 11 -8h9c41 0 69 38 69 83
c0 35 -24 58 -70 58c-20 0 -38 -8 -56 -18l-2 1l40 154c24 -2 61 -5 101 -5c20 0 44 1 61 2c18 1 29 3 43 15l10 9h2c-3 -11 -10 -35 -14 -45zM221 -5c-81 0 -125 48 -125 110c0 109 74 189 187 189c44 0 80 -4 115 -15l-61 -83h-2l-34 76c-2 5 -4 7 -12 7h-7
c-43 0 -69 -63 -82 -125c23 17 48 28 83 28c47 0 88 -29 88 -73c0 -59 -49 -114 -150 -114zM238 158c-16 0 -25 -4 -40 -15c-6 -32 -9 -64 -9 -84c0 -38 11 -48 32 -48c33 0 60 50 60 95c0 29 -13 52 -43 52z" />
    <glyph glyph-name="uni215B" unicode="&#x215b;" horiz-adv-x="520" 
d="M483 342h-399v19h399v-19zM212 -5c-67 0 -116 29 -116 66s38 59 90 63c-31 15 -52 40 -52 72c0 62 60 98 136 98c52 0 104 -23 104 -61c0 -41 -39 -57 -83 -59l16 -7c36 -16 56 -39 56 -71c0 -68 -76 -101 -151 -101zM237 99l-44 21c-22 -14 -33 -32 -33 -56
c0 -32 26 -54 60 -54c27 0 61 14 61 46c0 19 -18 31 -44 43zM209 236c0 -18 15 -31 41 -43l34 -16c17 18 27 33 27 58c0 28 -20 44 -46 44c-32 0 -56 -18 -56 -43zM391 718l-53 -257c-1 -5 -1 -7 4 -10l57 -30v-2h-236v2l69 30c7 3 8 5 9 10l38 183c1 5 0 8 -4 9l-65 18v2z
" />
    <glyph glyph-name="uni215C" unicode="&#x215c;" horiz-adv-x="520" 
d="M482 361v-19h-399v19h399zM211 -5c-67 0 -116 29 -116 66s38 59 90 63c-31 15 -52 40 -52 72c0 62 60 98 136 98c52 0 104 -23 104 -61c0 -41 -39 -57 -83 -59l16 -7c36 -16 56 -39 56 -71c0 -68 -76 -101 -151 -101zM236 99l-44 21c-22 -14 -33 -32 -33 -56
c0 -32 26 -54 60 -54c27 0 61 14 61 46c0 19 -18 31 -44 43zM208 236c0 -18 15 -31 41 -43l34 -16c17 18 27 33 27 58c0 28 -20 44 -46 44c-32 0 -56 -18 -56 -43zM444 510c0 -69 -84 -96 -167 -96c-43 0 -84 7 -116 20l75 98h2l16 -94c1 -5 3 -8 11 -8h8c41 0 76 36 76 85
c0 30 -21 51 -63 55v2c46 4 83 37 83 89c0 25 -15 37 -33 37h-7c-7 0 -10 -3 -14 -8l-64 -93h-2l-29 91c37 14 79 25 128 25c74 0 116 -26 116 -66c0 -43 -40 -68 -101 -73v-2c50 -3 81 -28 81 -62z" />
    <glyph glyph-name="uni215D" unicode="&#x215d;" horiz-adv-x="520" 
d="M83 361v-19h399v19h-399zM211 -5c-67 0 -116 29 -116 66s38 59 90 63c-31 15 -52 40 -52 72c0 62 60 98 136 98c52 0 104 -23 104 -61c0 -41 -39 -57 -83 -59l16 -7c36 -16 56 -39 56 -71c0 -68 -76 -101 -151 -101zM236 99l-44 21c-22 -14 -33 -32 -33 -56
c0 -32 26 -54 60 -54c27 0 61 14 61 46c0 19 -18 31 -44 43zM208 236c0 -18 15 -31 41 -43l34 -16c17 18 27 33 27 58c0 28 -20 44 -46 44c-32 0 -56 -18 -56 -43zM457 684c-12 -32 -22 -40 -48 -43c-17 -2 -47 -2 -74 -2c-28 0 -59 1 -82 5l-20 -70c30 18 62 30 104 30
c65 0 102 -37 102 -84c0 -68 -68 -106 -165 -106c-48 0 -91 10 -115 20l75 96h2l17 -92c1 -6 2 -8 11 -8h9c41 0 69 38 69 83c0 35 -24 58 -70 58c-20 0 -38 -8 -56 -18l-2 1l40 154c24 -2 61 -5 101 -5c20 0 44 1 61 2c18 1 29 3 43 15l10 9h2c-3 -11 -10 -35 -14 -45z" />
    <glyph glyph-name="uni215E" unicode="&#x215e;" horiz-adv-x="520" 
d="M211 -5c-67 0 -116 29 -116 66s38 59 90 63c-31 15 -52 40 -52 72c0 62 60 98 136 98c52 0 104 -23 104 -61c0 -41 -39 -57 -83 -59l16 -7c36 -16 56 -39 56 -71c0 -68 -76 -101 -151 -101zM331 419h-124v2c73 89 162 172 216 221v2h-146c-18 0 -26 -1 -36 -10l-29 -24
h-2l34 98h260v-2l-49 -49c-6 -7 -10 -10 -16 -19c-42 -64 -73 -137 -108 -219zM236 99l-44 21c-22 -14 -33 -32 -33 -56c0 -32 26 -54 60 -54c27 0 61 14 61 46c0 19 -18 31 -44 43zM83 342v19h399v-19h-399zM208 236c0 -18 15 -31 41 -43l34 -16c17 18 27 33 27 58
c0 28 -20 44 -46 44c-32 0 -56 -18 -56 -43z" />
    <glyph glyph-name="uni2190" unicode="&#x2190;" horiz-adv-x="706" 
d="M651 239h-556l226 -226l-15 -15l-251 251l251 251l16 -14l-227 -226h556v-21z" />
    <glyph glyph-name="uni2191" unicode="&#x2191;" horiz-adv-x="612" 
d="M316 -49h-21v556l-226 -227l-14 16l251 251l251 -251l-15 -15l-226 226v-556z" />
    <glyph glyph-name="uni2192" unicode="&#x2192;" horiz-adv-x="706" 
d="M55 260h556l-227 226l16 14l251 -251l-251 -251l-15 15l226 226h-556v21z" />
    <glyph glyph-name="uni2193" unicode="&#x2193;" horiz-adv-x="612" 
d="M295 530h21v-556l226 226l15 -15l-251 -251l-251 251l14 16l226 -227v556z" />
    <glyph glyph-name="uni2196" unicode="&#x2196;" horiz-adv-x="539" 
d="M471 31l-393 393v-319h-21v355h355v-21h-319l393 -394z" />
    <glyph glyph-name="uni2197" unicode="&#x2197;" horiz-adv-x="539" 
d="M482 105h-21v318l-393 -392l-15 14l394 394h-320v21h355v-355z" />
    <glyph glyph-name="uni2198" unicode="&#x2198;" horiz-adv-x="539" 
d="M54 446l15 14l393 -393v319h21v-355h-355v21h319z" />
    <glyph glyph-name="uni2199" unicode="&#x2199;" horiz-adv-x="539" 
d="M411 52v-21h-355v355h21v-320l393 394l15 -14l-392 -394h318z" />
    <glyph glyph-name="uni2215" unicode="&#x2215;" horiz-adv-x="48" 
d="M363 701l-645 -711l-14 14l644 710z" />
    <glyph glyph-name="uni2219" unicode="&#x2219;" horiz-adv-x="242" 
d="M154 498c42 0 75 -27 75 -70c0 -48 -39 -85 -86 -85c-41 0 -74 29 -74 70c0 49 39 85 85 85z" />
    <glyph glyph-name="uogonek" unicode="&#x173;" horiz-adv-x="583" 
d="M352 -236c-50 0 -90 28 -90 80c0 78 79 127 149 148h-7c-57 0 -87 33 -87 87c0 34 13 88 20 114h-2c-46 -119 -133 -201 -207 -201c-56 0 -90 37 -90 91c0 37 14 80 24 115l40 130c9 27 14 52 14 68s-7 25 -20 25c-11 0 -26 -8 -38 -22c-19 -23 -31 -52 -42 -79h-2
c26 112 92 183 172 183c58 0 89 -37 89 -85c0 -35 -11 -74 -24 -112l-46 -140c-9 -26 -15 -53 -15 -69c0 -15 8 -24 24 -24c26 0 50 27 72 57c41 56 64 129 123 355l151 15l-84 -345c-5 -22 -8 -42 -8 -56c0 -17 8 -26 21 -26c15 0 27 10 39 24c16 20 30 46 42 84h2
c-14 -75 -45 -122 -74 -150c-19 -18 -43 -31 -67 -36c-47 -22 -82 -67 -82 -119c0 -36 24 -56 60 -56c27 0 61 13 89 45l2 -1c-29 -53 -77 -100 -148 -100z" />
    <glyph glyph-name="uring" unicode="&#x16f;" horiz-adv-x="583" 
d="M353 539c-44 0 -81 32 -81 80c0 57 45 106 107 106c44 0 81 -31 81 -79c0 -58 -45 -107 -107 -107zM377 705c-45 0 -83 -38 -83 -85c0 -37 26 -61 61 -61c45 0 83 38 83 86c0 37 -26 60 -61 60zM476 155c-5 -22 -8 -42 -8 -56c0 -17 8 -26 21 -26c15 0 27 10 39 24
c16 20 30 46 42 84h2c-14 -75 -44 -123 -74 -150c-26 -25 -60 -39 -94 -39c-57 0 -87 33 -87 87c0 34 13 88 20 114h-2c-46 -119 -133 -201 -207 -201c-56 0 -90 37 -90 91c0 37 14 80 24 115l40 130c9 27 14 52 14 68s-7 25 -20 25c-11 0 -26 -8 -38 -22
c-19 -23 -31 -52 -42 -79h-2c26 112 92 183 172 183c58 0 89 -37 89 -85c0 -35 -11 -74 -24 -112l-46 -140c-9 -26 -15 -53 -15 -69c0 -15 8 -24 24 -24c26 0 50 27 72 57c41 56 64 129 123 355l151 15z" />
    <glyph glyph-name="utilde" unicode="&#x169;" horiz-adv-x="583" 
d="M476 155c-5 -22 -8 -42 -8 -56c0 -17 8 -26 21 -26c15 0 27 10 39 24c16 20 30 46 42 84h2c-14 -75 -44 -123 -74 -150c-26 -25 -60 -39 -94 -39c-57 0 -87 33 -87 87c0 34 13 88 20 114h-2c-46 -119 -133 -201 -207 -201c-56 0 -90 37 -90 91c0 37 14 80 24 115l40 130
c9 27 14 52 14 68s-7 25 -20 25c-11 0 -26 -8 -38 -22c-19 -23 -31 -52 -42 -79h-2c26 112 92 183 172 183c58 0 89 -37 89 -85c0 -35 -11 -74 -24 -112l-46 -140c-9 -26 -15 -53 -15 -69c0 -15 8 -24 24 -24c26 0 50 27 72 57c41 56 64 129 123 355l151 15zM520 688h2
c-12 -75 -56 -126 -111 -126c-51 0 -86 49 -131 49c-28 0 -54 -12 -74 -49h-2c11 75 55 126 110 126c52 0 86 -49 131 -49c27 0 55 12 75 49z" />
    <glyph glyph-name="wacute" unicode="&#x1e83;" horiz-adv-x="723" 
d="M376 537l-1 1l109 165h164v-2zM469 182c-5 -23 -10 -44 -10 -63c0 -31 11 -55 44 -55c64 0 130 112 130 232c0 46 -9 84 -25 119c-6 13 -15 31 -23 42v2l150 44c-13 -233 -158 -511 -316 -511c-54 0 -92 34 -92 106c0 16 2 35 6 55h-2c-28 -85 -88 -161 -179 -161
c-74 0 -105 49 -105 104c0 29 8 67 18 107l32 122c7 24 14 51 14 70c0 16 -6 25 -21 25c-25 0 -49 -28 -83 -87h-2c43 122 103 170 172 170c60 0 88 -34 88 -97c0 -38 -12 -82 -23 -120l-32 -107c-7 -22 -13 -48 -13 -68c0 -29 13 -47 37 -47c38 0 68 46 91 115
c27 83 44 198 53 304l151 20c-13 -125 -37 -217 -60 -321z" />
    <glyph glyph-name="wcircumflex" unicode="&#x175;" horiz-adv-x="723" 
d="M489 711l128 -175l-2 -1l-145 70l-180 -70l-1 2l198 174h2zM469 182c-5 -23 -10 -44 -10 -63c0 -31 11 -55 44 -55c64 0 130 112 130 232c0 46 -9 84 -25 119c-6 13 -15 31 -23 42v2l150 44c-13 -233 -158 -511 -316 -511c-54 0 -92 34 -92 106c0 16 2 35 6 55h-2
c-28 -85 -88 -161 -179 -161c-74 0 -105 49 -105 104c0 29 8 67 18 107l32 122c7 24 14 51 14 70c0 16 -6 25 -21 25c-25 0 -49 -28 -83 -87h-2c43 122 103 170 172 170c60 0 88 -34 88 -97c0 -38 -12 -82 -23 -120l-32 -107c-7 -22 -13 -48 -13 -68c0 -29 13 -47 37 -47
c38 0 68 46 91 115c27 83 44 198 53 304l151 20c-13 -125 -37 -217 -60 -321z" />
    <glyph glyph-name="wdieresis" unicode="&#x1e85;" horiz-adv-x="723" 
d="M379 689c37 0 65 -22 65 -60c0 -43 -35 -71 -76 -71c-35 0 -66 21 -66 59c0 44 37 72 77 72zM576 689c37 0 65 -22 65 -60c0 -43 -34 -71 -75 -71c-36 0 -66 21 -66 59c0 44 36 72 76 72zM469 182c-5 -23 -10 -44 -10 -63c0 -31 11 -55 44 -55c64 0 130 112 130 232
c0 46 -9 84 -25 119c-6 13 -15 31 -23 42v2l150 44c-13 -233 -158 -511 -316 -511c-54 0 -92 34 -92 106c0 16 2 35 6 55h-2c-28 -85 -88 -161 -179 -161c-74 0 -105 49 -105 104c0 29 8 67 18 107l32 122c7 24 14 51 14 70c0 16 -6 25 -21 25c-25 0 -49 -28 -83 -87h-2
c43 122 103 170 172 170c60 0 88 -34 88 -97c0 -38 -12 -82 -23 -120l-32 -107c-7 -22 -13 -48 -13 -68c0 -29 13 -47 37 -47c38 0 68 46 91 115c27 83 44 198 53 304l151 20c-13 -125 -37 -217 -60 -321z" />
    <glyph glyph-name="wgrave" unicode="&#x1e81;" horiz-adv-x="723" 
d="M469 182c-5 -23 -10 -44 -10 -63c0 -31 11 -55 44 -55c64 0 130 112 130 232c0 46 -9 84 -25 119c-6 13 -15 31 -23 42v2l150 44c-13 -233 -158 -511 -316 -511c-54 0 -92 34 -92 106c0 16 2 35 6 55h-2c-28 -85 -88 -161 -179 -161c-74 0 -105 49 -105 104
c0 29 8 67 18 107l32 122c7 24 14 51 14 70c0 16 -6 25 -21 25c-25 0 -49 -28 -83 -87h-2c43 122 103 170 172 170c60 0 88 -34 88 -97c0 -38 -12 -82 -23 -120l-32 -107c-7 -22 -13 -48 -13 -68c0 -29 13 -47 37 -47c38 0 68 46 91 115c27 83 44 198 53 304l151 20
c-13 -125 -37 -217 -60 -321zM275 703h163l110 -165l-1 -1l-272 164v2z" />
    <glyph glyph-name="ycircumflex" unicode="&#x177;" horiz-adv-x="485" 
d="M260 378c20 -76 39 -217 35 -353l2 -1c28 41 47 86 62 127c19 53 29 112 29 158c0 61 -16 110 -49 148v2l157 44c-16 -195 -103 -392 -215 -527c-104 -127 -248 -212 -332 -212c-13 0 -25 2 -32 6l56 167h2l105 -96c7 -7 12 -7 19 -3c17 10 32 21 52 38c8 7 10 13 10 26
v14c0 180 -32 366 -60 450c-9 28 -18 35 -29 35c-17 0 -37 -22 -61 -86h-2c14 100 70 188 147 188c66 0 86 -61 104 -125zM335 711l128 -175l-2 -1l-145 70l-180 -70l-1 2l198 174h2z" />
    <glyph glyph-name="ygrave" unicode="&#x1ef3;" horiz-adv-x="485" 
d="M260 378c20 -76 39 -217 35 -353l2 -1c28 41 47 86 62 127c19 53 29 112 29 158c0 61 -16 110 -49 148v2l157 44c-16 -195 -103 -392 -215 -527c-104 -127 -248 -212 -332 -212c-13 0 -25 2 -32 6l56 167h2l105 -96c7 -7 12 -7 19 -3c17 10 32 21 52 38c8 7 10 13 10 26
v14c0 180 -32 366 -60 450c-9 28 -18 35 -29 35c-17 0 -37 -22 -61 -86h-2c14 100 70 188 147 188c66 0 86 -61 104 -125zM121 703h163l110 -165l-1 -1l-272 164v2z" />
    <glyph glyph-name="zacute" unicode="&#x17a;" horiz-adv-x="404" 
d="M194 537l-1 1l109 165h164v-2zM337 47c-33 -46 -68 -59 -104 -59c-33 0 -64 12 -111 26c-24 7 -52 18 -75 18c-25 0 -49 -6 -62 -44h-2c1 13 3 26 7 39c8 29 24 54 52 80l237 226c-22 2 -51 10 -72 17c-38 12 -76 24 -104 24c-29 0 -58 -13 -80 -80h-2
c32 178 97 215 154 215c32 0 65 -13 116 -30c22 -7 50 -17 71 -17c27 0 56 12 70 52h2c-4 -45 -25 -84 -64 -121l-242 -231c60 -4 130 -38 178 -38c30 0 61 12 88 87h2c-11 -75 -37 -132 -59 -164z" />
    <glyph glyph-name="zdotaccent" unicode="&#x17c;" horiz-adv-x="404" 
d="M337 47c-33 -46 -68 -59 -104 -59c-33 0 -64 12 -111 26c-24 7 -52 18 -75 18c-25 0 -49 -6 -62 -44h-2c1 13 3 26 7 39c8 29 24 54 52 80l237 226c-22 2 -51 10 -72 17c-38 12 -76 24 -104 24c-29 0 -58 -13 -80 -80h-2c32 178 97 215 154 215c32 0 65 -13 116 -30
c22 -7 50 -17 71 -17c27 0 56 12 70 52h2c-4 -45 -25 -84 -64 -121l-242 -231c60 -4 130 -38 178 -38c30 0 61 12 88 87h2c-11 -75 -37 -132 -59 -164zM299 697c41 0 72 -24 72 -65c0 -47 -37 -78 -84 -78c-39 0 -73 24 -73 65c0 48 40 78 85 78z" />
    <glyph glyph-name="backslash.case" horiz-adv-x="380" 
d="M253 -95l-117 886l19 4l117 -886z" />
    <glyph glyph-name="bar.case" horiz-adv-x="220" 
d="M28 -198l-18 4l202 996l19 -4z" />
    <glyph glyph-name="braceleft.case" horiz-adv-x="353" 
d="M55 343v2c48 6 89 37 94 76l24 181c18 143 122 177 213 177c22 0 42 -3 62 -7v-2c-100 3 -149 -82 -157 -142l-23 -173c-8 -58 -55 -99 -123 -110v-2c62 -13 92 -57 77 -112l-47 -171c-17 -63 -4 -143 98 -141v-2c-21 -4 -43 -7 -64 -7c-91 0 -173 64 -142 176l50 178
c12 41 -16 73 -62 79z" />
    <glyph glyph-name="braceright.case" horiz-adv-x="353" 
d="M335 345v-2c-48 -6 -89 -36 -94 -75l-24 -181c-18 -142 -122 -177 -213 -177c-22 0 -42 3 -62 7v2c100 -2 149 82 157 142l22 174c7 57 56 99 124 108v2c-62 13 -93 58 -78 114l48 171c17 62 4 143 -98 140v2c21 4 42 7 64 7c91 0 173 -64 142 -176l-50 -178
c-12 -40 15 -74 62 -80z" />
    <glyph glyph-name="bracketleft.case" horiz-adv-x="364" 
d="M275 693l-143 -697c-2 -12 -2 -13 8 -17l144 -53v-2l-269 -12l176 865l264 -12v-2l-165 -53c-12 -4 -13 -5 -15 -17z" />
    <glyph glyph-name="bracketright.case" horiz-adv-x="364" 
d="M129 -4l143 697c2 12 2 13 -9 17l-144 53v2l269 12l-176 -865l-264 12v2l166 53c12 4 13 5 15 17z" />
    <glyph glyph-name="emdash.case" horiz-adv-x="1000" 
d="M25 332v19h990v-19h-990z" />
    <glyph glyph-name="endash.case" horiz-adv-x="500" 
d="M25 332v19h490v-19h-490z" />
    <glyph glyph-name="exclamdown.case" horiz-adv-x="306" 
d="M206 484l19 -484h-235l214 484h2zM229 556c-43 0 -76 27 -76 70c0 48 39 85 87 85c41 0 73 -29 73 -70c0 -49 -38 -85 -84 -85z" />
    <glyph glyph-name="guillemotleft.case" horiz-adv-x="462" 
d="M48 339l271 229l2 -1l-143 -233l47 -226l-2 -1l-175 230v2zM235 339l271 229l2 -1l-142 -233l46 -226l-2 -1l-175 230v2z" />
    <glyph glyph-name="guillemotright.case" horiz-adv-x="466" 
d="M272 337l-271 -230l-2 1l142 234l-46 225l2 1l175 -229v-2zM458 337l-271 -230l-2 1l142 234l-46 225l2 1l175 -229v-2z" />
    <glyph glyph-name="guilsinglleft.case" horiz-adv-x="279" 
d="M48 339l271 229l2 -1l-143 -233l47 -226l-2 -1l-175 230v2z" />
    <glyph glyph-name="guilsinglright.case" horiz-adv-x="279" 
d="M272 337l-271 -230l-2 1l142 234l-46 225l2 1l175 -229v-2z" />
    <glyph glyph-name="hyphen.case" horiz-adv-x="351" 
d="M66 332v20h260v-20h-260z" />
    <glyph glyph-name="parenleft.case" horiz-adv-x="340" 
d="M280 717c44 34 108 60 158 71l1 -2c-42 -29 -78 -65 -111 -109c-102 -135 -154 -348 -154 -506c0 -101 18 -204 84 -272l-2 -2c-139 69 -192 188 -192 333c0 206 78 381 216 487z" />
    <glyph glyph-name="parenright.case" horiz-adv-x="340" 
d="M314 462c0 -206 -77 -382 -215 -487c-44 -34 -109 -60 -159 -71l-1 2c51 36 93 84 131 141c88 133 135 328 135 474c0 101 -18 204 -84 272l2 2c138 -69 191 -188 191 -333z" />
    <glyph glyph-name="questiondown.case" horiz-adv-x="491" 
d="M231 -10c-131 0 -213 53 -213 150c0 144 171 191 253 250c17 13 32 27 38 43c4 11 6 23 3 37l1 2c40 -1 77 -41 77 -82c0 -121 -213 -150 -213 -288c0 -46 18 -93 70 -93c4 0 10 0 17 1c16 2 22 5 29 16l124 196h2l43 -179c-66 -30 -159 -53 -231 -53zM362 556
c-42 0 -75 27 -75 70c0 48 39 85 86 85c41 0 74 -29 74 -70c0 -49 -39 -85 -85 -85z" />
    <glyph glyph-name="slash.case" horiz-adv-x="380" 
d="M453 787l-472 -882l-16 11l471 880z" />
    <glyph glyph-name="braceleft.salt" horiz-adv-x="245" 
d="M139 238c0 -21 -6 -37 -16 -58l-76 -155c-15 -31 -24 -58 -24 -83c0 -44 33 -64 83 -64c16 0 34 3 53 7v-19c-19 -4 -38 -7 -55 -7c-60 0 -101 23 -101 80c0 31 10 61 26 92l73 149c9 18 17 35 17 54c0 31 -19 49 -78 49l3 19c80 2 104 37 104 87c0 5 0 8 -1 16l-15 149
c-1 9 -2 23 -2 34c0 91 61 138 145 138c17 0 34 -3 51 -7l-6 -18c-17 4 -35 6 -51 6c-66 0 -119 -40 -119 -117c0 -10 1 -19 2 -30l15 -155c1 -10 1 -15 1 -17c0 -53 -31 -89 -76 -95v-2c29 -6 47 -24 47 -53z" />
    <glyph glyph-name="braceright.salt" horiz-adv-x="245" 
d="M131 -3c0 -91 -61 -138 -145 -138c-17 0 -34 3 -51 7l6 18c17 -4 35 -6 51 -6c66 0 119 40 119 117c0 10 -1 19 -2 30l-15 155c-1 10 -1 15 -1 17c0 53 31 88 76 94v2c-29 6 -47 25 -47 54c0 21 6 37 16 58l76 155c15 31 24 58 24 83c0 44 -33 64 -83 64
c-16 0 -34 -3 -53 -7v19c19 4 38 7 55 7c60 0 101 -23 101 -80c0 -31 -11 -61 -26 -92l-73 -149c-9 -18 -17 -35 -17 -54c0 -31 19 -49 78 -49l-3 -19c-80 -2 -104 -37 -104 -87c0 -5 0 -8 1 -16l15 -149c1 -9 2 -23 2 -34z" />
    <glyph glyph-name="bracketleft.salt" horiz-adv-x="257" 
d="M166 -118v-19h-165l175 859h163v-19h-146l-168 -821h141z" />
    <glyph glyph-name="bracketright.salt" horiz-adv-x="257" 
d="M104 703v19h166l-175 -859h-162v19h146l167 821h-142z" />
    <glyph glyph-name="guillemotleft.salt" horiz-adv-x="424" 
d="M30 253l241 230l13 -15l-229 -218l140 -217l-15 -11zM190 253l241 230l13 -15l-229 -218l140 -217l-15 -11z" />
    <glyph glyph-name="guillemotright.salt" horiz-adv-x="424" 
d="M396 251l-241 -230l-13 15l229 218l-140 217l15 11zM236 251l-241 -230l-13 15l229 218l-140 217l15 11z" />
    <glyph glyph-name="guilsinglleft.salt" horiz-adv-x="264" 
d="M30 254l241 230l13 -15l-229 -218l140 -216l-15 -12z" />
    <glyph glyph-name="guilsinglright.salt" horiz-adv-x="264" 
d="M236 250l-241 -230l-13 15l229 218l-140 216l15 12z" />
    <glyph glyph-name="parenleft.salt" horiz-adv-x="278" 
d="M64 320c27 159 130 341 281 414l6 -16c-146 -77 -241 -245 -268 -402c-6 -35 -8 -71 -8 -108c0 -117 34 -252 125 -345l-13 -15c-92 94 -132 233 -132 364c0 37 3 73 9 108z" />
    <glyph glyph-name="parenright.salt" horiz-adv-x="278" 
d="M234 263c-27 -159 -130 -341 -281 -414l-6 16c146 77 241 245 268 402c6 35 8 71 8 108c0 117 -34 252 -125 345l13 15c92 -94 132 -233 132 -364c0 -37 -3 -73 -9 -108z" />
    <glyph glyph-name="braceleft.salt.case" horiz-adv-x="245" 
d="M146 290c0 -21 -6 -37 -16 -58l-76 -155c-15 -31 -24 -57 -24 -83c0 -43 33 -64 83 -64c16 0 34 3 53 7v-19c-19 -4 -38 -7 -55 -7c-60 0 -101 23 -101 80c0 31 11 61 26 92l73 149c9 18 17 35 17 54c0 31 -19 49 -78 49l3 20c80 2 104 36 104 86c0 5 0 8 -1 16l-15 149
c-1 9 -2 23 -2 34c0 91 61 138 145 138c17 0 34 -3 51 -7l-6 -18c-17 5 -35 6 -51 6c-66 0 -119 -40 -119 -117c0 -10 1 -19 2 -30l15 -155c1 -10 1 -15 1 -17c0 -53 -31 -89 -76 -95v-2c29 -6 47 -24 47 -53z" />
    <glyph glyph-name="braceright.salt.case" horiz-adv-x="245" 
d="M227 355l-3 -20c-80 -2 -104 -36 -104 -86c0 -5 0 -8 1 -16l15 -149c1 -9 2 -23 2 -34c0 -91 -61 -138 -145 -138c-17 0 -34 3 -51 7l6 18c17 -4 35 -6 51 -6c66 0 119 40 119 117c0 10 -1 19 -2 30l-15 155c-1 10 -1 15 -1 17c0 53 31 88 76 94v2c-29 6 -47 25 -47 54
c0 21 6 37 16 58l76 155c15 31 24 57 24 83c0 43 -33 64 -83 64c-16 0 -34 -3 -53 -7v19c19 4 38 7 55 7c60 0 101 -23 101 -80c0 -31 -11 -61 -26 -92l-73 -149c-9 -18 -17 -35 -17 -54c0 -31 19 -49 78 -49z" />
    <glyph glyph-name="bracketleft.salt.case" horiz-adv-x="257" 
d="M174 -68v-19h-165l175 859h163v-19h-146l-168 -821h141z" />
    <glyph glyph-name="bracketright.salt.case" horiz-adv-x="257" 
d="M115 753v19h165l-175 -859h-163v19h146l168 821h-141z" />
    <glyph glyph-name="guillemotleft.salt.case" horiz-adv-x="424" 
d="M47 343l242 230l13 -15l-229 -218l140 -217l-16 -11zM207 343l242 230l13 -15l-229 -218l140 -217l-16 -11z" />
    <glyph glyph-name="guillemotright.salt.case" horiz-adv-x="424" 
d="M415 341l-242 -230l-13 15l229 218l-140 217l16 11zM255 341l-242 -230l-13 15l229 218l-140 217l16 11z" />
    <glyph glyph-name="guilsinglleft.salt.case" horiz-adv-x="264" 
d="M47 343l242 230l13 -15l-229 -218l140 -217l-16 -11z" />
    <glyph glyph-name="guilsinglright.salt.case" horiz-adv-x="264" 
d="M255 341l-242 -230l-13 15l229 218l-140 217l16 11z" />
    <glyph glyph-name="parenleft.salt.case" horiz-adv-x="278" 
d="M72 371c27 159 130 341 281 414l6 -17c-146 -77 -241 -244 -268 -401c-6 -35 -8 -71 -8 -108c0 -117 33 -253 124 -346l-12 -14c-92 94 -132 233 -132 364c0 37 3 73 9 108z" />
    <glyph glyph-name="parenright.salt.case" horiz-adv-x="278" 
d="M241 315c-27 -159 -130 -341 -281 -414l-6 17c146 77 241 244 268 401c6 35 8 71 8 108c0 117 -33 253 -124 346l12 14c92 -94 132 -233 132 -364c0 -37 -3 -73 -9 -108z" />
    <glyph glyph-name="eight.subs" 
d="M108 -5c-67 0 -116 29 -116 66s38 59 90 63c-31 15 -52 40 -52 72c0 62 60 98 136 98c52 0 104 -23 104 -61c0 -41 -39 -57 -83 -59l16 -7c36 -16 56 -39 56 -71c0 -68 -76 -101 -151 -101zM133 99l-44 21c-22 -14 -33 -32 -33 -56c0 -32 26 -54 60 -54c27 0 61 14 61 46
c0 19 -18 31 -44 43zM105 236c0 -18 15 -31 41 -43l34 -16c17 18 27 33 27 58c0 28 -20 44 -46 44c-32 0 -56 -18 -56 -43z" />
    <glyph glyph-name="five.subs" 
d="M88 -6c-48 0 -91 10 -115 20l75 96h2l17 -92c1 -6 2 -8 11 -8h9c41 0 69 38 69 83c0 35 -24 58 -70 58c-20 0 -38 -8 -56 -18l-2 1l40 154c24 -2 61 -5 101 -5c20 0 44 2 61 3c18 1 29 2 43 14l10 9h2c-3 -11 -10 -35 -14 -45c-12 -32 -22 -40 -48 -43
c-17 -2 -47 -2 -74 -2c-28 0 -59 1 -82 5l-20 -70c30 18 62 30 104 30c65 0 102 -37 102 -84c0 -68 -68 -106 -165 -106z" />
    <glyph glyph-name="four.subs" 
d="M260 71h-66l-7 -34c-1 -5 -1 -6 4 -10l33 -25v-2h-179v2l47 25c4 2 6 5 7 11l7 33h-141v2l206 216h67l-41 -203h10c7 0 12 2 17 8l62 81h2zM-3 86h112l31 148z" />
    <glyph glyph-name="nine.subs" 
d="M106 11c42 0 68 62 82 124c-25 -18 -49 -28 -83 -28c-47 0 -87 30 -87 74c0 58 48 113 150 113c80 0 124 -48 124 -110c0 -108 -73 -189 -187 -189c-44 0 -80 4 -115 15l60 84h2l35 -77c3 -5 4 -6 12 -6h7zM167 279c-33 0 -60 -51 -60 -95c0 -30 13 -52 43 -52
c15 0 24 3 40 14c6 32 9 63 9 84c0 38 -11 49 -32 49z" />
    <glyph glyph-name="one.subs" horiz-adv-x="266" 
d="M210 2v-2h-236v2l69 30c7 3 8 5 9 10l38 183c1 5 1 8 -4 9l-65 18v2l181 45l-53 -257c-1 -5 -1 -7 4 -10z" />
    <glyph glyph-name="parenleft.subs" horiz-adv-x="209" 
d="M92 68c0 -53 13 -98 45 -134l-1 -2c-92 31 -133 92 -133 164c0 17 2 34 5 51c18 93 80 167 209 196v-2c-68 -46 -101 -108 -117 -198c-5 -26 -8 -51 -8 -75z" />
    <glyph glyph-name="parenright.subs" horiz-adv-x="208" 
d="M91 207c0 53 -12 98 -44 134l1 2c92 -31 133 -92 133 -164c0 -17 -2 -34 -5 -51c-18 -93 -80 -167 -209 -196v2c68 46 101 108 117 198c5 26 7 51 7 75z" />
    <glyph glyph-name="seven.subs" 
d="M142 0h-124v2c73 89 162 172 216 221v2h-146c-18 0 -26 -1 -36 -10l-29 -24h-2l34 98h260v-2l-49 -49c-6 -7 -10 -10 -16 -19c-42 -64 -73 -137 -108 -219z" />
    <glyph glyph-name="six.subs" 
d="M117 -5c-81 0 -125 48 -125 110c0 109 74 189 187 189c44 0 80 -4 115 -15l-61 -83h-2l-34 76c-2 5 -4 7 -12 7h-7c-43 0 -69 -63 -82 -125c23 17 48 28 83 28c47 0 88 -29 88 -73c0 -59 -49 -114 -150 -114zM134 158c-16 0 -25 -4 -40 -15c-6 -32 -9 -64 -9 -84
c0 -38 11 -48 32 -48c33 0 60 50 60 95c0 29 -13 52 -43 52z" />
    <glyph glyph-name="three.subs" 
d="M257 91c0 -69 -84 -96 -167 -96c-43 0 -84 7 -116 20l75 98h2l16 -94c1 -5 3 -8 11 -8h8c41 0 76 36 76 85c0 30 -21 51 -63 55v2c46 4 83 37 83 89c0 25 -15 37 -33 37h-7c-7 0 -10 -3 -14 -8l-64 -93h-2l-29 91c37 14 79 25 128 25c74 0 116 -26 116 -66
c0 -43 -40 -68 -101 -73v-2c50 -3 81 -28 81 -62z" />
    <glyph glyph-name="two.subs" 
d="M165 294c70 0 111 -27 111 -71c0 -72 -100 -122 -202 -151v-2h107c20 0 25 1 36 9l39 28h2l-40 -107h-250v2c32 24 94 77 101 83c54 45 111 94 111 157c0 25 -13 37 -34 37h-5c-7 0 -11 -3 -14 -8l-66 -97h-2l-28 95c40 16 83 25 134 25z" />
    <glyph glyph-name="zero.subs" 
d="M163 276c-51 0 -82 -164 -82 -220c0 -32 7 -49 29 -49c52 0 82 169 82 221c0 32 -7 48 -29 48zM167 291c70 0 116 -49 116 -111c0 -111 -67 -188 -177 -188c-70 0 -116 50 -116 112c0 111 68 187 177 187z" />
    <glyph glyph-name="eight.sups" 
d="M193 414c-67 0 -116 29 -116 66s38 59 90 63c-31 15 -52 40 -52 72c0 62 60 98 136 98c52 0 104 -23 104 -61c0 -41 -39 -57 -83 -59l16 -7c36 -16 56 -39 56 -71c0 -68 -76 -101 -151 -101zM218 518l-44 21c-22 -14 -33 -32 -33 -56c0 -32 26 -54 60 -54
c27 0 61 14 61 46c0 19 -18 31 -44 43zM190 655c0 -18 15 -31 41 -43l34 -16c17 18 27 33 27 58c0 28 -20 44 -46 44c-32 0 -56 -18 -56 -43z" />
    <glyph glyph-name="five.sups" 
d="M170 414c-48 0 -91 10 -115 20l75 96h2l17 -92c1 -6 2 -8 11 -8h9c41 0 69 38 69 83c0 35 -24 58 -70 58c-20 0 -38 -8 -56 -18l-2 1l40 154c24 -2 61 -5 101 -5c20 0 44 2 61 3c18 1 29 2 43 14l10 9h2c-3 -11 -10 -35 -14 -45c-12 -32 -22 -40 -48 -43
c-17 -2 -47 -2 -74 -2c-28 0 -59 1 -82 5l-20 -70c30 18 62 30 104 30c65 0 102 -37 102 -84c0 -68 -68 -106 -165 -106z" />
    <glyph glyph-name="four.sups" 
d="M342 490h-66l-7 -34c-1 -5 -1 -6 4 -10l33 -25v-2h-179v2l47 25c4 2 6 5 7 11l7 33h-141v2l206 216h67l-41 -203h10c7 0 12 2 17 8l62 81h2zM79 505h112l31 148z" />
    <glyph glyph-name="nine.sups" 
d="M182 430c42 0 68 62 82 124c-25 -18 -49 -28 -83 -28c-47 0 -87 30 -87 74c0 58 48 113 150 113c80 0 124 -48 124 -110c0 -108 -73 -189 -187 -189c-44 0 -80 4 -115 15l60 84h2l35 -77c3 -5 4 -6 12 -6h7zM243 698c-33 0 -60 -51 -60 -95c0 -30 13 -52 43 -52
c15 0 24 3 40 14c6 32 9 63 9 84c0 38 -11 49 -32 49z" />
    <glyph glyph-name="one.sups" horiz-adv-x="266" 
d="M294 421v-2h-236v2l69 30c7 3 8 5 9 10l38 183c1 5 1 8 -4 9l-65 18v2l181 45l-53 -257c-1 -5 -1 -7 4 -10z" />
    <glyph glyph-name="parenleft.sups" horiz-adv-x="207" 
d="M173 491c0 -53 13 -98 45 -134l-1 -2c-92 31 -133 92 -133 164c0 17 2 34 5 51c18 93 80 167 209 196v-2c-68 -46 -100 -108 -117 -198c-5 -26 -8 -51 -8 -75z" />
    <glyph glyph-name="parenright.sups" horiz-adv-x="207" 
d="M172 630c0 53 -12 98 -44 134l1 2c92 -31 133 -92 133 -164c0 -17 -2 -34 -5 -51c-18 -93 -80 -167 -209 -196v2c68 46 101 108 117 198c5 26 7 51 7 75z" />
    <glyph glyph-name="seven.sups" 
d="M227 419h-124v2c73 89 162 172 216 221v2h-146c-18 0 -26 -1 -36 -10l-29 -24h-2l34 98h260v-2l-49 -49c-6 -7 -10 -10 -16 -19c-42 -64 -73 -137 -108 -219z" />
    <glyph glyph-name="six.sups" 
d="M200 414c-81 0 -125 48 -125 110c0 109 74 189 187 189c44 0 80 -4 115 -15l-61 -83h-2l-34 76c-2 5 -4 7 -12 7h-7c-43 0 -69 -63 -82 -125c23 17 48 28 83 28c47 0 88 -29 88 -73c0 -59 -49 -114 -150 -114zM217 577c-16 0 -25 -4 -40 -15c-6 -32 -9 -64 -9 -84
c0 -38 11 -48 32 -48c33 0 60 50 60 95c0 29 -13 52 -43 52z" />
    <glyph glyph-name="three.sups" 
d="M340 510c0 -69 -84 -96 -167 -96c-43 0 -84 7 -116 20l75 98h2l16 -94c1 -5 3 -8 11 -8h8c41 0 76 36 76 85c0 30 -21 51 -63 55v2c46 4 83 37 83 89c0 25 -15 37 -33 37h-7c-7 0 -10 -3 -14 -8l-64 -93h-2l-29 91c37 14 79 25 128 25c74 0 116 -26 116 -66
c0 -43 -40 -68 -101 -73v-2c50 -3 81 -28 81 -62z" />
    <glyph glyph-name="two.sups" 
d="M249 713c70 0 111 -27 111 -71c0 -72 -100 -122 -202 -151v-2h107c20 0 25 1 36 9l39 28h2l-40 -107h-250v2c32 24 94 77 101 83c54 45 111 94 111 157c0 25 -13 37 -34 37h-5c-7 0 -11 -3 -14 -8l-66 -97h-2l-28 95c40 16 83 25 134 25z" />
    <glyph glyph-name="zero.sups" 
d="M248 698c-51 0 -82 -164 -82 -220c0 -32 7 -49 29 -49c52 0 82 169 82 221c0 32 -7 48 -29 48zM252 713c70 0 116 -49 116 -111c0 -111 -67 -188 -177 -188c-70 0 -116 50 -116 112c0 111 68 187 177 187z" />
    <glyph glyph-name="i.trk" horiz-adv-x="299" 
d="M126 -8c-59 0 -84 43 -84 89c0 22 5 51 11 75l69 271c5 18 2 23 -8 28l-61 30v2l240 16l-87 -345c-7 -26 -11 -45 -11 -60c0 -13 5 -24 20 -24c13 0 26 7 38 22c16 20 31 47 42 85h2c-16 -101 -86 -189 -171 -189zM249 701c42 0 75 -26 75 -69c0 -49 -39 -81 -88 -81
c-41 0 -77 24 -77 68c0 50 42 82 90 82z" />
    </font>
</defs>
</svg>
