<?xml version="1.0" standalone="no"?>
<!DOCTYPE svg PUBLIC "-//W3C//DTD SVG 1.1//EN" "http://www.w3.org/Graphics/SVG/1.1/DTD/svg11.dtd" >
<svg xmlns="http://www.w3.org/2000/svg" xmlns:xlink="http://www.w3.org/1999/xlink" version="1.1">
<metadata>
Created by FontForge 20161116 at Tue Aug 25 13:23:24 2015
 By Jimmy Warting
Copyright (c) 2013 Schick Toikka. All rights reserved. Noe Display is a trademark of Schick Toikka. Unauthorised copying or modification of any of its data is illegal.
</metadata>
<defs>
<font id="NoeDisplay-Bold" horiz-adv-x="513" >
  <font-face 
    font-family="Noe Display Bold"
    font-weight="700"
    font-stretch="normal"
    units-per-em="1000"
    panose-1="2 10 8 0 9 4 0 0 0 2"
    ascent="750"
    descent="-250"
    x-height="495"
    cap-height="703"
    bbox="-226 -260 1199 993"
    underline-thickness="19"
    underline-position="-100"
    stemh="20"
    stemv="181"
    unicode-range="U+0020-FB02"
  />
<missing-glyph horiz-adv-x="600" 
d="M544 -250h-488v1000h488v-1000zM290 250l-215 464v-928zM310 250l215 -462v926zM300 228l-213 -460h427zM87 732l213 -460l213 460h-426z" />
    <glyph glyph-name="fi" unicode="fi" horiz-adv-x="632" 
d="M563 72c0 -12 1 -15 10 -24l49 -46v-2h-280v2l49 46c8 8 9 11 9 24v387c0 14 -6 16 -16 16h-144v-402c0 -12 2 -15 11 -23l57 -48v-2h-289v2l49 46c8 8 9 11 9 24v403h-53v20h53c7 146 100 218 250 218c60 0 118 -8 188 -27l-63 -148h-2l-75 143c-6 10 -10 13 -24 13h-15
c-64 0 -96 -55 -96 -152v-47h323v-423z" />
    <glyph glyph-name="fl" unicode="fl" horiz-adv-x="643" 
d="M576 72c0 -13 1 -15 9 -24l49 -46v-2h-279v2l48 46c9 8 9 11 9 24v581c0 10 -1 14 -9 19c-18 11 -43 20 -70 20c-55 0 -93 -37 -93 -145v-52h122v-20h-122v-397c0 -13 4 -17 15 -25l74 -51v-2h-310v2l49 46c8 8 9 11 9 24v403h-53v20h53c6 149 98 218 228 218
c44 0 81 -11 110 -26l161 42v-657z" />
    <glyph glyph-name="f_b" unicode="fb" horiz-adv-x="927" 
d="M397 -8v661c0 10 -1 14 -10 19c-19 11 -39 20 -67 20c-54 0 -80 -37 -80 -145v-52h122v-20h-122v-397c0 -13 4 -17 15 -25l74 -51v-2h-310v2l49 46c8 8 9 11 9 24v403h-53v20h53c6 149 96 218 218 218c44 0 77 -11 104 -26l161 42v-336c32 71 83 110 156 110
c116 0 188 -100 188 -251c0 -153 -90 -260 -224 -260c-58 0 -99 20 -124 53l-157 -53h-2zM635 423c-29 0 -54 -14 -75 -43v-323c16 -16 37 -22 58 -22c62 0 113 43 113 212c0 128 -39 176 -96 176z" />
    <glyph glyph-name="f_h" unicode="fh" horiz-adv-x="947" 
d="M889 292c0 -62 -2 -141 -3 -220c0 -13 1 -16 10 -24l49 -46v-2h-280v2l47 46c8 8 10 12 10 23c0 15 3 150 3 198c0 91 -15 151 -77 151c-33 0 -56 -19 -74 -45v-303c0 -13 1 -16 9 -24l50 -46v-2h-280v2l48 46c9 8 10 11 10 24v581c0 10 -1 14 -10 19
c-19 12 -41 20 -68 20c-55 0 -93 -37 -93 -145v-52h122v-20h-122v-397c0 -13 4 -17 15 -25l74 -51v-2h-310v2l49 46c8 8 9 11 9 24v403h-53v20h53c6 149 98 218 227 218c43 0 80 -10 109 -26l161 42v-343c24 72 77 117 159 117c101 0 156 -73 156 -211z" />
    <glyph glyph-name="f_j" unicode="fj" horiz-adv-x="613" 
d="M560 37c0 -165 -86 -261 -241 -264c-5 0 -19 1 -24 1v2c70 14 102 84 102 205v478c0 14 -3 16 -13 16h-144v-402c0 -12 2 -15 11 -23l57 -48v-2h-289v2l49 46c8 8 9 11 9 24v403h-53v20h53c7 146 99 218 248 218c61 0 118 -8 189 -27l-63 -148h-2l-76 143
c-5 10 -7 12 -21 12c-4 1 -11 1 -18 1c-62 0 -94 -55 -94 -152v-47h320v-458z" />
    <glyph glyph-name="f_k" unicode="fk" horiz-adv-x="915" 
d="M861 72c7 -13 14 -22 23 -31l41 -39v-2h-211l-111 236c-4 9 -11 12 -18 12c-3 0 -7 -1 -11 -4v-172c0 -13 1 -16 9 -24l50 -46v-2h-280v2l48 46c9 8 10 11 10 24v581c0 10 -1 13 -10 19c-18 12 -42 20 -68 20c-55 0 -93 -37 -93 -145v-52h122v-20h-122v-397
c0 -13 4 -17 15 -25l74 -51v-2h-310v2l49 46c8 8 9 11 9 24v403h-53v20h53c6 149 97 218 229 218c41 0 77 -10 107 -26l161 42v-474l161 121c8 6 8 12 3 20l-68 97v2h245v-2l-183 -139c-8 -6 -10 -9 -6 -18z" />
    <glyph glyph-name=".notdef" horiz-adv-x="600" 
d="M544 -250h-488v1000h488v-1000zM290 250l-215 464v-928zM310 250l215 -462v926zM300 228l-213 -460h427zM87 732l213 -460l213 460h-426z" />
    <glyph glyph-name="Eth" unicode="&#xd0;" horiz-adv-x="735" 
d="M16 350v18h90v245c0 15 -1 18 -10 26l-67 62v2h334c233 0 347 -131 347 -333c0 -228 -132 -370 -365 -370h-316v2l67 62c9 8 10 12 10 27v259h-90zM336 683h-32c-14 0 -17 -2 -17 -19v-296h106v-18h-106v-310c0 -19 2 -20 21 -20h21c128 0 175 116 175 333
c0 214 -45 330 -168 330z" />
    <glyph glyph-name="eth" unicode="&#xf0;" horiz-adv-x="562" 
d="M118 711v2c7 0 21 -1 23 -1c82 -5 151 -25 207 -58l120 66l9 -17l-111 -60c117 -77 173 -209 173 -357c0 -190 -85 -294 -265 -294c-143 0 -251 88 -251 255c0 156 102 248 211 248c54 0 94 -22 120 -60c-13 67 -35 122 -67 166l-126 -68l-8 16l123 66
c-40 49 -93 80 -158 96zM369 275c0 52 -4 100 -11 143c-18 21 -38 29 -63 29c-66 0 -91 -87 -91 -216c0 -145 28 -220 79 -220s86 64 86 264z" />
    <glyph glyph-name="Lslash" unicode="&#x141;" horiz-adv-x="590" 
d="M411 413l-130 -53v-320c0 -18 3 -20 17 -20h94c17 0 22 3 29 14l139 226h2v-260h-538v2l67 63c8 8 9 11 9 24v197l-73 -30l-7 18l80 32v308c0 13 -1 16 -9 24l-67 63v2h333v-2l-66 -63c-9 -8 -10 -11 -10 -24v-234l123 50z" />
    <glyph glyph-name="lslash" unicode="&#x142;" horiz-adv-x="337" 
d="M350 398l-103 -42v-284c0 -13 1 -16 10 -24l49 -46v-2h-280v2l49 46c8 8 9 11 9 24v217l-81 -33l-7 17l88 36v321c0 13 -1 17 -9 25l-49 46v2l221 26v-354l96 40z" />
    <glyph glyph-name="Scaron" unicode="&#x160;" horiz-adv-x="566" 
d="M282 849l163 67l1 -2l-163 -174h-2l-163 174l1 2zM544 218c0 -136 -111 -228 -280 -228c-60 0 -143 10 -205 28v239h2l132 -228c7 -12 10 -16 22 -18c15 -2 29 -2 42 -2c81 0 136 41 136 115c0 67 -47 97 -138 140l-31 15c-89 42 -186 100 -186 225
c0 127 102 209 260 209c52 0 122 -6 192 -23v-228h-2l-135 216c-7 10 -10 12 -20 14c-11 2 -20 2 -29 2c-70 0 -119 -40 -119 -110c0 -64 49 -93 127 -131l37 -18c106 -51 195 -99 195 -217z" />
    <glyph glyph-name="scaron" unicode="&#x161;" horiz-adv-x="456" 
d="M236 642l163 67l1 -2l-163 -174h-2l-163 174l1 2zM298 83c0 41 -31 58 -96 88l-68 32c-55 26 -97 71 -97 142c0 95 78 158 205 158c49 0 111 -7 176 -27l-56 -145h-2l-78 139c-6 10 -9 15 -23 15h-14c-44 0 -81 -23 -81 -70c0 -44 33 -65 92 -91l64 -28
c62 -27 111 -61 111 -138c0 -108 -91 -166 -224 -166c-57 0 -127 11 -184 31l55 155h2l80 -155c4 -8 10 -13 21 -13h23c58 0 94 30 94 73z" />
    <glyph glyph-name="Yacute" unicode="&#xdd;" horiz-adv-x="640" 
d="M415 267v-171c0 -15 1 -17 11 -26l73 -68v-2h-349v2l74 68c9 9 10 11 10 26v154c0 11 -1 17 -6 25l-165 316c-10 19 -17 30 -27 43l-50 67v2h336v-2l-60 -69c-8 -9 -10 -12 -4 -24l146 -294l115 235c7 15 6 18 -3 31l-86 121v2h250v-2l-113 -121c-15 -15 -18 -20 -27 -37
l-117 -238c-7 -14 -8 -20 -8 -38zM369 911h160v-2l-237 -165l-2 2z" />
    <glyph glyph-name="yacute" unicode="&#xfd;" horiz-adv-x="476" 
d="M408 329l-128 -310c-23 -54 -53 -114 -86 -166c-41 -64 -79 -89 -139 -89c-15 0 -31 3 -47 10l37 175h2l99 -98c5 -5 8 -8 12 -8c5 0 9 3 15 12c13 18 28 46 38 69l6 16l-186 472c-5 13 -10 23 -15 33l-27 48v2h259v-2l-40 -55c-5 -7 -7 -11 -2 -23l101 -280l81 197
c7 17 8 21 0 37l-61 124v2h171v-2l-65 -112c-12 -20 -17 -32 -25 -52zM279 703h160v-2l-237 -165l-2 2z" />
    <glyph glyph-name="Thorn" unicode="&#xde;" horiz-adv-x="652" 
d="M637 374c0 -152 -123 -222 -299 -222h-66v-57c0 -13 1 -16 10 -24l86 -69v-2h-353v2l67 63c8 8 9 11 9 24v525c0 13 -1 16 -9 24l-67 63v2h257v-116h91c139 0 274 -52 274 -213zM272 172h50c79 0 129 76 129 198c0 118 -46 197 -129 197h-50v-395z" />
    <glyph glyph-name="thorn" unicode="&#xfe;" horiz-adv-x="584" 
d="M372 503c111 0 189 -91 189 -245c0 -159 -87 -266 -211 -266c-73 0 -116 30 -133 81v-221c0 -13 1 -16 15 -26l74 -52v-2h-310v2l48 46c9 8 9 11 9 24v783c0 13 -1 16 -9 24l-48 50v2l221 19v-335c32 80 87 116 155 116zM292 420c-29 0 -56 -16 -75 -45v-295
c13 -18 36 -30 65 -30c51 0 105 55 105 200c0 130 -36 170 -95 170z" />
    <glyph glyph-name="Zcaron" unicode="&#x17d;" horiz-adv-x="627" 
d="M334 849l163 67l1 -2l-163 -174h-2l-163 174l1 2zM582 0h-571v2l396 681h-183c-17 0 -21 -1 -27 -12l-143 -236h-2v268h560v-2l-397 -681h193c17 0 21 1 27 12l145 235h2v-267z" />
    <glyph glyph-name="zcaron" unicode="&#x17e;" horiz-adv-x="475" 
d="M251 642l163 67l1 -2l-163 -174h-2l-163 174l1 2zM446 217h3l-12 -217h-424v2l267 474h-90c-18 0 -19 -1 -28 -15l-120 -175h-4v209h421v-2l-259 -474h95c18 0 19 1 28 15z" />
    <glyph glyph-name="onehalf" unicode="&#xbd;" horiz-adv-x="520" 
d="M460 361v-19h-400v19h400zM315 718v-257c0 -5 0 -7 6 -10l63 -30v-2h-236v2l63 30c6 3 6 5 6 10v183c0 5 -2 7 -6 8l-68 20v2zM263 294c81 0 125 -32 125 -83c0 -65 -62 -98 -179 -139v-2h112c21 0 24 1 34 9l33 28h2l-18 -107h-250v2c28 26 78 77 84 84
c38 43 83 87 83 132c0 42 -16 61 -42 61c-10 0 -17 0 -21 -8l-47 -98h-2l-48 96c37 16 84 25 134 25z" />
    <glyph glyph-name="onequarter" unicode="&#xbc;" horiz-adv-x="520" 
d="M460 342h-400v19h400v-19zM406 71h-74v-32c0 -6 1 -7 6 -11l39 -26v-2h-181v2l41 26c5 3 5 5 5 11v32h-141v2l161 216h70v-203h16c9 0 11 1 15 8l48 81h2zM132 86h110v148zM315 718v-257c0 -5 0 -7 6 -10l63 -30v-2h-236v2l63 30c6 3 6 5 6 10v183c0 5 -2 7 -6 8l-68 20
v2z" />
    <glyph glyph-name="onesuperior" unicode="&#xb9;" horiz-adv-x="266" 
d="M260 421v-2h-236v2l63 30c6 3 6 5 6 10v183c0 5 -1 7 -6 8l-68 20v2l172 44v-257c0 -5 0 -7 6 -10z" />
    <glyph glyph-name="threequarters" unicode="&#xbe;" horiz-adv-x="520" 
d="M406 71h-74v-32c0 -6 1 -7 6 -11l39 -26v-2h-181v2l41 26c5 3 5 5 5 11v32h-141v2l161 216h70v-203h16c9 0 11 1 15 8l48 81h2zM396 501c0 -48 -54 -87 -146 -87c-43 0 -91 6 -127 19l56 100h2l36 -95c2 -5 6 -8 13 -8h14c28 0 54 23 54 69c0 40 -28 63 -75 67v2
c40 7 65 35 65 76c0 36 -16 54 -39 54h-8c-8 0 -12 -2 -15 -8l-46 -93h-2l-48 91c34 14 80 25 131 25c84 0 125 -27 125 -72c0 -40 -36 -59 -87 -68v-2c58 -3 97 -29 97 -70zM132 86h110v148zM460 342h-400v19h400v-19z" />
    <glyph glyph-name="threesuperior" unicode="&#xb3;" horiz-adv-x="312" 
d="M291 501c0 -48 -54 -87 -146 -87c-43 0 -91 6 -127 19l56 100h2l36 -95c2 -5 6 -8 13 -8h14c28 0 54 23 54 69c0 40 -28 63 -75 67v2c40 7 65 35 65 76c0 36 -16 54 -39 54h-8c-8 0 -12 -2 -15 -8l-46 -93h-2l-48 91c34 14 80 25 131 25c84 0 125 -27 125 -72
c0 -40 -36 -59 -87 -68v-2c58 -3 97 -29 97 -70z" />
    <glyph glyph-name="twosuperior" unicode="&#xb2;" horiz-adv-x="312" 
d="M158 713c81 0 125 -32 125 -83c0 -65 -62 -98 -179 -139v-2h112c21 0 24 1 34 9l33 28h2l-18 -107h-250v2c28 26 78 77 84 84c38 43 83 87 83 132c0 42 -16 61 -42 61c-10 0 -17 0 -21 -8l-47 -98h-2l-48 96c37 16 84 25 134 25z" />
    <glyph glyph-name="brokenbar" unicode="&#xa6;" horiz-adv-x="220" 
d="M120 -250h-20v438h20v-438zM120 322h-20v428h20v-428z" />
    <glyph glyph-name="minus" unicode="&#x2212;" horiz-adv-x="540" 
d="M50 314v19h440v-19h-440z" />
    <glyph glyph-name="multiply" unicode="&#xd7;" horiz-adv-x="540" 
d="M122 161l-14 14l148 148l-148 149l14 14l148 -149l148 149l14 -14l-148 -149l148 -148l-14 -14l-148 148z" />
    <glyph glyph-name="space" unicode=" " horiz-adv-x="197" 
 />
    <glyph glyph-name="exclam" unicode="!" horiz-adv-x="310" 
d="M273 703l-118 -484h-2l-116 484h236zM74 68c0 47 37 79 80 79c45 0 81 -32 81 -79c0 -45 -36 -76 -81 -76c-43 0 -80 31 -80 76z" />
    <glyph glyph-name="quotedbl" unicode="&#x22;" horiz-adv-x="362" 
d="M149 612l-54 -156h-2l-54 156c-4 11 -7 23 -7 38c0 35 20 63 62 63s62 -28 62 -63c0 -15 -3 -26 -7 -38zM324 612l-55 -156h-2l-54 156c-4 11 -7 23 -7 38c0 35 20 63 62 63c43 0 62 -28 62 -63c0 -15 -3 -28 -6 -38z" />
    <glyph glyph-name="numbersign" unicode="#" horiz-adv-x="588" 
d="M491 215h-134l-54 -189l-18 6l52 183h-156l-54 -189l-18 6l52 183h-126v19h131l58 203h-126v19h132l56 197l20 -6l-55 -191h155l56 197l20 -6l-55 -191h126v-19h-132l-58 -203h128v-19zM245 437l-58 -203h155l58 203h-155z" />
    <glyph glyph-name="dollar" unicode="$" horiz-adv-x="569" 
d="M264 -10c-60 0 -143 10 -205 28v239h2l132 -228c7 -12 10 -15 22 -17c17 -3 29 -3 42 -3c8 0 15 0 23 1v242l-56 27c-89 43 -186 100 -186 225c0 122 94 202 242 208v81h19v-80c52 0 121 -6 191 -23v-228h-2l-135 216c-7 10 -10 14 -20 15s-20 1 -29 1h-5v-235l50 -24
c106 -51 195 -99 195 -217c0 -127 -96 -215 -245 -226v-96h-19v94h-16zM393 124c0 55 -32 85 -94 118v-229c57 12 94 50 94 111zM185 584c0 -55 36 -84 95 -115v223c-57 -8 -95 -47 -95 -108z" />
    <glyph glyph-name="percent" unicode="%" horiz-adv-x="682" 
d="M196 698c-36 0 -41 -41 -41 -134s5 -135 41 -135c37 0 43 42 43 134c0 94 -6 135 -43 135zM196 713c100 0 144 -59 144 -150c0 -89 -44 -149 -144 -149c-98 0 -142 60 -142 150c0 89 44 149 142 149zM481 275c-36 0 -41 -41 -41 -134s5 -135 41 -135c37 0 43 42 43 134
c0 94 -6 135 -43 135zM481 290c100 0 144 -59 144 -150c0 -89 -44 -149 -144 -149c-98 0 -142 60 -142 150c0 89 44 149 142 149zM600 701l-503 -711l-16 13l503 710z" />
    <glyph glyph-name="ampersand" unicode="&#x26;" horiz-adv-x="771" 
d="M225 -10c-117 0 -198 66 -198 163c0 96 81 146 170 180c-58 65 -89 119 -89 189c0 107 75 191 213 191c110 0 190 -50 190 -140c0 -84 -75 -132 -172 -160l154 -167c16 -17 30 -32 44 -45c20 26 48 61 54 89c3 13 -3 20 -16 37l-77 98v2h248v-2l-101 -103
c-13 -14 -21 -24 -32 -42c-17 -26 -40 -61 -64 -91c62 -58 93 -71 126 -71c34 0 69 23 85 73h2c2 -14 2 -22 2 -33c0 -103 -61 -168 -156 -168c-62 0 -110 27 -175 87c-54 -47 -120 -87 -208 -87zM358 154l-154 170c-33 -33 -47 -66 -47 -109c0 -98 80 -163 159 -163
c46 0 77 12 106 36c-20 19 -41 41 -64 66zM237 598c0 -54 23 -99 94 -176c42 39 65 84 65 147c0 88 -37 127 -81 127c-47 0 -78 -38 -78 -98z" />
    <glyph glyph-name="quotesingle" unicode="'" horiz-adv-x="188" 
d="M149 612l-54 -156h-2l-54 156c-4 13 -7 23 -7 38c0 35 20 63 62 63s62 -28 62 -63c0 -15 -3 -25 -7 -38z" />
    <glyph glyph-name="parenleft" unicode="(" horiz-adv-x="340" 
d="M54 292c0 175 60 295 144 374c36 34 84 59 131 72l1 -2c-35 -29 -62 -66 -82 -107c-52 -106 -70 -209 -70 -337s18 -231 70 -337c20 -41 47 -78 82 -107l-1 -2c-47 13 -95 38 -131 72c-84 79 -144 199 -144 374z" />
    <glyph glyph-name="parenright" unicode=")" horiz-adv-x="340" 
d="M286 292c0 -175 -58 -297 -143 -374c-37 -34 -85 -59 -132 -72l-1 2c35 29 62 66 82 107c52 106 70 209 70 337s-18 231 -70 337c-20 41 -47 78 -82 107l1 2c47 -13 95 -38 132 -72c85 -77 143 -199 143 -374z" />
    <glyph glyph-name="asterisk" unicode="*" horiz-adv-x="423" 
d="M397 520l-184 8l151 -102l-105 -76l-50 174l-50 -173l-105 76l151 101l-179 -7l40 124l140 -112l-59 170h130l-65 -170l144 111z" />
    <glyph glyph-name="plus" unicode="+" horiz-adv-x="540" 
d="M51 314v19h209v211h20v-211h210v-19h-210v-210h-20v210h-209z" />
    <glyph glyph-name="comma" unicode="," horiz-adv-x="243" 
d="M41 -132l-1 2c50 26 78 80 78 123c0 10 -4 13 -15 15c-37 6 -61 34 -61 71c0 41 30 73 74 73c46 0 81 -34 81 -94c0 -87 -68 -171 -156 -190z" />
    <glyph glyph-name="hyphen" unicode="-" horiz-adv-x="351" 
d="M46 237v20h260v-20h-260z" />
    <glyph glyph-name="period" unicode="." horiz-adv-x="243" 
d="M41 68c0 47 37 79 80 79c45 0 81 -32 81 -79c0 -45 -36 -76 -81 -76c-43 0 -80 31 -80 76z" />
    <glyph glyph-name="slash" unicode="/" horiz-adv-x="380" 
d="M348 732l-297 -886l-19 6l297 886z" />
    <glyph glyph-name="zero" unicode="0" horiz-adv-x="681" 
d="M340 9c73 0 118 83 118 343c0 261 -45 342 -118 342s-117 -82 -117 -342c0 -261 44 -343 117 -343zM340 713c186 0 300 -113 300 -362c0 -248 -114 -361 -300 -361c-185 0 -300 113 -300 362s115 361 300 361z" />
    <glyph glyph-name="one" unicode="1" horiz-adv-x="406" 
d="M297 721v-630c0 -12 0 -16 11 -24l79 -65v-2h-345v2l80 65c10 8 10 12 10 24v464c0 12 -1 17 -10 20l-93 34v2z" />
    <glyph glyph-name="two" unicode="2" horiz-adv-x="564" 
d="M517 523c0 -143 -138 -241 -318 -357l-44 -29h259c28 0 30 2 45 18l66 72h2l-35 -227h-471v2l125 150c39 47 68 86 92 121c69 101 97 167 97 256c0 111 -39 164 -98 164c-10 0 -19 -1 -26 -3c-8 -2 -11 -5 -15 -14l-85 -201h-2l-78 181c64 31 155 57 246 57
c159 0 240 -79 240 -190z" />
    <glyph glyph-name="three" unicode="3" horiz-adv-x="576" 
d="M544 196c0 -121 -102 -206 -306 -206c-68 0 -148 12 -210 34l80 200h2l74 -198c5 -12 11 -17 25 -17h22c75 0 131 71 131 176c0 100 -44 161 -160 176v2c97 21 139 86 139 184c0 89 -41 146 -99 146c-9 0 -14 0 -22 -1c-10 -2 -14 -6 -19 -17l-85 -200h-2l-78 181
c62 31 154 57 244 57c142 0 238 -65 238 -173c0 -99 -65 -147 -170 -169v-2c120 -12 196 -77 196 -173z" />
    <glyph glyph-name="four" unicode="4" horiz-adv-x="603" 
d="M292 703h144v-504h21c14 0 18 1 26 14l103 177h2l-19 -211h-133v-89c0 -11 2 -14 11 -23l71 -65v-2h-330v2l72 64c10 8 12 13 12 24v89h-268v1zM37 199h235v421z" />
    <glyph glyph-name="five" unicode="5" horiz-adv-x="574" 
d="M543 222c0 -159 -123 -232 -301 -232c-68 0 -151 12 -210 33l76 199h2l77 -196c5 -13 10 -17 24 -17h23c72 0 129 70 129 188c0 103 -53 172 -162 172c-39 0 -78 -11 -116 -33l-2 1l17 368l200 -8c23 -1 42 -2 65 -2c51 0 89 7 116 32l29 27h2l-11 -97
c-10 -83 -55 -101 -149 -101c-22 0 -44 0 -65 1l-174 7l-9 -201c71 46 132 68 214 68c140 0 225 -87 225 -209z" />
    <glyph glyph-name="six" unicode="6" horiz-adv-x="632" 
d="M398 442c117 0 201 -71 201 -208c0 -148 -104 -244 -267 -244c-191 0 -292 133 -292 357c0 237 111 366 329 366c60 0 132 -10 204 -35l-79 -173h-2l-95 175c-6 11 -9 14 -26 14h-13c-94 0 -134 -95 -136 -324c44 47 105 72 176 72zM314 396c-31 0 -62 -12 -92 -38v-11
c0 -251 43 -338 108 -338c58 0 103 71 103 196c0 108 -33 191 -119 191z" />
    <glyph glyph-name="seven" unicode="7" horiz-adv-x="525" 
d="M432 535c-50 -155 -86 -337 -120 -535h-210c98 216 236 449 321 565h-319c-16 0 -19 -2 -29 -14l-55 -65h-2l23 217h489v-2l-76 -118c-9 -14 -16 -30 -22 -48z" />
    <glyph glyph-name="eight" unicode="8" horiz-adv-x="597" 
d="M301 -10c-156 0 -263 71 -263 169c0 80 65 130 168 148l-6 4c-83 56 -144 109 -144 203c0 122 103 199 241 199c120 0 233 -59 233 -162c0 -78 -62 -122 -150 -137l39 -21c94 -51 151 -104 151 -199c0 -109 -95 -204 -269 -204zM327 240l-113 63
c-37 -29 -54 -76 -54 -140c0 -83 64 -153 151 -153c69 0 120 39 120 108c0 53 -35 84 -104 122zM187 595c0 -59 39 -96 114 -138l70 -39c29 30 42 67 42 122c0 88 -45 154 -120 154c-61 0 -106 -38 -106 -99z" />
    <glyph glyph-name="nine" unicode="9" horiz-adv-x="632" 
d="M241 261c-105 0 -209 70 -209 211c0 145 105 241 268 241c192 0 291 -127 291 -358c0 -222 -113 -365 -324 -365c-64 0 -134 10 -209 37l75 177h2l98 -181c7 -12 9 -13 26 -14h16c93 0 132 96 135 323c-44 -48 -101 -71 -169 -71zM321 305c31 0 61 16 89 41v9
c0 255 -41 339 -108 339c-58 0 -104 -71 -104 -200c0 -104 34 -189 123 -189z" />
    <glyph glyph-name="colon" unicode=":" horiz-adv-x="243" 
d="M41 68c0 47 37 79 80 79c45 0 81 -32 81 -79c0 -45 -36 -76 -81 -76c-43 0 -80 31 -80 76zM41 398c0 47 37 79 80 79c45 0 81 -32 81 -79c0 -45 -36 -76 -81 -76c-43 0 -80 31 -80 76z" />
    <glyph glyph-name="semicolon" unicode=";" horiz-adv-x="243" 
d="M41 -132l-1 2c50 26 78 80 78 123c0 10 -4 13 -15 15c-37 6 -61 34 -61 71c0 41 30 73 74 73c46 0 81 -34 81 -94c0 -87 -68 -171 -156 -190zM41 398c0 47 37 79 80 79c45 0 81 -32 81 -79c0 -45 -36 -76 -81 -76c-43 0 -80 31 -80 76z" />
    <glyph glyph-name="less" unicode="&#x3c;" horiz-adv-x="540" 
d="M58 324l390 179l7 -19l-353 -161l353 -161l-7 -19l-390 179v2z" />
    <glyph glyph-name="equal" unicode="=" horiz-adv-x="540" 
d="M50 404v19h440v-19h-440zM50 225v19h440v-19h-440z" />
    <glyph glyph-name="greater" unicode="&#x3e;" horiz-adv-x="540" 
d="M92 503l390 -179v-2l-390 -179l-7 19l352 161l-352 161z" />
    <glyph glyph-name="question" unicode="?" horiz-adv-x="458" 
d="M461 552c0 -60 -36 -104 -79 -139c-29 -23 -94 -68 -113 -84c-35 -29 -45 -49 -43 -97l-2 -1c-58 19 -88 56 -88 100c0 38 24 68 52 97c12 12 47 46 59 59c27 30 44 60 44 102c0 63 -40 104 -87 104h-13c-14 0 -23 -5 -28 -16l-86 -202h-2l-78 181c67 31 160 57 240 57
c145 0 224 -64 224 -161zM131 68c0 47 36 79 79 79c45 0 81 -32 81 -79c0 -45 -36 -76 -81 -76c-43 0 -79 31 -79 76z" />
    <glyph glyph-name="at" unicode="@" horiz-adv-x="1004" 
d="M954 323c0 -176 -111 -331 -267 -331c-84 0 -152 45 -152 135c0 11 1 23 3 35l-3 1c-35 -101 -90 -171 -164 -171c-61 0 -118 50 -118 154c0 184 121 357 260 357c46 0 80 -16 100 -45l156 46l2 -2l-81 -322c-8 -34 -13 -62 -13 -85c0 -48 19 -73 57 -73
c83 0 201 123 201 303c0 206 -158 358 -390 358c-263 0 -475 -208 -475 -491c0 -262 203 -399 422 -399c110 0 193 40 252 76l9 -16c-56 -36 -148 -79 -263 -79c-221 0 -440 133 -440 418c0 296 223 510 497 510c249 0 407 -166 407 -379zM534 191c7 17 67 232 73 257
c-8 11 -23 14 -34 14c-45 0 -80 -41 -101 -82c-34 -67 -61 -168 -61 -250c0 -42 16 -57 35 -57c28 0 61 53 88 118z" />
    <glyph glyph-name="A" unicode="A" horiz-adv-x="656" 
d="M147 245l-26 -80c-5 -16 -4 -18 8 -35l89 -128v-2h-237v2l96 128c15 19 17 23 23 42l139 426c6 19 6 22 -6 35l-59 68v2h235l187 -593c5 -16 12 -28 20 -41l42 -67v-2h-296v2l48 67c6 8 6 14 2 27l-47 149h-218zM258 589l-105 -324h206z" />
    <glyph glyph-name="B" unicode="B" horiz-adv-x="674" 
d="M15 703h358c155 0 252 -51 252 -161c0 -103 -82 -160 -207 -171v-2c134 -3 229 -63 229 -172c0 -126 -100 -197 -257 -197h-375v2l67 63c8 8 9 11 9 24v525c0 13 -1 16 -9 24l-67 63v2zM321 356h-49v-316c0 -19 3 -20 24 -20h28c92 0 129 62 129 171
c0 107 -38 165 -132 165zM272 663v-287h48c76 0 116 59 116 158c0 89 -39 149 -112 149h-34c-15 0 -18 -3 -18 -20z" />
    <glyph glyph-name="C" unicode="C" horiz-adv-x="633" 
d="M586 694v-246h-2l-152 230c-8 13 -14 16 -33 16h-14c-113 0 -152 -137 -152 -344c0 -211 42 -341 154 -341h11c20 0 25 3 33 14l153 236h2v-251c-71 -13 -144 -18 -213 -18c-239 0 -346 143 -346 360c0 220 120 363 342 363c72 0 145 -6 217 -19z" />
    <glyph glyph-name="D" unicode="D" horiz-adv-x="720" 
d="M15 0v2l67 63c8 8 9 11 9 24v525c0 13 -1 16 -9 24l-67 63v2h334c232 0 346 -132 346 -336c0 -232 -133 -367 -365 -367h-315zM293 20h21c130 0 176 116 176 333c0 214 -46 330 -169 330h-32c-14 0 -17 -2 -17 -19v-624c0 -19 3 -20 21 -20z" />
    <glyph glyph-name="E" unicode="E" horiz-adv-x="607" 
d="M551 703v-242h-2l-129 206c-8 13 -13 16 -28 16h-103c-14 0 -17 -2 -17 -20v-301h68c12 1 16 2 26 14l90 104h2v-255h-2l-90 104c-10 11 -14 13 -27 13h-67v-302c0 -18 3 -20 17 -20h115c17 0 23 2 30 14l124 212h2v-246h-545v2l67 63c8 8 9 11 9 24v525
c0 13 -1 16 -9 24l-67 63v2h536z" />
    <glyph glyph-name="F" unicode="F" horiz-adv-x="575" 
d="M551 703v-242h-2l-129 206c-8 13 -13 16 -28 16h-103c-14 0 -17 -2 -17 -19v-302h68c12 1 16 2 26 14l90 104h2v-255h-2l-90 104c-10 11 -14 13 -27 13h-67v-247c0 -12 1 -15 11 -23l92 -70v-2h-360v2l67 63c8 8 9 11 9 24v525c0 13 -1 16 -9 24l-67 63v2h536z" />
    <glyph glyph-name="G" unicode="G" horiz-adv-x="692" 
d="M604 690v-245h-2l-156 233c-8 13 -13 16 -31 16h-17c-123 0 -165 -132 -165 -332c0 -257 48 -348 145 -348c18 0 35 3 50 9c8 4 9 7 9 16v178c0 16 -1 18 -9 28l-56 64v2h311v-2l-56 -64c-8 -10 -9 -12 -9 -28v-227l-152 27c-40 -17 -76 -27 -131 -27
c-188 0 -309 135 -309 361c0 218 125 362 349 362c70 0 147 -5 229 -23z" />
    <glyph glyph-name="H" unicode="H" horiz-adv-x="776" 
d="M685 614v-525c0 -13 1 -16 9 -24l66 -63v-2h-332v2l66 63c8 8 10 11 10 24v261h-232v-261c0 -13 1 -16 10 -24l66 -63v-2h-333v2l67 63c8 8 9 11 9 24v525c0 13 -1 16 -9 24l-67 63v2h333v-2l-66 -63c-9 -8 -10 -11 -10 -24v-244h232v244c0 13 -1 16 -10 24l-66 63v2h332
v-2l-66 -63c-8 -8 -9 -11 -9 -24z" />
    <glyph glyph-name="I" unicode="I" horiz-adv-x="364" 
d="M272 89c0 -13 1 -16 10 -24l66 -63v-2h-333v2l67 63c8 8 9 11 9 24v525c0 13 -1 16 -9 24l-67 63v2h333v-2l-66 -63c-9 -8 -10 -11 -10 -24v-525z" />
    <glyph glyph-name="J" unicode="J" horiz-adv-x="335" 
d="M77 59v555c0 13 -1 16 -10 24l-66 63v2h333v-2l-66 -63c-9 -8 -10 -11 -10 -24v-496c0 -198 -108 -322 -315 -329l-1 2c94 48 135 142 135 268z" />
    <glyph glyph-name="K" unicode="K" horiz-adv-x="710" 
d="M272 614v-525c0 -13 1 -16 10 -24l66 -63v-2h-333v2l67 63c8 8 9 11 9 24v525c0 13 -1 16 -9 24l-67 63v2h333v-2l-66 -63c-9 -8 -10 -11 -10 -24zM639 95c8 -13 18 -26 30 -37l58 -56v-2h-239l-208 343l209 227c11 12 10 15 0 29l-76 102v2h310v-2l-166 -104
c-26 -16 -32 -20 -51 -40l-92 -97z" />
    <glyph glyph-name="L" unicode="L" horiz-adv-x="581" 
d="M91 89v525c0 13 -1 16 -9 24l-67 63v2h333v-2l-66 -63c-9 -8 -10 -11 -10 -24v-574c0 -18 3 -20 17 -20h94c17 0 22 3 29 14l139 226h2v-260h-538v2l67 63c8 8 9 11 9 24z" />
    <glyph glyph-name="M" unicode="M" horiz-adv-x="889" 
d="M797 89c0 -13 1 -16 10 -24l66 -63v-2h-333v2l67 63c8 8 9 11 9 24v402c0 17 1 40 3 60l-226 -559h-2l-234 514c-6 13 -14 30 -19 44v-382c0 -16 2 -18 13 -33l101 -133v-2h-249v2l101 133c11 15 13 17 13 33v396c0 17 -1 19 -9 29l-82 108v2h239l209 -456l184 456h215
v-2l-66 -73c-9 -9 -10 -11 -10 -25v-514z" />
    <glyph glyph-name="N" unicode="N" horiz-adv-x="707" 
d="M607 0h-122l-345 534v-366c0 -15 2 -18 12 -31l103 -135v-2h-249v2l100 134c11 14 13 17 13 32v378c0 16 -1 21 -9 32l-100 123v2h236l340 -528v360c0 15 -1 18 -12 32l-102 134v2h249v-2l-101 -134c-10 -14 -13 -17 -13 -32v-535z" />
    <glyph glyph-name="O" unicode="O" horiz-adv-x="732" 
d="M366 9c85 0 133 95 133 343s-48 342 -133 342s-133 -94 -133 -342s48 -343 133 -343zM366 713c211 0 339 -123 339 -362c0 -238 -128 -361 -339 -361s-339 123 -339 361c0 239 128 362 339 362z" />
    <glyph glyph-name="P" unicode="P" horiz-adv-x="651" 
d="M337 261h-65v-165c0 -13 1 -17 11 -25l94 -69v-2h-362v2l67 63c8 8 9 11 9 24v525c0 13 -1 16 -9 24l-67 63v2h347c140 0 274 -51 274 -212c0 -158 -123 -230 -299 -230zM272 664v-383h46c81 0 129 79 129 205c0 118 -44 197 -119 197h-38c-15 0 -18 -2 -18 -19z" />
    <glyph glyph-name="Q" unicode="Q" horiz-adv-x="732" 
d="M534 -236c-50 0 -93 10 -143 25l-201 60c-32 10 -54 14 -74 14c-12 0 -26 0 -34 -1l-1 2l159 143c-135 41 -213 157 -213 344c0 239 128 362 339 362s339 -123 339 -362c0 -238 -128 -361 -339 -361c-38 0 -73 4 -105 12l-35 -31l224 -60c44 -12 90 -20 134 -20
c32 0 71 9 103 25l44 22l2 -1l-45 -80c-33 -58 -82 -93 -154 -93zM366 9c85 0 133 95 133 343s-48 342 -133 342s-133 -94 -133 -342s48 -343 133 -343z" />
    <glyph glyph-name="R" unicode="R" horiz-adv-x="696" 
d="M324 328h-52v-240c0 -13 1 -16 10 -24l67 -62v-2h-334v2l67 63c8 8 9 11 9 24v525c0 13 -1 16 -9 24l-67 63v2h386c123 0 232 -49 232 -180c0 -107 -81 -173 -219 -183v-2l129 -38l91 -216c6 -15 13 -24 27 -38l43 -44v-2h-234l-124 316c-4 8 -7 12 -22 12zM272 664v-316
h52c70 0 116 47 116 164c0 121 -42 171 -112 171h-38c-15 0 -18 -2 -18 -19z" />
    <glyph glyph-name="S" unicode="S" horiz-adv-x="566" 
d="M544 218c0 -136 -111 -228 -280 -228c-60 0 -143 10 -205 28v239h2l132 -228c7 -12 10 -16 22 -18c15 -2 29 -2 42 -2c81 0 136 41 136 115c0 67 -47 97 -138 140l-31 15c-89 42 -186 100 -186 225c0 127 102 209 260 209c52 0 122 -6 192 -23v-228h-2l-135 216
c-7 10 -10 12 -20 14c-11 2 -20 2 -29 2c-70 0 -119 -40 -119 -110c0 -64 49 -93 127 -131l37 -18c106 -51 195 -99 195 -217z" />
    <glyph glyph-name="T" unicode="T" horiz-adv-x="634" 
d="M407 96c0 -15 1 -17 11 -26l74 -68v-2h-350v2l74 68c9 9 11 11 11 26v587h-57c-16 0 -19 -2 -26 -16l-123 -234h-2v270h596v-270h-2l-123 234c-7 14 -10 16 -26 16h-57v-587z" />
    <glyph glyph-name="U" unicode="U" horiz-adv-x="673" 
d="M349 -10c-187 0 -272 67 -272 249v374c0 13 -1 16 -10 24l-60 64v2h323v-2l-62 -64c-9 -8 -10 -11 -10 -24v-363c0 -163 55 -222 153 -222c94 0 152 73 152 226v281c0 15 -1 19 -13 33l-98 133v2h243v-2l-98 -133c-12 -14 -13 -18 -13 -33v-279
c0 -166 -62 -266 -235 -266z" />
    <glyph glyph-name="V" unicode="V" horiz-adv-x="631" 
d="M241 634c-6 -9 -7 -14 -3 -26l158 -497l132 425c5 16 3 20 -8 36l-89 129v2h236v-2l-95 -127c-14 -18 -17 -23 -23 -43l-165 -531h-140l-190 593c-5 16 -11 28 -20 41l-42 67v2h297v-2z" />
    <glyph glyph-name="W" unicode="W" horiz-adv-x="1016" 
d="M629 0l-123 400l-127 -400h-140l-185 593c-5 16 -12 28 -20 41l-42 67v2h296v-2l-48 -67c-6 -8 -6 -14 -2 -26l153 -496l104 325l-48 156c-5 16 -10 26 -17 38l-39 70v2h291v-2l-48 -67c-6 -9 -7 -14 -3 -26l150 -495l131 423c5 16 4 21 -7 36l-90 129v2h237v-2l-95 -127
c-14 -18 -18 -23 -24 -43l-164 -531h-140z" />
    <glyph glyph-name="X" unicode="X" horiz-adv-x="710" 
d="M621 110c10 -15 21 -26 30 -36l65 -72v-2h-340v2l47 61c8 10 9 14 1 26l-123 191l-97 -131c-11 -15 -12 -19 -4 -31l73 -116v-2h-276v2l140 110c21 17 33 26 53 53l99 133l-189 295c-10 15 -21 27 -30 36l-65 72v2h340v-2l-47 -61c-9 -10 -8 -14 -1 -26l112 -175l86 115
c12 15 11 19 4 31l-74 116v2h277v-2l-140 -110c-22 -17 -34 -26 -54 -53l-87 -117z" />
    <glyph glyph-name="Y" unicode="Y" horiz-adv-x="640" 
d="M415 267v-171c0 -15 1 -17 11 -26l73 -68v-2h-349v2l74 68c9 9 10 11 10 26v154c0 11 -1 17 -6 25l-165 316c-10 19 -17 30 -27 43l-50 67v2h336v-2l-60 -69c-8 -9 -10 -12 -4 -24l146 -294l115 235c7 15 6 18 -3 31l-86 121v2h250v-2l-113 -121c-15 -15 -18 -20 -27 -37
l-117 -238c-7 -14 -8 -20 -8 -38z" />
    <glyph glyph-name="Z" unicode="Z" horiz-adv-x="627" 
d="M582 0h-571v2l396 681h-183c-17 0 -21 -1 -27 -12l-143 -236h-2v268h560v-2l-397 -681h193c17 0 21 1 27 12l145 235h2v-267z" />
    <glyph glyph-name="bracketleft" unicode="[" horiz-adv-x="364" 
d="M188 641v-697c0 -12 1 -14 12 -17l154 -53v-2l-274 -12v865l274 -12v-2l-154 -53c-11 -3 -12 -5 -12 -17z" />
    <glyph glyph-name="backslash" unicode="\" horiz-adv-x="380" 
d="M329 -154l-297 886l19 6l297 -886z" />
    <glyph glyph-name="bracketright" unicode="]" horiz-adv-x="364" 
d="M177 -56v697c0 12 -1 14 -12 17l-155 53v2l274 12v-865l-274 12v2l155 53c11 3 12 5 12 17z" />
    <glyph glyph-name="asciicircum" unicode="^" horiz-adv-x="540" 
d="M449 323l-18 -9l-162 354l-162 -354l-18 9l179 390h2z" />
    <glyph glyph-name="underscore" unicode="_" horiz-adv-x="500" 
d="M495 -91h-490v19h490v-19z" />
    <glyph glyph-name="grave" unicode="`" horiz-adv-x="339" 
d="M50 703h160l79 -165l-1 -1l-238 164v2z" />
    <glyph glyph-name="a" unicode="a" 
d="M456 301c0 -10 -1 -33 -1 -36l-6 -142c-2 -39 7 -58 27 -58c13 0 22 6 28 18h2c0 -9 -2 -24 -8 -36c-16 -33 -50 -55 -98 -55c-57 0 -106 34 -109 97c-20 -58 -71 -97 -136 -97c-73 0 -136 49 -136 141c0 99 86 151 168 151c43 0 79 -8 106 -27l2 107v5
c0 69 -21 115 -73 115c-20 0 -21 -1 -27 -12l-81 -150h-2l-63 143c67 24 138 38 202 38c67 0 119 -12 155 -46c32 -30 50 -79 50 -156zM256 253c-52 0 -81 -45 -81 -103c0 -55 25 -85 59 -85c22 0 44 15 57 35v1l2 146c-12 4 -24 6 -37 6z" />
    <glyph glyph-name="b" unicode="b" horiz-adv-x="580" 
d="M213 729v-336c32 71 83 110 156 110c116 0 188 -100 188 -251c0 -153 -90 -260 -224 -260c-58 0 -99 21 -124 54l-158 -54h-2v638c0 13 -1 17 -9 25l-48 46v2zM288 423c-29 0 -54 -14 -75 -43v-323c16 -16 37 -22 58 -22c62 0 113 43 113 212c0 128 -39 176 -96 176z" />
    <glyph glyph-name="c" unicode="c" horiz-adv-x="471" 
d="M253 -8c-119 0 -233 80 -233 250c0 193 137 261 266 261c53 0 107 -9 170 -30l-64 -172h-2l-77 171c-4 10 -6 12 -18 12h-5c-61 0 -95 -65 -95 -194c0 -153 67 -204 135 -204c53 0 96 30 123 82h2c-17 -108 -87 -176 -202 -176z" />
    <glyph glyph-name="d" unicode="d" horiz-adv-x="597" 
d="M530 729v-654c0 -13 0 -16 9 -24l50 -49v-2h-222v94c-30 -69 -83 -102 -147 -102c-114 0 -197 90 -197 254c0 154 90 257 215 257c65 0 107 -31 129 -80v207c0 13 -1 17 -10 25l-48 46v2zM297 67c25 0 50 12 70 38v309c-14 18 -38 31 -65 31c-54 0 -106 -49 -106 -194
c0 -136 45 -184 101 -184z" />
    <glyph glyph-name="e" unicode="e" 
d="M490 270h-300v-2c0 -130 66 -183 143 -183c60 0 119 26 152 92h2c-26 -126 -104 -185 -221 -185c-126 0 -245 76 -245 252c0 185 118 259 251 259c106 0 219 -50 219 -211c0 -3 0 -10 -1 -22zM270 484c-50 0 -78 -51 -80 -196h147c1 13 1 26 1 30c0 131 -27 166 -68 166z
" />
    <glyph glyph-name="f" unicode="f" horiz-adv-x="343" 
d="M362 475h-122v-397c0 -13 1 -16 15 -25l74 -51v-2h-310v2l49 46c8 8 9 11 9 24v403h-53v20h53c0 159 72 218 193 218c57 0 107 -8 158 -22l-63 -150h-2l-70 141c-6 12 -8 13 -17 13c-24 0 -36 -23 -36 -93v-107h122v-20z" />
    <glyph glyph-name="g" unicode="g" horiz-adv-x="525" 
d="M34 337c0 114 92 166 215 166c62 0 109 -13 137 -28c9 -5 12 -5 21 5l104 110l2 -1v-150h-94c30 -24 51 -57 51 -108c0 -110 -94 -156 -218 -156c-29 0 -56 2 -81 8c-21 -8 -31 -22 -31 -37c0 -27 34 -44 102 -44h93c115 0 179 -43 179 -133c0 -123 -122 -205 -282 -205
c-99 0 -205 32 -205 101c0 40 33 78 116 90c-70 15 -109 57 -109 109c0 59 49 104 126 122c-75 19 -126 66 -126 151zM187 -50c-13 1 -24 2 -35 4c-25 -15 -40 -34 -40 -64c0 -67 76 -105 154 -105c73 0 147 31 147 96c0 39 -22 62 -96 65zM188 340c0 -111 23 -148 64 -148
s64 37 64 147c0 109 -22 147 -64 147s-64 -38 -64 -146z" />
    <glyph glyph-name="h" unicode="h" horiz-adv-x="603" 
d="M545 292c0 -62 -2 -141 -3 -220c0 -13 1 -16 10 -24l49 -46v-2h-280v2l47 46c9 8 10 12 10 23c0 15 3 150 3 198c0 91 -15 151 -76 151c-34 0 -57 -19 -75 -45v-303c0 -13 1 -16 10 -24l49 -46v-2h-280v2l49 46c8 8 9 11 9 24v558c0 13 -1 17 -9 25l-49 46v2l221 26v-343
c25 72 77 117 159 117c101 0 156 -73 156 -211z" />
    <glyph glyph-name="i" unicode="i" horiz-adv-x="310" 
d="M157 550c-43 0 -80 29 -80 74c0 48 37 78 80 78c45 0 81 -30 81 -78c0 -45 -36 -74 -81 -74zM20 495h222v-423c0 -13 0 -16 9 -24l49 -46v-2h-280v2l49 46c9 8 9 11 9 24v346c0 13 -1 16 -9 25l-49 50v2z" />
    <glyph glyph-name="j" unicode="j" horiz-adv-x="289" 
d="M237 37c0 -168 -90 -263 -250 -264c-5 0 -10 0 -15 1v2c69 14 101 84 101 205v437c0 13 -1 16 -9 25l-49 50v2h222v-458zM71 624c0 48 38 78 81 78c45 0 81 -30 81 -78c0 -45 -36 -74 -81 -74c-43 0 -81 29 -81 74z" />
    <glyph glyph-name="k" unicode="k" horiz-adv-x="571" 
d="M383 336l134 -264c7 -13 14 -22 23 -31l42 -39v-2h-212l-111 236c-4 9 -11 12 -18 12c-3 0 -7 -1 -11 -4v-172c0 -13 1 -16 10 -24l49 -46v-2h-280v2l49 46c8 8 9 11 9 24v558c0 13 -1 17 -9 25l-49 46v2l221 26v-474l162 121c8 6 8 12 2 20l-68 97v2h245v-2l-183 -139
c-8 -6 -9 -9 -5 -18z" />
    <glyph glyph-name="l" unicode="l" horiz-adv-x="298" 
d="M230 729v-657c0 -13 1 -16 10 -24l49 -46v-2h-280v2l49 46c8 8 9 11 9 24v558c0 13 -1 17 -9 25l-49 46v2z" />
    <glyph glyph-name="m" unicode="m" horiz-adv-x="926" 
d="M868 292c0 -66 -2 -141 -3 -220c0 -13 1 -16 10 -24l49 -46v-2h-280v2l47 46c8 8 10 12 10 23c0 16 3 150 3 198c0 90 -14 151 -77 151c-32 0 -59 -17 -79 -43c6 -25 9 -53 9 -85c0 -62 -2 -141 -3 -220c0 -13 1 -16 9 -24l50 -46v-2h-281v2l48 46c8 8 9 12 9 23
c0 15 3 150 3 198c0 91 -14 151 -76 151c-32 0 -56 -18 -74 -44v-304c0 -13 0 -16 9 -24l49 -46v-2h-280v2l49 46c9 8 9 11 9 24v346c0 13 -1 16 -9 25l-49 50v2h222v-106c25 70 78 114 159 114c74 0 124 -41 145 -118c23 66 83 118 167 118c99 0 155 -73 155 -211z" />
    <glyph glyph-name="n" unicode="n" horiz-adv-x="615" 
d="M557 292c0 -62 -2 -141 -3 -220c0 -13 1 -16 9 -24l50 -46v-2h-281v2l48 46c8 8 9 12 9 23c0 15 3 150 3 198c0 91 -14 151 -76 151c-32 0 -56 -18 -74 -44v-304c0 -13 0 -16 9 -24l49 -46v-2h-280v2l49 46c9 8 9 11 9 24v346c0 13 -1 16 -9 25l-49 50v2h222v-106
c25 70 78 114 159 114c100 0 156 -73 156 -211z" />
    <glyph glyph-name="o" unicode="o" horiz-adv-x="571" 
d="M285 484c-50 0 -81 -42 -81 -236c0 -193 31 -238 81 -238s81 43 81 237c0 193 -31 237 -81 237zM285 -8c-158 0 -263 86 -263 256c0 168 105 255 263 255s264 -86 264 -256c0 -168 -106 -255 -264 -255z" />
    <glyph glyph-name="p" unicode="p" horiz-adv-x="596" 
d="M66 -156v574c0 13 -1 16 -9 25l-49 50v2h221v-106c34 79 88 114 155 114c111 0 189 -94 189 -245c0 -161 -91 -266 -212 -266c-72 0 -114 29 -132 76v-218c0 -13 1 -16 15 -25l74 -51v-2h-310v2l49 46c8 8 9 11 9 24zM304 423c-31 0 -57 -20 -75 -47v-301
c14 -15 38 -25 65 -25c51 0 106 54 106 200c0 122 -38 173 -96 173z" />
    <glyph glyph-name="q" unicode="q" horiz-adv-x="580" 
d="M367 -150v250c-30 -70 -81 -108 -153 -108c-101 0 -191 95 -191 252c0 166 98 259 216 259c65 0 103 -26 129 -61l162 61v-659c0 -13 1 -16 9 -24l46 -46v-2h-307v2l74 51c14 10 15 12 15 25zM297 71c24 0 49 14 70 41v320c-20 14 -38 21 -61 21
c-53 0 -110 -46 -110 -200c0 -119 37 -182 101 -182z" />
    <glyph glyph-name="r" unicode="r" horiz-adv-x="428" 
d="M439 470l-55 -157h-2l-79 94c-5 6 -11 10 -18 5c-17 -12 -28 -30 -43 -58v-270c0 -11 1 -16 15 -25l98 -57v-2h-335v2l49 46c9 8 9 11 9 24v346c0 13 -1 16 -9 25l-49 50v2h222v-128c17 71 59 136 129 136c30 0 53 -13 68 -33z" />
    <glyph glyph-name="s" unicode="s" horiz-adv-x="456" 
d="M298 83c0 41 -31 58 -96 88l-68 32c-55 26 -97 71 -97 142c0 95 78 158 205 158c49 0 111 -7 176 -27l-56 -145h-2l-78 139c-6 10 -9 15 -23 15h-14c-44 0 -81 -23 -81 -70c0 -44 33 -65 92 -91l64 -28c62 -27 111 -61 111 -138c0 -108 -91 -166 -224 -166
c-57 0 -127 11 -184 31l55 155h2l80 -155c4 -8 10 -13 21 -13h23c58 0 94 30 94 73z" />
    <glyph glyph-name="t" unicode="t" horiz-adv-x="338" 
d="M346 495v-20h-123v-334c0 -45 20 -71 53 -71c26 0 47 17 58 37l2 -1c-10 -56 -51 -114 -146 -114c-87 0 -130 47 -130 137v346h-55v20h45c16 0 21 0 31 11l140 157h2v-168h123z" />
    <glyph glyph-name="u" unicode="u" horiz-adv-x="595" 
d="M527 495v-419c0 -13 0 -17 9 -25l50 -49v-2h-223v107c-25 -68 -79 -115 -153 -115c-99 0 -152 72 -152 208c0 66 1 138 2 219c0 13 -1 16 -9 24l-49 50v2h221c0 -3 -1 -259 -1 -272c0 -89 13 -149 69 -149c32 0 55 20 72 45v299c0 13 -1 16 -9 25l-49 50v2h222z" />
    <glyph glyph-name="v" unicode="v" horiz-adv-x="471" 
d="M400 331l-112 -331h-114l-131 380c-8 23 -12 35 -21 53l-31 60v2h250v-2l-34 -57c-6 -10 -7 -13 -3 -25l100 -302l77 225c7 19 4 23 -3 38l-59 121v2h172v-2l-68 -117c-12 -20 -17 -27 -23 -45z" />
    <glyph glyph-name="w" unicode="w" horiz-adv-x="773" 
d="M793 493l-68 -117c-12 -20 -16 -27 -22 -45l-114 -331h-112l-96 278l-96 -278h-113l-129 380c-8 23 -12 36 -21 53l-31 60v2h249v-2l-34 -57c-6 -10 -7 -13 -3 -25l99 -303l69 200l-24 72c-8 24 -12 35 -21 53l-31 60v2h249v-2l-34 -57c-6 -10 -7 -13 -3 -25l100 -302
l76 225c7 19 5 22 -3 38l-58 121v2h171v-2z" />
    <glyph glyph-name="x" unicode="x" horiz-adv-x="505" 
d="M308 297l144 -215c10 -14 18 -23 28 -35l39 -45v-2h-273v2l38 46c8 10 6 14 -1 25l-77 114l-62 -77c-11 -14 -12 -16 -3 -30l51 -78v-2h-201v2l106 89c16 13 28 25 42 43l56 69l-139 208c-8 12 -19 26 -30 38l-37 44v2h272v-2l-38 -47c-8 -9 -7 -13 1 -24l73 -109l57 72
c11 14 12 16 3 29l-51 79v2h202v-2l-107 -89c-16 -13 -27 -25 -42 -43z" />
    <glyph glyph-name="y" unicode="y" horiz-adv-x="476" 
d="M408 329l-128 -310c-23 -54 -53 -114 -86 -166c-41 -64 -79 -89 -139 -89c-15 0 -31 3 -47 10l37 175h2l99 -98c5 -5 8 -8 12 -8c5 0 9 3 15 12c13 18 28 46 38 69l6 16l-186 472c-5 13 -10 23 -15 33l-27 48v2h259v-2l-40 -55c-5 -7 -7 -11 -2 -23l101 -280l81 197
c7 17 8 21 0 37l-61 124v2h171v-2l-65 -112c-12 -20 -17 -32 -25 -52z" />
    <glyph glyph-name="z" unicode="z" horiz-adv-x="475" 
d="M446 217h3l-12 -217h-424v2l267 474h-90c-18 0 -19 -1 -28 -15l-120 -175h-4v209h421v-2l-259 -474h95c18 0 19 1 28 15z" />
    <glyph glyph-name="braceleft" unicode="{" horiz-adv-x="353" 
d="M228 403c4 -57 -35 -97 -100 -110v-1c65 -13 104 -52 100 -109l-13 -175c-4 -60 26 -143 128 -141v-2c-20 -4 -42 -7 -64 -7c-91 0 -188 54 -179 176l14 182c3 39 -32 70 -79 76v1c47 6 82 37 79 76l-14 182c-9 122 88 176 179 176c22 0 44 -3 64 -7v-2
c-102 3 -132 -81 -128 -140z" />
    <glyph glyph-name="bar" unicode="|" horiz-adv-x="220" 
d="M120 -250h-20v1000h20v-1000z" />
    <glyph glyph-name="braceright" unicode="}" horiz-adv-x="353" 
d="M252 551l-13 -182c-2 -39 32 -70 79 -76v-1c-47 -6 -82 -37 -79 -76l13 -182c9 -122 -87 -176 -178 -176c-22 0 -44 3 -64 7v2c101 -2 133 81 128 141l-14 175c-5 57 36 96 101 109v1c-65 13 -106 53 -101 110l14 175c5 59 -27 143 -128 140v2c20 4 42 7 64 7
c91 0 187 -54 178 -176z" />
    <glyph glyph-name="asciitilde" unicode="~" horiz-adv-x="503" 
d="M365 276c-90 0 -145 66 -227 66c-43 0 -76 -24 -97 -58l-16 10c16 27 50 67 113 67c90 0 145 -66 227 -66c43 0 75 25 96 59l17 -11c-16 -27 -50 -67 -113 -67z" />
    <glyph glyph-name="Adieresis" unicode="&#xc4;" horiz-adv-x="656" 
d="M147 245l-26 -80c-5 -16 -4 -18 8 -35l89 -128v-2h-237v2l96 128c15 19 17 23 23 42l139 426c6 19 6 22 -6 35l-59 68v2h235l187 -593c5 -16 12 -28 20 -41l42 -67v-2h-296v2l48 67c6 8 6 14 2 27l-47 149h-218zM258 589l-105 -324h206zM145 829c0 39 31 67 69 67
c37 0 68 -28 68 -67c0 -38 -31 -66 -68 -66c-38 0 -69 28 -69 66zM344 829c0 39 31 67 68 67c38 0 69 -28 69 -67c0 -38 -31 -66 -69 -66c-37 0 -68 28 -68 66z" />
    <glyph glyph-name="Aring" unicode="&#xc5;" horiz-adv-x="656" 
d="M147 245l-26 -80c-5 -16 -4 -18 8 -35l89 -128v-2h-237v2l96 128c15 19 17 23 23 42l139 426c6 19 6 22 -6 35l-59 68v2h235l187 -593c5 -16 12 -28 20 -41l42 -67v-2h-296v2l48 67c6 8 6 14 2 27l-47 149h-218zM258 589l-105 -324h206zM409 839c0 -53 -41 -92 -95 -92
c-49 0 -95 41 -95 92c0 53 40 94 94 94c55 0 96 -38 96 -94zM388 840c0 43 -31 73 -75 73c-42 0 -73 -31 -73 -73c0 -41 35 -73 74 -73c43 0 74 31 74 73z" />
    <glyph glyph-name="Ccedilla" unicode="&#xc7;" horiz-adv-x="633" 
d="M487 -142c0 -54 -44 -94 -117 -94c-64 0 -123 36 -127 95l2 1c13 -43 57 -58 84 -58c34 0 64 19 64 56s-30 56 -65 56c-12 0 -25 -2 -38 -7l-1 2l68 82c-228 6 -330 147 -330 359c0 220 120 363 342 363c72 0 145 -6 217 -19v-246h-2l-152 230c-8 13 -14 16 -33 16h-14
c-113 0 -152 -137 -152 -344c0 -211 42 -341 154 -341h11c20 0 25 3 33 14l153 236h2v-251c-71 -13 -144 -18 -213 -18c-3 0 -6 1 -9 1l-7 -51c74 14 130 -28 130 -82z" />
    <glyph glyph-name="Eacute" unicode="&#xc9;" horiz-adv-x="607" 
d="M328 911h160v-2l-237 -165l-2 2zM551 703v-242h-2l-129 206c-8 13 -13 16 -28 16h-103c-14 0 -17 -2 -17 -20v-301h68c12 1 16 2 26 14l90 104h2v-255h-2l-90 104c-10 11 -14 13 -27 13h-67v-302c0 -18 3 -20 17 -20h115c17 0 23 2 30 14l124 212h2v-246h-545v2l67 63
c8 8 9 11 9 24v525c0 13 -1 16 -9 24l-67 63v2h536z" />
    <glyph glyph-name="Ntilde" unicode="&#xd1;" horiz-adv-x="707" 
d="M607 0h-122l-345 534v-366c0 -15 2 -18 12 -31l103 -135v-2h-249v2l100 134c11 14 13 17 13 32v378c0 16 -1 21 -9 32l-100 123v2h236l340 -528v360c0 15 -1 18 -12 32l-102 134v2h249v-2l-101 -134c-10 -14 -13 -17 -13 -32v-535zM419 770c-52 0 -96 49 -141 49
c-28 0 -52 -12 -64 -49h-2v24c0 62 36 102 84 102c52 0 96 -49 141 -49c27 0 52 12 65 49h2c0 -8 0 -17 -1 -25c-3 -62 -36 -101 -84 -101z" />
    <glyph glyph-name="Odieresis" unicode="&#xd6;" horiz-adv-x="732" 
d="M197 829c0 39 31 67 69 67c37 0 68 -28 68 -67c0 -38 -31 -66 -68 -66c-38 0 -69 28 -69 66zM396 829c0 39 31 67 68 67c38 0 69 -28 69 -67c0 -38 -31 -66 -69 -66c-37 0 -68 28 -68 66zM366 9c85 0 133 95 133 343s-48 342 -133 342s-133 -94 -133 -342
s48 -343 133 -343zM366 713c211 0 339 -123 339 -362c0 -238 -128 -361 -339 -361s-339 123 -339 361c0 239 128 362 339 362z" />
    <glyph glyph-name="Udieresis" unicode="&#xdc;" horiz-adv-x="673" 
d="M208 829c0 39 31 67 69 67c37 0 68 -28 68 -67c0 -38 -31 -66 -68 -66c-38 0 -69 28 -69 66zM407 829c0 39 31 67 68 67c38 0 69 -28 69 -67c0 -38 -31 -66 -69 -66c-37 0 -68 28 -68 66zM349 -10c-187 0 -272 67 -272 249v374c0 13 -1 16 -10 24l-60 64v2h323v-2
l-62 -64c-9 -8 -10 -11 -10 -24v-363c0 -163 55 -222 153 -222c94 0 152 73 152 226v281c0 15 -1 19 -13 33l-98 133v2h243v-2l-98 -133c-12 -14 -13 -18 -13 -33v-279c0 -166 -62 -266 -235 -266z" />
    <glyph glyph-name="aacute" unicode="&#xe1;" 
d="M456 301c0 -10 -1 -33 -1 -36l-6 -142c-2 -39 7 -58 27 -58c13 0 22 6 28 18h2c0 -9 -2 -24 -8 -36c-16 -33 -50 -55 -98 -55c-57 0 -106 34 -109 97c-20 -58 -71 -97 -136 -97c-73 0 -136 49 -136 141c0 99 86 151 168 151c43 0 79 -8 106 -27l2 107v5
c0 69 -21 115 -73 115c-20 0 -21 -1 -27 -12l-81 -150h-2l-63 143c67 24 138 38 202 38c67 0 119 -12 155 -46c32 -30 50 -79 50 -156zM256 253c-52 0 -81 -45 -81 -103c0 -55 25 -85 59 -85c22 0 44 15 57 35v1l2 146c-12 4 -24 6 -37 6zM264 703h160v-2l-237 -165l-2 2z
" />
    <glyph glyph-name="agrave" unicode="&#xe0;" 
d="M456 301c0 -10 -1 -33 -1 -36l-6 -142c-2 -39 7 -58 27 -58c13 0 22 6 28 18h2c0 -9 -2 -24 -8 -36c-16 -33 -50 -55 -98 -55c-57 0 -106 34 -109 97c-20 -58 -71 -97 -136 -97c-73 0 -136 49 -136 141c0 99 86 151 168 151c43 0 79 -8 106 -27l2 107v5
c0 69 -21 115 -73 115c-20 0 -21 -1 -27 -12l-81 -150h-2l-63 143c67 24 138 38 202 38c67 0 119 -12 155 -46c32 -30 50 -79 50 -156zM256 253c-52 0 -81 -45 -81 -103c0 -55 25 -85 59 -85c22 0 44 15 57 35v1l2 146c-12 4 -24 6 -37 6zM81 703h160l79 -165l-1 -1
l-238 164v2z" />
    <glyph glyph-name="acircumflex" unicode="&#xe2;" 
d="M456 301c0 -10 -1 -33 -1 -36l-6 -142c-2 -39 7 -58 27 -58c13 0 22 6 28 18h2c0 -9 -2 -24 -8 -36c-16 -33 -50 -55 -98 -55c-57 0 -106 34 -109 97c-20 -58 -71 -97 -136 -97c-73 0 -136 49 -136 141c0 99 86 151 168 151c43 0 79 -8 106 -27l2 107v5
c0 69 -21 115 -73 115c-20 0 -21 -1 -27 -12l-81 -150h-2l-63 143c67 24 138 38 202 38c67 0 119 -12 155 -46c32 -30 50 -79 50 -156zM256 253c-52 0 -81 -45 -81 -103c0 -55 25 -85 59 -85c22 0 44 15 57 35v1l2 146c-12 4 -24 6 -37 6zM415 536l-1 -1l-163 67l-163 -67
l-1 1l163 175h2z" />
    <glyph glyph-name="adieresis" unicode="&#xe4;" 
d="M456 301c0 -10 -1 -33 -1 -36l-6 -142c-2 -39 7 -58 27 -58c13 0 22 6 28 18h2c0 -9 -2 -24 -8 -36c-16 -33 -50 -55 -98 -55c-57 0 -106 34 -109 97c-20 -58 -71 -97 -136 -97c-73 0 -136 49 -136 141c0 99 86 151 168 151c43 0 79 -8 106 -27l2 107v5
c0 69 -21 115 -73 115c-20 0 -21 -1 -27 -12l-81 -150h-2l-63 143c67 24 138 38 202 38c67 0 119 -12 155 -46c32 -30 50 -79 50 -156zM256 253c-52 0 -81 -45 -81 -103c0 -55 25 -85 59 -85c22 0 44 15 57 35v1l2 146c-12 4 -24 6 -37 6zM83 621c0 39 31 67 69 67
c37 0 68 -28 68 -67c0 -38 -31 -66 -68 -66c-38 0 -69 28 -69 66zM282 621c0 39 31 67 68 67c38 0 69 -28 69 -67c0 -38 -31 -66 -69 -66c-37 0 -68 28 -68 66z" />
    <glyph glyph-name="atilde" unicode="&#xe3;" 
d="M456 301c0 -10 -1 -33 -1 -36l-6 -142c-2 -39 7 -58 27 -58c13 0 22 6 28 18h2c0 -9 -2 -24 -8 -36c-16 -33 -50 -55 -98 -55c-57 0 -106 34 -109 97c-20 -58 -71 -97 -136 -97c-73 0 -136 49 -136 141c0 99 86 151 168 151c43 0 79 -8 106 -27l2 107v5
c0 69 -21 115 -73 115c-20 0 -21 -1 -27 -12l-81 -150h-2l-63 143c67 24 138 38 202 38c67 0 119 -12 155 -46c32 -30 50 -79 50 -156zM256 253c-52 0 -81 -45 -81 -103c0 -55 25 -85 59 -85c22 0 44 15 57 35v1l2 146c-12 4 -24 6 -37 6zM315 562c-52 0 -96 49 -141 49
c-28 0 -52 -12 -64 -49h-2v24c0 62 36 102 84 102c52 0 96 -49 141 -49c27 0 52 12 65 49h2c0 -8 0 -17 -1 -25c-3 -62 -36 -101 -84 -101z" />
    <glyph glyph-name="aring" unicode="&#xe5;" 
d="M456 301c0 -10 -1 -33 -1 -36l-6 -142c-2 -39 7 -58 27 -58c13 0 22 6 28 18h2c0 -9 -2 -24 -8 -36c-16 -33 -50 -55 -98 -55c-57 0 -106 34 -109 97c-20 -58 -71 -97 -136 -97c-73 0 -136 49 -136 141c0 99 86 151 168 151c43 0 79 -8 106 -27l2 107v5
c0 69 -21 115 -73 115c-20 0 -21 -1 -27 -12l-81 -150h-2l-63 143c67 24 138 38 202 38c67 0 119 -12 155 -46c32 -30 50 -79 50 -156zM256 253c-52 0 -81 -45 -81 -103c0 -55 25 -85 59 -85c22 0 44 15 57 35v1l2 146c-12 4 -24 6 -37 6zM347 631c0 -53 -41 -92 -95 -92
c-49 0 -95 41 -95 92c0 53 40 94 94 94c55 0 96 -38 96 -94zM326 632c0 43 -31 73 -75 73c-42 0 -73 -31 -73 -73c0 -41 35 -73 74 -73c43 0 74 31 74 73z" />
    <glyph glyph-name="ccedilla" unicode="&#xe7;" horiz-adv-x="471" 
d="M368 -142c0 -54 -44 -94 -117 -94c-64 0 -123 36 -127 95l2 1c13 -43 57 -58 84 -58c34 0 64 19 64 56s-30 56 -65 56c-12 0 -25 -2 -38 -7l-1 2l70 83c-114 6 -220 86 -220 250c0 193 137 261 266 261c53 0 107 -9 170 -30l-64 -172h-2l-77 171c-4 10 -6 12 -18 12h-5
c-61 0 -95 -65 -95 -194c0 -153 67 -204 135 -204c53 0 96 30 123 82h2c-17 -108 -87 -176 -202 -176h-8l-7 -52c74 14 130 -28 130 -82z" />
    <glyph glyph-name="eacute" unicode="&#xe9;" 
d="M285 703h160v-2l-237 -165l-2 2zM490 270h-300v-2c0 -130 66 -183 143 -183c60 0 119 26 152 92h2c-26 -126 -104 -185 -221 -185c-126 0 -245 76 -245 252c0 185 118 259 251 259c106 0 219 -50 219 -211c0 -3 0 -10 -1 -22zM270 484c-50 0 -78 -51 -80 -196h147
c1 13 1 26 1 30c0 131 -27 166 -68 166z" />
    <glyph glyph-name="egrave" unicode="&#xe8;" 
d="M490 270h-300v-2c0 -130 66 -183 143 -183c60 0 119 26 152 92h2c-26 -126 -104 -185 -221 -185c-126 0 -245 76 -245 252c0 185 118 259 251 259c106 0 219 -50 219 -211c0 -3 0 -10 -1 -22zM270 484c-50 0 -78 -51 -80 -196h147c1 13 1 26 1 30c0 131 -27 166 -68 166z
M102 703h160l79 -165l-1 -1l-238 164v2z" />
    <glyph glyph-name="ecircumflex" unicode="&#xea;" 
d="M436 536l-1 -1l-163 67l-163 -67l-1 1l163 175h2zM490 270h-300v-2c0 -130 66 -183 143 -183c60 0 119 26 152 92h2c-26 -126 -104 -185 -221 -185c-126 0 -245 76 -245 252c0 185 118 259 251 259c106 0 219 -50 219 -211c0 -3 0 -10 -1 -22zM270 484
c-50 0 -78 -51 -80 -196h147c1 13 1 26 1 30c0 131 -27 166 -68 166z" />
    <glyph glyph-name="edieresis" unicode="&#xeb;" 
d="M103 621c0 39 31 67 69 67c37 0 68 -28 68 -67c0 -38 -31 -66 -68 -66c-38 0 -69 28 -69 66zM302 621c0 39 31 67 68 67c38 0 69 -28 69 -67c0 -38 -31 -66 -69 -66c-37 0 -68 28 -68 66zM490 270h-300v-2c0 -130 66 -183 143 -183c60 0 119 26 152 92h2
c-26 -126 -104 -185 -221 -185c-126 0 -245 76 -245 252c0 185 118 259 251 259c106 0 219 -50 219 -211c0 -3 0 -10 -1 -22zM270 484c-50 0 -78 -51 -80 -196h147c1 13 1 26 1 30c0 131 -27 166 -68 166z" />
    <glyph glyph-name="iacute" unicode="&#xed;" horiz-adv-x="310" 
d="M167 703h160v-2l-237 -165l-2 2zM242 495v-423c0 -12 1 -15 10 -24l49 -46v-2h-280v2l49 46c8 8 9 11 9 24v346c0 12 -1 16 -9 25l-49 50v2h221z" />
    <glyph glyph-name="igrave" unicode="&#xec;" horiz-adv-x="310" 
d="M242 495v-423c0 -12 1 -15 10 -24l49 -46v-2h-280v2l49 46c8 8 9 11 9 24v346c0 12 -1 16 -9 25l-49 50v2h221zM-15 703h160l79 -165l-1 -1l-238 164v2z" />
    <glyph glyph-name="icircumflex" unicode="&#xee;" horiz-adv-x="310" 
d="M314 536l-1 -1l-163 67l-163 -67l-1 1l163 175h2zM242 495v-423c0 -12 1 -15 10 -24l49 -46v-2h-280v2l49 46c8 8 9 11 9 24v346c0 12 -1 16 -9 25l-49 50v2h221z" />
    <glyph glyph-name="idieresis" unicode="&#xef;" horiz-adv-x="310" 
d="M-18 621c0 39 31 67 69 67c37 0 68 -28 68 -67c0 -38 -31 -66 -68 -66c-38 0 -69 28 -69 66zM181 621c0 39 31 67 68 67c38 0 69 -28 69 -67c0 -38 -31 -66 -69 -66c-37 0 -68 28 -68 66zM242 495v-423c0 -12 1 -15 10 -24l49 -46v-2h-280v2l49 46c8 8 9 11 9 24v346
c0 12 -1 16 -9 25l-49 50v2h221z" />
    <glyph glyph-name="ntilde" unicode="&#xf1;" horiz-adv-x="615" 
d="M557 292c0 -62 -2 -141 -3 -220c0 -13 1 -16 9 -24l50 -46v-2h-281v2l48 46c8 8 9 12 9 23c0 15 3 150 3 198c0 91 -14 151 -76 151c-32 0 -56 -18 -74 -44v-304c0 -13 0 -16 9 -24l49 -46v-2h-280v2l49 46c9 8 9 11 9 24v346c0 13 -1 16 -9 25l-49 50v2h222v-106
c25 70 78 114 159 114c100 0 156 -73 156 -211zM376 562c-52 0 -96 49 -141 49c-28 0 -52 -12 -64 -49h-2v24c0 62 36 102 84 102c52 0 96 -49 141 -49c27 0 52 12 65 49h2c0 -8 0 -17 -1 -25c-3 -62 -36 -101 -84 -101z" />
    <glyph glyph-name="oacute" unicode="&#xf3;" horiz-adv-x="571" 
d="M298 703h160v-2l-237 -165l-2 2zM285 484c-50 0 -81 -42 -81 -236c0 -193 31 -238 81 -238s81 43 81 237c0 193 -31 237 -81 237zM285 -8c-158 0 -263 86 -263 256c0 168 105 255 263 255s264 -86 264 -256c0 -168 -106 -255 -264 -255z" />
    <glyph glyph-name="ograve" unicode="&#xf2;" horiz-adv-x="571" 
d="M285 484c-50 0 -81 -42 -81 -236c0 -193 31 -238 81 -238s81 43 81 237c0 193 -31 237 -81 237zM285 -8c-158 0 -263 86 -263 256c0 168 105 255 263 255s264 -86 264 -256c0 -168 -106 -255 -264 -255zM115 703h160l79 -165l-1 -1l-238 164v2z" />
    <glyph glyph-name="ocircumflex" unicode="&#xf4;" horiz-adv-x="571" 
d="M449 536l-1 -1l-163 67l-163 -67l-1 1l163 175h2zM285 484c-50 0 -81 -42 -81 -236c0 -193 31 -238 81 -238s81 43 81 237c0 193 -31 237 -81 237zM285 -8c-158 0 -263 86 -263 256c0 168 105 255 263 255s264 -86 264 -256c0 -168 -106 -255 -264 -255z" />
    <glyph glyph-name="odieresis" unicode="&#xf6;" horiz-adv-x="571" 
d="M117 621c0 39 31 67 69 67c37 0 68 -28 68 -67c0 -38 -31 -66 -68 -66c-38 0 -69 28 -69 66zM316 621c0 39 31 67 68 67c38 0 69 -28 69 -67c0 -38 -31 -66 -69 -66c-37 0 -68 28 -68 66zM285 484c-50 0 -81 -42 -81 -236c0 -193 31 -238 81 -238s81 43 81 237
c0 193 -31 237 -81 237zM285 -8c-158 0 -263 86 -263 256c0 168 105 255 263 255s264 -86 264 -256c0 -168 -106 -255 -264 -255z" />
    <glyph glyph-name="otilde" unicode="&#xf5;" horiz-adv-x="571" 
d="M285 484c-50 0 -81 -42 -81 -236c0 -193 31 -238 81 -238s81 43 81 237c0 193 -31 237 -81 237zM285 -8c-158 0 -263 86 -263 256c0 168 105 255 263 255s264 -86 264 -256c0 -168 -106 -255 -264 -255zM349 562c-52 0 -96 49 -141 49c-28 0 -52 -12 -64 -49h-2v24
c0 62 36 102 84 102c52 0 96 -49 141 -49c27 0 52 12 65 49h2c0 -8 0 -17 -1 -25c-3 -62 -36 -101 -84 -101z" />
    <glyph glyph-name="uacute" unicode="&#xfa;" horiz-adv-x="595" 
d="M296 703h160v-2l-237 -165l-2 2zM527 495v-419c0 -13 0 -17 9 -25l50 -49v-2h-223v107c-25 -68 -79 -115 -153 -115c-99 0 -152 72 -152 208c0 66 1 138 2 219c0 13 -1 16 -9 24l-49 50v2h221c0 -3 -1 -259 -1 -272c0 -89 13 -149 69 -149c32 0 55 20 72 45v299
c0 13 -1 16 -9 25l-49 50v2h222z" />
    <glyph glyph-name="ugrave" unicode="&#xf9;" horiz-adv-x="595" 
d="M527 495v-419c0 -13 0 -17 9 -25l50 -49v-2h-223v107c-25 -68 -79 -115 -153 -115c-99 0 -152 72 -152 208c0 66 1 138 2 219c0 13 -1 16 -9 24l-49 50v2h221c0 -3 -1 -259 -1 -272c0 -89 13 -149 69 -149c32 0 55 20 72 45v299c0 13 -1 16 -9 25l-49 50v2h222zM113 703
h160l79 -165l-1 -1l-238 164v2z" />
    <glyph glyph-name="ucircumflex" unicode="&#xfb;" horiz-adv-x="595" 
d="M447 536l-1 -1l-163 67l-163 -67l-1 1l163 175h2zM527 495v-419c0 -13 0 -17 9 -25l50 -49v-2h-223v107c-25 -68 -79 -115 -153 -115c-99 0 -152 72 -152 208c0 66 1 138 2 219c0 13 -1 16 -9 24l-49 50v2h221c0 -3 -1 -259 -1 -272c0 -89 13 -149 69 -149
c32 0 55 20 72 45v299c0 13 -1 16 -9 25l-49 50v2h222z" />
    <glyph glyph-name="udieresis" unicode="&#xfc;" horiz-adv-x="595" 
d="M115 621c0 39 31 67 69 67c37 0 68 -28 68 -67c0 -38 -31 -66 -68 -66c-38 0 -69 28 -69 66zM314 621c0 39 31 67 68 67c38 0 69 -28 69 -67c0 -38 -31 -66 -69 -66c-37 0 -68 28 -68 66zM527 495v-419c0 -13 0 -17 9 -25l50 -49v-2h-223v107c-25 -68 -79 -115 -153 -115
c-99 0 -152 72 -152 208c0 66 1 138 2 219c0 13 -1 16 -9 24l-49 50v2h221c0 -3 -1 -259 -1 -272c0 -89 13 -149 69 -149c32 0 55 20 72 45v299c0 13 -1 16 -9 25l-49 50v2h222z" />
    <glyph glyph-name="dagger" unicode="&#x2020;" horiz-adv-x="429" 
d="M54 513v19h151v171h20v-171h150v-19h-150v-383h-20v383h-151z" />
    <glyph glyph-name="degree" unicode="&#xb0;" horiz-adv-x="324" 
d="M35 589c0 74 59 122 127 122c69 0 127 -48 127 -122c0 -72 -58 -119 -127 -119c-68 0 -127 47 -127 119zM56 589c0 -59 51 -100 106 -100c56 0 106 41 106 100c0 61 -50 103 -106 103c-55 0 -106 -42 -106 -103z" />
    <glyph glyph-name="cent" unicode="&#xa2;" horiz-adv-x="485" 
d="M291 -105h-19v98c-9 -1 -13 -1 -19 -1c-123 0 -232 81 -232 250c0 187 125 257 251 261v102h19v-102c52 -1 108 -9 169 -28v-2l-67 -173h-2l-79 173c-4 9 -6 10 -21 11v-392c13 -4 27 -6 40 -6c51 0 97 24 125 82h2c-14 -94 -72 -160 -167 -173v-100zM176 289
c0 -110 45 -167 96 -190v384c-51 -10 -96 -74 -96 -194z" />
    <glyph glyph-name="sterling" unicode="&#xa3;" horiz-adv-x="597" 
d="M444 315v-19h-163c1 -5 1 -10 1 -14c0 -95 -52 -126 -108 -143v-2h257c41 0 45 2 64 23l62 67h2l-29 -227h-500v2l96 116c28 33 46 69 46 110c0 21 -9 44 -20 68h-101v19h91c-32 59 -78 126 -78 202c0 122 83 196 242 196c75 0 150 -7 218 -22l-18 -218h-2l-128 204
c-6 10 -9 13 -22 14c-4 0 -13 1 -20 1c-77 0 -102 -67 -102 -145c0 -83 38 -157 48 -232h164z" />
    <glyph glyph-name="section" unicode="&#xa7;" horiz-adv-x="541" 
d="M500 282c0 -83 -82 -132 -145 -144c69 -47 107 -102 107 -167c0 -100 -90 -157 -194 -157c-66 0 -119 5 -171 19l52 189h2l84 -173c7 -14 13 -18 30 -18h10c50 0 86 33 86 75c0 45 -42 80 -121 127l-42 25c-117 69 -151 113 -151 188c0 82 83 132 146 143
c-70 47 -108 101 -108 167c0 101 90 157 194 157c66 0 119 -5 170 -19l-52 -188h-2l-83 172c-7 14 -13 18 -30 18h-10c-50 0 -86 -32 -86 -74c0 -45 43 -79 121 -127l41 -25c117 -71 152 -114 152 -188zM300 320c-21 13 -87 55 -99 64c-21 -9 -46 -35 -46 -70
c0 -33 29 -63 92 -106c20 -14 87 -56 99 -65c20 10 46 35 46 71c0 32 -28 66 -92 106z" />
    <glyph glyph-name="bullet" unicode="&#x2022;" horiz-adv-x="344" 
d="M60 357c0 65 51 109 111 109c62 0 112 -44 112 -109c0 -63 -50 -104 -112 -104c-60 0 -111 41 -111 104z" />
    <glyph glyph-name="paragraph" unicode="&#xb6;" horiz-adv-x="608" 
d="M64 348c0 253 148 355 308 355h160v-19h-79v-666h79v-18h-79v-250h-20v250h-61c-160 0 -308 95 -308 348zM369 18h64v666h-64v-666z" />
    <glyph glyph-name="germandbls" unicode="&#xdf;" horiz-adv-x="653" 
d="M17 475v20h60c8 167 103 218 253 218c116 0 209 -46 209 -119c0 -40 -25 -69 -75 -98c-13 -7 -43 -27 -51 -34c-19 -15 -27 -29 -27 -48c0 -29 32 -53 73 -74l84 -44c64 -34 101 -71 101 -139c0 -105 -87 -165 -207 -165c-53 0 -119 11 -174 33l59 147h2l72 -150
c4 -9 11 -12 30 -12h13c46 0 75 34 75 76c0 35 -23 57 -63 80l-86 49c-54 31 -82 63 -82 110c0 46 24 72 69 109l36 30c35 29 52 67 52 122c0 70 -43 109 -101 109c-67 0 -99 -50 -99 -154v-541h-221v2l49 46c8 8 9 10 9 24v403h-60z" />
    <glyph glyph-name="registered" unicode="&#xae;" horiz-adv-x="813" 
d="M42 351c0 220 163 362 364 362s365 -142 365 -362c0 -221 -164 -361 -365 -361s-364 140 -364 361zM62 351c0 -209 154 -342 344 -342s345 133 345 342c0 208 -155 343 -345 343s-344 -135 -344 -343zM229 168l36 33c5 4 5 7 5 15v282c0 8 0 10 -5 15l-36 33v2h220
c67 0 127 -26 127 -97c0 -58 -45 -94 -121 -100v-2l72 -20l52 -117c4 -8 8 -13 16 -20l27 -24v-2h-141l-65 171c-2 4 -5 7 -12 7h-28v-128c0 -8 0 -10 5 -15l36 -33v-2h-188v2zM376 519v-159h30c33 0 57 23 57 83c0 64 -21 88 -53 88h-21c-13 0 -13 -3 -13 -12z" />
    <glyph glyph-name="copyright" unicode="&#xa9;" horiz-adv-x="813" 
d="M42 351c0 220 163 362 364 362s365 -142 365 -362c0 -221 -164 -361 -365 -361s-364 140 -364 361zM62 351c0 -209 154 -342 344 -342s345 133 345 342c0 208 -155 343 -345 343s-344 -135 -344 -343zM346 351c0 -121 30 -191 85 -191h5c11 0 16 3 21 10l90 128h1v-144
c-40 -8 -86 -11 -126 -11c-138 0 -204 83 -204 208c0 126 74 209 201 209c42 0 89 -3 129 -12v-139h-1l-90 125c-6 7 -9 9 -19 9h-7c-55 0 -85 -75 -85 -192z" />
    <glyph glyph-name="trademark" unicode="&#x2122;" horiz-adv-x="861" 
d="M449 452c0 -18 0 -20 12 -34l45 -53v-2h-131v2l45 53c10 13 10 16 10 34v193c0 9 -3 13 -6 16l-35 40v2h125l92 -201l82 201h121v-2l-33 -34c-4 -4 -5 -6 -5 -13v-247c0 -7 1 -9 5 -13l33 -29v-2h-169v2l32 30c5 4 5 5 5 12v193c0 8 0 19 1 28l-109 -269h-1l-119 262
v-169zM245 412c0 -8 1 -11 5 -15l34 -32v-2h-173v2l35 32c4 4 5 7 5 15v273h-25c-8 0 -10 0 -15 -8l-65 -105h-2l8 131h292l8 -131h-2l-65 105c-5 8 -8 8 -16 8h-24v-273z" />
    <glyph glyph-name="acute" unicode="&#xb4;" horiz-adv-x="339" 
d="M129 703h160v-2l-237 -165l-2 2z" />
    <glyph glyph-name="dieresis" unicode="&#xa8;" horiz-adv-x="436" 
d="M50 621c0 39 31 67 69 67c37 0 68 -28 68 -67c0 -38 -31 -66 -68 -66c-38 0 -69 28 -69 66zM249 621c0 39 31 67 68 67c38 0 69 -28 69 -67c0 -38 -31 -66 -69 -66c-37 0 -68 28 -68 66z" />
    <glyph glyph-name="notequal" unicode="&#x2260;" horiz-adv-x="540" 
d="M50 404v19h264l56 101l17 -10l-51 -91h154v-19h-164l-89 -160h253v-19h-264l-59 -107l-17 10l54 97h-154v19h164l89 160h-253z" />
    <glyph glyph-name="AE" unicode="&#xc6;" horiz-adv-x="947" 
d="M900 246v-246h-546v2l66 63c9 8 10 11 10 24v156h-231l-47 -77c-13 -21 -13 -25 -2 -45l68 -121v-2h-246v2l115 119c21 22 29 29 40 46l266 433c10 15 8 18 -1 28l-69 73v2h567v-242h-2l-130 206c-8 13 -13 16 -28 16h-103c-14 0 -16 -2 -16 -20v-301h67c12 1 16 2 26 14
l91 104h2v-255h-2l-91 104c-10 11 -14 13 -26 13h-67v-302c0 -18 2 -20 16 -20h116c16 0 21 3 29 14l124 212h4zM430 620l-219 -356h219v356z" />
    <glyph glyph-name="Oslash" unicode="&#xd8;" horiz-adv-x="732" 
d="M366 713c54 0 103 -9 145 -25l41 92l17 -7l-41 -92c113 -50 177 -161 177 -330c0 -238 -128 -361 -339 -361c-50 0 -95 7 -134 20l-40 -91l-18 7l40 90c-119 48 -187 161 -187 335c0 239 128 362 339 362zM233 352c0 -105 8 -182 25 -237l213 482c-22 68 -58 97 -105 97
c-85 0 -133 -94 -133 -342zM366 9c85 0 133 95 133 343c0 93 -7 165 -20 218l-212 -481c22 -56 56 -80 99 -80z" />
    <glyph glyph-name="infinity" unicode="&#x221e;" horiz-adv-x="768" 
d="M53 325c0 71 54 141 132 141c81 0 132 -66 199 -129c67 64 117 129 199 129c78 0 132 -70 132 -141s-54 -141 -132 -141c-82 0 -132 66 -199 129c-67 -63 -118 -129 -199 -129c-78 0 -132 70 -132 141zM73 325c0 -61 43 -122 112 -122c74 0 120 60 186 122
c-66 63 -112 122 -186 122c-69 0 -112 -61 -112 -122zM583 203c69 0 112 61 112 122s-43 122 -112 122c-75 0 -119 -59 -186 -122c67 -63 111 -122 186 -122z" />
    <glyph glyph-name="plusminus" unicode="&#xb1;" horiz-adv-x="540" 
d="M50 365v19h210v160h20v-160h211v-19h-211v-161h-20v161h-210zM50 105v19h441v-19h-441z" />
    <glyph glyph-name="lessequal" unicode="&#x2264;" horiz-adv-x="540" 
d="M50 102v19h440v-19h-440zM71 374l389 129l6 -19l-339 -111l339 -111l-6 -19l-389 129v2z" />
    <glyph glyph-name="greaterequal" unicode="&#x2265;" horiz-adv-x="540" 
d="M490 121v-19h-440v19h440zM80 503l389 -129v-2l-389 -129l-6 19l339 111l-339 111z" />
    <glyph glyph-name="yen" unicode="&#xa5;" horiz-adv-x="652" 
d="M418 160v-64c0 -15 1 -17 11 -26l73 -68v-2h-349v2l74 68c9 9 10 11 10 26v64h-140v19h140v80h-140v19h132l-163 313c-10 19 -17 30 -27 43l-50 67v2h336v-2l-60 -69c-8 -9 -10 -12 -4 -24l146 -294l115 235c7 15 6 18 -3 31l-86 121v2h250v-2l-113 -121
c-14 -16 -18 -20 -27 -37l-117 -238c-6 -11 -8 -17 -8 -27h144v-19h-144v-80h144v-19h-144z" />
    <glyph glyph-name="mu" unicode="&#xb5;" horiz-adv-x="602" 
d="M534 495v-421c0 -13 1 -16 9 -24l50 -48v-2h-223v107c-17 -51 -53 -88 -97 -100c-17 -5 -31 -6 -45 -7v-148c0 -13 1 -16 15 -26l74 -52v-2h-310v2l51 46c8 8 9 11 9 24v577c0 13 -1 16 -9 24l-49 48v2h219v-295c0 -85 15 -132 70 -132c32 0 55 21 72 52v300
c0 13 -1 16 -9 24l-49 49v2h222z" />
    <glyph glyph-name="partialdiff" unicode="&#x2202;" horiz-adv-x="562" 
d="M274 -8c-143 0 -251 88 -251 255c0 156 102 248 211 248c54 0 94 -22 120 -60c-30 154 -110 246 -236 276v2c2 0 21 -1 23 -1c271 -21 398 -203 398 -426c0 -190 -85 -294 -265 -294zM369 275c0 52 -4 100 -11 143c-18 21 -38 29 -63 29c-66 0 -91 -87 -91 -216
c0 -145 28 -220 79 -220s86 64 86 264z" />
    <glyph glyph-name="summation" unicode="&#x2211;" horiz-adv-x="600" 
d="M432 362l-378 -342h344c16 0 21 3 29 14l124 208h2v-242h-547v2l289 266l-213 355c-5 8 -16 22 -25 30l-54 48v2h538l5 -239h-2l-134 203c-9 13 -13 16 -28 16h-144z" />
    <glyph glyph-name="product" unicode="&#x220f;" horiz-adv-x="776" 
d="M685 614v-525c0 -13 1 -16 9 -24l66 -63v-2h-332v2l66 63c9 8 10 11 10 24v594h-232v-594c0 -13 1 -16 10 -24l66 -63v-2h-333v2l67 63c8 8 9 11 9 24v525c0 13 -1 16 -9 24l-67 63v2h745v-2l-66 -63c-8 -8 -9 -11 -9 -24z" />
    <glyph glyph-name="pi" unicode="&#x3c0;" horiz-adv-x="633" 
d="M555 72c0 -13 0 -16 9 -24l48 -46v-2h-279v2l49 46c8 8 9 11 9 24v403h-149v-403c0 -13 0 -16 9 -24l49 -46v-2h-280v2l49 46c9 8 9 11 9 24v346c0 13 -1 16 -9 25l-49 50v2h592v-2l-48 -50c-8 -9 -9 -12 -9 -25v-346z" />
    <glyph glyph-name="integral" unicode="&#x222b;" horiz-adv-x="475" 
d="M148 -132v624c0 162 71 221 193 221c56 0 107 -8 158 -22l-63 -150h-2l-70 141c-6 12 -8 13 -18 13c-26 0 -35 -24 -35 -88v-605c0 -172 -71 -238 -191 -238c-58 0 -109 8 -160 22l63 150h2l69 -141c6 -12 9 -14 19 -14c32 0 35 31 35 87z" />
    <glyph glyph-name="ordfeminine" unicode="&#xaa;" horiz-adv-x="402" 
d="M150 564c29 0 55 -5 73 -17l2 72c1 49 -19 75 -56 75c-11 0 -13 -1 -17 -8l-51 -97h-2l-42 98c45 17 94 26 137 26c46 0 81 -8 105 -31s35 -60 33 -121l-4 -107c-1 -26 5 -39 20 -39c7 0 13 5 17 13h2c1 -8 -1 -18 -5 -26c-12 -22 -34 -36 -66 -36c-38 0 -71 22 -75 62
c-14 -37 -50 -62 -92 -62c-50 0 -92 33 -92 95c0 68 58 103 113 103zM183 418c14 0 29 9 38 21l2 96c-8 3 -17 4 -26 4c-35 0 -55 -26 -55 -66c0 -37 18 -55 41 -55z" />
    <glyph glyph-name="ordmasculine" unicode="&#xba;" horiz-adv-x="423" 
d="M211 695c-33 0 -55 -27 -55 -155c0 -127 22 -156 55 -156c35 0 56 28 56 155s-21 156 -56 156zM211 366c-107 0 -178 58 -178 174c0 114 71 173 178 173c108 0 180 -58 180 -174c0 -114 -72 -173 -180 -173z" />
    <glyph glyph-name="Omega" unicode="&#x2126;" horiz-adv-x="761" 
d="M381 694c-85 0 -135 -94 -135 -328c0 -156 43 -238 105 -264v-102h-303l-19 233h2l134 -196c11 -17 16 -18 40 -18h126v69c-170 23 -292 152 -292 310c0 195 127 315 342 315s341 -120 341 -315c0 -158 -121 -287 -291 -310v-69h125c24 0 29 1 41 18l133 196h2l-18 -233
h-303v102c61 26 104 108 104 264c0 234 -49 328 -134 328z" />
    <glyph glyph-name="ae" unicode="&#xe6;" horiz-adv-x="784" 
d="M761 270h-300v-3c0 -129 66 -182 144 -182c59 0 118 26 151 92h2c-25 -126 -103 -185 -220 -185c-85 0 -166 36 -210 111c-12 -50 -64 -111 -161 -111c-82 0 -148 50 -148 142c0 99 87 150 166 150c47 0 81 -10 108 -26c0 15 2 94 2 110c0 69 -21 115 -74 115
c-19 0 -20 -2 -26 -12l-81 -149h-2l-64 145c67 23 132 36 198 36c57 0 97 -11 133 -46l12 -14c40 39 89 60 153 60c105 0 218 -50 218 -211c0 -7 0 -11 -1 -22zM541 484c-49 0 -78 -50 -80 -196h148c3 158 -24 196 -68 196zM245 64c30 0 59 14 79 46c-19 35 -30 78 -30 130
v7c-12 4 -25 6 -38 6c-52 0 -81 -44 -81 -101c0 -56 30 -88 70 -88z" />
    <glyph glyph-name="oslash" unicode="&#xf8;" horiz-adv-x="571" 
d="M438 567l-37 -83c92 -33 148 -111 148 -237c0 -171 -106 -255 -264 -255c-35 0 -67 4 -96 12l-37 -85l-19 8l36 83c-92 33 -148 111 -148 238c0 171 106 255 264 255c35 0 67 -4 96 -12l38 84zM285 484c-51 0 -80 -42 -80 -236c0 -60 2 -105 8 -140l137 312
c-13 49 -35 64 -65 64zM366 247c0 59 -3 104 -8 138l-138 -312c14 -48 36 -62 65 -62c52 0 81 42 81 236z" />
    <glyph glyph-name="questiondown" unicode="&#xbf;" horiz-adv-x="429" 
d="M232 262l2 1c58 -19 88 -56 88 -100c0 -38 -24 -68 -52 -97c-12 -12 -47 -46 -59 -59c-27 -30 -44 -60 -44 -102c0 -63 40 -104 87 -104h13c14 0 23 5 28 16l86 202h2l78 -181c-67 -31 -160 -57 -240 -57c-145 0 -224 64 -224 161c0 60 36 104 79 139c29 23 94 68 113 84
c35 29 45 49 43 97zM327 426c0 -47 -36 -79 -79 -79c-45 0 -81 32 -81 79c0 45 36 76 81 76c43 0 79 -31 79 -76z" />
    <glyph glyph-name="exclamdown" unicode="&#xa1;" horiz-adv-x="310" 
d="M37 -209l116 484h2l118 -484h-236zM74 426c0 45 37 76 80 76c45 0 81 -31 81 -76c0 -47 -36 -79 -81 -79c-43 0 -80 32 -80 79z" />
    <glyph glyph-name="logicalnot" unicode="&#xac;" horiz-adv-x="540" 
d="M498 109h-20v206h-441v19h461v-225z" />
    <glyph glyph-name="radical" unicode="&#x221a;" horiz-adv-x="540" 
d="M488 750l-262 -750h-2l-158 445l18 5l141 -394l245 699z" />
    <glyph glyph-name="florin" unicode="&#x192;" horiz-adv-x="475" 
d="M58 291v20h90v181c0 162 71 221 193 221c56 0 107 -8 158 -22l-63 -150h-2l-70 141c-6 12 -8 13 -18 13c-26 0 -35 -24 -35 -88v-296h109v-20h-109v-288c0 -172 -71 -238 -191 -238c-58 0 -109 8 -160 21l63 150h2l69 -140c6 -12 9 -14 19 -14c32 0 35 30 35 87v422h-90z
" />
    <glyph glyph-name="approxequal" unicode="&#x2248;" horiz-adv-x="540" 
d="M384 369c-90 0 -145 66 -227 66c-43 0 -76 -25 -97 -59l-16 11c16 27 50 67 113 67c90 0 145 -66 227 -66c43 0 75 24 96 58l17 -10c-16 -27 -50 -67 -113 -67zM384 191c-90 0 -145 66 -227 66c-43 0 -76 -25 -97 -59l-16 11c16 27 50 67 113 67c90 0 145 -66 227 -66
c43 0 75 24 96 58l17 -10c-16 -27 -50 -67 -113 -67z" />
    <glyph glyph-name="Delta" unicode="&#x2206;" horiz-adv-x="674" 
d="M30 0l221 596c8 20 7 25 -6 39l-59 66v2h236l228 -703h-620zM454 20l-184 568l-211 -568h395z" />
    <glyph glyph-name="guillemotleft" unicode="&#xab;" horiz-adv-x="466" 
d="M27 252l223 230l2 -1l-92 -230l92 -229l-2 -1l-223 229v2zM214 252l223 230l2 -1l-92 -230l92 -229l-2 -1l-223 229v2z" />
    <glyph glyph-name="guillemotright" unicode="&#xbb;" horiz-adv-x="466" 
d="M252 250l-223 -229l-2 1l92 229l-92 230l2 1l223 -230v-2zM439 250l-223 -229l-2 1l92 229l-92 230l2 1l223 -230v-2z" />
    <glyph glyph-name="ellipsis" unicode="&#x2026;" horiz-adv-x="711" 
d="M41 68c0 47 37 78 80 78c45 0 81 -31 81 -78c0 -45 -36 -76 -81 -76c-43 0 -80 31 -80 76zM276 68c0 47 36 78 80 78s80 -31 80 -78c0 -45 -36 -76 -80 -76s-80 31 -80 76zM510 68c0 47 37 78 80 78c44 0 80 -31 80 -78c0 -45 -36 -76 -80 -76c-43 0 -80 31 -80 76z" />
    <glyph glyph-name="uni00A0" unicode="&#xa0;" horiz-adv-x="197" 
 />
    <glyph glyph-name="Agrave" unicode="&#xc0;" horiz-adv-x="656" 
d="M147 245l-26 -80c-5 -16 -4 -18 8 -35l89 -128v-2h-237v2l96 128c15 19 17 23 23 42l139 426c6 19 6 22 -6 35l-59 68v2h235l187 -593c5 -16 12 -28 20 -41l42 -67v-2h-296v2l48 67c6 8 6 14 2 27l-47 149h-218zM258 589l-105 -324h206zM143 911h160l79 -165l-1 -1
l-238 164v2z" />
    <glyph glyph-name="Atilde" unicode="&#xc3;" horiz-adv-x="656" 
d="M147 245l-26 -80c-5 -16 -4 -18 8 -35l89 -128v-2h-237v2l96 128c15 19 17 23 23 42l139 426c6 19 6 22 -6 35l-59 68v2h235l187 -593c5 -16 12 -28 20 -41l42 -67v-2h-296v2l48 67c6 8 6 14 2 27l-47 149h-218zM258 589l-105 -324h206zM377 770c-52 0 -96 49 -141 49
c-28 0 -52 -12 -64 -49h-2v24c0 62 36 102 84 102c52 0 96 -49 141 -49c27 0 52 12 65 49h2c0 -8 0 -17 -1 -25c-3 -62 -36 -101 -84 -101z" />
    <glyph glyph-name="Otilde" unicode="&#xd5;" horiz-adv-x="732" 
d="M366 9c85 0 133 95 133 343s-48 342 -133 342s-133 -94 -133 -342s48 -343 133 -343zM366 713c211 0 339 -123 339 -362c0 -238 -128 -361 -339 -361s-339 123 -339 361c0 239 128 362 339 362zM429 770c-52 0 -96 49 -141 49c-28 0 -52 -12 -64 -49h-2v24
c0 62 36 102 84 102c52 0 96 -49 141 -49c27 0 52 12 65 49h2c0 -8 0 -17 -1 -25c-3 -62 -36 -101 -84 -101z" />
    <glyph glyph-name="OE" unicode="&#x152;" horiz-adv-x="992" 
d="M840 224l-87 104c-10 12 -14 14 -27 14h-70v-302c0 -19 2 -20 22 -20h109c17 0 23 2 30 14l124 208h3v-242h-442c-37 -6 -87 -10 -121 -10c-229 0 -354 128 -354 361c0 234 131 362 350 362c36 0 86 -3 123 -10h432v-239h-2l-130 203c-9 13 -13 16 -28 16h-100
c-14 0 -16 -2 -16 -20v-302h70c13 1 17 2 27 14l87 104h2v-255h-2zM475 80v541c0 27 -7 39 -22 51c-22 17 -43 22 -74 22c-107 0 -146 -116 -146 -342c0 -236 42 -343 150 -343c33 0 65 17 74 25c12 11 18 22 18 46z" />
    <glyph glyph-name="oe" unicode="&#x153;" horiz-adv-x="862" 
d="M285 -8c-158 0 -263 86 -263 256c0 168 105 255 263 255c71 0 137 -24 174 -68c38 46 103 68 163 68c106 0 218 -50 218 -211c0 -3 0 -12 -1 -22h-299v-14c4 -121 68 -171 143 -171c59 0 119 26 151 92h2c-25 -126 -104 -185 -220 -185c-58 0 -122 22 -158 67
c-37 -43 -103 -67 -173 -67zM285 484c-50 0 -81 -42 -81 -236c0 -193 31 -237 81 -237s81 42 81 236c0 193 -31 237 -81 237zM540 288h147v3c0 156 -25 193 -68 193c-48 0 -75 -49 -79 -196z" />
    <glyph glyph-name="endash" unicode="&#x2013;" horiz-adv-x="500" 
d="M495 237h-490v19h490v-19z" />
    <glyph glyph-name="emdash" unicode="&#x2014;" horiz-adv-x="1000" 
d="M995 237h-990v19h990v-19z" />
    <glyph glyph-name="quotedblleft" unicode="&#x201c;" horiz-adv-x="394" 
d="M362 722l1 -2c-39 -21 -68 -65 -68 -110c0 -10 3 -12 13 -14c35 -6 57 -32 57 -67c0 -38 -29 -68 -70 -68c-44 0 -76 32 -76 84c0 78 57 156 143 177zM176 722l1 -2c-39 -21 -68 -65 -68 -110c0 -10 3 -12 13 -14c35 -6 57 -32 57 -67c0 -38 -29 -68 -70 -68
c-44 0 -76 32 -76 84c0 78 57 156 143 177z" />
    <glyph glyph-name="quotedblright" unicode="&#x201d;" horiz-adv-x="394" 
d="M31 645c0 38 29 68 69 68c45 0 77 -33 77 -85c0 -78 -58 -155 -144 -176l-1 2c39 20 69 64 69 110c0 10 -4 12 -13 14c-35 6 -57 31 -57 67zM217 645c0 38 28 68 69 68c45 0 77 -33 77 -85c0 -78 -58 -155 -144 -176l-1 2c39 20 69 64 69 110c0 10 -4 12 -13 14
c-35 6 -57 31 -57 67z" />
    <glyph glyph-name="quoteleft" unicode="&#x2018;" horiz-adv-x="208" 
d="M179 529c0 -38 -29 -68 -70 -68c-44 0 -76 32 -76 84c0 78 57 156 143 177l1 -2c-39 -21 -68 -65 -68 -110c0 -10 3 -12 13 -14c35 -6 57 -32 57 -67z" />
    <glyph glyph-name="quoteright" unicode="&#x2019;" horiz-adv-x="208" 
d="M31 645c0 38 29 68 69 68c45 0 77 -33 77 -85c0 -78 -58 -155 -144 -176l-1 2c39 20 69 64 69 110c0 10 -4 12 -13 14c-35 6 -57 31 -57 67z" />
    <glyph glyph-name="divide" unicode="&#xf7;" horiz-adv-x="540" 
d="M50 311v19h440v-19h-440zM191 478c0 45 36 73 77 73c42 0 76 -28 76 -73c0 -43 -34 -70 -76 -70c-41 0 -77 27 -77 70zM191 158c0 45 36 73 77 73c42 0 76 -28 76 -73c0 -43 -34 -70 -76 -70c-41 0 -77 27 -77 70z" />
    <glyph glyph-name="lozenge" unicode="&#x25ca;" horiz-adv-x="540" 
d="M490 324l-219 -405h-2l-219 405l219 405h2zM270 688l-197 -364l197 -364l197 364z" />
    <glyph glyph-name="ydieresis" unicode="&#xff;" horiz-adv-x="476" 
d="M408 329l-128 -310c-23 -54 -53 -114 -86 -166c-41 -64 -79 -89 -139 -89c-15 0 -31 3 -47 10l37 175h2l99 -98c5 -5 8 -8 12 -8c5 0 9 3 15 12c13 18 28 46 38 69l6 16l-186 472c-5 13 -10 23 -15 33l-27 48v2h259v-2l-40 -55c-5 -7 -7 -11 -2 -23l101 -280l81 197
c7 17 8 21 0 37l-61 124v2h171v-2l-65 -112c-12 -20 -17 -32 -25 -52zM97 621c0 39 31 67 69 67c37 0 68 -28 68 -67c0 -38 -31 -66 -68 -66c-38 0 -69 28 -69 66zM296 621c0 39 31 67 68 67c38 0 69 -28 69 -67c0 -38 -31 -66 -69 -66c-37 0 -68 28 -68 66z" />
    <glyph glyph-name="Ydieresis" unicode="&#x178;" horiz-adv-x="640" 
d="M415 267v-171c0 -15 1 -17 11 -26l73 -68v-2h-349v2l74 68c9 9 10 11 10 26v154c0 11 -1 17 -6 25l-165 316c-10 19 -17 30 -27 43l-50 67v2h336v-2l-60 -69c-8 -9 -10 -12 -4 -24l146 -294l115 235c7 15 6 18 -3 31l-86 121v2h250v-2l-113 -121c-15 -15 -18 -20 -27 -37
l-117 -238c-7 -14 -8 -20 -8 -38zM187 829c0 39 31 67 69 67c37 0 68 -28 68 -67c0 -38 -31 -66 -68 -66c-38 0 -69 28 -69 66zM386 829c0 39 31 67 68 67c38 0 69 -28 69 -67c0 -38 -31 -66 -69 -66c-37 0 -68 28 -68 66z" />
    <glyph glyph-name="fraction" unicode="&#x2044;" horiz-adv-x="48" 
d="M293 701l-503 -711l-16 13l503 710z" />
    <glyph glyph-name="Euro" unicode="&#x20ac;" horiz-adv-x="697" 
d="M489 284h-191c9 -172 54 -275 153 -275h13c17 0 23 3 31 14l153 236h2v-251c-70 -13 -144 -18 -212 -18c-215 0 -323 114 -344 294h-73v19h72c-1 15 -2 31 -2 47s0 32 2 48h-72v19h74c22 181 139 296 338 296c72 0 145 -6 217 -19v-246h-2l-152 231c-9 12 -16 15 -36 15
h-13c-98 0 -140 -110 -149 -277h191v-19h-192v-95h192v-19z" />
    <glyph glyph-name="guilsinglleft" unicode="&#x2039;" horiz-adv-x="279" 
d="M27 252l223 230l2 -1l-92 -230l92 -229l-2 -1l-223 229v2z" />
    <glyph glyph-name="guilsinglright" unicode="&#x203a;" horiz-adv-x="279" 
d="M252 250l-223 -229l-2 1l92 229l-92 230l2 1l223 -230v-2z" />
    <glyph glyph-name="daggerdbl" unicode="&#x2021;" horiz-adv-x="429" 
d="M375 301h-150v-171h-20v171h-151v19h151v193h-151v19h151v171h20v-171h150v-19h-150v-193h150v-19z" />
    <glyph glyph-name="periodcentered" unicode="&#xb7;" horiz-adv-x="242" 
d="M41 422c0 47 36 79 80 79s80 -32 80 -79c0 -44 -36 -76 -80 -76s-80 32 -80 76z" />
    <glyph glyph-name="quotesinglbase" unicode="&#x201a;" horiz-adv-x="208" 
d="M31 72c0 38 28 68 69 68c45 0 77 -33 77 -84c0 -78 -58 -156 -144 -177l-1 2c39 20 69 65 69 110c0 10 -4 12 -14 14c-34 6 -56 31 -56 67z" />
    <glyph glyph-name="quotedblbase" unicode="&#x201e;" horiz-adv-x="393" 
d="M362 56c0 -78 -58 -156 -144 -177l-1 2c39 20 69 65 69 110c0 10 -3 12 -13 14c-35 6 -57 31 -57 67c0 38 29 68 70 68c44 0 76 -33 76 -84zM177 56c0 -78 -58 -156 -144 -177l-1 2c39 20 69 65 69 110c0 10 -4 12 -14 14c-34 6 -56 31 -56 67c0 38 28 68 69 68
c45 0 77 -33 77 -84z" />
    <glyph glyph-name="perthousand" unicode="&#x2030;" horiz-adv-x="981" 
d="M812 275c-36 0 -41 -41 -41 -134s5 -135 41 -135c37 0 43 42 43 134c0 94 -6 135 -43 135zM812 290c100 0 144 -59 144 -150c0 -89 -44 -149 -144 -149c-98 0 -142 60 -142 150c0 89 44 149 142 149zM196 698c-36 0 -41 -41 -41 -134s5 -135 41 -135c37 0 43 42 43 134
c0 94 -6 135 -43 135zM196 713c100 0 144 -59 144 -150c0 -89 -44 -149 -144 -149c-98 0 -142 60 -142 150c0 89 44 149 142 149zM481 275c-36 0 -41 -41 -41 -134s5 -135 41 -135c37 0 43 42 43 134c0 94 -6 135 -43 135zM481 290c100 0 144 -59 144 -150
c0 -89 -44 -149 -144 -149c-98 0 -142 60 -142 150c0 89 44 149 142 149zM600 701l-503 -711l-16 13l503 710z" />
    <glyph glyph-name="Acircumflex" unicode="&#xc2;" horiz-adv-x="656" 
d="M147 245l-26 -80c-5 -16 -4 -18 8 -35l89 -128v-2h-237v2l96 128c15 19 17 23 23 42l139 426c6 19 6 22 -6 35l-59 68v2h235l187 -593c5 -16 12 -28 20 -41l42 -67v-2h-296v2l48 67c6 8 6 14 2 27l-47 149h-218zM258 589l-105 -324h206zM477 744l-1 -1l-163 67l-163 -67
l-1 1l163 175h2z" />
    <glyph glyph-name="Ecircumflex" unicode="&#xca;" horiz-adv-x="607" 
d="M478 744l-1 -1l-163 67l-163 -67l-1 1l163 175h2zM551 703v-242h-2l-129 206c-8 13 -13 16 -28 16h-103c-14 0 -17 -2 -17 -20v-301h68c12 1 16 2 26 14l90 104h2v-255h-2l-90 104c-10 11 -14 13 -27 13h-67v-302c0 -18 3 -20 17 -20h115c17 0 23 2 30 14l124 212h2v-246
h-545v2l67 63c8 8 9 11 9 24v525c0 13 -1 16 -9 24l-67 63v2h536z" />
    <glyph glyph-name="Aacute" unicode="&#xc1;" horiz-adv-x="656" 
d="M147 245l-26 -80c-5 -16 -4 -18 8 -35l89 -128v-2h-237v2l96 128c15 19 17 23 23 42l139 426c6 19 6 22 -6 35l-59 68v2h235l187 -593c5 -16 12 -28 20 -41l42 -67v-2h-296v2l48 67c6 8 6 14 2 27l-47 149h-218zM258 589l-105 -324h206zM326 911h160v-2l-237 -165l-2 2z
" />
    <glyph glyph-name="Edieresis" unicode="&#xcb;" horiz-adv-x="607" 
d="M146 829c0 39 31 67 69 67c37 0 68 -28 68 -67c0 -38 -31 -66 -68 -66c-38 0 -69 28 -69 66zM345 829c0 39 31 67 68 67c38 0 69 -28 69 -67c0 -38 -31 -66 -69 -66c-37 0 -68 28 -68 66zM551 703v-242h-2l-129 206c-8 13 -13 16 -28 16h-103c-14 0 -17 -2 -17 -20v-301
h68c12 1 16 2 26 14l90 104h2v-255h-2l-90 104c-10 11 -14 13 -27 13h-67v-302c0 -18 3 -20 17 -20h115c17 0 23 2 30 14l124 212h2v-246h-545v2l67 63c8 8 9 11 9 24v525c0 13 -1 16 -9 24l-67 63v2h536z" />
    <glyph glyph-name="Egrave" unicode="&#xc8;" horiz-adv-x="607" 
d="M551 703v-242h-2l-129 206c-8 13 -13 16 -28 16h-103c-14 0 -17 -2 -17 -20v-301h68c12 1 16 2 26 14l90 104h2v-255h-2l-90 104c-10 11 -14 13 -27 13h-67v-302c0 -18 3 -20 17 -20h115c17 0 23 2 30 14l124 212h2v-246h-545v2l67 63c8 8 9 11 9 24v525
c0 13 -1 16 -9 24l-67 63v2h536zM144 911h160l79 -165l-1 -1l-238 164v2z" />
    <glyph glyph-name="Iacute" unicode="&#xcd;" horiz-adv-x="364" 
d="M272 89c0 -13 1 -16 10 -24l66 -63v-2h-333v2l67 63c8 8 9 11 9 24v525c0 13 -1 16 -9 24l-67 63v2h333v-2l-66 -63c-9 -8 -10 -11 -10 -24v-525zM194 911h160v-2l-237 -165l-2 2z" />
    <glyph glyph-name="Icircumflex" unicode="&#xce;" horiz-adv-x="364" 
d="M272 89c0 -13 1 -16 10 -24l66 -63v-2h-333v2l67 63c8 8 9 11 9 24v525c0 13 -1 16 -9 24l-67 63v2h333v-2l-66 -63c-9 -8 -10 -11 -10 -24v-525zM346 744l-1 -1l-163 67l-163 -67l-1 1l163 175h2z" />
    <glyph glyph-name="Idieresis" unicode="&#xcf;" horiz-adv-x="364" 
d="M272 89c0 -13 1 -16 10 -24l66 -63v-2h-333v2l67 63c8 8 9 11 9 24v525c0 13 -1 16 -9 24l-67 63v2h333v-2l-66 -63c-9 -8 -10 -11 -10 -24v-525zM14 829c0 39 31 67 69 67c37 0 68 -28 68 -67c0 -38 -31 -66 -68 -66c-38 0 -69 28 -69 66zM213 829c0 39 31 67 68 67
c38 0 69 -28 69 -67c0 -38 -31 -66 -69 -66c-37 0 -68 28 -68 66z" />
    <glyph glyph-name="Igrave" unicode="&#xcc;" horiz-adv-x="364" 
d="M272 89c0 -13 1 -16 10 -24l66 -63v-2h-333v2l67 63c8 8 9 11 9 24v525c0 13 -1 16 -9 24l-67 63v2h333v-2l-66 -63c-9 -8 -10 -11 -10 -24v-525zM12 911h160l79 -165l-1 -1l-238 164v2z" />
    <glyph glyph-name="Oacute" unicode="&#xd3;" horiz-adv-x="732" 
d="M379 911h160v-2l-237 -165l-2 2zM366 9c85 0 133 95 133 343s-48 342 -133 342s-133 -94 -133 -342s48 -343 133 -343zM366 713c211 0 339 -123 339 -362c0 -238 -128 -361 -339 -361s-339 123 -339 361c0 239 128 362 339 362z" />
    <glyph glyph-name="Ocircumflex" unicode="&#xd4;" horiz-adv-x="732" 
d="M530 744l-1 -1l-163 67l-163 -67l-1 1l163 175h2zM366 9c85 0 133 95 133 343s-48 342 -133 342s-133 -94 -133 -342s48 -343 133 -343zM366 713c211 0 339 -123 339 -362c0 -238 -128 -361 -339 -361s-339 123 -339 361c0 239 128 362 339 362z" />
    <glyph glyph-name="apple" unicode="&#xf8ff;" horiz-adv-x="1254" 
d="M666 341c-21 0 -62 3 -80 3c-76 0 -108 -38 -136 -100c-30 -67 -73 -120 -165 -120c-25 0 -60 4 -83 4c-77 0 -128 -48 -128 -106c0 -11 0 -16 1 -22h-19c-1 7 -1 11 -1 22c0 72 61 125 148 125c24 0 62 -4 83 -4c79 0 122 49 147 109c23 56 65 111 153 111
c21 0 62 -3 80 -3c74 0 109 39 137 101c30 66 72 118 164 118c25 0 60 -4 83 -4c77 0 130 51 130 106c0 11 0 16 -1 22h19c1 -7 1 -11 1 -22c0 -70 -63 -125 -150 -125c-24 0 -62 4 -83 4c-77 0 -117 -41 -146 -107c-29 -69 -75 -112 -154 -112z" />
    <glyph glyph-name="Ograve" unicode="&#xd2;" horiz-adv-x="732" 
d="M366 9c85 0 133 95 133 343s-48 342 -133 342s-133 -94 -133 -342s48 -343 133 -343zM366 713c211 0 339 -123 339 -362c0 -238 -128 -361 -339 -361s-339 123 -339 361c0 239 128 362 339 362zM196 911h160l79 -165l-1 -1l-238 164v2z" />
    <glyph glyph-name="Uacute" unicode="&#xda;" horiz-adv-x="673" 
d="M389 911h160v-2l-237 -165l-2 2zM349 -10c-187 0 -272 67 -272 249v374c0 13 -1 16 -10 24l-60 64v2h323v-2l-62 -64c-9 -8 -10 -11 -10 -24v-363c0 -163 55 -222 153 -222c94 0 152 73 152 226v281c0 15 -1 19 -13 33l-98 133v2h243v-2l-98 -133
c-12 -14 -13 -18 -13 -33v-279c0 -166 -62 -266 -235 -266z" />
    <glyph glyph-name="Ucircumflex" unicode="&#xdb;" horiz-adv-x="673" 
d="M540 744l-1 -1l-163 67l-163 -67l-1 1l163 175h2zM349 -10c-187 0 -272 67 -272 249v374c0 13 -1 16 -10 24l-60 64v2h323v-2l-62 -64c-9 -8 -10 -11 -10 -24v-363c0 -163 55 -222 153 -222c94 0 152 73 152 226v281c0 15 -1 19 -13 33l-98 133v2h243v-2l-98 -133
c-12 -14 -13 -18 -13 -33v-279c0 -166 -62 -266 -235 -266z" />
    <glyph glyph-name="Ugrave" unicode="&#xd9;" horiz-adv-x="673" 
d="M349 -10c-187 0 -272 67 -272 249v374c0 13 -1 16 -10 24l-60 64v2h323v-2l-62 -64c-9 -8 -10 -11 -10 -24v-363c0 -163 55 -222 153 -222c94 0 152 73 152 226v281c0 15 -1 19 -13 33l-98 133v2h243v-2l-98 -133c-12 -14 -13 -18 -13 -33v-279
c0 -166 -62 -266 -235 -266zM206 911h160l79 -165l-1 -1l-238 164v2z" />
    <glyph glyph-name="dotlessi" unicode="&#x131;" horiz-adv-x="310" 
d="M242 495v-423c0 -12 1 -15 10 -24l49 -46v-2h-280v2l49 46c8 8 9 11 9 24v346c0 12 -1 16 -9 25l-49 50v2h221z" />
    <glyph glyph-name="circumflex" unicode="&#x2c6;" horiz-adv-x="428" 
d="M378 536l-1 -1l-163 67l-163 -67l-1 1l163 175h2z" />
    <glyph glyph-name="tilde" unicode="&#x2dc;" horiz-adv-x="393" 
d="M258 562c-52 0 -96 49 -141 49c-28 0 -52 -12 -64 -49h-2v24c0 62 36 102 84 102c52 0 96 -49 141 -49c27 0 52 12 65 49h2c0 -8 0 -17 -1 -25c-3 -62 -36 -101 -84 -101z" />
    <glyph glyph-name="macron" unicode="&#xaf;" horiz-adv-x="381" 
d="M331 592h-281v20h281v-20z" />
    <glyph glyph-name="breve" unicode="&#x2d8;" horiz-adv-x="363" 
d="M181 617c73 0 122 33 126 95h2c2 -15 4 -28 4 -42c0 -91 -66 -130 -132 -130c-65 0 -130 39 -130 130c0 14 1 27 4 42h2c3 -62 53 -95 124 -95z" />
    <glyph glyph-name="dotaccent" unicode="&#x2d9;" horiz-adv-x="253" 
d="M50 624c0 45 36 73 77 73c42 0 76 -28 76 -73c0 -43 -34 -70 -76 -70c-41 0 -77 27 -77 70z" />
    <glyph glyph-name="ring" unicode="&#x2da;" horiz-adv-x="290" 
d="M240 631c0 -53 -41 -92 -95 -92c-49 0 -95 41 -95 92c0 53 40 94 94 94c55 0 96 -38 96 -94zM219 632c0 43 -31 73 -75 73c-42 0 -73 -31 -73 -73c0 -41 35 -73 74 -73c43 0 74 31 74 73z" />
    <glyph glyph-name="cedilla" unicode="&#xb8;" horiz-adv-x="361" 
d="M298 -142c0 -54 -44 -94 -117 -94c-64 0 -123 36 -127 95l2 1c13 -43 57 -58 84 -58c34 0 64 19 64 56s-30 56 -65 56c-12 0 -25 -2 -38 -7l-1 2l74 88h2l-8 -57c74 14 130 -28 130 -82z" />
    <glyph glyph-name="hungarumlaut" unicode="&#x2dd;" horiz-adv-x="453" 
d="M107 703h129v-2l-184 -170h-2zM274 703h129v-2l-184 -170h-2z" />
    <glyph glyph-name="ogonek" unicode="&#x2db;" horiz-adv-x="336" 
d="M131 -102c0 -51 31 -78 73 -78c27 0 59 13 80 45l2 -1c-18 -53 -56 -100 -127 -100c-57 0 -109 36 -109 102c0 64 61 117 151 136l1 -2c-46 -20 -71 -57 -71 -102z" />
    <glyph glyph-name="caron" unicode="&#x2c7;" horiz-adv-x="428" 
d="M214 644l163 67l1 -2l-163 -174h-2l-163 174l1 2z" />
    <glyph glyph-name="AEacute" unicode="&#x1fc;" horiz-adv-x="947" 
d="M600 912h160v-2l-237 -165l-2 2zM900 246v-246h-546v2l66 63c9 8 10 11 10 24v156h-231l-47 -77c-13 -21 -13 -25 -2 -45l68 -121v-2h-246v2l115 119c21 22 29 29 40 46l266 433c10 15 8 18 -1 28l-69 73v2h567v-242h-2l-130 206c-8 13 -13 16 -28 16h-103
c-14 0 -16 -2 -16 -20v-301h67c12 1 16 2 26 14l91 104h2v-255h-2l-91 104c-10 11 -14 13 -26 13h-67v-302c0 -18 2 -20 16 -20h116c16 0 21 3 29 14l124 212h4zM430 620l-219 -356h219v356z" />
    <glyph glyph-name="Abreve" unicode="&#x102;" horiz-adv-x="656" 
d="M147 245l-26 -80c-5 -16 -4 -18 8 -35l89 -128v-2h-237v2l96 128c15 19 17 23 23 42l139 426c6 19 6 22 -6 35l-59 68v2h235l187 -593c5 -16 12 -28 20 -41l42 -67v-2h-296v2l48 67c6 8 6 14 2 27l-47 149h-218zM258 589l-105 -324h206zM310 825c73 0 122 33 126 95h2
c2 -15 4 -28 4 -42c0 -91 -66 -130 -132 -130c-65 0 -130 39 -130 130c0 14 1 27 4 42h2c3 -62 53 -95 124 -95z" />
    <glyph glyph-name="Amacron" unicode="&#x100;" horiz-adv-x="656" 
d="M147 245l-26 -80c-5 -16 -4 -18 8 -35l89 -128v-2h-237v2l96 128c15 19 17 23 23 42l139 426c6 19 6 22 -6 35l-59 68v2h235l187 -593c5 -16 12 -28 20 -41l42 -67v-2h-296v2l48 67c6 8 6 14 2 27l-47 149h-218zM258 589l-105 -324h206zM452 800h-281v20h281v-20z" />
    <glyph glyph-name="Aogonek" unicode="&#x104;" horiz-adv-x="656" 
d="M147 245l-26 -80c-5 -16 -4 -18 8 -35l89 -128v-2h-237v2l96 128c15 19 17 23 23 42l139 426c6 19 6 22 -6 35l-59 68v2h235l187 -593c5 -16 12 -28 20 -41l42 -67v-2h-284c-42 -21 -65 -60 -65 -102c0 -51 31 -78 73 -78c27 0 59 13 80 45l2 -1
c-18 -53 -56 -100 -127 -100c-57 0 -109 36 -109 102c0 60 54 114 134 136l48 67c6 8 6 14 2 27l-47 149h-218zM258 589l-105 -324h206z" />
    <glyph glyph-name="Aringacute" unicode="&#x1fa;" horiz-adv-x="656" 
d="M308 993h145v-2l-159 -95c-22 -12 -45 -28 -55 -41c23 21 47 26 70 26c53 0 96 -27 96 -72c0 -44 -43 -71 -95 -71c-48 0 -95 29 -95 71c0 16 6 29 14 43zM384 809c0 34 -33 53 -75 53c-40 0 -73 -19 -73 -53c0 -32 36 -51 74 -51c41 0 74 18 74 51zM147 245l-26 -80
c-5 -16 -4 -18 8 -35l89 -128v-2h-237v2l96 128c15 19 17 23 23 42l139 426c6 19 6 22 -6 35l-59 68v2h235l187 -593c5 -16 12 -28 20 -41l42 -67v-2h-296v2l48 67c6 8 6 14 2 27l-47 149h-218zM258 589l-105 -324h206z" />
    <glyph glyph-name="Cacute" unicode="&#x106;" horiz-adv-x="633" 
d="M381 911h160v-2l-237 -165l-2 2zM586 694v-246h-2l-152 230c-8 13 -14 16 -33 16h-14c-113 0 -152 -137 -152 -344c0 -211 42 -341 154 -341h11c20 0 25 3 33 14l153 236h2v-251c-71 -13 -144 -18 -213 -18c-239 0 -346 143 -346 360c0 220 120 363 342 363
c72 0 145 -6 217 -19z" />
    <glyph glyph-name="Ccaron" unicode="&#x10c;" horiz-adv-x="633" 
d="M368 849l163 67l1 -2l-163 -174h-2l-163 174l1 2zM586 694v-246h-2l-152 230c-8 13 -14 16 -33 16h-14c-113 0 -152 -137 -152 -344c0 -211 42 -341 154 -341h11c20 0 25 3 33 14l153 236h2v-251c-71 -13 -144 -18 -213 -18c-239 0 -346 143 -346 360
c0 220 120 363 342 363c72 0 145 -6 217 -19z" />
    <glyph glyph-name="Ccircumflex" unicode="&#x108;" horiz-adv-x="633" 
d="M532 744l-1 -1l-163 67l-163 -67l-1 1l163 175h2zM586 694v-246h-2l-152 230c-8 13 -14 16 -33 16h-14c-113 0 -152 -137 -152 -344c0 -211 42 -341 154 -341h11c20 0 25 3 33 14l153 236h2v-251c-71 -13 -144 -18 -213 -18c-239 0 -346 143 -346 360
c0 220 120 363 342 363c72 0 145 -6 217 -19z" />
    <glyph glyph-name="Cdotaccent" unicode="&#x10a;" horiz-adv-x="633" 
d="M586 694v-246h-2l-152 230c-8 13 -14 16 -33 16h-14c-113 0 -152 -137 -152 -344c0 -211 42 -341 154 -341h11c20 0 25 3 33 14l153 236h2v-251c-71 -13 -144 -18 -213 -18c-239 0 -346 143 -346 360c0 220 120 363 342 363c72 0 145 -6 217 -19zM291 832
c0 45 36 73 77 73c42 0 76 -28 76 -73c0 -43 -34 -70 -76 -70c-41 0 -77 27 -77 70z" />
    <glyph glyph-name="Dcaron" unicode="&#x10e;" horiz-adv-x="720" 
d="M323 849l163 67l1 -2l-163 -174h-2l-163 174l1 2zM15 0v2l67 63c8 8 9 11 9 24v525c0 13 -1 16 -9 24l-67 63v2h334c232 0 346 -132 346 -336c0 -232 -133 -367 -365 -367h-315zM293 20h21c130 0 176 116 176 333c0 214 -46 330 -169 330h-32c-14 0 -17 -2 -17 -19v-624
c0 -19 3 -20 21 -20z" />
    <glyph glyph-name="Dcroat" unicode="&#x110;" horiz-adv-x="734" 
d="M16 350v18h90v245c0 15 -1 18 -10 26l-67 62v2h334c233 0 347 -131 347 -333c0 -228 -132 -370 -365 -370h-316v2l67 62c9 8 10 12 10 27v259h-90zM336 683h-32c-14 0 -17 -2 -17 -19v-296h106v-18h-106v-310c0 -19 2 -20 21 -20h21c128 0 175 116 175 333
c0 214 -45 330 -168 330z" />
    <glyph glyph-name="Ebreve" unicode="&#x114;" horiz-adv-x="607" 
d="M551 703v-242h-2l-129 206c-8 13 -13 16 -28 16h-103c-14 0 -17 -2 -17 -20v-301h68c12 1 16 2 26 14l90 104h2v-255h-2l-90 104c-10 11 -14 13 -27 13h-67v-302c0 -18 3 -20 17 -20h115c17 0 23 2 30 14l124 212h2v-246h-545v2l67 63c8 8 9 11 9 24v525
c0 13 -1 16 -9 24l-67 63v2h536zM311 825c73 0 122 33 126 95h2c2 -15 4 -28 4 -42c0 -91 -66 -130 -132 -130c-65 0 -130 39 -130 130c0 14 1 27 4 42h2c3 -62 53 -95 124 -95z" />
    <glyph glyph-name="Ecaron" unicode="&#x11a;" horiz-adv-x="607" 
d="M314 849l163 67l1 -2l-163 -174h-2l-163 174l1 2zM551 703v-242h-2l-129 206c-8 13 -13 16 -28 16h-103c-14 0 -17 -2 -17 -20v-301h68c12 1 16 2 26 14l90 104h2v-255h-2l-90 104c-10 11 -14 13 -27 13h-67v-302c0 -18 3 -20 17 -20h115c17 0 23 2 30 14l124 212h2v-246
h-545v2l67 63c8 8 9 11 9 24v525c0 13 -1 16 -9 24l-67 63v2h536z" />
    <glyph glyph-name="Edotaccent" unicode="&#x116;" horiz-adv-x="607" 
d="M551 703v-242h-2l-129 206c-8 13 -13 16 -28 16h-103c-14 0 -17 -2 -17 -20v-301h68c12 1 16 2 26 14l90 104h2v-255h-2l-90 104c-10 11 -14 13 -27 13h-67v-302c0 -18 3 -20 17 -20h115c17 0 23 2 30 14l124 212h2v-246h-545v2l67 63c8 8 9 11 9 24v525
c0 13 -1 16 -9 24l-67 63v2h536zM237 832c0 45 36 73 77 73c42 0 76 -28 76 -73c0 -43 -34 -70 -76 -70c-41 0 -77 27 -77 70z" />
    <glyph glyph-name="Emacron" unicode="&#x112;" horiz-adv-x="607" 
d="M551 703v-242h-2l-129 206c-8 13 -13 16 -28 16h-103c-14 0 -17 -2 -17 -20v-301h68c12 1 16 2 26 14l90 104h2v-255h-2l-90 104c-10 11 -14 13 -27 13h-67v-302c0 -18 3 -20 17 -20h115c17 0 23 2 30 14l124 212h2v-246h-545v2l67 63c8 8 9 11 9 24v525
c0 13 -1 16 -9 24l-67 63v2h536zM454 800h-281v20h281v-20z" />
    <glyph glyph-name="Eng" unicode="&#x14a;" horiz-adv-x="695" 
d="M272 583v-494c0 -13 1 -16 10 -24l66 -63v-2h-333v2l67 63c8 8 9 11 9 24v525c0 13 -1 16 -9 24l-67 63v2h257v-108c26 71 96 116 178 116c118 0 201 -71 201 -209v-432c0 -180 -113 -271 -276 -271v2c70 18 99 93 99 201v480c0 103 -41 147 -108 147
c-34 0 -75 -19 -94 -46z" />
    <glyph glyph-name="Eogonek" unicode="&#x118;" horiz-adv-x="607" 
d="M551 703v-242h-2l-129 206c-8 13 -13 16 -28 16h-103c-14 0 -17 -2 -17 -20v-301h68c12 1 16 2 26 14l90 104h2v-255h-2l-90 104c-10 11 -14 13 -27 13h-67v-302c0 -18 3 -20 17 -20h115c17 0 23 2 30 14l124 212h2v-246h-98c-46 -20 -71 -57 -71 -102
c0 -51 31 -78 73 -78c27 0 59 13 80 45l2 -1c-18 -53 -56 -100 -127 -100c-57 0 -109 36 -109 102c0 62 57 114 142 134h-437v2l67 63c8 8 9 11 9 24v525c0 13 -1 16 -9 24l-67 63v2h536z" />
    <glyph glyph-name="Gbreve" unicode="&#x11e;" horiz-adv-x="692" 
d="M604 690v-245h-2l-156 233c-8 13 -13 16 -31 16h-17c-123 0 -165 -132 -165 -332c0 -257 48 -348 145 -348c18 0 35 3 50 9c8 4 9 7 9 16v178c0 16 -1 18 -9 28l-56 64v2h311v-2l-56 -64c-8 -10 -9 -12 -9 -28v-227l-152 27c-40 -17 -76 -27 -131 -27
c-188 0 -309 135 -309 361c0 218 125 362 349 362c70 0 147 -5 229 -23zM358 825c73 0 122 33 126 95h2c2 -15 4 -28 4 -42c0 -91 -66 -130 -132 -130c-65 0 -130 39 -130 130c0 14 1 27 4 42h2c3 -62 53 -95 124 -95z" />
    <glyph glyph-name="Gcircumflex" unicode="&#x11c;" horiz-adv-x="692" 
d="M525 744l-1 -1l-163 67l-163 -67l-1 1l163 175h2zM604 690v-245h-2l-156 233c-8 13 -13 16 -31 16h-17c-123 0 -165 -132 -165 -332c0 -257 48 -348 145 -348c18 0 35 3 50 9c8 4 9 7 9 16v178c0 16 -1 18 -9 28l-56 64v2h311v-2l-56 -64c-8 -10 -9 -12 -9 -28v-227
l-152 27c-40 -17 -76 -27 -131 -27c-188 0 -309 135 -309 361c0 218 125 362 349 362c70 0 147 -5 229 -23z" />
    <glyph glyph-name="Gcommaaccent" unicode="&#x122;" horiz-adv-x="692" 
d="M428 -115c0 -66 -54 -126 -124 -142l-1 2c30 19 55 48 55 87c0 8 -3 9 -9 10c-32 4 -53 25 -53 59c0 35 26 63 64 63c41 0 68 -30 68 -79zM604 690v-245h-2l-156 233c-8 13 -13 16 -31 16h-17c-123 0 -165 -132 -165 -332c0 -257 48 -348 145 -348c18 0 35 3 50 9
c8 4 9 7 9 16v178c0 16 -1 18 -9 28l-56 64v2h311v-2l-56 -64c-8 -10 -9 -12 -9 -28v-227l-152 27c-40 -17 -76 -27 -131 -27c-188 0 -309 135 -309 361c0 218 125 362 349 362c70 0 147 -5 229 -23z" />
    <glyph glyph-name="Gdotaccent" unicode="&#x120;" horiz-adv-x="692" 
d="M604 690v-245h-2l-156 233c-8 13 -13 16 -31 16h-17c-123 0 -165 -132 -165 -332c0 -257 48 -348 145 -348c18 0 35 3 50 9c8 4 9 7 9 16v178c0 16 -1 18 -9 28l-56 64v2h311v-2l-56 -64c-8 -10 -9 -12 -9 -28v-227l-152 27c-40 -17 -76 -27 -131 -27
c-188 0 -309 135 -309 361c0 218 125 362 349 362c70 0 147 -5 229 -23zM284 832c0 45 36 73 77 73c42 0 76 -28 76 -73c0 -43 -34 -70 -76 -70c-41 0 -77 27 -77 70z" />
    <glyph glyph-name="Hbar" unicode="&#x126;" horiz-adv-x="776" 
d="M756 476h-71v-385c0 -15 0 -19 9 -27l68 -62v-2h-335v2l67 62c9 9 10 12 10 27v209h-232v-209c0 -15 1 -18 10 -27l67 -62v-2h-335v2l68 62c9 8 9 12 9 27v385h-71v19h71v117c0 15 0 19 -9 27l-68 62v2h335v-2l-67 -62c-9 -9 -10 -12 -10 -27v-117h232v117
c0 15 -1 18 -10 27l-67 62v2h335v-2l-68 -62c-9 -8 -9 -12 -9 -27v-117h71v-19zM272 476v-155h232v155h-232z" />
    <glyph glyph-name="Hcircumflex" unicode="&#x124;" horiz-adv-x="776" 
d="M552 744l-1 -1l-163 67l-163 -67l-1 1l163 175h2zM685 614v-525c0 -13 1 -16 9 -24l66 -63v-2h-332v2l66 63c8 8 10 11 10 24v261h-232v-261c0 -13 1 -16 10 -24l66 -63v-2h-333v2l67 63c8 8 9 11 9 24v525c0 13 -1 16 -9 24l-67 63v2h333v-2l-66 -63
c-9 -8 -10 -11 -10 -24v-244h232v244c0 13 -1 16 -10 24l-66 63v2h332v-2l-66 -63c-8 -8 -9 -11 -9 -24z" />
    <glyph glyph-name="IJ" unicode="&#x132;" horiz-adv-x="698" 
d="M272 89c0 -13 1 -16 10 -24l66 -63v-2h-333v2l67 63c8 8 9 11 9 24v525c0 13 -1 16 -9 24l-67 63v2h333v-2l-66 -63c-9 -8 -10 -11 -10 -24v-525zM440 59v555c0 13 -1 16 -10 24l-66 63v2h333v-2l-66 -63c-9 -8 -10 -11 -10 -24v-496c0 -198 -108 -322 -315 -329l-1 2
c94 48 135 142 135 268z" />
    <glyph glyph-name="Iacute_Jacute" horiz-adv-x="698" 
d="M272 89c0 -13 1 -16 10 -24l66 -63v-2h-333v2l67 63c8 8 9 11 9 24v525c0 13 -1 16 -9 24l-67 63v2h333v-2l-66 -63c-9 -8 -10 -11 -10 -24v-525zM194 911h160v-2l-237 -165l-2 2zM539 911h160v-2l-237 -165l-2 2zM440 59v555c0 13 -1 16 -10 24l-66 63v2h333v-2l-66 -63
c-9 -8 -10 -11 -10 -24v-496c0 -198 -108 -322 -315 -329l-1 2c94 48 135 142 135 268z" />
    <glyph glyph-name="Ibreve" unicode="&#x12c;" horiz-adv-x="364" 
d="M272 89c0 -13 1 -16 10 -24l66 -63v-2h-333v2l67 63c8 8 9 11 9 24v525c0 13 -1 16 -9 24l-67 63v2h333v-2l-66 -63c-9 -8 -10 -11 -10 -24v-525zM179 825c73 0 122 33 126 95h2c2 -15 4 -28 4 -42c0 -91 -66 -130 -132 -130c-65 0 -130 39 -130 130c0 14 1 27 4 42h2
c3 -62 53 -95 124 -95z" />
    <glyph glyph-name="Idotaccent" unicode="&#x130;" horiz-adv-x="364" 
d="M272 89c0 -13 1 -16 10 -24l66 -63v-2h-333v2l67 63c8 8 9 11 9 24v525c0 13 -1 16 -9 24l-67 63v2h333v-2l-66 -63c-9 -8 -10 -11 -10 -24v-525zM104 832c0 45 36 73 77 73c42 0 76 -28 76 -73c0 -43 -34 -70 -76 -70c-41 0 -77 27 -77 70z" />
    <glyph glyph-name="Imacron" unicode="&#x12a;" horiz-adv-x="364" 
d="M272 89c0 -13 1 -16 10 -24l66 -63v-2h-333v2l67 63c8 8 9 11 9 24v525c0 13 -1 16 -9 24l-67 63v2h333v-2l-66 -63c-9 -8 -10 -11 -10 -24v-525zM322 800h-281v20h281v-20z" />
    <glyph glyph-name="Iogonek" unicode="&#x12e;" horiz-adv-x="364" 
d="M272 89c0 -13 1 -16 10 -24l66 -63v-2h-127c-47 -19 -71 -57 -71 -102c0 -51 31 -78 74 -78c26 0 58 13 79 45l2 -1c-17 -53 -56 -100 -127 -100c-56 0 -109 36 -109 102c0 61 54 114 137 134h-191v2l67 63c8 8 9 11 9 24v525c0 13 -1 16 -9 24l-67 63v2h333v-2l-66 -63
c-9 -8 -10 -11 -10 -24v-525z" />
    <glyph glyph-name="Itilde" unicode="&#x128;" horiz-adv-x="364" 
d="M272 89c0 -13 1 -16 10 -24l66 -63v-2h-333v2l67 63c8 8 9 11 9 24v525c0 13 -1 16 -9 24l-67 63v2h333v-2l-66 -63c-9 -8 -10 -11 -10 -24v-525zM246 770c-52 0 -96 49 -141 49c-28 0 -52 -12 -64 -49h-2v24c0 62 36 102 84 102c52 0 96 -49 141 -49c27 0 52 12 65 49h2
c0 -8 0 -17 -1 -25c-3 -62 -36 -101 -84 -101z" />
    <glyph glyph-name="Jacute" horiz-adv-x="335" 
d="M176 911h160v-2l-237 -165l-2 2zM77 59v555c0 13 -1 16 -10 24l-66 63v2h333v-2l-66 -63c-9 -8 -10 -11 -10 -24v-496c0 -198 -108 -322 -315 -329l-1 2c94 48 135 142 135 268z" />
    <glyph glyph-name="Jcircumflex" unicode="&#x134;" horiz-adv-x="335" 
d="M332 744l-1 -1l-163 67l-163 -67l-1 1l163 175h2zM77 59v555c0 13 -1 16 -10 24l-66 63v2h333v-2l-66 -63c-9 -8 -10 -11 -10 -24v-496c0 -198 -108 -322 -315 -329l-1 2c94 48 135 142 135 268z" />
    <glyph glyph-name="Kcommaaccent" unicode="&#x136;" horiz-adv-x="710" 
d="M452 -115c0 -66 -54 -126 -124 -142l-1 2c30 19 55 48 55 87c0 8 -3 9 -9 10c-32 4 -53 25 -53 59c0 35 26 63 64 63c41 0 68 -30 68 -79zM272 614v-525c0 -13 1 -16 10 -24l66 -63v-2h-333v2l67 63c8 8 9 11 9 24v525c0 13 -1 16 -9 24l-67 63v2h333v-2l-66 -63
c-9 -8 -10 -11 -10 -24zM639 95c8 -13 18 -26 30 -37l58 -56v-2h-239l-208 343l209 227c11 12 10 15 0 29l-76 102v2h310v-2l-166 -104c-26 -16 -32 -20 -51 -40l-92 -97z" />
    <glyph glyph-name="Lacute" unicode="&#x139;" horiz-adv-x="581" 
d="M194 911h160v-2l-237 -165l-2 2zM91 89v525c0 13 -1 16 -9 24l-67 63v2h333v-2l-66 -63c-9 -8 -10 -11 -10 -24v-574c0 -18 3 -20 17 -20h94c17 0 22 3 29 14l139 226h2v-260h-538v2l67 63c8 8 9 11 9 24z" />
    <glyph glyph-name="Lcaron" unicode="&#x13d;" horiz-adv-x="580" 
d="M410 703h114l-121 -195h-2zM91 89v525c0 13 -1 16 -9 24l-67 63v2h333v-2l-66 -63c-9 -8 -10 -11 -10 -24v-574c0 -18 3 -20 17 -20h94c17 0 22 3 29 14l139 226h2v-260h-538v2l67 63c8 8 9 11 9 24z" />
    <glyph glyph-name="Lcommaaccent" unicode="&#x13b;" horiz-adv-x="581" 
d="M372 -115c0 -66 -54 -126 -124 -142l-1 2c30 19 55 48 55 87c0 8 -3 9 -9 10c-32 4 -53 25 -53 59c0 35 26 63 64 63c41 0 68 -30 68 -79zM91 89v525c0 13 -1 16 -9 24l-67 63v2h333v-2l-66 -63c-9 -8 -10 -11 -10 -24v-574c0 -18 3 -20 17 -20h94c17 0 22 3 29 14
l139 226h2v-260h-538v2l67 63c8 8 9 11 9 24z" />
    <glyph glyph-name="Ldot" unicode="&#x13f;" horiz-adv-x="581" 
d="M94 89v525c0 13 -1 16 -9 24l-67 63v2h333v-2l-66 -63c-9 -8 -10 -11 -10 -24v-574c0 -18 3 -20 17 -20h94c17 0 22 3 29 14l139 226h2v-260h-538v2l67 63c8 8 9 11 9 24zM371 389c0 45 36 73 77 73c42 0 76 -28 76 -73c0 -43 -34 -70 -76 -70c-41 0 -77 27 -77 70z" />
    <glyph glyph-name="Nacute" unicode="&#x143;" horiz-adv-x="707" 
d="M368 911h160v-2l-237 -165l-2 2zM607 0h-122l-345 534v-366c0 -15 2 -18 12 -31l103 -135v-2h-249v2l100 134c11 14 13 17 13 32v378c0 16 -1 21 -9 32l-100 123v2h236l340 -528v360c0 15 -1 18 -12 32l-102 134v2h249v-2l-101 -134c-10 -14 -13 -17 -13 -32v-535z" />
    <glyph glyph-name="Ncaron" unicode="&#x147;" horiz-adv-x="707" 
d="M355 849l163 67l1 -2l-163 -174h-2l-163 174l1 2zM607 0h-122l-345 534v-366c0 -15 2 -18 12 -31l103 -135v-2h-249v2l100 134c11 14 13 17 13 32v378c0 16 -1 21 -9 32l-100 123v2h236l340 -528v360c0 15 -1 18 -12 32l-102 134v2h249v-2l-101 -134
c-10 -14 -13 -17 -13 -32v-535z" />
    <glyph glyph-name="Ncommaaccent" unicode="&#x145;" horiz-adv-x="707" 
d="M424 -115c0 -66 -54 -126 -124 -142l-1 2c30 19 55 48 55 87c0 8 -3 9 -9 10c-32 4 -53 25 -53 59c0 35 26 63 64 63c41 0 68 -30 68 -79zM607 0h-122l-345 534v-366c0 -15 2 -18 12 -31l103 -135v-2h-249v2l100 134c11 14 13 17 13 32v378c0 16 -1 21 -9 32l-100 123v2
h236l340 -528v360c0 15 -1 18 -12 32l-102 134v2h249v-2l-101 -134c-10 -14 -13 -17 -13 -32v-535z" />
    <glyph glyph-name="Obreve" unicode="&#x14e;" horiz-adv-x="732" 
d="M366 9c85 0 133 95 133 343s-48 342 -133 342s-133 -94 -133 -342s48 -343 133 -343zM366 713c211 0 339 -123 339 -362c0 -238 -128 -361 -339 -361s-339 123 -339 361c0 239 128 362 339 362zM362 825c73 0 122 33 126 95h2c2 -15 4 -28 4 -42
c0 -91 -66 -130 -132 -130c-65 0 -130 39 -130 130c0 14 1 27 4 42h2c3 -62 53 -95 124 -95z" />
    <glyph glyph-name="Ohungarumlaut" unicode="&#x150;" horiz-adv-x="732" 
d="M313 911h129v-2l-184 -170h-2zM480 911h129v-2l-184 -170h-2zM366 9c85 0 133 95 133 343s-48 342 -133 342s-133 -94 -133 -342s48 -343 133 -343zM366 713c211 0 339 -123 339 -362c0 -238 -128 -361 -339 -361s-339 123 -339 361c0 239 128 362 339 362z" />
    <glyph glyph-name="Omacron" unicode="&#x14c;" horiz-adv-x="732" 
d="M505 800h-281v20h281v-20zM366 9c85 0 133 95 133 343s-48 342 -133 342s-133 -94 -133 -342s48 -343 133 -343zM366 713c211 0 339 -123 339 -362c0 -238 -128 -361 -339 -361s-339 123 -339 361c0 239 128 362 339 362z" />
    <glyph glyph-name="Oslashacute" unicode="&#x1fe;" horiz-adv-x="732" 
d="M366 713c54 0 103 -9 145 -25l41 92l17 -7l-41 -92c113 -50 177 -161 177 -330c0 -238 -128 -361 -339 -361c-50 0 -95 7 -134 20l-40 -91l-18 7l40 90c-119 48 -187 161 -187 335c0 239 128 362 339 362zM233 352c0 -105 8 -182 25 -237l213 482c-22 68 -58 97 -105 97
c-85 0 -133 -94 -133 -342zM366 9c85 0 133 95 133 343c0 93 -7 165 -20 218l-212 -481c22 -56 56 -80 99 -80zM387 911h160v-2l-237 -165l-2 2z" />
    <glyph glyph-name="Racute" unicode="&#x154;" horiz-adv-x="696" 
d="M352 911h160v-2l-237 -165l-2 2zM324 328h-52v-240c0 -13 1 -16 10 -24l67 -62v-2h-334v2l67 63c8 8 9 11 9 24v525c0 13 -1 16 -9 24l-67 63v2h386c123 0 232 -49 232 -180c0 -107 -81 -173 -219 -183v-2l129 -38l91 -216c6 -15 13 -24 27 -38l43 -44v-2h-234l-124 316
c-4 8 -7 12 -22 12zM272 664v-316h52c70 0 116 47 116 164c0 121 -42 171 -112 171h-38c-15 0 -18 -2 -18 -19z" />
    <glyph glyph-name="Rcaron" unicode="&#x158;" horiz-adv-x="696" 
d="M339 849l163 67l1 -2l-163 -174h-2l-163 174l1 2zM324 328h-52v-240c0 -13 1 -16 10 -24l67 -62v-2h-334v2l67 63c8 8 9 11 9 24v525c0 13 -1 16 -9 24l-67 63v2h386c123 0 232 -49 232 -180c0 -107 -81 -173 -219 -183v-2l129 -38l91 -216c6 -15 13 -24 27 -38l43 -44
v-2h-234l-124 316c-4 8 -7 12 -22 12zM272 664v-316h52c70 0 116 47 116 164c0 121 -42 171 -112 171h-38c-15 0 -18 -2 -18 -19z" />
    <glyph glyph-name="Rcommaaccent" unicode="&#x156;" horiz-adv-x="696" 
d="M433 -115c0 -66 -54 -126 -124 -142l-1 2c30 19 55 48 55 87c0 8 -3 9 -9 10c-32 4 -53 25 -53 59c0 35 26 63 64 63c41 0 68 -30 68 -79zM324 328h-52v-240c0 -13 1 -16 10 -24l67 -62v-2h-334v2l67 63c8 8 9 11 9 24v525c0 13 -1 16 -9 24l-67 63v2h386
c123 0 232 -49 232 -180c0 -107 -81 -173 -219 -183v-2l129 -38l91 -216c6 -15 13 -24 27 -38l43 -44v-2h-234l-124 316c-4 8 -7 12 -22 12zM272 664v-316h52c70 0 116 47 116 164c0 121 -42 171 -112 171h-38c-15 0 -18 -2 -18 -19z" />
    <glyph glyph-name="Sacute" unicode="&#x15a;" horiz-adv-x="566" 
d="M296 911h160v-2l-237 -165l-2 2zM544 218c0 -136 -111 -228 -280 -228c-60 0 -143 10 -205 28v239h2l132 -228c7 -12 10 -16 22 -18c15 -2 29 -2 42 -2c81 0 136 41 136 115c0 67 -47 97 -138 140l-31 15c-89 42 -186 100 -186 225c0 127 102 209 260 209
c52 0 122 -6 192 -23v-228h-2l-135 216c-7 10 -10 12 -20 14c-11 2 -20 2 -29 2c-70 0 -119 -40 -119 -110c0 -64 49 -93 127 -131l37 -18c106 -51 195 -99 195 -217z" />
    <glyph glyph-name="Scedilla" unicode="&#x15e;" horiz-adv-x="566" 
d="M264 -10c-60 0 -143 10 -205 28v239h2l132 -228c7 -12 10 -15 22 -17c15 -3 29 -3 42 -3c81 0 136 41 136 115c0 67 -47 97 -138 140l-31 15c-89 42 -186 100 -186 225c0 127 102 209 260 209c52 0 122 -6 192 -23v-228h-2l-135 216c-7 10 -10 13 -20 14
c-10 2 -20 2 -29 2c-70 0 -119 -40 -119 -110c0 -64 49 -93 127 -131l37 -18c106 -51 195 -99 195 -217c0 -131 -104 -222 -263 -228l-7 -50c74 14 130 -28 130 -82s-45 -94 -117 -94c-65 0 -124 36 -127 95l2 1c13 -43 57 -58 84 -58c33 0 63 19 63 56c0 36 -29 56 -63 56
c-12 0 -25 -1 -39 -7l-1 2l70 81h-12z" />
    <glyph glyph-name="Scircumflex" unicode="&#x15c;" horiz-adv-x="566" 
d="M446 744l-1 -1l-163 67l-163 -67l-1 1l163 175h2zM544 218c0 -136 -111 -228 -280 -228c-60 0 -143 10 -205 28v239h2l132 -228c7 -12 10 -16 22 -18c15 -2 29 -2 42 -2c81 0 136 41 136 115c0 67 -47 97 -138 140l-31 15c-89 42 -186 100 -186 225
c0 127 102 209 260 209c52 0 122 -6 192 -23v-228h-2l-135 216c-7 10 -10 12 -20 14c-11 2 -20 2 -29 2c-70 0 -119 -40 -119 -110c0 -64 49 -93 127 -131l37 -18c106 -51 195 -99 195 -217z" />
    <glyph glyph-name="Scommaaccent" unicode="&#x218;" horiz-adv-x="566" 
d="M349 -115c0 -66 -54 -126 -124 -142l-1 2c30 19 55 48 55 87c0 8 -3 9 -9 10c-32 4 -53 25 -53 59c0 35 26 63 64 63c41 0 68 -30 68 -79zM544 218c0 -136 -111 -228 -280 -228c-60 0 -143 10 -205 28v239h2l132 -228c7 -12 10 -16 22 -18c15 -2 29 -2 42 -2
c81 0 136 41 136 115c0 67 -47 97 -138 140l-31 15c-89 42 -186 100 -186 225c0 127 102 209 260 209c52 0 122 -6 192 -23v-228h-2l-135 216c-7 10 -10 12 -20 14c-11 2 -20 2 -29 2c-70 0 -119 -40 -119 -110c0 -64 49 -93 127 -131l37 -18c106 -51 195 -99 195 -217z" />
    <glyph glyph-name="Tbar" unicode="&#x166;" horiz-adv-x="637" 
d="M535 334h-127v-238c0 -15 1 -17 11 -26l74 -68v-2h-350v2l74 68c9 9 11 11 11 26v238h-125v19h125v330h-57c-16 0 -19 -2 -26 -16l-123 -234h-2v270h596v-270h-2l-123 234c-7 14 -10 16 -26 16h-57v-330h127v-19z" />
    <glyph glyph-name="Tcaron" unicode="&#x164;" horiz-adv-x="634" 
d="M318 849l163 67l1 -2l-163 -174h-2l-163 174l1 2zM407 96c0 -15 1 -17 11 -26l74 -68v-2h-350v2l74 68c9 9 11 11 11 26v587h-57c-16 0 -19 -2 -26 -16l-123 -234h-2v270h596v-270h-2l-123 234c-7 14 -10 16 -26 16h-57v-587z" />
    <glyph glyph-name="Tcommaaccent" unicode="&#x162;" horiz-adv-x="634" 
d="M380 -118c0 -66 -54 -126 -124 -142l-1 2c30 19 55 48 55 87c0 8 -3 9 -9 10c-32 4 -53 25 -53 59c0 35 26 63 64 63c41 0 68 -30 68 -79zM407 96c0 -15 1 -17 11 -26l74 -68v-2h-350v2l74 68c9 9 11 11 11 26v587h-57c-16 0 -19 -2 -26 -16l-123 -234h-2v270h596v-270
h-2l-123 234c-7 14 -10 16 -26 16h-57v-587z" />
    <glyph glyph-name="Ubreve" unicode="&#x16c;" horiz-adv-x="673" 
d="M349 -10c-187 0 -272 67 -272 249v374c0 13 -1 16 -10 24l-60 64v2h323v-2l-62 -64c-9 -8 -10 -11 -10 -24v-363c0 -163 55 -222 153 -222c94 0 152 73 152 226v281c0 15 -1 19 -13 33l-98 133v2h243v-2l-98 -133c-12 -14 -13 -18 -13 -33v-279
c0 -166 -62 -266 -235 -266zM373 825c73 0 122 33 126 95h2c2 -15 4 -28 4 -42c0 -91 -66 -130 -132 -130c-65 0 -130 39 -130 130c0 14 1 27 4 42h2c3 -62 53 -95 124 -95z" />
    <glyph glyph-name="Uhungarumlaut" unicode="&#x170;" horiz-adv-x="673" 
d="M349 -10c-187 0 -272 67 -272 249v374c0 13 -1 16 -10 24l-60 64v2h323v-2l-62 -64c-9 -8 -10 -11 -10 -24v-363c0 -163 55 -222 153 -222c94 0 152 73 152 226v281c0 15 -1 19 -13 33l-98 133v2h243v-2l-98 -133c-12 -14 -13 -18 -13 -33v-279
c0 -166 -62 -266 -235 -266zM323 911h129v-2l-184 -170h-2zM490 911h129v-2l-184 -170h-2z" />
    <glyph glyph-name="Umacron" unicode="&#x16a;" horiz-adv-x="673" 
d="M349 -10c-187 0 -272 67 -272 249v374c0 13 -1 16 -10 24l-60 64v2h323v-2l-62 -64c-9 -8 -10 -11 -10 -24v-363c0 -163 55 -222 153 -222c94 0 152 73 152 226v281c0 15 -1 19 -13 33l-98 133v2h243v-2l-98 -133c-12 -14 -13 -18 -13 -33v-279
c0 -166 -62 -266 -235 -266zM516 800h-281v20h281v-20z" />
    <glyph glyph-name="Uogonek" unicode="&#x172;" horiz-adv-x="673" 
d="M336 -236c-56 0 -109 36 -109 100c0 58 50 105 123 126h-1c-187 0 -272 67 -272 249v374c0 13 -1 16 -10 24l-60 64v2h323v-2l-62 -64c-9 -8 -10 -11 -10 -24v-363c0 -163 55 -222 153 -222c94 0 152 73 152 226v281c0 15 -1 19 -13 33l-98 133v2h243v-2l-98 -133
c-11 -15 -13 -18 -13 -33v-279c0 -160 -57 -258 -215 -265c-40 -20 -61 -53 -61 -93c0 -51 31 -78 73 -78c27 0 59 13 80 45l2 -1c-17 -53 -56 -100 -127 -100z" />
    <glyph glyph-name="Uring" unicode="&#x16e;" horiz-adv-x="673" 
d="M472 839c0 -53 -41 -92 -95 -92c-49 0 -95 41 -95 92c0 53 40 94 94 94c55 0 96 -38 96 -94zM451 840c0 43 -31 73 -75 73c-42 0 -73 -31 -73 -73c0 -41 35 -73 74 -73c43 0 74 31 74 73zM349 -10c-187 0 -272 67 -272 249v374c0 13 -1 16 -10 24l-60 64v2h323v-2
l-62 -64c-9 -8 -10 -11 -10 -24v-363c0 -163 55 -222 153 -222c94 0 152 73 152 226v281c0 15 -1 19 -13 33l-98 133v2h243v-2l-98 -133c-12 -14 -13 -18 -13 -33v-279c0 -166 -62 -266 -235 -266z" />
    <glyph glyph-name="Utilde" unicode="&#x168;" horiz-adv-x="673" 
d="M349 -10c-187 0 -272 67 -272 249v374c0 13 -1 16 -10 24l-60 64v2h323v-2l-62 -64c-9 -8 -10 -11 -10 -24v-363c0 -163 55 -222 153 -222c94 0 152 73 152 226v281c0 15 -1 19 -13 33l-98 133v2h243v-2l-98 -133c-12 -14 -13 -18 -13 -33v-279
c0 -166 -62 -266 -235 -266zM440 770c-52 0 -96 49 -141 49c-28 0 -52 -12 -64 -49h-2v24c0 62 36 102 84 102c52 0 96 -49 141 -49c27 0 52 12 65 49h2c0 -8 0 -17 -1 -25c-3 -62 -36 -101 -84 -101z" />
    <glyph glyph-name="Wacute" unicode="&#x1e82;" horiz-adv-x="1016" 
d="M547 911h160v-2l-237 -165l-2 2zM629 0l-123 400l-127 -400h-140l-185 593c-5 16 -12 28 -20 41l-42 67v2h296v-2l-48 -67c-6 -8 -6 -14 -2 -26l153 -496l104 325l-48 156c-5 16 -10 26 -17 38l-39 70v2h291v-2l-48 -67c-6 -9 -7 -14 -3 -26l150 -495l131 423
c5 16 4 21 -7 36l-90 129v2h237v-2l-95 -127c-14 -18 -18 -23 -24 -43l-164 -531h-140z" />
    <glyph glyph-name="Wcircumflex" unicode="&#x174;" horiz-adv-x="1016" 
d="M697 744l-1 -1l-163 67l-163 -67l-1 1l163 175h2zM629 0l-123 400l-127 -400h-140l-185 593c-5 16 -12 28 -20 41l-42 67v2h296v-2l-48 -67c-6 -8 -6 -14 -2 -26l153 -496l104 325l-48 156c-5 16 -10 26 -17 38l-39 70v2h291v-2l-48 -67c-6 -9 -7 -14 -3 -26l150 -495
l131 423c5 16 4 21 -7 36l-90 129v2h237v-2l-95 -127c-14 -18 -18 -23 -24 -43l-164 -531h-140z" />
    <glyph glyph-name="Wdieresis" unicode="&#x1e84;" horiz-adv-x="1016" 
d="M365 829c0 39 31 67 69 67c37 0 68 -28 68 -67c0 -38 -31 -66 -68 -66c-38 0 -69 28 -69 66zM564 829c0 39 31 67 68 67c38 0 69 -28 69 -67c0 -38 -31 -66 -69 -66c-37 0 -68 28 -68 66zM629 0l-123 400l-127 -400h-140l-185 593c-5 16 -12 28 -20 41l-42 67v2h296v-2
l-48 -67c-6 -8 -6 -14 -2 -26l153 -496l104 325l-48 156c-5 16 -10 26 -17 38l-39 70v2h291v-2l-48 -67c-6 -9 -7 -14 -3 -26l150 -495l131 423c5 16 4 21 -7 36l-90 129v2h237v-2l-95 -127c-14 -18 -18 -23 -24 -43l-164 -531h-140z" />
    <glyph glyph-name="Wgrave" unicode="&#x1e80;" horiz-adv-x="1016" 
d="M629 0l-123 400l-127 -400h-140l-185 593c-5 16 -12 28 -20 41l-42 67v2h296v-2l-48 -67c-6 -8 -6 -14 -2 -26l153 -496l104 325l-48 156c-5 16 -10 26 -17 38l-39 70v2h291v-2l-48 -67c-6 -9 -7 -14 -3 -26l150 -495l131 423c5 16 4 21 -7 36l-90 129v2h237v-2l-95 -127
c-14 -18 -18 -23 -24 -43l-164 -531h-140zM363 911h160l79 -165l-1 -1l-238 164v2z" />
    <glyph glyph-name="Ycircumflex" unicode="&#x176;" horiz-adv-x="640" 
d="M415 267v-171c0 -15 1 -17 11 -26l73 -68v-2h-349v2l74 68c9 9 10 11 10 26v154c0 11 -1 17 -6 25l-165 316c-10 19 -17 30 -27 43l-50 67v2h336v-2l-60 -69c-8 -9 -10 -12 -4 -24l146 -294l115 235c7 15 6 18 -3 31l-86 121v2h250v-2l-113 -121c-15 -15 -18 -20 -27 -37
l-117 -238c-7 -14 -8 -20 -8 -38zM519 744l-1 -1l-163 67l-163 -67l-1 1l163 175h2z" />
    <glyph glyph-name="Ygrave" unicode="&#x1ef2;" horiz-adv-x="640" 
d="M415 267v-171c0 -15 1 -17 11 -26l73 -68v-2h-349v2l74 68c9 9 10 11 10 26v154c0 11 -1 17 -6 25l-165 316c-10 19 -17 30 -27 43l-50 67v2h336v-2l-60 -69c-8 -9 -10 -12 -4 -24l146 -294l115 235c7 15 6 18 -3 31l-86 121v2h250v-2l-113 -121c-15 -15 -18 -20 -27 -37
l-117 -238c-7 -14 -8 -20 -8 -38zM185 911h160l79 -165l-1 -1l-238 164v2z" />
    <glyph glyph-name="Zacute" unicode="&#x179;" horiz-adv-x="627" 
d="M347 911h160v-2l-237 -165l-2 2zM582 0h-571v2l396 681h-183c-17 0 -21 -1 -27 -12l-143 -236h-2v268h560v-2l-397 -681h193c17 0 21 1 27 12l145 235h2v-267z" />
    <glyph glyph-name="Zdotaccent" unicode="&#x17b;" horiz-adv-x="627" 
d="M582 0h-571v2l396 681h-183c-17 0 -21 -1 -27 -12l-143 -236h-2v268h560v-2l-397 -681h193c17 0 21 1 27 12l145 235h2v-267zM257 832c0 45 36 73 77 73c42 0 76 -28 76 -73c0 -43 -34 -70 -76 -70c-41 0 -77 27 -77 70z" />
    <glyph glyph-name="abreve" unicode="&#x103;" 
d="M456 301c0 -10 -1 -33 -1 -36l-6 -142c-2 -39 7 -58 27 -58c13 0 22 6 28 18h2c0 -9 -2 -24 -8 -36c-16 -33 -50 -55 -98 -55c-57 0 -106 34 -109 97c-20 -58 -71 -97 -136 -97c-73 0 -136 49 -136 141c0 99 86 151 168 151c43 0 79 -8 106 -27l2 107v5
c0 69 -21 115 -73 115c-20 0 -21 -1 -27 -12l-81 -150h-2l-63 143c67 24 138 38 202 38c67 0 119 -12 155 -46c32 -30 50 -79 50 -156zM256 253c-52 0 -81 -45 -81 -103c0 -55 25 -85 59 -85c22 0 44 15 57 35v1l2 146c-12 4 -24 6 -37 6zM248 617c73 0 122 33 126 95h2
c2 -15 4 -28 4 -42c0 -91 -66 -130 -132 -130c-65 0 -130 39 -130 130c0 14 1 27 4 42h2c3 -62 53 -95 124 -95z" />
    <glyph glyph-name="aeacute" unicode="&#x1fd;" horiz-adv-x="784" 
d="M434 703h160v-2l-237 -165l-2 2zM761 270h-300v-3c0 -129 66 -182 144 -182c59 0 118 26 151 92h2c-25 -126 -103 -185 -220 -185c-85 0 -166 36 -210 111c-12 -50 -64 -111 -161 -111c-82 0 -148 50 -148 142c0 99 87 150 166 150c47 0 81 -10 108 -26c0 15 2 94 2 110
c0 69 -21 115 -74 115c-19 0 -20 -2 -26 -12l-81 -149h-2l-64 145c67 23 132 36 198 36c57 0 97 -11 133 -46l12 -14c40 39 89 60 153 60c105 0 218 -50 218 -211c0 -7 0 -11 -1 -22zM541 484c-49 0 -78 -50 -80 -196h148c3 158 -24 196 -68 196zM245 64c30 0 59 14 79 46
c-19 35 -30 78 -30 130v7c-12 4 -25 6 -38 6c-52 0 -81 -44 -81 -101c0 -56 30 -88 70 -88z" />
    <glyph glyph-name="amacron" unicode="&#x101;" 
d="M456 301c0 -10 -1 -33 -1 -36l-6 -142c-2 -39 7 -58 27 -58c13 0 22 6 28 18h2c0 -9 -2 -24 -8 -36c-16 -33 -50 -55 -98 -55c-57 0 -106 34 -109 97c-20 -58 -71 -97 -136 -97c-73 0 -136 49 -136 141c0 99 86 151 168 151c43 0 79 -8 106 -27l2 107v5
c0 69 -21 115 -73 115c-20 0 -21 -1 -27 -12l-81 -150h-2l-63 143c67 24 138 38 202 38c67 0 119 -12 155 -46c32 -30 50 -79 50 -156zM256 253c-52 0 -81 -45 -81 -103c0 -55 25 -85 59 -85c22 0 44 15 57 35v1l2 146c-12 4 -24 6 -37 6zM391 592h-281v20h281v-20z" />
    <glyph glyph-name="aogonek" unicode="&#x105;" 
d="M389 -236c-57 0 -109 36 -109 102c0 59 49 105 125 126h-5c-57 0 -106 34 -109 97c-20 -58 -71 -97 -136 -97c-73 0 -136 49 -136 141c0 99 86 151 168 151c43 0 79 -8 106 -27l2 107v5c0 69 -21 115 -73 115c-15 0 -21 -1 -27 -12l-81 -150h-2l-63 143
c67 24 138 38 202 38c67 0 119 -12 155 -46c32 -30 50 -79 50 -156c0 -10 -2 -50 -2 -53l-5 -125c-2 -39 7 -58 27 -58c13 0 22 6 28 18h2c0 -10 -2 -24 -8 -36c-12 -25 -35 -44 -69 -52c-44 -18 -68 -53 -68 -97c0 -51 31 -78 73 -78c27 0 59 13 80 45l2 -1
c-18 -53 -56 -100 -127 -100zM256 253c-52 0 -81 -45 -81 -103c0 -55 25 -85 59 -85c22 0 44 15 57 35l2 147c-12 4 -24 6 -37 6z" />
    <glyph glyph-name="aringacute" unicode="&#x1fb;" 
d="M245 780h145v-2l-160 -94c-22 -13 -45 -29 -54 -41c23 20 47 25 69 25c54 0 96 -27 96 -72c0 -43 -42 -70 -95 -70c-47 0 -95 29 -95 70c0 17 6 30 14 44zM321 597c0 34 -34 52 -75 52c-40 0 -74 -19 -74 -52s37 -52 74 -52c41 0 75 19 75 52zM293 257l2 107v5
c0 69 -21 115 -73 115c-20 0 -22 -1 -27 -12l-81 -150h-2l-63 143c67 24 138 38 202 38c67 0 119 -12 155 -46c32 -30 50 -79 50 -156c0 -10 -1 -19 -1 -22l-6 -156c-2 -39 7 -58 27 -58c13 0 22 6 28 18h2c1 -12 -2 -24 -8 -36c-16 -33 -50 -55 -98 -55
c-57 0 -106 34 -109 97c-20 -58 -71 -97 -136 -97c-73 0 -136 49 -136 141c0 99 86 151 168 151c43 0 79 -8 106 -27zM256 253c-52 0 -81 -45 -81 -103c0 -55 25 -85 59 -85c22 0 44 15 57 35v1l2 146c-12 4 -24 6 -37 6z" />
    <glyph glyph-name="cacute" unicode="&#x107;" horiz-adv-x="471" 
d="M292 703h160v-2l-237 -165l-2 2zM253 -8c-119 0 -233 80 -233 250c0 193 137 261 266 261c53 0 107 -9 170 -30l-64 -172h-2l-77 171c-4 10 -6 12 -18 12h-5c-61 0 -95 -65 -95 -194c0 -153 67 -204 135 -204c53 0 96 30 123 82h2c-17 -108 -87 -176 -202 -176z" />
    <glyph glyph-name="caronslovak" horiz-adv-x="294" 
d="M129 703h114l-121 -195h-2z" />
    <glyph glyph-name="ccaron" unicode="&#x10d;" horiz-adv-x="471" 
d="M279 642l163 67l1 -2l-163 -174h-2l-163 174l1 2zM253 -8c-119 0 -233 80 -233 250c0 193 137 261 266 261c53 0 107 -9 170 -30l-64 -172h-2l-77 171c-4 10 -6 12 -18 12h-5c-61 0 -95 -65 -95 -194c0 -153 67 -204 135 -204c53 0 96 30 123 82h2
c-17 -108 -87 -176 -202 -176z" />
    <glyph glyph-name="ccircumflex" unicode="&#x109;" horiz-adv-x="471" 
d="M443 536l-1 -1l-163 67l-163 -67l-1 1l163 175h2zM253 -8c-119 0 -233 80 -233 250c0 193 137 261 266 261c53 0 107 -9 170 -30l-64 -172h-2l-77 171c-4 10 -6 12 -18 12h-5c-61 0 -95 -65 -95 -194c0 -153 67 -204 135 -204c53 0 96 30 123 82h2
c-17 -108 -87 -176 -202 -176z" />
    <glyph glyph-name="cdotaccent" unicode="&#x10b;" horiz-adv-x="471" 
d="M253 -8c-119 0 -233 80 -233 250c0 193 137 261 266 261c53 0 107 -9 170 -30l-64 -172h-2l-77 171c-4 10 -6 12 -18 12h-5c-61 0 -95 -65 -95 -194c0 -153 67 -204 135 -204c53 0 96 30 123 82h2c-17 -108 -87 -176 -202 -176zM202 624c0 45 36 73 77 73
c42 0 76 -28 76 -73c0 -43 -34 -70 -76 -70c-41 0 -77 27 -77 70z" />
    <glyph glyph-name="commaaccent" unicode="&#xf6c3;" horiz-adv-x="232" 
d="M182 -118c0 -66 -54 -126 -124 -142l-1 2c30 19 55 48 55 87c0 8 -3 9 -9 10c-32 4 -53 25 -53 59c0 35 26 63 64 63c41 0 68 -30 68 -79z" />
    <glyph glyph-name="commatop" horiz-adv-x="266" 
d="M192 621c0 -35 -26 -64 -64 -64c-41 0 -68 31 -68 79c0 68 55 125 124 143l1 -2c-32 -20 -55 -49 -55 -87c0 -8 3 -10 9 -10c32 0 53 -25 53 -59z" />
    <glyph glyph-name="currency" unicode="&#xa4;" horiz-adv-x="664" 
d="M331 120c-62 0 -119 20 -161 56l-112 -112l-14 14l112 111c-39 40 -62 96 -62 163s24 122 62 162l-112 113l13 14l113 -113c42 36 99 57 161 57s119 -21 162 -58l113 113l13 -13l-113 -113c39 -40 63 -95 63 -162s-24 -121 -62 -161l112 -113l-13 -14l-113 113
c-43 -37 -100 -57 -162 -57zM331 139c120 0 218 82 218 213c0 130 -98 214 -218 214s-216 -84 -216 -214c0 -131 96 -213 216 -213z" />
    <glyph glyph-name="dcaron" unicode="&#x10f;" horiz-adv-x="620" 
d="M590 703h114l-121 -195h-2zM529 729v-654c0 -13 0 -16 9 -24l50 -49v-2h-222v94c-30 -69 -83 -102 -147 -102c-114 0 -197 90 -197 254c0 154 90 257 215 257c65 0 107 -31 129 -80v207c0 13 -1 17 -10 25l-48 46v2zM296 67c25 0 50 12 70 38v309c-14 18 -38 31 -65 31
c-54 0 -106 -49 -106 -194c0 -136 45 -184 101 -184z" />
    <glyph glyph-name="dcroat" unicode="&#x111;" horiz-adv-x="604" 
d="M530 729v-143h65v-19h-65v-492c0 -13 0 -16 9 -24l50 -49v-2h-222v94c-30 -69 -83 -102 -147 -102c-114 0 -197 90 -197 254c0 154 90 257 215 257c65 0 107 -31 129 -80v144h-118v19h118v44c0 13 -1 17 -10 25l-48 46v2zM297 67c25 0 50 12 70 38v309
c-14 18 -38 31 -65 31c-54 0 -106 -49 -106 -194c0 -136 45 -184 101 -184z" />
    <glyph glyph-name="dotlessj" unicode="&#x237;" horiz-adv-x="289" 
d="M237 37c0 -167 -88 -262 -246 -264c-7 0 -13 1 -19 1v2c69 14 101 84 101 205v437c0 13 -1 16 -9 25l-49 50v2h222v-458z" />
    <glyph glyph-name="ebreve" unicode="&#x115;" 
d="M490 270h-300v-2c0 -130 66 -183 143 -183c60 0 119 26 152 92h2c-26 -126 -104 -185 -221 -185c-126 0 -245 76 -245 252c0 185 118 259 251 259c106 0 219 -50 219 -211c0 -3 0 -10 -1 -22zM270 484c-50 0 -78 -51 -80 -196h147c1 13 1 26 1 30c0 131 -27 166 -68 166z
M269 617c73 0 122 33 126 95h2c2 -15 4 -28 4 -42c0 -91 -66 -130 -132 -130c-65 0 -130 39 -130 130c0 14 1 27 4 42h2c3 -62 53 -95 124 -95z" />
    <glyph glyph-name="ecaron" unicode="&#x11b;" 
d="M272 642l163 67l1 -2l-163 -174h-2l-163 174l1 2zM490 270h-300v-2c0 -130 66 -183 143 -183c60 0 119 26 152 92h2c-26 -126 -104 -185 -221 -185c-126 0 -245 76 -245 252c0 185 118 259 251 259c106 0 219 -50 219 -211c0 -3 0 -10 -1 -22zM270 484
c-50 0 -78 -51 -80 -196h147c1 13 1 26 1 30c0 131 -27 166 -68 166z" />
    <glyph glyph-name="edotaccent" unicode="&#x117;" 
d="M490 270h-300v-2c0 -130 66 -183 143 -183c60 0 119 26 152 92h2c-26 -126 -104 -185 -221 -185c-126 0 -245 76 -245 252c0 185 118 259 251 259c106 0 219 -50 219 -211c0 -3 0 -10 -1 -22zM270 484c-50 0 -78 -51 -80 -196h147c1 13 1 26 1 30c0 131 -27 166 -68 166z
M194 624c0 45 36 73 77 73c42 0 76 -28 76 -73c0 -43 -34 -70 -76 -70c-41 0 -77 27 -77 70z" />
    <glyph glyph-name="emacron" unicode="&#x113;" 
d="M490 270h-300v-2c0 -130 66 -183 143 -183c60 0 119 26 152 92h2c-26 -126 -104 -185 -221 -185c-126 0 -245 76 -245 252c0 185 118 259 251 259c106 0 219 -50 219 -211c0 -3 0 -10 -1 -22zM270 484c-50 0 -78 -51 -80 -196h147c1 13 1 26 1 30c0 131 -27 166 -68 166z
M411 592h-281v20h281v-20z" />
    <glyph glyph-name="eng" unicode="&#x14b;" horiz-adv-x="608" 
d="M393 -23l-1 292c0 91 -14 151 -76 151c-32 0 -56 -18 -74 -44v-304c0 -13 0 -16 9 -24l49 -46v-2h-280v2l49 46c9 8 9 11 9 24v346c0 13 -1 16 -9 25l-49 50v2h222v-106c25 70 78 114 159 114c100 0 156 -72 156 -210v-248c0 -179 -102 -271 -266 -271v2
c70 18 102 94 102 201z" />
    <glyph glyph-name="eogonek" unicode="&#x119;" 
d="M273 -236c-56 0 -109 36 -109 102c0 58 51 107 128 127c-10 -1 -17 -1 -26 -1c-126 0 -245 76 -245 252c0 185 118 259 251 259c106 0 219 -50 219 -211c0 -7 0 -12 -1 -22h-300v-2c0 -130 66 -183 143 -183c60 0 119 26 152 92h2c-23 -109 -84 -167 -175 -181
c-43 -17 -67 -55 -67 -98c0 -51 31 -78 73 -78c27 0 59 13 80 45l2 -1c-17 -53 -56 -100 -127 -100zM270 484c-50 0 -78 -51 -80 -196h147c1 11 1 21 1 30c0 131 -27 166 -68 166z" />
    <glyph glyph-name="estimated" unicode="&#x212e;" horiz-adv-x="664" 
d="M599 237h-508c4 -139 112 -228 243 -228c107 0 199 61 231 159l21 -7c-35 -107 -135 -171 -252 -171c-146 0 -264 99 -264 256c0 158 118 257 264 257s265 -99 265 -257v-9zM334 483c-131 0 -238 -89 -243 -227h487c-5 138 -113 227 -244 227z" />
    <glyph glyph-name="gbreve" unicode="&#x11f;" horiz-adv-x="525" 
d="M34 337c0 114 92 166 215 166c62 0 109 -13 137 -28c9 -5 12 -5 21 5l104 110l2 -1v-150h-94c30 -24 51 -57 51 -108c0 -110 -94 -156 -218 -156c-29 0 -56 2 -81 8c-21 -8 -31 -22 -31 -37c0 -27 34 -44 102 -44h93c115 0 179 -43 179 -133c0 -123 -122 -205 -282 -205
c-99 0 -205 32 -205 101c0 40 33 78 116 90c-70 15 -109 57 -109 109c0 59 49 104 126 122c-75 19 -126 66 -126 151zM187 -50c-13 1 -24 2 -35 4c-25 -15 -40 -34 -40 -64c0 -67 76 -105 154 -105c73 0 147 31 147 96c0 39 -22 62 -96 65zM188 340c0 -111 23 -148 64 -148
s64 37 64 147c0 109 -22 147 -64 147s-64 -38 -64 -146zM252 617c73 0 122 33 126 95h2c2 -15 4 -28 4 -42c0 -91 -66 -130 -132 -130c-65 0 -130 39 -130 130c0 14 1 27 4 42h2c3 -62 53 -95 124 -95z" />
    <glyph glyph-name="gcircumflex" unicode="&#x11d;" horiz-adv-x="525" 
d="M419 536l-1 -1l-163 67l-163 -67l-1 1l163 175h2zM34 337c0 114 92 166 215 166c62 0 109 -13 137 -28c9 -5 12 -5 21 5l104 110l2 -1v-150h-94c30 -24 51 -57 51 -108c0 -110 -94 -156 -218 -156c-29 0 -56 2 -81 8c-21 -8 -31 -22 -31 -37c0 -27 34 -44 102 -44h93
c115 0 179 -43 179 -133c0 -123 -122 -205 -282 -205c-99 0 -205 32 -205 101c0 40 33 78 116 90c-70 15 -109 57 -109 109c0 59 49 104 126 122c-75 19 -126 66 -126 151zM187 -50c-13 1 -24 2 -35 4c-25 -15 -40 -34 -40 -64c0 -67 76 -105 154 -105c73 0 147 31 147 96
c0 39 -22 62 -96 65zM188 340c0 -111 23 -148 64 -148s64 37 64 147c0 109 -22 147 -64 147s-64 -38 -64 -146z" />
    <glyph glyph-name="gcommaaccent" unicode="&#x123;" horiz-adv-x="525" 
d="M34 337c0 114 92 166 215 166c62 0 109 -13 137 -28c9 -5 12 -5 21 5l104 110l2 -1v-150h-94c30 -24 51 -57 51 -108c0 -110 -94 -156 -218 -156c-29 0 -56 2 -81 8c-21 -8 -31 -22 -31 -37c0 -27 34 -44 102 -44h93c115 0 179 -43 179 -133c0 -123 -122 -205 -282 -205
c-99 0 -205 32 -205 101c0 40 33 78 116 90c-70 15 -109 57 -109 109c0 59 49 104 126 122c-75 19 -126 66 -126 151zM187 -50c-13 1 -24 2 -35 4c-25 -15 -40 -34 -40 -64c0 -67 76 -105 154 -105c73 0 147 31 147 96c0 39 -22 62 -96 65zM188 340c0 -111 23 -148 64 -148
s64 37 64 147c0 109 -22 147 -64 147s-64 -38 -64 -146zM323 605c0 -35 -26 -64 -64 -64c-41 0 -68 31 -68 79c0 68 55 125 124 143l1 -2c-32 -20 -55 -49 -55 -87c0 -8 3 -10 9 -10c32 0 53 -25 53 -59z" />
    <glyph glyph-name="gdotaccent" unicode="&#x121;" horiz-adv-x="525" 
d="M34 337c0 114 92 166 215 166c62 0 109 -13 137 -28c9 -5 12 -5 21 5l104 110l2 -1v-150h-94c30 -24 51 -57 51 -108c0 -110 -94 -156 -218 -156c-29 0 -56 2 -81 8c-21 -8 -31 -22 -31 -37c0 -27 34 -44 102 -44h93c115 0 179 -43 179 -133c0 -123 -122 -205 -282 -205
c-99 0 -205 32 -205 101c0 40 33 78 116 90c-70 15 -109 57 -109 109c0 59 49 104 126 122c-75 19 -126 66 -126 151zM187 -50c-13 1 -24 2 -35 4c-25 -15 -40 -34 -40 -64c0 -67 76 -105 154 -105c73 0 147 31 147 96c0 39 -22 62 -96 65zM188 340c0 -111 23 -148 64 -148
s64 37 64 147c0 109 -22 147 -64 147s-64 -38 -64 -146zM178 624c0 45 36 73 77 73c42 0 76 -28 76 -73c0 -43 -34 -70 -76 -70c-41 0 -77 27 -77 70z" />
    <glyph glyph-name="hbar" unicode="&#x127;" horiz-adv-x="604" 
d="M545 292c0 -62 -2 -141 -3 -220c0 -13 1 -16 10 -24l49 -46v-2h-280v2l47 46c9 8 10 12 10 23c0 15 3 150 3 198c0 91 -15 151 -76 151c-34 0 -57 -19 -75 -45v-303c0 -13 1 -16 10 -24l49 -46v-2h-280v2l49 46c8 8 9 11 9 24v495h-61v19h61v44c0 13 -1 17 -9 25l-49 46
v2l221 26v-143h124v-19h-124v-181c25 72 77 117 159 117c101 0 156 -73 156 -211z" />
    <glyph glyph-name="hcircumflex" unicode="&#x125;" horiz-adv-x="604" 
d="M313 744l-1 -1l-163 67l-163 -67l-1 1l163 175h2zM545 292c0 -62 -2 -141 -3 -220c0 -13 1 -16 10 -24l49 -46v-2h-280v2l47 46c9 8 10 12 10 23c0 15 3 150 3 198c0 91 -15 151 -76 151c-34 0 -57 -19 -75 -45v-303c0 -13 1 -16 10 -24l49 -46v-2h-280v2l49 46
c8 8 9 11 9 24v558c0 13 -1 17 -9 25l-49 46v2l221 26v-343c25 72 77 117 159 117c101 0 156 -73 156 -211z" />
    <glyph glyph-name="ibreve" unicode="&#x12d;" horiz-adv-x="310" 
d="M242 495v-423c0 -12 1 -15 10 -24l49 -46v-2h-280v2l49 46c8 8 9 11 9 24v346c0 12 -1 16 -9 25l-49 50v2h221zM147 617c73 0 122 33 126 95h2c2 -15 4 -28 4 -42c0 -91 -66 -130 -132 -130c-65 0 -130 39 -130 130c0 14 1 27 4 42h2c3 -62 53 -95 124 -95z" />
    <glyph glyph-name="ij" unicode="&#x133;" horiz-adv-x="599" 
d="M157 550c-43 0 -80 29 -80 74c0 48 37 78 80 78c45 0 81 -30 81 -78c0 -45 -36 -74 -81 -74zM20 495h222v-423c0 -13 0 -16 9 -24l49 -46v-2h-280v2l49 46c9 8 9 11 9 24v346c0 13 -1 16 -9 25l-49 50v2zM547 37c0 -168 -90 -263 -250 -264c-5 0 -10 0 -15 1v2
c69 14 101 84 101 205v437c0 13 -1 16 -9 25l-49 50v2h222v-458zM381 624c0 48 38 78 81 78c45 0 81 -30 81 -78c0 -45 -36 -74 -81 -74c-43 0 -81 29 -81 74z" />
    <glyph glyph-name="imacron" unicode="&#x12b;" horiz-adv-x="310" 
d="M242 495v-423c0 -12 1 -15 10 -24l49 -46v-2h-280v2l49 46c8 8 9 11 9 24v346c0 12 -1 16 -9 25l-49 50v2h221zM286 592h-281v20h281v-20z" />
    <glyph glyph-name="iogonek" unicode="&#x12f;" horiz-adv-x="310" 
d="M163 -236c-57 0 -109 36 -109 102c0 61 54 114 136 134h-170v2l49 46c9 8 9 11 9 24v346c0 13 -1 16 -9 25l-49 50v2h222v-423c0 -13 0 -16 9 -24l49 -46v-2h-95c-47 -19 -70 -57 -70 -102c0 -51 31 -78 73 -78c27 0 59 13 80 45l2 -1c-18 -53 -56 -100 -127 -100z
M157 550c-43 0 -80 29 -80 74c0 48 37 78 80 78c45 0 81 -30 81 -78c0 -45 -36 -74 -81 -74z" />
    <glyph glyph-name="itilde" unicode="&#x129;" horiz-adv-x="310" 
d="M242 495v-423c0 -12 1 -15 10 -24l49 -46v-2h-280v2l49 46c8 8 9 11 9 24v346c0 12 -1 16 -9 25l-49 50v2h221zM214 562c-52 0 -96 49 -141 49c-28 0 -52 -12 -64 -49h-2v24c0 62 36 102 84 102c52 0 96 -49 141 -49c27 0 52 12 65 49h2c0 -8 0 -17 -1 -25
c-3 -62 -36 -101 -84 -101z" />
    <glyph glyph-name="jacute" horiz-adv-x="289" 
d="M237 37c0 -167 -88 -262 -246 -264c-7 0 -13 1 -19 1v2c69 14 101 84 101 205v437c0 13 -1 16 -9 25l-49 50v2h222v-458zM143 703h160v-2l-237 -165l-2 2z" />
    <glyph glyph-name="jcircumflex" unicode="&#x135;" horiz-adv-x="289" 
d="M237 37c0 -167 -88 -262 -246 -264c-7 0 -13 1 -19 1v2c69 14 101 84 101 205v437c0 13 -1 16 -9 25l-49 50v2h222v-458zM311 536l-1 -1l-163 67l-163 -67l-1 1l163 175h2z" />
    <glyph glyph-name="kcommaaccent" unicode="&#x137;" horiz-adv-x="572" 
d="M370 -115c0 -66 -54 -126 -124 -142l-1 2c30 19 55 48 55 87c0 8 -3 9 -9 10c-32 4 -53 25 -53 59c0 35 26 63 64 63c41 0 68 -30 68 -79zM383 336l134 -264c7 -13 14 -22 23 -31l42 -39v-2h-212l-111 236c-4 9 -11 12 -18 12c-3 0 -7 -1 -11 -4v-172c0 -13 1 -16 10 -24
l49 -46v-2h-280v2l49 46c8 8 9 11 9 24v558c0 13 -1 17 -9 25l-49 46v2l221 26v-474l162 121c8 6 8 12 2 20l-68 97v2h245v-2l-183 -139c-8 -6 -9 -9 -5 -18z" />
    <glyph glyph-name="kgreenlandic" unicode="&#x138;" horiz-adv-x="582" 
d="M242 244v-172c0 -13 0 -16 9 -24l49 -46v-2h-280v2l49 46c9 8 9 11 9 24v346c0 13 -1 16 -9 25l-49 50v2h222v-240l161 121c8 6 8 12 3 20l-69 97v2h245v-2l-182 -139c-8 -6 -10 -9 -6 -18l135 -264c7 -13 13 -22 23 -31l41 -39v-2h-212l-111 236c-4 9 -10 12 -17 12
c-4 0 -7 -2 -11 -4z" />
    <glyph glyph-name="lacute" unicode="&#x13a;" horiz-adv-x="298" 
d="M162 911h160v-2l-237 -165l-2 2zM230 729v-657c0 -13 1 -16 10 -24l49 -46v-2h-280v2l49 46c8 8 9 11 9 24v558c0 13 -1 17 -9 25l-49 46v2z" />
    <glyph glyph-name="lcaron" unicode="&#x13e;" horiz-adv-x="321" 
d="M292 703h114l-121 -195h-2zM230 729v-657c0 -13 1 -16 10 -24l49 -46v-2h-280v2l49 46c8 8 9 11 9 24v558c0 13 -1 17 -9 25l-49 46v2z" />
    <glyph glyph-name="lcommaaccent" unicode="&#x13c;" horiz-adv-x="298" 
d="M217 -115c0 -66 -54 -126 -124 -142l-1 2c30 19 55 48 55 87c0 8 -3 9 -9 10c-32 4 -53 25 -53 59c0 35 26 63 64 63c41 0 68 -30 68 -79zM230 729v-657c0 -13 1 -16 10 -24l49 -46v-2h-280v2l49 46c8 8 9 11 9 24v558c0 13 -1 17 -9 25l-49 46v2z" />
    <glyph glyph-name="ldot" unicode="&#x140;" horiz-adv-x="420" 
d="M230 729v-657c0 -13 1 -16 10 -24l49 -46v-2h-280v2l49 46c8 8 9 11 9 24v558c0 13 -1 17 -9 25l-49 46v2zM272 358c0 45 36 73 77 73c42 0 76 -28 76 -73c0 -43 -34 -70 -76 -70c-41 0 -77 27 -77 70z" />
    <glyph glyph-name="nacute" unicode="&#x144;" horiz-adv-x="615" 
d="M326 703h160v-2l-237 -165l-2 2zM557 292c0 -62 -2 -141 -3 -220c0 -13 1 -16 9 -24l50 -46v-2h-281v2l48 46c8 8 9 12 9 23c0 15 3 150 3 198c0 91 -14 151 -76 151c-32 0 -56 -18 -74 -44v-304c0 -13 0 -16 9 -24l49 -46v-2h-280v2l49 46c9 8 9 11 9 24v346
c0 13 -1 16 -9 25l-49 50v2h222v-106c25 70 78 114 159 114c100 0 156 -73 156 -211z" />
    <glyph glyph-name="napostrophe" unicode="&#x149;" horiz-adv-x="676" 
d="M102 616c0 -66 -54 -126 -124 -142l-1 2c30 19 55 48 55 87c0 8 -3 9 -9 10c-32 4 -53 25 -53 59c0 35 26 63 64 63c41 0 68 -30 68 -79zM618 292c0 -62 -2 -141 -3 -220c0 -13 1 -16 9 -24l50 -46v-2h-281v2l48 46c8 8 9 12 9 23c0 15 3 150 3 198c0 91 -14 151 -76 151
c-32 0 -56 -18 -74 -44v-304c0 -13 0 -16 9 -24l49 -46v-2h-280v2l49 46c9 8 9 11 9 24v346c0 13 -1 16 -9 25l-49 50v2h222v-106c25 70 78 114 159 114c100 0 156 -73 156 -211z" />
    <glyph glyph-name="ncaron" unicode="&#x148;" horiz-adv-x="615" 
d="M313 642l163 67l1 -2l-163 -174h-2l-163 174l1 2zM557 292c0 -62 -2 -141 -3 -220c0 -13 1 -16 9 -24l50 -46v-2h-281v2l48 46c8 8 9 12 9 23c0 15 3 150 3 198c0 91 -14 151 -76 151c-32 0 -56 -18 -74 -44v-304c0 -13 0 -16 9 -24l49 -46v-2h-280v2l49 46
c9 8 9 11 9 24v346c0 13 -1 16 -9 25l-49 50v2h222v-106c25 70 78 114 159 114c100 0 156 -73 156 -211z" />
    <glyph glyph-name="ncommaaccent" unicode="&#x146;" horiz-adv-x="615" 
d="M386 -115c0 -66 -54 -126 -124 -142l-1 2c30 19 55 48 55 87c0 8 -3 9 -9 10c-32 4 -53 25 -53 59c0 35 26 63 64 63c41 0 68 -30 68 -79zM557 292c0 -62 -2 -141 -3 -220c0 -13 1 -16 9 -24l50 -46v-2h-281v2l48 46c8 8 9 12 9 23c0 15 3 150 3 198
c0 91 -14 151 -76 151c-32 0 -56 -18 -74 -44v-304c0 -13 0 -16 9 -24l49 -46v-2h-280v2l49 46c9 8 9 11 9 24v346c0 13 -1 16 -9 25l-49 50v2h222v-106c25 70 78 114 159 114c100 0 156 -73 156 -211z" />
    <glyph glyph-name="obreve" unicode="&#x14f;" horiz-adv-x="571" 
d="M285 484c-50 0 -81 -42 -81 -236c0 -193 31 -238 81 -238s81 43 81 237c0 193 -31 237 -81 237zM285 -8c-158 0 -263 86 -263 256c0 168 105 255 263 255s264 -86 264 -256c0 -168 -106 -255 -264 -255zM282 617c73 0 122 33 126 95h2c2 -15 4 -28 4 -42
c0 -91 -66 -130 -132 -130c-65 0 -130 39 -130 130c0 14 1 27 4 42h2c3 -62 53 -95 124 -95z" />
    <glyph glyph-name="ohungarumlaut" unicode="&#x151;" horiz-adv-x="571" 
d="M232 703h129v-2l-184 -170h-2zM399 703h129v-2l-184 -170h-2zM285 484c-50 0 -81 -42 -81 -236c0 -193 31 -238 81 -238s81 43 81 237c0 193 -31 237 -81 237zM285 -8c-158 0 -263 86 -263 256c0 168 105 255 263 255s264 -86 264 -256c0 -168 -106 -255 -264 -255z" />
    <glyph glyph-name="omacron" unicode="&#x14d;" horiz-adv-x="571" 
d="M424 592h-281v20h281v-20zM285 484c-50 0 -81 -42 -81 -236c0 -193 31 -238 81 -238s81 43 81 237c0 193 -31 237 -81 237zM285 -8c-158 0 -263 86 -263 256c0 168 105 255 263 255s264 -86 264 -256c0 -168 -106 -255 -264 -255z" />
    <glyph glyph-name="oslashacute" unicode="&#x1ff;" horiz-adv-x="571" 
d="M438 567l-37 -83c92 -33 148 -111 148 -237c0 -171 -106 -255 -264 -255c-35 0 -67 4 -96 12l-37 -85l-19 8l36 83c-92 33 -148 111 -148 238c0 171 106 255 264 255c35 0 67 -4 96 -12l38 84zM285 484c-51 0 -80 -42 -80 -236c0 -60 2 -105 8 -140l137 312
c-13 49 -35 64 -65 64zM366 247c0 59 -3 104 -8 138l-138 -312c14 -48 36 -62 65 -62c52 0 81 42 81 236zM298 703h160v-2l-237 -165l-2 2z" />
    <glyph glyph-name="racute" unicode="&#x155;" horiz-adv-x="428" 
d="M250 703h160v-2l-237 -165l-2 2zM439 470l-55 -157h-2l-79 94c-5 6 -11 10 -18 5c-17 -12 -28 -30 -43 -58v-270c0 -11 1 -16 15 -25l98 -57v-2h-335v2l49 46c9 8 9 11 9 24v346c0 13 -1 16 -9 25l-49 50v2h222v-128c17 71 59 136 129 136c30 0 53 -13 68 -33z" />
    <glyph glyph-name="rcaron" unicode="&#x159;" horiz-adv-x="428" 
d="M237 642l163 67l1 -2l-163 -174h-2l-163 174l1 2zM439 470l-55 -157h-2l-79 94c-5 6 -11 10 -18 5c-17 -12 -28 -30 -43 -58v-270c0 -11 1 -16 15 -25l98 -57v-2h-335v2l49 46c9 8 9 11 9 24v346c0 13 -1 16 -9 25l-49 50v2h222v-128c17 71 59 136 129 136
c30 0 53 -13 68 -33z" />
    <glyph glyph-name="rcommaaccent" unicode="&#x157;" horiz-adv-x="428" 
d="M228 -115c0 -66 -54 -126 -124 -142l-1 2c30 19 55 48 55 87c0 8 -3 9 -9 10c-32 4 -53 25 -53 59c0 35 26 63 64 63c41 0 68 -30 68 -79zM439 470l-55 -157h-2l-79 94c-5 6 -11 10 -18 5c-17 -12 -28 -30 -43 -58v-270c0 -11 1 -16 15 -25l98 -57v-2h-335v2l49 46
c9 8 9 11 9 24v346c0 13 -1 16 -9 25l-49 50v2h222v-128c17 71 59 136 129 136c30 0 53 -13 68 -33z" />
    <glyph glyph-name="sacute" unicode="&#x15b;" horiz-adv-x="456" 
d="M249 703h160v-2l-237 -165l-2 2zM298 83c0 41 -31 58 -96 88l-68 32c-55 26 -97 71 -97 142c0 95 78 158 205 158c49 0 111 -7 176 -27l-56 -145h-2l-78 139c-6 10 -9 15 -23 15h-14c-44 0 -81 -23 -81 -70c0 -44 33 -65 92 -91l64 -28c62 -27 111 -61 111 -138
c0 -108 -91 -166 -224 -166c-57 0 -127 11 -184 31l55 155h2l80 -155c4 -8 10 -13 21 -13h23c58 0 94 30 94 73z" />
    <glyph glyph-name="scedilla" unicode="&#x15f;" horiz-adv-x="456" 
d="M336 -142c0 -54 -44 -94 -117 -94c-64 0 -123 36 -127 95l2 1c13 -43 57 -58 84 -58c34 0 64 19 64 56s-30 56 -65 56c-12 0 -25 -2 -38 -7l-1 2l70 83h-1c-57 0 -127 11 -184 31l55 155h2l80 -155c4 -8 10 -13 21 -13h23c58 0 94 30 94 73c0 41 -31 58 -96 88l-68 32
c-55 26 -97 71 -97 142c0 95 78 158 205 158c49 0 111 -7 176 -27l-56 -145h-2l-78 139c-6 10 -9 15 -23 15h-14c-44 0 -81 -23 -81 -70c0 -44 33 -65 92 -91l64 -28c62 -27 111 -61 111 -138c0 -106 -88 -164 -218 -166l-7 -52c74 14 130 -28 130 -82z" />
    <glyph glyph-name="scircumflex" unicode="&#x15d;" horiz-adv-x="456" 
d="M400 536l-1 -1l-163 67l-163 -67l-1 1l163 175h2zM298 83c0 41 -31 58 -96 88l-68 32c-55 26 -97 71 -97 142c0 95 78 158 205 158c49 0 111 -7 176 -27l-56 -145h-2l-78 139c-6 10 -9 15 -23 15h-14c-44 0 -81 -23 -81 -70c0 -44 33 -65 92 -91l64 -28
c62 -27 111 -61 111 -138c0 -108 -91 -166 -224 -166c-57 0 -127 11 -184 31l55 155h2l80 -155c4 -8 10 -13 21 -13h23c58 0 94 30 94 73z" />
    <glyph glyph-name="scommaaccent" unicode="&#x219;" horiz-adv-x="456" 
d="M299 -118c0 -66 -54 -126 -124 -142l-1 2c30 19 55 48 55 87c0 8 -3 9 -9 10c-32 4 -53 25 -53 59c0 35 26 63 64 63c41 0 68 -30 68 -79zM298 83c0 41 -31 58 -96 88l-68 32c-55 26 -97 71 -97 142c0 95 78 158 205 158c49 0 111 -7 176 -27l-56 -145h-2l-78 139
c-6 10 -9 15 -23 15h-14c-44 0 -81 -23 -81 -70c0 -44 33 -65 92 -91l64 -28c62 -27 111 -61 111 -138c0 -108 -91 -166 -224 -166c-57 0 -127 11 -184 31l55 155h2l80 -155c4 -8 10 -13 21 -13h23c58 0 94 30 94 73z" />
    <glyph glyph-name="smiley" horiz-adv-x="818" 
d="M409 713c208 0 359 -147 359 -361c0 -203 -142 -362 -359 -362c-220 0 -359 160 -359 362c0 206 160 361 359 361zM71 352c0 -191 131 -342 338 -342c204 0 338 150 338 342c0 202 -142 341 -338 341c-188 0 -338 -147 -338 -341zM680 309l1 -1c-8 -28 -23 -36 -38 -36
c-8 -108 -99 -191 -234 -191s-226 83 -235 191c-15 0 -31 7 -38 36l1 1c8 -10 23 -17 40 -16c19 0 42 10 49 30h2c1 -33 -14 -45 -33 -49c10 -98 92 -171 214 -171c121 0 203 73 213 171c-19 4 -35 16 -33 49h2c7 -20 30 -30 49 -30c17 -1 32 6 40 16zM328 616
c13 0 25 -59 25 -160c0 -97 -12 -154 -25 -154c-15 0 -26 57 -26 154c0 101 11 160 26 160zM465 456c0 101 11 160 26 160c13 0 25 -59 25 -160c0 -97 -12 -154 -25 -154c-15 0 -26 57 -26 154z" />
    <glyph glyph-name="tbar" unicode="&#x167;" horiz-adv-x="350" 
d="M351 351v-19h-123v-191c0 -45 20 -71 53 -71c26 0 47 17 58 37l2 -1c-10 -56 -51 -114 -146 -114c-87 0 -130 47 -130 137v203h-55v19h55v124h-55v20h45c16 0 21 0 31 11l140 157h2v-168h123v-20h-123v-124h123z" />
    <glyph glyph-name="tcaron" unicode="&#x165;" horiz-adv-x="338" 
d="M277 703h114l-121 -195h-2zM346 495v-20h-123v-334c0 -45 20 -71 53 -71c26 0 47 17 58 37l2 -1c-10 -56 -51 -114 -146 -114c-87 0 -130 47 -130 137v346h-55v20h45c16 0 21 0 31 11l140 157h2v-168h123z" />
    <glyph glyph-name="tcommaaccent" unicode="&#x163;" horiz-adv-x="338" 
d="M249 -115c0 -66 -54 -126 -124 -142l-1 2c30 19 55 48 55 87c0 8 -3 9 -9 10c-32 4 -53 25 -53 59c0 35 26 63 64 63c41 0 68 -30 68 -79zM346 495v-20h-123v-334c0 -45 20 -71 53 -71c26 0 47 17 58 37l2 -1c-10 -56 -51 -114 -146 -114c-87 0 -130 47 -130 137v346h-55
v20h45c16 0 21 0 31 11l140 157h2v-168h123z" />
    <glyph glyph-name="ubreve" unicode="&#x16d;" horiz-adv-x="595" 
d="M527 495v-419c0 -13 0 -17 9 -25l50 -49v-2h-223v107c-25 -68 -79 -115 -153 -115c-99 0 -152 72 -152 208c0 66 1 138 2 219c0 13 -1 16 -9 24l-49 50v2h221c0 -3 -1 -259 -1 -272c0 -89 13 -149 69 -149c32 0 55 20 72 45v299c0 13 -1 16 -9 25l-49 50v2h222zM280 617
c73 0 122 33 126 95h2c2 -15 4 -28 4 -42c0 -91 -66 -130 -132 -130c-65 0 -130 39 -130 130c0 14 1 27 4 42h2c3 -62 53 -95 124 -95z" />
    <glyph glyph-name="uhungarumlaut" unicode="&#x171;" horiz-adv-x="595" 
d="M527 495v-419c0 -13 0 -17 9 -25l50 -49v-2h-223v107c-25 -68 -79 -115 -153 -115c-99 0 -152 72 -152 208c0 66 1 138 2 219c0 13 -1 16 -9 24l-49 50v2h221c0 -3 -1 -259 -1 -272c0 -89 13 -149 69 -149c32 0 55 20 72 45v299c0 13 -1 16 -9 25l-49 50v2h222zM231 703
h129v-2l-184 -170h-2zM398 703h129v-2l-184 -170h-2z" />
    <glyph glyph-name="umacron" unicode="&#x16b;" horiz-adv-x="595" 
d="M527 495v-419c0 -13 0 -17 9 -25l50 -49v-2h-223v107c-25 -68 -79 -115 -153 -115c-99 0 -152 72 -152 208c0 66 1 138 2 219c0 13 -1 16 -9 24l-49 50v2h221c0 -3 -1 -259 -1 -272c0 -89 13 -149 69 -149c32 0 55 20 72 45v299c0 13 -1 16 -9 25l-49 50v2h222zM423 592
h-281v20h281v-20z" />
    <glyph glyph-name="uni00AD" unicode="&#xad;" horiz-adv-x="351" 
d="M46 237v20h260v-20h-260z" />
    <glyph glyph-name="uni01B5" unicode="&#x1b5;" horiz-adv-x="627" 
d="M547 346h-142l-190 -326h193c17 0 21 1 27 12l145 235h2v-267h-571v2l200 344h-138v19h149l185 318h-183c-17 0 -21 -1 -27 -12l-143 -236h-2v268h560v-2l-196 -336h131v-19z" />
    <glyph glyph-name="uni01B6" unicode="&#x1b6;" horiz-adv-x="476" 
d="M422 245h-99l-123 -226h95c18 0 19 1 28 15l123 183h3l-12 -217h-424v2l137 243h-85v19h95l120 212h-90c-18 0 -19 -1 -28 -15l-120 -175h-4v209h421v-2l-125 -229h88v-19z" />
    <glyph glyph-name="uni021A" unicode="&#x21a;" horiz-adv-x="634" 
d="M380 -118c0 -66 -54 -126 -124 -142l-1 2c30 19 55 48 55 87c0 8 -3 9 -9 10c-32 4 -53 25 -53 59c0 35 26 63 64 63c41 0 68 -30 68 -79zM407 96c0 -15 1 -17 11 -26l74 -68v-2h-350v2l74 68c9 9 11 11 11 26v587h-57c-16 0 -19 -2 -26 -16l-123 -234h-2v270h596v-270
h-2l-123 234c-7 14 -10 16 -26 16h-57v-587z" />
    <glyph glyph-name="uni021B" unicode="&#x21b;" horiz-adv-x="338" 
d="M249 -115c0 -66 -54 -126 -124 -142l-1 2c30 19 55 48 55 87c0 8 -3 9 -9 10c-32 4 -53 25 -53 59c0 35 26 63 64 63c41 0 68 -30 68 -79zM346 495v-20h-123v-334c0 -45 20 -71 53 -71c26 0 47 17 58 37l2 -1c-10 -56 -51 -114 -146 -114c-87 0 -130 47 -130 137v346h-55
v20h45c16 0 21 0 31 11l140 157h2v-168h123z" />
    <glyph glyph-name="uni02C9" unicode="&#x2c9;" horiz-adv-x="404" 
d="M336 592h-280v20h280v-20z" />
    <glyph glyph-name="uni0394" unicode="&#x394;" horiz-adv-x="668" 
d="M30 0l221 596c8 20 7 25 -6 39l-59 66v2h236l228 -703h-620zM454 20l-184 568l-211 -568h395z" />
    <glyph glyph-name="uni03A9" unicode="&#x3a9;" horiz-adv-x="761" 
d="M381 694c-85 0 -135 -94 -135 -328c0 -156 43 -238 105 -264v-102h-303l-19 233h2l134 -196c11 -17 16 -18 40 -18h126v69c-170 23 -292 152 -292 310c0 195 127 315 342 315s341 -120 341 -315c0 -158 -121 -287 -291 -310v-69h125c24 0 29 1 41 18l133 196h2l-18 -233
h-303v102c61 26 104 108 104 264c0 234 -49 328 -134 328z" />
    <glyph glyph-name="uni03BC" unicode="&#x3bc;" horiz-adv-x="596" 
d="M527 495v-421c0 -13 1 -16 9 -24l50 -48v-2h-223v107c-17 -51 -53 -88 -97 -100c-17 -5 -31 -6 -45 -7v-148c0 -13 1 -16 15 -26l74 -52v-2h-310v2l51 46c8 8 9 11 9 24v577c0 13 -1 16 -9 24l-49 48v2h219v-295c0 -85 15 -132 70 -132c32 0 55 21 72 52v300
c0 13 -1 16 -9 24l-49 49v2h222z" />
    <glyph glyph-name="uni1E8A" unicode="&#x1e8a;" horiz-adv-x="710" 
d="M621 110c10 -15 21 -26 30 -36l65 -72v-2h-340v2l47 61c8 10 9 14 1 26l-123 191l-97 -131c-11 -15 -12 -19 -4 -31l73 -116v-2h-276v2l140 110c21 17 33 26 53 53l99 133l-189 295c-10 15 -21 27 -30 36l-65 72v2h340v-2l-47 -61c-9 -10 -8 -14 -1 -26l112 -175l86 115
c12 15 11 19 4 31l-74 116v2h277v-2l-140 -110c-22 -17 -34 -26 -54 -53l-87 -117zM307 832c0 45 36 73 77 73c42 0 76 -28 76 -73c0 -43 -34 -70 -76 -70c-41 0 -77 27 -77 70z" />
    <glyph glyph-name="uni1E8B" unicode="&#x1e8b;" horiz-adv-x="505" 
d="M308 297l144 -215c10 -14 18 -23 28 -35l39 -45v-2h-273v2l38 46c8 10 6 14 -1 25l-77 114l-62 -77c-11 -14 -12 -16 -3 -30l51 -78v-2h-201v2l106 89c16 13 28 25 42 43l56 69l-139 208c-8 12 -19 26 -30 38l-37 44v2h272v-2l-38 -47c-8 -9 -7 -13 1 -24l73 -109l57 72
c11 14 12 16 3 29l-51 79v2h202v-2l-107 -89c-16 -13 -27 -25 -42 -43zM189 624c0 45 36 73 77 73c42 0 76 -28 76 -73c0 -43 -34 -70 -76 -70c-41 0 -77 27 -77 70z" />
    <glyph glyph-name="uni2153" unicode="&#x2153;" horiz-adv-x="520" 
d="M396 82c0 -48 -54 -87 -146 -87c-43 0 -91 6 -127 19l56 100h2l36 -95c2 -5 6 -8 13 -8h14c28 0 54 23 54 69c0 40 -28 63 -75 67v2c40 7 65 35 65 76c0 36 -16 54 -39 54h-8c-8 0 -12 -2 -15 -8l-46 -93h-2l-48 91c34 14 80 25 131 25c84 0 125 -27 125 -72
c0 -40 -36 -59 -87 -68v-2c58 -3 97 -29 97 -70zM315 718v-257c0 -5 0 -7 6 -10l63 -30v-2h-236v2l63 30c6 3 6 5 6 10v183c0 5 -1 7 -6 8l-68 20v2zM460 361v-19h-400v19h400z" />
    <glyph glyph-name="uni2154" unicode="&#x2154;" horiz-adv-x="520" 
d="M396 82c0 -48 -54 -87 -146 -87c-43 0 -91 6 -127 19l56 100h2l36 -95c2 -5 6 -8 13 -8h14c28 0 54 23 54 69c0 40 -28 63 -75 67v2c40 7 65 35 65 76c0 36 -16 54 -39 54h-8c-8 0 -12 -2 -15 -8l-46 -93h-2l-48 91c34 14 80 25 131 25c84 0 125 -27 125 -72
c0 -40 -36 -59 -87 -68v-2c58 -3 97 -29 97 -70zM60 342v19h400v-19h-400zM388 630c0 -65 -62 -98 -179 -139v-2h112c21 0 24 1 34 9l33 28h2l-18 -107h-250v2c28 26 78 77 84 84c38 43 83 87 83 132c0 42 -16 61 -42 61c-10 0 -17 0 -21 -8l-47 -98h-2l-48 96
c37 16 84 25 134 25c81 0 125 -32 125 -83z" />
    <glyph glyph-name="uni2155" unicode="&#x2155;" horiz-adv-x="520" 
d="M391 92c0 -69 -61 -97 -143 -97c-51 0 -97 9 -125 20l55 96h2l36 -92c2 -6 5 -8 13 -8h12c31 0 53 26 53 69c0 42 -26 70 -81 70c-20 0 -39 -5 -58 -13l-2 1l11 154c52 -4 101 -5 123 -5h26c27 1 42 6 54 17l9 8h2l-6 -44c-5 -37 -26 -46 -62 -47c-14 0 -32 0 -48 1
c-9 0 -60 2 -88 4l-5 -70c32 16 65 26 107 26c73 0 115 -39 115 -90zM315 718v-257c0 -5 0 -7 6 -10l63 -30v-2h-236v2l63 30c6 3 6 5 6 10v183c0 5 -1 7 -6 8l-68 20v2zM60 342v19h400v-19h-400z" />
    <glyph glyph-name="uni2156" unicode="&#x2156;" horiz-adv-x="520" 
d="M391 92c0 -69 -61 -97 -143 -97c-51 0 -97 9 -125 20l55 96h2l36 -92c2 -6 5 -8 13 -8h12c31 0 53 26 53 69c0 42 -26 70 -81 70c-20 0 -39 -5 -58 -13l-2 1l11 154c45 -2 101 -5 123 -5h26c27 1 42 6 54 17l9 8h2l-6 -44c-5 -37 -26 -46 -62 -47c-14 0 -32 0 -48 1
c-9 0 -60 2 -88 4l-5 -70c32 16 65 26 107 26c73 0 115 -39 115 -90zM460 361v-19h-400v19h400zM263 713c81 0 125 -32 125 -83c0 -65 -62 -98 -179 -139v-2h112c21 0 24 1 34 9l33 28h2l-18 -107h-250v2c28 26 78 77 84 84c38 43 83 87 83 132c0 42 -16 61 -42 61
c-10 0 -17 0 -21 -8l-47 -98h-2l-48 96c37 16 84 25 134 25z" />
    <glyph glyph-name="uni2157" unicode="&#x2157;" horiz-adv-x="520" 
d="M378 312l-6 -44c-5 -37 -26 -46 -62 -47c-14 0 -32 0 -48 1c-9 0 -60 2 -88 4l-5 -70c32 16 65 26 107 26c73 0 115 -39 115 -90c0 -69 -61 -97 -143 -97c-51 0 -97 9 -125 20l55 96h2l36 -92c2 -6 5 -8 13 -8h12c31 0 53 26 53 69c0 42 -26 70 -81 70
c-20 0 -39 -5 -58 -13l-2 1l11 154c44 -2 101 -5 123 -5h26c27 1 42 6 54 17l9 8h2zM396 501c0 -48 -54 -87 -146 -87c-43 0 -91 6 -127 19l56 100h2l36 -95c2 -5 6 -8 13 -8h14c28 0 54 23 54 69c0 40 -28 63 -75 67v2c40 7 65 35 65 76c0 36 -16 54 -39 54h-8
c-8 0 -12 -2 -15 -8l-46 -93h-2l-48 91c34 14 80 25 131 25c84 0 125 -27 125 -72c0 -40 -36 -59 -87 -68v-2c58 -3 97 -29 97 -70zM460 361v-19h-400v19h400z" />
    <glyph glyph-name="uni2158" unicode="&#x2158;" horiz-adv-x="520" 
d="M332 708v-203h16c9 0 11 1 15 8l48 81h2l-7 -104h-74v-33c0 -6 1 -7 6 -11l39 -26v-1h-181v1l41 26c5 3 5 5 5 11v33h-141v2l161 216h70zM391 92c0 -69 -61 -97 -143 -97c-51 0 -97 9 -125 20l55 96h2l36 -92c2 -6 5 -8 13 -8h12c31 0 53 26 53 69c0 42 -26 70 -81 70
c-20 0 -39 -5 -58 -13l-2 1l11 154c39 -2 101 -5 123 -5h26c27 1 42 6 54 17l9 8h2l-6 -44c-5 -37 -26 -46 -62 -47c-14 0 -32 0 -48 1c-9 0 -60 2 -88 4l-5 -70c32 16 65 26 107 26c73 0 115 -39 115 -90zM132 505h110v148zM60 342v19h400v-19h-400z" />
    <glyph glyph-name="uni2159" unicode="&#x2159;" horiz-adv-x="520" 
d="M296 181c61 0 102 -33 102 -87c0 -57 -46 -99 -133 -99c-105 0 -145 62 -145 147c0 94 53 152 154 152c41 0 76 -4 112 -14l-42 -84h-2l-51 77c-3 5 -6 6 -12 6h-6c-44 0 -52 -42 -52 -125c23 17 40 27 75 27zM315 718v-257c0 -5 0 -7 6 -10l63 -30v-2h-236v2l63 30
c6 3 6 5 6 10v183c0 5 -1 7 -6 8l-68 20v2zM257 157c-16 0 -23 -4 -36 -14c0 -101 8 -132 44 -132c29 0 42 30 42 77c0 38 -14 69 -50 69zM60 361h400v-19h-400v19z" />
    <glyph glyph-name="uni215A" unicode="&#x215a;" horiz-adv-x="520" 
d="M296 181c61 0 102 -33 102 -87c0 -57 -46 -99 -133 -99c-105 0 -145 62 -145 147c0 94 53 152 154 152c41 0 76 -4 112 -14l-42 -84h-2l-51 77c-3 5 -6 6 -12 6h-6c-44 0 -52 -42 -52 -125c23 17 40 27 75 27zM391 511c0 -69 -61 -97 -143 -97c-51 0 -97 9 -125 20l55 96
h2l36 -92c2 -6 5 -8 13 -8h12c31 0 53 26 53 69c0 42 -26 70 -81 70c-20 0 -39 -5 -58 -13l-2 1l11 154c40 -3 101 -5 123 -5h26c27 1 42 6 54 17l9 8h2l-6 -44c-5 -37 -26 -46 -62 -47c-14 0 -32 0 -48 1c-9 0 -60 2 -88 4l-5 -70c32 16 65 26 107 26c73 0 115 -39 115 -90
zM257 157c-16 0 -23 -4 -36 -14c0 -101 8 -132 44 -132c29 0 42 30 42 77c0 38 -14 69 -50 69zM60 342v19h400v-19h-400z" />
    <glyph glyph-name="uni215B" unicode="&#x215b;" horiz-adv-x="520" 
d="M460 361v-19h-400v19h400zM257 -5c-71 0 -127 32 -127 72c0 33 26 51 74 57c-41 16 -66 45 -66 84c0 50 48 86 121 86c70 0 117 -32 117 -65c0 -35 -25 -51 -73 -55l22 -8c45 -16 71 -42 71 -80c0 -55 -52 -91 -139 -91zM273 97l-61 24c-13 -15 -17 -31 -17 -48
c0 -34 29 -62 70 -63c35 0 56 17 56 40c0 22 -14 34 -48 47zM208 240c0 -23 23 -36 54 -49l33 -14c14 13 18 29 18 46c0 33 -23 56 -55 56c-31 0 -50 -17 -50 -39zM315 718v-257c0 -5 0 -7 6 -10l63 -30v-2h-236v2l63 30c6 3 6 5 6 10v183c0 5 -1 7 -6 8l-68 20v2z" />
    <glyph glyph-name="uni215C" unicode="&#x215c;" horiz-adv-x="520" 
d="M257 -5c-71 0 -127 32 -127 72c0 33 26 51 74 57c-41 16 -66 45 -66 84c0 50 48 86 121 86c70 0 117 -32 117 -65c0 -35 -25 -51 -73 -55l22 -8c45 -16 71 -42 71 -80c0 -55 -52 -91 -139 -91zM395 501c0 -48 -54 -87 -146 -87c-43 0 -91 6 -127 19l56 100h2l36 -95
c2 -5 6 -8 13 -8h14c28 0 54 23 54 69c0 40 -28 63 -75 67v2c40 7 65 35 65 76c0 36 -16 54 -39 54h-8c-8 0 -12 -2 -15 -8l-46 -93h-2l-48 91c34 14 80 25 131 25c84 0 125 -27 125 -72c0 -40 -36 -59 -87 -68v-2c58 -3 97 -29 97 -70zM273 97l-61 24
c-13 -15 -17 -31 -17 -48c0 -34 29 -62 70 -63c35 0 56 17 56 40c0 22 -14 34 -48 47zM208 240c0 -23 23 -36 54 -49l33 -14c14 13 18 29 18 46c0 33 -23 56 -55 56c-31 0 -50 -17 -50 -39zM460 361v-19h-400v19h400z" />
    <glyph glyph-name="uni215D" unicode="&#x215d;" horiz-adv-x="520" 
d="M257 -5c-71 0 -127 32 -127 72c0 33 26 51 74 57c-41 16 -66 45 -66 84c0 50 48 86 121 86c70 0 117 -32 117 -65c0 -35 -25 -51 -73 -55l22 -8c45 -16 71 -42 71 -80c0 -55 -52 -91 -139 -91zM391 511c0 -69 -61 -97 -143 -97c-51 0 -97 9 -125 20l55 96h2l36 -92
c2 -6 5 -8 13 -8h12c31 0 53 26 53 69c0 42 -26 70 -81 70c-20 0 -39 -5 -58 -13l-2 1l11 154c30 -2 101 -5 123 -5h26c27 1 42 6 54 17l9 8h2l-6 -44c-5 -37 -26 -46 -62 -47c-14 0 -32 0 -48 1c-9 0 -60 2 -88 4l-5 -70c32 16 65 26 107 26c73 0 115 -39 115 -90zM273 97
l-61 24c-13 -15 -17 -31 -17 -48c0 -34 29 -62 70 -63c35 0 56 17 56 40c0 22 -14 34 -48 47zM208 240c0 -23 23 -36 54 -49l33 -14c14 13 18 29 18 46c0 33 -23 56 -55 56c-31 0 -50 -17 -50 -39zM60 342v19h400v-19h-400z" />
    <glyph glyph-name="uni215E" unicode="&#x215e;" horiz-adv-x="520" 
d="M460 361v-19h-400v19h400zM257 -5c-71 0 -127 32 -127 72c0 33 26 51 74 57c-41 16 -66 45 -66 84c0 50 48 86 121 86c70 0 117 -32 117 -65c0 -35 -25 -51 -73 -55l22 -8c45 -16 71 -42 71 -80c0 -55 -52 -91 -139 -91zM273 97l-61 24c-13 -15 -17 -31 -17 -48
c0 -34 29 -62 70 -63c35 0 56 17 56 40c0 22 -14 34 -48 47zM208 240c0 -23 23 -36 54 -49l33 -14c14 13 18 29 18 46c0 33 -23 56 -55 56c-31 0 -50 -17 -50 -39zM300 419h-124c54 89 128 176 172 225h-148c-18 0 -24 -2 -33 -10l-26 -24h-1l14 98h260l-39 -51
c-5 -6 -8 -10 -11 -19c-23 -66 -45 -137 -64 -219z" />
    <glyph glyph-name="uni2190" unicode="&#x2190;" horiz-adv-x="706" 
d="M651 239h-556l226 -226l-15 -15l-251 251l251 251l16 -14l-227 -226h556v-21z" />
    <glyph glyph-name="uni2191" unicode="&#x2191;" horiz-adv-x="612" 
d="M316 -49h-21v556l-226 -227l-14 16l251 251l251 -251l-15 -15l-226 226v-556z" />
    <glyph glyph-name="uni2192" unicode="&#x2192;" horiz-adv-x="706" 
d="M55 260h556l-227 226l16 14l251 -251l-251 -251l-15 15l226 226h-556v21z" />
    <glyph glyph-name="uni2193" unicode="&#x2193;" horiz-adv-x="612" 
d="M295 530h21v-556l226 226l15 -15l-251 -251l-251 251l14 16l226 -227v556z" />
    <glyph glyph-name="uni2196" unicode="&#x2196;" horiz-adv-x="539" 
d="M469 31l-393 393v-319h-21v355h355v-21h-319l393 -394z" />
    <glyph glyph-name="uni2197" unicode="&#x2197;" horiz-adv-x="539" 
d="M484 105h-21v318l-393 -392l-15 14l394 394h-320v21h355v-355z" />
    <glyph glyph-name="uni2198" unicode="&#x2198;" horiz-adv-x="539" 
d="M55 446l15 14l393 -393v319h21v-355h-355v21h319z" />
    <glyph glyph-name="uni2199" unicode="&#x2199;" horiz-adv-x="539" 
d="M410 52v-21h-355v355h21v-320l393 394l15 -14l-392 -394h318z" />
    <glyph glyph-name="uni2215" unicode="&#x2215;" horiz-adv-x="48" 
d="M293 701l-503 -711l-16 13l503 710z" />
    <glyph glyph-name="uni2219" unicode="&#x2219;" horiz-adv-x="242" 
d="M41 422c0 47 36 79 80 79s80 -32 80 -79c0 -44 -36 -76 -80 -76s-80 32 -80 76z" />
    <glyph glyph-name="uogonek" unicode="&#x173;" horiz-adv-x="595" 
d="M351 -236c-56 0 -109 36 -109 102c0 62 54 119 121 134v107c-25 -68 -79 -115 -153 -115c-99 0 -152 72 -152 208c0 66 1 138 2 219c0 13 -1 16 -9 24l-49 50v2h221c0 -3 -1 -259 -1 -272c0 -89 13 -149 69 -149c32 0 55 20 72 45v299c0 13 -1 16 -9 25l-49 50v2h222
v-419c0 -13 0 -17 9 -25l50 -49v-2h-200c-39 -13 -63 -50 -63 -102c0 -51 31 -78 73 -78c27 0 59 13 80 45l2 -1c-17 -53 -56 -100 -127 -100z" />
    <glyph glyph-name="uring" unicode="&#x16f;" horiz-adv-x="595" 
d="M379 631c0 -53 -41 -92 -95 -92c-49 0 -95 41 -95 92c0 53 40 94 94 94c55 0 96 -38 96 -94zM358 632c0 43 -31 73 -75 73c-42 0 -73 -31 -73 -73c0 -41 35 -73 74 -73c43 0 74 31 74 73zM527 495v-419c0 -13 0 -17 9 -25l50 -49v-2h-223v107c-25 -68 -79 -115 -153 -115
c-99 0 -152 72 -152 208c0 66 1 138 2 219c0 13 -1 16 -9 24l-49 50v2h221c0 -3 -1 -259 -1 -272c0 -89 13 -149 69 -149c32 0 55 20 72 45v299c0 13 -1 16 -9 25l-49 50v2h222z" />
    <glyph glyph-name="utilde" unicode="&#x169;" horiz-adv-x="595" 
d="M527 495v-419c0 -13 0 -17 9 -25l50 -49v-2h-223v107c-25 -68 -79 -115 -153 -115c-99 0 -152 72 -152 208c0 66 1 138 2 219c0 13 -1 16 -9 24l-49 50v2h221c0 -3 -1 -259 -1 -272c0 -89 13 -149 69 -149c32 0 55 20 72 45v299c0 13 -1 16 -9 25l-49 50v2h222zM347 562
c-52 0 -96 49 -141 49c-28 0 -52 -12 -64 -49h-2v24c0 62 36 102 84 102c52 0 96 -49 141 -49c27 0 52 12 65 49h2c0 -8 0 -17 -1 -25c-3 -62 -36 -101 -84 -101z" />
    <glyph glyph-name="wacute" unicode="&#x1e83;" horiz-adv-x="773" 
d="M428 703h160v-2l-237 -165l-2 2zM793 493l-68 -117c-12 -20 -16 -27 -22 -45l-114 -331h-112l-96 278l-96 -278h-113l-129 380c-8 23 -12 36 -21 53l-31 60v2h249v-2l-34 -57c-6 -10 -7 -13 -3 -25l99 -303l69 200l-24 72c-8 24 -12 35 -21 53l-31 60v2h249v-2l-34 -57
c-6 -10 -7 -13 -3 -25l100 -302l76 225c7 19 5 22 -3 38l-58 121v2h171v-2z" />
    <glyph glyph-name="wcircumflex" unicode="&#x175;" horiz-adv-x="773" 
d="M579 536l-1 -1l-163 67l-163 -67l-1 1l163 175h2zM793 493l-68 -117c-12 -20 -16 -27 -22 -45l-114 -331h-112l-96 278l-96 -278h-113l-129 380c-8 23 -12 36 -21 53l-31 60v2h249v-2l-34 -57c-6 -10 -7 -13 -3 -25l99 -303l69 200l-24 72c-8 24 -12 35 -21 53l-31 60v2
h249v-2l-34 -57c-6 -10 -7 -13 -3 -25l100 -302l76 225c7 19 5 22 -3 38l-58 121v2h171v-2z" />
    <glyph glyph-name="wdieresis" unicode="&#x1e85;" horiz-adv-x="773" 
d="M247 621c0 39 31 67 69 67c37 0 68 -28 68 -67c0 -38 -31 -66 -68 -66c-38 0 -69 28 -69 66zM446 621c0 39 31 67 68 67c38 0 69 -28 69 -67c0 -38 -31 -66 -69 -66c-37 0 -68 28 -68 66zM793 493l-68 -117c-12 -20 -16 -27 -22 -45l-114 -331h-112l-96 278l-96 -278
h-113l-129 380c-8 23 -12 36 -21 53l-31 60v2h249v-2l-34 -57c-6 -10 -7 -13 -3 -25l99 -303l69 200l-24 72c-8 24 -12 35 -21 53l-31 60v2h249v-2l-34 -57c-6 -10 -7 -13 -3 -25l100 -302l76 225c7 19 5 22 -3 38l-58 121v2h171v-2z" />
    <glyph glyph-name="wgrave" unicode="&#x1e81;" horiz-adv-x="773" 
d="M793 493l-68 -117c-12 -20 -16 -27 -22 -45l-114 -331h-112l-96 278l-96 -278h-113l-129 380c-8 23 -12 36 -21 53l-31 60v2h249v-2l-34 -57c-6 -10 -7 -13 -3 -25l99 -303l69 200l-24 72c-8 24 -12 35 -21 53l-31 60v2h249v-2l-34 -57c-6 -10 -7 -13 -3 -25l100 -302
l76 225c7 19 5 22 -3 38l-58 121v2h171v-2zM245 703h160l79 -165l-1 -1l-238 164v2z" />
    <glyph glyph-name="ycircumflex" unicode="&#x177;" horiz-adv-x="476" 
d="M408 329l-128 -310c-23 -54 -53 -114 -86 -166c-41 -64 -79 -89 -139 -89c-15 0 -31 3 -47 10l37 175h2l99 -98c5 -5 8 -8 12 -8c5 0 9 3 15 12c13 18 28 46 38 69l6 16l-186 472c-5 13 -10 23 -15 33l-27 48v2h259v-2l-40 -55c-5 -7 -7 -11 -2 -23l101 -280l81 197
c7 17 8 21 0 37l-61 124v2h171v-2l-65 -112c-12 -20 -17 -32 -25 -52zM429 536l-1 -1l-163 67l-163 -67l-1 1l163 175h2z" />
    <glyph glyph-name="ygrave" unicode="&#x1ef3;" horiz-adv-x="476" 
d="M408 329l-128 -310c-23 -54 -53 -114 -86 -166c-41 -64 -79 -89 -139 -89c-15 0 -31 3 -47 10l37 175h2l99 -98c5 -5 8 -8 12 -8c5 0 9 3 15 12c13 18 28 46 38 69l6 16l-186 472c-5 13 -10 23 -15 33l-27 48v2h259v-2l-40 -55c-5 -7 -7 -11 -2 -23l101 -280l81 197
c7 17 8 21 0 37l-61 124v2h171v-2l-65 -112c-12 -20 -17 -32 -25 -52zM95 703h160l79 -165l-1 -1l-238 164v2z" />
    <glyph glyph-name="zacute" unicode="&#x17a;" horiz-adv-x="475" 
d="M265 703h160v-2l-237 -165l-2 2zM446 217h3l-12 -217h-424v2l267 474h-90c-18 0 -19 -1 -28 -15l-120 -175h-4v209h421v-2l-259 -474h95c18 0 19 1 28 15z" />
    <glyph glyph-name="zdotaccent" unicode="&#x17c;" horiz-adv-x="475" 
d="M446 217h3l-12 -217h-424v2l267 474h-90c-18 0 -19 -1 -28 -15l-120 -175h-4v209h421v-2l-259 -474h95c18 0 19 1 28 15zM174 624c0 45 36 73 77 73c42 0 76 -28 76 -73c0 -43 -34 -70 -76 -70c-41 0 -77 27 -77 70z" />
    <glyph glyph-name="backslash.case" horiz-adv-x="380" 
d="M329 -95l-297 886l19 6l297 -886z" />
    <glyph glyph-name="bar.case" horiz-adv-x="220" 
d="M120 -192h-20v1000h20v-1000z" />
    <glyph glyph-name="braceleft.case" horiz-adv-x="353" 
d="M228 455c4 -57 -35 -97 -100 -110v-1c65 -13 104 -52 100 -109l-13 -175c-4 -60 26 -143 128 -141v-2c-20 -4 -42 -7 -64 -7c-91 0 -188 54 -179 176l14 182c3 39 -32 70 -79 76v1c47 6 82 37 79 76l-14 182c-9 122 88 176 179 176c22 0 44 -3 64 -7v-2
c-102 3 -132 -81 -128 -140z" />
    <glyph glyph-name="braceright.case" horiz-adv-x="353" 
d="M253 603l-14 -182c-3 -39 32 -70 79 -76v-1c-47 -6 -82 -37 -79 -76l14 -182c9 -122 -88 -176 -179 -176c-22 0 -44 3 -64 7v2c102 -2 132 81 128 141l-13 175c-4 57 35 96 100 109v1c-65 13 -104 53 -100 110l13 175c4 59 -26 143 -128 140v2c20 4 42 7 64 7
c91 0 188 -54 179 -176z" />
    <glyph glyph-name="bracketleft.case" horiz-adv-x="364" 
d="M188 693v-697c0 -12 1 -14 12 -17l154 -53v-2l-274 -12v865l274 -12v-2l-154 -53c-11 -3 -12 -5 -12 -17z" />
    <glyph glyph-name="bracketright.case" horiz-adv-x="364" 
d="M177 -4v697c0 12 -1 14 -12 17l-155 53v2l274 12v-865l-274 12v2l155 53c11 3 12 5 12 17z" />
    <glyph glyph-name="emdash.case" horiz-adv-x="1000" 
d="M995 332h-990v19h990v-19z" />
    <glyph glyph-name="endash.case" horiz-adv-x="500" 
d="M495 332h-490v19h490v-19z" />
    <glyph glyph-name="exclamdown.case" horiz-adv-x="306" 
d="M35 0l116 484h2l118 -484h-236zM72 635c0 45 37 76 80 76c45 0 81 -31 81 -76c0 -47 -36 -79 -81 -79c-43 0 -80 32 -80 79z" />
    <glyph glyph-name="guillemotleft.case" horiz-adv-x="466" 
d="M250 111l-223 229v2l223 230l2 -1l-92 -230l92 -229zM437 111l-223 229v2l223 230l2 -1l-92 -230l92 -229z" />
    <glyph glyph-name="guillemotright.case" horiz-adv-x="466" 
d="M439 340l-223 -229l-2 1l92 229l-92 230l2 1l223 -230v-2zM252 340l-223 -229l-2 1l92 229l-92 230l2 1l223 -230v-2z" />
    <glyph glyph-name="guilsinglleft.case" horiz-adv-x="279" 
d="M27 342l223 230l2 -1l-92 -230l92 -229l-2 -1l-223 229v2z" />
    <glyph glyph-name="guilsinglright.case" horiz-adv-x="279" 
d="M252 340l-223 -229l-2 1l92 229l-92 230l2 1l223 -230v-2z" />
    <glyph glyph-name="hyphen.case" horiz-adv-x="351" 
d="M46 332v20h260v-20h-260z" />
    <glyph glyph-name="parenleft.case" horiz-adv-x="340" 
d="M54 344c0 175 60 295 144 374c36 34 84 59 131 72l1 -2c-35 -29 -62 -66 -82 -107c-52 -106 -70 -209 -70 -337s18 -231 70 -337c20 -41 47 -78 82 -107l-1 -2c-47 13 -95 38 -131 72c-84 79 -144 199 -144 374z" />
    <glyph glyph-name="parenright.case" horiz-adv-x="340" 
d="M286 344c0 -175 -58 -297 -143 -374c-37 -34 -85 -59 -132 -72l-1 2c35 29 62 66 82 107c52 106 70 209 70 337s-18 231 -70 337c-20 41 -47 78 -82 107l1 2c47 -13 95 -38 132 -72c85 -77 143 -199 143 -374z" />
    <glyph glyph-name="questiondown.case" horiz-adv-x="489" 
d="M251 472l2 1c58 -19 88 -56 88 -100c0 -38 -24 -68 -52 -97c-12 -12 -47 -46 -59 -59c-27 -30 -44 -60 -44 -102c0 -63 40 -104 87 -104h13c14 0 23 5 28 16l86 202h2l78 -181c-67 -31 -160 -57 -240 -57c-145 0 -224 64 -224 161c0 60 36 104 79 139c29 23 94 68 113 84
c35 29 45 49 43 97zM346 636c0 -47 -36 -79 -79 -79c-45 0 -81 32 -81 79c0 45 36 76 81 76c43 0 79 -31 79 -76z" />
    <glyph glyph-name="slash.case" horiz-adv-x="380" 
d="M348 791l-297 -886l-19 6l297 886z" />
    <glyph glyph-name="braceleft.salt" horiz-adv-x="245" 
d="M143 220c0 -12 -3 -25 -7 -39l-44 -155c-7 -23 -10 -43 -10 -60c0 -64 40 -89 98 -89c16 0 34 2 52 6l3 -17c-18 -4 -36 -6 -53 -6c-69 0 -120 31 -120 107c0 19 4 41 11 65l44 149c4 13 7 26 7 39c0 34 -20 63 -89 63v20c69 0 89 30 89 64c0 13 -3 26 -7 39l-44 149
c-7 24 -11 46 -11 65c0 76 51 107 120 107c17 0 35 -3 53 -7l-3 -17c-18 4 -36 6 -52 6c-58 0 -98 -24 -98 -88c0 -17 3 -37 10 -60l44 -155c4 -14 7 -27 7 -39c0 -39 -23 -68 -62 -73v-1c39 -6 62 -34 62 -73z" />
    <glyph glyph-name="braceright.salt" horiz-adv-x="245" 
d="M102 367c0 12 3 25 7 39l44 155c7 23 10 43 10 60c0 64 -40 88 -98 88c-16 0 -34 -2 -52 -6l-3 17c18 4 36 7 53 7c69 0 120 -31 120 -107c0 -19 -4 -41 -11 -65l-44 -149c-4 -13 -7 -26 -7 -39c0 -34 20 -64 89 -64v-20c-69 0 -89 -29 -89 -63c0 -13 3 -26 7 -39
l44 -149c7 -24 11 -46 11 -65c0 -76 -51 -107 -120 -107c-17 0 -35 2 -53 6l3 17c18 -4 36 -6 52 -6c58 0 98 25 98 89c0 17 -3 37 -10 60l-44 155c-4 14 -7 27 -7 39c0 39 23 67 62 73v1c-39 5 -62 34 -62 73z" />
    <glyph glyph-name="bracketleft.salt" horiz-adv-x="257" 
d="M247 -118v-19h-167v859h167v-19h-147v-821h147z" />
    <glyph glyph-name="bracketright.salt" horiz-adv-x="257" 
d="M177 722v-859h-167v19h147v821h-147v19h167z" />
    <glyph glyph-name="guillemotleft.salt" horiz-adv-x="424" 
d="M27 252l196 230l14 -13l-184 -217l184 -217l-14 -13zM187 252l196 230l14 -13l-184 -217l184 -217l-14 -13z" />
    <glyph glyph-name="guillemotright.salt" horiz-adv-x="424" 
d="M397 252l-196 -230l-14 13l184 217l-184 217l14 13zM237 252l-196 -230l-14 13l184 217l-184 217l14 13z" />
    <glyph glyph-name="guilsinglleft.salt" horiz-adv-x="264" 
d="M27 252l196 230l14 -13l-184 -217l184 -217l-14 -13z" />
    <glyph glyph-name="guilsinglright.salt" horiz-adv-x="264" 
d="M41 482l196 -230l-196 -230l-14 13l184 217l-184 217z" />
    <glyph glyph-name="parenleft.salt" horiz-adv-x="278" 
d="M54 291c0 161 66 348 203 445l11 -15c-130 -94 -194 -271 -194 -430c0 -158 64 -335 194 -429l-11 -15c-137 97 -203 284 -203 444z" />
    <glyph glyph-name="parenright.salt" horiz-adv-x="278" 
d="M223 291c0 -160 -66 -347 -203 -444l-11 15c130 94 194 271 194 429c0 159 -64 336 -194 430l11 15c137 -97 203 -284 203 -445z" />
    <glyph glyph-name="braceleft.salt.case" horiz-adv-x="245" 
d="M35 335v20c69 0 89 30 89 64c0 13 -3 26 -7 39l-44 149c-7 24 -11 46 -11 65c0 76 51 107 120 107c17 0 35 -3 53 -7l-3 -17c-18 4 -36 6 -52 6c-58 0 -98 -24 -98 -88c0 -17 3 -37 10 -60l44 -155c4 -14 7 -28 7 -39c0 -39 -23 -68 -62 -73v-1c39 -6 62 -34 62 -73
c0 -12 -3 -25 -7 -39l-44 -155c-7 -23 -10 -43 -10 -60c0 -64 40 -89 98 -89c16 0 34 2 52 6l3 -17c-18 -5 -36 -6 -53 -6c-69 0 -120 31 -120 107c0 19 4 41 11 65l44 149c4 13 7 26 7 39c0 34 -20 63 -89 63z" />
    <glyph glyph-name="braceright.salt.case" horiz-adv-x="245" 
d="M210 355v-20c-69 0 -89 -29 -89 -63c0 -13 3 -26 7 -39l44 -149c7 -24 11 -46 11 -65c0 -76 -51 -107 -120 -107c-17 0 -35 1 -53 6l3 17c18 -4 36 -6 52 -6c58 0 98 25 98 89c0 17 -3 37 -10 60l-44 155c-4 14 -7 27 -7 39c0 39 23 67 62 73v1c-39 5 -62 34 -62 73
c0 11 3 25 7 39l44 155c7 23 10 43 10 60c0 64 -40 88 -98 88c-16 0 -34 -2 -52 -6l-3 17c18 4 36 7 53 7c69 0 120 -31 120 -107c0 -19 -4 -41 -11 -65l-44 -149c-4 -13 -7 -26 -7 -39c0 -34 20 -64 89 -64z" />
    <glyph glyph-name="bracketleft.salt.case" horiz-adv-x="257" 
d="M247 -68v-19h-167v859h167v-19h-147v-821h147z" />
    <glyph glyph-name="bracketright.salt.case" horiz-adv-x="257" 
d="M10 -87v19h147v821h-147v19h167v-859h-167z" />
    <glyph glyph-name="guillemotleft.salt.case" horiz-adv-x="424" 
d="M27 342l196 230l14 -13l-184 -217l184 -217l-14 -13zM187 342l196 230l14 -13l-184 -217l184 -217l-14 -13z" />
    <glyph glyph-name="guillemotright.salt.case" horiz-adv-x="424" 
d="M397 342l-196 -230l-14 13l184 217l-184 217l14 13zM237 342l-196 -230l-14 13l184 217l-184 217l14 13z" />
    <glyph glyph-name="guilsinglleft.salt.case" horiz-adv-x="264" 
d="M27 342l196 230l14 -13l-184 -217l184 -217l-14 -13z" />
    <glyph glyph-name="guilsinglright.salt.case" horiz-adv-x="264" 
d="M41 572l196 -230l-196 -230l-14 13l184 217l-184 217z" />
    <glyph glyph-name="parenleft.salt.case" horiz-adv-x="278" 
d="M54 343c0 161 66 348 203 445l11 -15c-130 -94 -194 -271 -194 -430c0 -158 64 -335 194 -429l-11 -15c-137 97 -203 284 -203 444z" />
    <glyph glyph-name="parenright.salt.case" horiz-adv-x="278" 
d="M223 343c0 -160 -66 -347 -203 -444l-11 15c130 94 194 271 194 429c0 159 -64 336 -194 430l11 15c137 -97 203 -284 203 -445z" />
    <glyph glyph-name="eight.subs" horiz-adv-x="312" 
d="M153 -5c-71 0 -127 32 -127 72c0 33 26 51 74 57c-41 16 -66 45 -66 84c0 50 48 86 121 86c70 0 117 -32 117 -65c0 -35 -25 -51 -73 -55l22 -8c45 -16 71 -42 71 -80c0 -55 -52 -91 -139 -91zM169 97l-61 24c-13 -15 -17 -31 -17 -48c0 -34 29 -62 70 -63
c35 0 56 17 56 40c0 22 -14 34 -48 47zM104 240c0 -23 23 -36 54 -49l33 -14c14 13 18 29 18 46c0 33 -23 56 -55 56c-31 0 -50 -17 -50 -39z" />
    <glyph glyph-name="five.subs" horiz-adv-x="312" 
d="M286 92c0 -69 -61 -97 -143 -97c-51 0 -97 9 -125 20l55 96h2l36 -92c2 -6 5 -8 13 -8h12c31 0 53 26 53 69c0 42 -26 70 -81 70c-20 0 -39 -5 -58 -13l-2 1l11 154c28 -2 101 -5 123 -5h26c27 1 42 6 54 17l9 8h2l-6 -44c-5 -37 -26 -46 -62 -47c-14 0 -32 0 -48 1
c-9 0 -60 2 -88 4l-5 -70c32 16 65 26 107 26c73 0 115 -39 115 -90z" />
    <glyph glyph-name="four.subs" horiz-adv-x="312" 
d="M309 175l-7 -104h-74v-33c0 -6 1 -7 6 -11l39 -26v-1h-181v1l41 26c5 3 5 5 5 11v33h-141v2l161 216h70v-203h16c9 0 11 1 15 8l48 81h2zM28 86h110v148z" />
    <glyph glyph-name="nine.subs" horiz-adv-x="312" 
d="M121 108c-59 0 -102 33 -102 87c0 58 46 99 133 99c106 0 145 -62 145 -147c0 -93 -53 -152 -154 -152c-41 0 -76 4 -112 15l42 83h2l51 -77c3 -4 5 -5 11 -5h7c43 0 51 41 52 124c-23 -17 -41 -27 -75 -27zM160 133c15 0 23 3 36 12c0 101 -8 134 -44 134
c-29 0 -42 -31 -42 -77c0 -38 14 -69 50 -69z" />
    <glyph glyph-name="one.subs" horiz-adv-x="266" 
d="M260 2v-2h-236v2l63 30c6 3 6 5 6 10v183c0 5 -1 7 -6 8l-68 20v2l172 44v-257c0 -5 0 -7 6 -10z" />
    <glyph glyph-name="parenleft.subs" horiz-adv-x="210" 
d="M123 146c0 -88 21 -154 77 -204l-1 -2c-119 36 -169 111 -169 206c0 94 50 170 169 205l1 -1c-56 -50 -77 -117 -77 -204z" />
    <glyph glyph-name="parenright.subs" horiz-adv-x="210" 
d="M87 146c0 87 -21 154 -77 204l1 1c119 -35 169 -111 169 -205c0 -95 -50 -170 -169 -206l-1 2c56 50 77 116 77 204z" />
    <glyph glyph-name="seven.subs" horiz-adv-x="312" 
d="M191 0h-124c54 89 128 176 172 225h-148c-18 0 -24 -2 -33 -10l-26 -24h-1l14 98h260l-39 -51c-5 -6 -8 -10 -11 -19c-23 -66 -45 -137 -64 -219z" />
    <glyph glyph-name="six.subs" horiz-adv-x="312" 
d="M193 181c61 0 102 -33 102 -87c0 -57 -46 -99 -133 -99c-105 0 -145 62 -145 147c0 94 53 152 154 152c41 0 76 -4 112 -14l-42 -84h-2l-51 77c-3 5 -6 6 -12 6h-6c-44 0 -52 -42 -52 -125c23 17 40 27 75 27zM154 157c-16 0 -23 -4 -36 -14c0 -101 8 -132 44 -132
c29 0 42 30 42 77c0 38 -14 69 -50 69z" />
    <glyph glyph-name="three.subs" horiz-adv-x="312" 
d="M291 82c0 -48 -54 -87 -146 -87c-43 0 -91 6 -127 19l56 100h2l36 -95c2 -5 6 -8 13 -8h14c28 0 54 23 54 69c0 40 -28 63 -75 67v2c40 7 65 35 65 76c0 36 -16 54 -39 54h-8c-8 0 -12 -2 -15 -8l-46 -93h-2l-48 91c34 14 80 25 131 25c84 0 125 -27 125 -72
c0 -40 -36 -59 -87 -68v-2c58 -3 97 -29 97 -70z" />
    <glyph glyph-name="two.subs" horiz-adv-x="312" 
d="M158 294c81 0 125 -32 125 -83c0 -65 -62 -98 -179 -139v-2h112c21 0 24 1 34 9l33 28h2l-18 -107h-250v2c28 26 78 77 84 84c38 43 83 87 83 132c0 42 -16 61 -42 61c-10 0 -17 0 -21 -8l-47 -98h-2l-48 96c37 16 84 25 134 25z" />
    <glyph glyph-name="zero.subs" horiz-adv-x="312" 
d="M155 279c-36 0 -41 -41 -41 -134s5 -135 41 -135c37 0 43 42 43 134c0 94 -6 135 -43 135zM155 294c100 0 144 -59 144 -150c0 -89 -44 -149 -144 -149c-98 0 -142 60 -142 150c0 89 44 149 142 149z" />
    <glyph glyph-name="eight.sups" horiz-adv-x="312" 
d="M153 414c-71 0 -127 32 -127 72c0 33 26 51 74 57c-41 16 -66 45 -66 84c0 50 48 86 121 86c70 0 117 -32 117 -65c0 -35 -25 -51 -73 -55l22 -8c45 -16 71 -42 71 -80c0 -55 -52 -91 -139 -91zM169 516l-61 24c-13 -15 -17 -31 -17 -48c0 -34 29 -62 70 -63
c35 0 56 17 56 40c0 22 -14 34 -48 47zM104 659c0 -23 23 -36 54 -49l33 -14c14 13 18 29 18 46c0 33 -23 56 -55 56c-31 0 -50 -17 -50 -39z" />
    <glyph glyph-name="five.sups" horiz-adv-x="312" 
d="M286 511c0 -69 -61 -97 -143 -97c-51 0 -97 9 -125 20l55 96h2l36 -92c2 -6 5 -8 13 -8h12c31 0 53 26 53 69c0 42 -26 70 -81 70c-20 0 -39 -5 -58 -13l-2 1l11 154c28 -2 101 -5 123 -5h26c27 1 42 6 54 17l9 8h2l-6 -44c-5 -37 -26 -46 -62 -47c-14 0 -32 0 -48 1
c-9 0 -60 2 -88 4l-5 -70c32 16 65 26 107 26c73 0 115 -39 115 -90z" />
    <glyph glyph-name="four.sups" horiz-adv-x="312" 
d="M309 594l-7 -104h-74v-33c0 -6 1 -7 6 -11l39 -26v-1h-181v1l41 26c5 3 5 5 5 11v33h-141v2l161 216h70v-203h16c9 0 11 1 15 8l48 81h2zM28 505h110v148z" />
    <glyph glyph-name="nine.sups" horiz-adv-x="312" 
d="M122 527c-59 0 -102 33 -102 87c0 58 46 99 133 99c106 0 145 -62 145 -147c0 -93 -53 -152 -154 -152c-41 0 -76 4 -112 15l42 83h2l51 -77c3 -4 5 -5 11 -5h7c43 0 51 41 52 124c-23 -17 -41 -27 -75 -27zM161 552c15 0 23 3 36 12c0 101 -8 134 -44 134
c-29 0 -42 -31 -42 -77c0 -38 14 -69 50 -69z" />
    <glyph glyph-name="one.sups" horiz-adv-x="266" 
d="M260 421v-2h-236v2l63 30c6 3 6 5 6 10v183c0 5 -1 7 -6 8l-68 20v2l172 44v-257c0 -5 0 -7 6 -10z" />
    <glyph glyph-name="parenleft.sups" horiz-adv-x="210" 
d="M123 559c0 -88 21 -154 77 -204l-1 -2c-119 36 -169 111 -169 206c0 94 50 170 169 205l1 -1c-56 -50 -77 -117 -77 -204z" />
    <glyph glyph-name="parenright.sups" horiz-adv-x="210" 
d="M87 559c0 87 -21 154 -77 204l1 1c119 -35 169 -111 169 -205c0 -95 -50 -170 -169 -206l-1 2c56 50 77 116 77 204z" />
    <glyph glyph-name="seven.sups" horiz-adv-x="312" 
d="M191 419h-124c54 89 128 176 172 225h-148c-18 0 -24 -2 -33 -10l-26 -24h-1l14 98h260l-39 -51c-5 -6 -8 -10 -11 -19c-23 -66 -45 -137 -64 -219z" />
    <glyph glyph-name="six.sups" horiz-adv-x="312" 
d="M190 600c61 0 102 -33 102 -87c0 -57 -46 -99 -133 -99c-105 0 -145 62 -145 147c0 94 53 152 154 152c41 0 76 -4 112 -14l-42 -84h-2l-51 77c-3 5 -6 6 -12 6h-6c-44 0 -52 -42 -52 -125c23 17 40 27 75 27zM151 576c-16 0 -23 -4 -36 -14c0 -101 8 -132 44 -132
c29 0 42 30 42 77c0 38 -14 69 -50 69z" />
    <glyph glyph-name="three.sups" horiz-adv-x="312" 
d="M291 501c0 -48 -54 -87 -146 -87c-43 0 -91 6 -127 19l56 100h2l36 -95c2 -5 6 -8 13 -8h14c28 0 54 23 54 69c0 40 -28 63 -75 67v2c40 7 65 35 65 76c0 36 -16 54 -39 54h-8c-8 0 -12 -2 -15 -8l-46 -93h-2l-48 91c34 14 80 25 131 25c84 0 125 -27 125 -72
c0 -40 -36 -59 -87 -68v-2c58 -3 97 -29 97 -70z" />
    <glyph glyph-name="two.sups" horiz-adv-x="312" 
d="M158 713c81 0 125 -32 125 -83c0 -65 -62 -98 -179 -139v-2h112c21 0 24 1 34 9l33 28h2l-18 -107h-250v2c28 26 78 77 84 84c38 43 83 87 83 132c0 42 -16 61 -42 61c-10 0 -17 0 -21 -8l-47 -98h-2l-48 96c37 16 84 25 134 25z" />
    <glyph glyph-name="zero.sups" horiz-adv-x="312" 
d="M155 698c-36 0 -41 -41 -41 -134s5 -135 41 -135c37 0 43 42 43 134c0 94 -6 135 -43 135zM155 713c100 0 144 -59 144 -150c0 -89 -44 -149 -144 -149c-98 0 -142 60 -142 150c0 89 44 149 142 149z" />
    <glyph glyph-name="i.trk" horiz-adv-x="310" 
d="M157 550c-43 0 -80 29 -80 74c0 48 37 78 80 78c45 0 81 -30 81 -78c0 -45 -36 -74 -81 -74zM242 495v-423c0 -13 0 -16 9 -24l49 -46v-2h-280v2l49 46c9 8 9 11 9 24v346c0 13 -1 16 -9 25l-49 50v2h222z" />
    </font>
</defs>
</svg>
